<svg width="233" height="211" viewBox="0 0 233 211" fill="none" xmlns="http://www.w3.org/2000/svg">
<path d="M140.683 42.6183C134.976 43.5195 134.976 50.7289 134.976 59.6905C134.976 60.091 134.976 60.5917 134.976 60.9922C135.376 68.3017 131.871 97.2894 140.383 97.2894C147.191 97.2894 148.093 87.3765 148.493 82.2198C148.493 82.0196 148.593 81.7192 148.593 81.5189C149.094 76.5124 149.494 71.7062 149.494 66.7497C149.494 66.2491 149.494 65.7484 149.494 65.2478C149.494 58.8394 149.494 52.381 147.292 46.2731C146.691 45.1216 144.488 42.0175 140.683 42.6183Z" fill="#2D2D2D"/>
<path d="M225.844 114.962C222.139 121.821 217.583 126.227 209.873 128.18C203.264 129.882 196.255 129.531 189.596 131.133C189.396 131.184 189.396 131.434 189.596 131.484C202.513 134.538 226.144 132.736 226.495 115.163C226.545 114.812 226.044 114.662 225.844 114.962Z" fill="#2D2D2D"/>
<path d="M20.4266 1.26453C20.727 1.1644 20.777 0.663748 20.4266 0.563618C6.158 -3.34146 0.400521 13.931 0 25.0955C0 25.2457 0.200261 25.2457 0.250326 25.1456C2.00261 20.5897 3.95515 15.6332 6.6086 11.5279C9.86284 6.52137 14.8193 3.21707 20.4266 1.26453Z" fill="#2D2D2D"/>
<path d="M229.999 26.1969C221.288 6.37115 195.805 7.97324 177.381 6.77168C152.849 5.16959 128.217 4.36855 103.635 3.7177C79.5533 3.06685 55.1216 1.66504 31.0402 3.06686C13.918 4.06816 7.45956 13.4303 5.25669 25.3959C3.40428 35.459 2.6533 84.623 4.65591 96.4383C4.90623 103.998 6.25798 111.258 10.5636 115.713C21.8282 127.228 43.7067 124.475 58.6762 124.825C80.0039 125.376 101.332 125.676 122.659 125.827C123.06 145.752 96.6256 153.563 81.606 161.072C63.9831 169.934 51.0162 183.301 50.2152 202.977C49.7145 215.193 52.7685 210.487 55.7223 203.778C67.4876 176.843 96.7257 177.093 122.81 171.937C141.133 168.332 154.551 160.622 161.51 145.152C165.615 136.04 166.717 125.726 163.863 115.363C163.763 115.012 164.213 114.862 164.414 115.113C166.617 118.667 167.818 122.522 168.269 126.527C181.636 126.628 195.004 126.127 207.62 123.624C226.294 119.969 227.996 98.9416 229.599 83.5716C230.75 72.357 231.451 61.0423 231.801 49.7776C232.002 42.6183 233.003 33.0559 229.999 26.1969ZM53.2692 40.9662L52.8686 41.1664C51.9674 41.0663 48.1625 40.7659 47.2613 40.7659C45.6593 40.6658 38.1495 40.866 36.6475 40.866V51.7802C36.6475 51.9805 36.7476 53.1821 36.8478 53.5826C36.8478 53.6827 37.048 53.9831 37.048 53.9831C40.7529 54.684 44.5578 54.1834 48.2626 54.3836C49.1638 54.4837 49.9648 55.1847 49.9648 55.9857V60.6918C49.9648 61.9935 47.2613 62.5943 46.3602 62.5943H37.048C37.048 62.5943 36.8478 64.3966 36.8478 65.1977C36.8478 68.8024 37.1482 90.5807 36.9479 92.6834C37.2483 92.6834 38.3498 92.6834 38.6501 92.6834C43.2561 92.6834 46.26 92.6834 50.9161 92.2829C51.0162 92.2829 51.7171 92.2829 51.8173 92.2829C52.0175 92.2829 52.5182 92.2829 52.6183 92.2829L52.8186 92.5833V100.494C52.8186 100.994 45.7093 100.393 44.3075 100.694H34.0942C28.9876 100.694 29.9889 97.0892 29.0877 93.7849C28.3868 81.8694 28.7873 72.1067 28.4869 60.2913C28.4869 59.5904 28.4869 54.684 28.4869 53.9831C28.4869 53.7828 28.2867 52.8817 28.2867 52.6814C28.3868 47.9753 28.0864 43.3693 28.0864 38.7132C28.0864 37.812 28.0864 35.9096 28.0864 35.9096L28.7873 33.1059C29.0877 32.3049 30.6898 32.3049 31.2906 32.3049C31.3907 32.3049 31.3907 32.3049 31.3907 32.3049C31.3907 32.3049 34.2945 32.3049 35.496 32.3049C39.4011 32.3049 43.2061 32.6053 47.011 32.6053C48.1125 32.6053 49.0136 32.3049 50.115 32.3049C50.4154 32.3049 53.2191 32.6053 53.2191 33.0058V40.9662H53.2692ZM89.1158 93.1841C89.1158 94.6861 88.9155 101.495 88.9155 102.897C87.8141 104.399 85.6112 104.399 83.8089 104.399C82.3069 104.399 81.5059 103.097 81.3056 101.695L81.0052 74.7101L68.0384 50.4285L67.6378 50.0279C67.6378 50.3283 67.4376 51.9304 67.4376 52.2308L67.9382 102.096C67.9382 105.901 62.7315 104.899 61.8303 104.899H60.9291C59.7276 103.998 59.5273 102.496 59.327 101.195C59.2269 100.293 59.4272 96.6886 59.4272 95.9877C59.4272 94.9864 59.327 89.9799 59.327 88.9786C59.327 87.5768 59.327 64.8973 59.327 42.1177C59.327 41.8173 59.5273 39.8147 59.6274 39.2139C59.6274 39.1137 59.6274 39.1137 59.6274 39.0136C59.5273 34.9083 65.9356 34.4076 67.9382 35.2087C72.4441 37.1111 78.552 52.6814 81.1054 59.29V57.1873C81.0052 54.7841 81.0052 43.6196 81.1054 41.1164C81.1054 40.4154 81.2055 37.3114 81.3056 36.7106C81.606 35.3088 82.8076 34.8082 84.0091 34.8082C85.1106 34.8082 86.8128 34.6079 87.714 35.4089C89.0157 36.21 89.3161 37.7119 89.3161 39.1138C89.4162 49.7276 89.4162 59.3901 89.1158 93.1841ZM120.406 72.7575C120.306 73.7588 120.106 79.7666 120.006 81.2686C119.605 86.0749 118.504 90.6808 116.802 95.0866C115.3 98.7914 111.495 101.395 107.69 101.395C98.1776 101.395 95.424 93.7849 95.424 85.424V84.0222C95.424 83.2211 95.8245 79.8167 95.9246 79.1158C96.225 77.714 97.2263 77.714 98.3278 77.714C98.4279 77.714 98.4279 77.714 98.528 77.714C100.33 77.714 102.433 77.714 103.234 79.7166C103.334 85.7244 102.633 93.1841 106.939 93.1841C110.243 93.1841 110.444 89.3791 111.245 87.0761C111.545 83.2712 112.146 79.4662 112.346 75.6613V69.0527C112.346 67.9513 112.546 59.5403 112.646 44.7711V44.4707C112.546 44.2705 112.346 42.6684 112.346 42.4681V36.8608C112.146 36.26 112.146 35.8595 112.146 35.3589C112.146 33.5565 116.952 33.5565 117.953 33.5565H118.454C120.056 35.6593 119.656 38.3628 119.756 40.9662C119.956 43.9701 120.056 47.1742 120.457 50.2783V72.7575H120.406ZM157.104 80.5677C156.704 81.9695 156.503 83.7719 156.604 85.2738C154.801 94.7862 151.797 105.45 140.232 105.45C136.127 105.45 130.92 103.147 129.018 99.242C127.516 95.9377 126.915 91.532 126.715 88.0274C126.615 86.1249 126.514 75.9116 126.514 73.6587V71.8563L126.414 58.4389C126.414 58.0384 126.615 55.1346 126.715 54.1333C127.916 37.6619 134.625 34.5578 141.784 34.5578C145.189 34.5578 148.493 35.9596 151.297 37.762L154.2 41.7672C154.301 43.7698 155.602 46.0728 156.203 48.0754C157.204 53.7828 157.605 59.29 157.805 65.0475L157.104 80.5677ZM179.083 65.6483C179.083 65.7484 179.083 66.1489 179.083 66.3492C179.083 67.6509 178.983 68.4519 179.483 94.4357C179.784 95.6373 179.784 96.6386 179.684 97.8401C179.083 103.047 176.379 102.146 173.075 102.446C171.573 102.446 171.473 101.345 171.373 100.143C171.173 97.8401 171.072 95.3369 171.072 93.2341V65.1476C161.46 59.7406 160.759 50.1781 160.759 40.5656C160.759 37.762 160.659 36.1599 161.26 33.0559C161.66 31.9544 163.062 31.8543 164.063 31.8543C165.665 31.8543 168.469 31.4538 168.97 33.3563C169.27 34.2574 169.17 34.5578 169.47 35.459C169.47 36.4603 169.671 40.6658 169.671 41.5669C169.671 41.6671 169.671 42.5682 169.671 42.7685C169.871 44.4707 170.271 49.9779 170.472 50.4785C170.672 52.7815 172.174 57.3875 175.378 57.3875C175.578 57.3875 176.079 57.3875 176.179 57.3875C176.98 56.7867 178.182 55.5852 178.582 54.5839L180.585 49.277C180.685 46.2731 181.786 43.169 181.987 40.1651C181.987 39.9648 181.987 37.8621 181.987 37.5617C181.987 36.9609 182.187 34.1573 182.187 33.6566C182.988 32.5552 183.989 32.2548 185.391 32.2548C189.597 32.2548 190.498 32.7555 190.498 36.7607C190.448 45.6723 188.745 61.1424 179.083 65.6483ZM196.556 56.3862C196.556 54.1834 196.556 44.3706 196.556 42.418C196.556 41.5169 196.956 37.8121 197.056 37.1111C197.256 34.8082 197.857 34.5078 200.36 34.6079C200.561 34.6079 202.764 34.9083 203.465 35.1085C205.868 35.5091 204.566 38.7132 205.167 40.3153C205.167 41.3166 205.167 45.7223 205.167 46.7236C205.167 58.539 205.067 70.5046 204.766 82.32C204.666 85.1236 204.266 87.727 204.065 90.5306C203.865 90.831 203.164 91.2315 202.764 91.2315H198.558C197.857 91.2315 197.557 89.4292 197.457 89.2289C196.155 78.2647 196.556 67.3004 196.556 56.3862ZM205.467 97.4897C205.367 98.3909 205.267 102.196 205.167 102.997C204.566 104.599 201.762 104.799 200.26 104.799C197.557 104.799 197.457 100.794 197.457 98.8915C197.457 96.4884 197.657 94.6861 200.26 94.6861C202.063 94.6861 205.467 94.6861 205.467 97.1893C205.467 97.2894 205.467 97.4897 205.467 97.4897Z" fill="#2D2D2D"/>
</svg>
