<svg width="40" height="60" viewBox="0 0 40 60" fill="none" xmlns="http://www.w3.org/2000/svg">
<path d="M34.3982 0.0443856C33.8823 0.0817626 33.0715 0.119144 32.6292 0.119144C31.7447 0.119144 31.4868 0.119137 29.4598 0.193891C28.0593 0.231268 26.4746 0.380783 26.364 0.492914C26.3272 0.530291 26.2903 0.642416 26.2535 0.754547C26.2166 0.866678 26.1429 0.94143 26.0323 0.904053C24.9267 0.717168 24.7793 0.679795 24.7793 0.791926C24.7793 0.86668 24.8899 0.978807 25.0373 1.09094C25.4795 1.38995 25.5532 1.76373 25.5532 3.03455C25.5532 3.66996 25.5532 4.45488 25.5532 4.75389C25.5532 5.09029 25.5532 5.98733 25.5532 6.77225C25.5164 8.75323 25.5164 9.65028 25.6269 11.108C25.7375 13.1637 25.6638 15.0326 25.4058 17.649C25.2584 19.0319 25.111 20.6018 25.0741 21.125C25.0373 21.6857 24.9267 22.4332 24.8899 22.8444C24.7424 23.9283 24.6319 26.2457 24.7056 26.9558C24.8162 27.9277 25.0741 28.8621 25.2953 29.1237C25.5164 29.348 25.8481 29.4601 27.2117 29.8339C27.5065 29.9086 27.7645 30.0208 27.8013 30.0581C27.9488 30.2076 29.0175 30.3572 29.1281 30.245C29.1649 30.2076 29.2387 30.1703 29.2755 30.2077C29.3861 30.2824 30.2337 29.5722 30.2337 29.4227C30.2337 29.1237 31.1182 28.1519 31.5236 27.965C31.9659 27.7781 32.4081 27.5165 32.7398 27.2549C32.8504 27.1427 33.0346 27.1054 33.1084 27.1427C33.5875 27.367 34.3245 30.4693 34.2508 31.927C34.2508 32.2634 34.2508 32.7119 34.2877 32.9735C34.3614 33.4594 34.6194 37.2719 34.6194 38.0568C34.6562 40.8227 34.472 46.3545 34.3245 47.4385C34.2877 47.7001 34.214 48.186 34.1771 48.4476C34.0297 49.4942 33.5875 50.6903 32.8135 52.0358C32.5187 52.5217 32.2607 53.045 32.2238 53.1571C32.1133 53.4188 30.9708 54.6149 29.7915 55.6988C28.8701 56.5211 28.2067 56.8948 27.5802 56.9696C26.6589 57.0817 26.0692 57.2686 25.8481 57.5303C25.7375 57.6798 25.5901 57.8293 25.5532 57.8293C25.3321 57.904 25.5901 58.5768 26.0692 59.0627C26.4009 59.3991 26.5852 59.4739 26.8431 59.4739C26.88 59.4739 26.9906 59.5112 27.1011 59.586C27.5065 59.8102 30.1969 60.1093 30.7128 59.9598C31.1182 59.8476 32.0396 59.287 32.445 58.9132C32.6292 58.7637 32.8135 58.6516 32.9978 58.6516C33.1821 58.6516 33.3663 58.5768 33.5506 58.3899C33.698 58.2404 33.956 58.0909 34.1034 58.0161C34.2508 57.9788 34.4351 57.8293 34.472 57.7171C34.5457 57.605 34.6562 57.4929 34.7668 57.4555C34.9142 57.4181 36.0935 56.1473 36.0935 55.9978C36.0935 55.9604 36.2041 55.8483 36.3515 55.6988C36.5726 55.4745 36.8675 54.9886 37.3466 53.9794C37.4203 53.8299 37.5309 53.643 37.6414 53.5309C37.752 53.4188 37.7888 53.2319 37.7888 53.1945C37.752 53.1198 37.8625 53.0076 37.9731 52.8955C38.1574 52.7834 38.1942 52.6339 38.2311 52.2975C38.2679 51.9985 38.3048 51.8116 38.4154 51.7368C38.5259 51.6621 38.5996 51.4378 38.6365 51.1014C38.6733 50.8024 38.747 50.5034 38.7839 50.466C38.8207 50.3913 38.8576 50.1296 38.8576 49.868C38.8945 49.1578 38.9682 48.7093 39.1524 48.3729C39.2261 48.2234 39.3367 47.8496 39.3367 47.588C39.4104 46.205 39.521 45.1585 39.5947 45.0837C39.6315 45.009 39.6684 44.5978 39.6684 44.1866C39.6684 43.5886 39.7052 43.3644 39.8158 43.2149C39.9264 43.1027 39.9632 43.028 39.8527 42.7663C39.7421 42.4673 39.779 41.7945 39.9632 39.7014C40.0001 39.2529 40.0001 38.8417 40.0001 38.8044C39.9632 38.767 39.9632 38.3559 39.9632 37.9447C40.0001 36.5991 39.9632 36.0385 39.8895 36.0011C39.8158 35.9637 39.8158 35.5526 39.8895 34.805C39.9632 34.0949 39.9264 33.5716 39.8895 33.3847C39.8527 33.2352 39.8158 32.8988 39.8158 32.6372C39.8158 32.0018 39.7421 31.4037 39.6684 31.2916C39.6315 31.2542 39.6315 30.9926 39.6684 30.7683C39.7421 30.245 39.521 28.6378 39.3367 28.3014C39.263 28.1893 39.2261 27.965 39.263 27.8155C39.2998 27.6286 39.263 27.4791 39.1156 27.2175C39.005 27.0306 38.8576 26.7316 38.7839 26.5821C38.7102 26.3952 38.6365 26.2457 38.5996 26.2457C38.5628 26.2457 38.4522 26.0962 38.3416 25.9093C38.2311 25.7224 38.0837 25.5355 38.01 25.4981C37.9362 25.4608 37.7151 25.3486 37.5677 25.2365C37.4203 25.1244 37.236 25.0496 37.1992 25.0496C37.1623 25.0496 37.0517 25.0122 36.9412 24.9375C36.5358 24.6758 35.467 24.489 34.214 24.489C32.3344 24.489 31.0814 24.6759 30.1969 25.1618C29.7546 25.4234 29.644 25.4234 29.644 25.1618C29.644 25.0496 29.5703 24.9375 29.4966 24.9001C29.3861 24.8627 29.3861 24.788 29.644 24.5263C29.9757 24.1899 30.0126 24.0404 29.902 23.704C29.8652 23.5919 29.8283 23.4798 29.8652 23.405C29.9389 23.3303 30.0863 22.1342 30.16 20.8634C30.1969 20.527 30.2337 20.228 30.2706 20.1906C30.418 20.0785 30.3811 19.3683 30.2337 19.144C30.1232 18.9945 30.1232 18.9198 30.2337 18.845C30.3074 18.7703 30.3443 18.546 30.3443 18.1722C30.3074 17.5368 30.3074 17.5368 30.3811 16.6024C30.4548 15.5932 30.418 14.5093 30.3074 14.3598C30.2706 14.285 30.2706 14.0608 30.3074 13.7991C30.3443 13.5749 30.3811 13.3132 30.3443 13.2385C30.3074 13.1637 30.2706 12.7526 30.2706 12.3414C30.2706 11.9303 30.1969 11.4818 30.16 11.3323C30.1232 11.1827 30.0863 10.7342 30.0863 10.3604C30.0863 9.05225 30.0126 7.70668 29.9757 7.14602C29.902 6.58537 29.9757 4.97815 30.0863 4.86602C30.1232 4.82864 30.5654 4.82864 31.0445 4.82864C31.5236 4.86602 31.9659 4.82865 32.0764 4.79127C32.1501 4.7539 32.4081 4.71651 32.6661 4.71651C32.8872 4.71651 33.5137 4.71651 34.0297 4.71651C34.5457 4.71651 35.0985 4.71651 35.2827 4.71651C35.467 4.71651 35.6144 4.67913 35.6513 4.64176C35.6881 4.60438 35.9093 4.64176 36.1672 4.67913C36.4252 4.71651 36.9412 4.79127 37.3097 4.86602L38.01 4.94078L38.0837 4.60439C38.1205 4.4175 38.1205 4.19323 38.0837 4.11848C38.0468 4.04373 38.01 3.63258 37.9731 3.22143C37.9362 2.81029 37.8625 2.32439 37.7888 2.1375C37.7151 1.95062 37.6046 1.61422 37.5309 1.38996C37.4203 1.05357 37.2729 0.866678 36.8306 0.567662C36.0567 0.00700626 35.725 -0.0677455 34.3982 0.0443856Z" fill="#EC8132"/>
<path d="M10.4195 57.5233C10.5669 57.4485 10.7143 57.4111 10.7143 57.4485C10.7512 57.4859 10.8249 57.4485 10.8986 57.3737C10.9723 57.299 11.0829 57.299 11.1197 57.3364C11.1566 57.3738 11.2303 57.3364 11.304 57.299C11.3777 57.2616 11.562 57.2242 11.7094 57.2616C11.9305 57.299 12.0042 57.299 12.1885 57.1121C12.2991 56.9626 12.4833 56.8878 12.6308 56.8878C12.9256 56.8878 13.3678 56.402 14.0681 55.2806C14.1418 55.1685 14.2523 55.0564 14.2892 55.0564C14.3998 55.0564 15.0263 54.5331 15.0263 54.4209C15.0263 54.3836 15.1 54.3088 15.2105 54.2341C15.358 54.1593 15.3948 54.0846 15.3948 53.8603C15.358 53.6734 15.3948 53.5613 15.5422 53.4865C15.6528 53.4118 15.7265 53.2997 15.7265 53.2249C15.7265 53.1128 15.8371 52.9259 15.9845 52.739C16.1319 52.5521 16.2425 52.3279 16.2425 52.2157C16.2425 52.1036 16.3162 51.9915 16.353 51.9541C16.4267 51.9167 16.4636 51.8419 16.4636 51.7672C16.4636 51.6924 16.5742 51.5056 16.6847 51.3934C16.7953 51.2439 16.9059 51.057 16.9059 50.9075C16.9059 50.758 16.9796 50.6085 17.0164 50.5711C17.0901 50.5337 17.127 50.2347 17.1638 49.9731C17.2007 49.6741 17.2375 49.4124 17.3112 49.3377C17.3481 49.2629 17.4218 49.0761 17.4218 48.9265C17.4218 48.777 17.4586 48.5901 17.5324 48.5154C17.6061 48.4406 17.6429 48.2164 17.6798 47.9921C17.7166 47.7679 17.7535 47.3941 17.8272 47.1698C17.8641 46.9082 17.864 46.6839 17.7903 46.6092C17.7166 46.497 17.7166 46.4596 17.8272 46.3849C17.9746 46.3101 17.9746 46.2354 17.9009 45.9364C17.864 45.6374 17.8641 45.4878 18.0115 45.2636C18.122 45.0767 18.1589 44.8898 18.0852 44.8151C18.0483 44.7403 18.0483 44.516 18.122 44.3292C18.1957 44.1423 18.2326 43.8433 18.1957 43.6564C18.1589 43.4695 18.1957 43.32 18.2326 43.32C18.2694 43.32 18.3432 43.2079 18.3432 43.0583C18.3432 42.9088 18.38 42.7593 18.4169 42.6846C18.4537 42.6472 18.4537 42.5351 18.4169 42.4603C18.38 42.3855 18.38 42.236 18.4169 42.1613C18.4906 42.0865 18.4906 41.8997 18.4537 41.6754C18.38 41.4138 18.4169 41.339 18.5274 41.2643C18.638 41.1895 18.6748 41.0774 18.638 40.8905C18.5643 40.442 18.6748 38.4236 18.8223 38.1619C18.9328 37.9003 18.9697 36.8164 18.8223 36.2557C18.7854 36.0688 18.7854 35.7698 18.8223 35.5829C18.8591 35.3961 18.8591 35.1344 18.7854 35.0223C18.7117 34.8728 18.7117 34.7606 18.7854 34.6859C18.8591 34.6111 18.8591 34.5364 18.8223 34.499C18.7485 34.4242 18.7854 33.0413 18.8591 31.4715C18.8591 31.0977 18.8591 30.3502 18.8223 29.8643C18.7854 29.3784 18.7486 28.257 18.7854 27.36C18.8223 25.7154 18.8223 25.4164 18.7117 25.1921C18.6748 25.1174 18.6748 24.781 18.7117 24.482C18.7485 24.1456 18.7485 23.8465 18.7117 23.7718C18.6748 23.697 18.6748 23.2485 18.6748 22.7252C18.6748 22.202 18.6748 21.7161 18.638 21.6039C18.6011 21.4918 18.5643 21.1554 18.6011 20.819C18.638 20.52 18.6011 20.1836 18.5643 20.1088C18.5274 20.0341 18.4906 19.8846 18.5274 19.8098C18.5643 19.6977 18.5274 19.3987 18.4906 19.0997C18.4169 18.8006 18.4169 18.24 18.4169 17.8289C18.4537 17.4177 18.4169 16.9692 18.38 16.8197C18.2695 16.4833 18.2326 15.9226 18.2694 15.5115C18.2694 15.362 18.2326 15.1377 18.1589 14.9882C18.0852 14.8761 18.0483 14.7266 18.0483 14.6518C18.0483 14.577 18.0483 14.4649 18.0115 14.3528C17.9746 14.278 18.0115 14.0911 18.0852 13.979C18.1589 13.8669 18.1957 13.7548 18.1589 13.68C18.122 13.6426 18.0852 13.2315 18.0483 12.783C18.0115 12.3344 17.9009 11.6616 17.7903 11.2505C17.6798 10.8393 17.5692 10.4656 17.5692 10.3908C17.5692 10.3161 17.4955 10.0918 17.3481 9.9423C17.2375 9.75541 17.127 9.56852 17.1638 9.53115C17.1638 9.30688 16.7216 8.40983 16.5373 8.37246C16.3899 8.33508 16.353 8.22295 16.3899 7.99869C16.3899 7.73705 16.3162 7.58754 15.9845 7.25114C15.7634 7.02688 15.5422 6.80263 15.5054 6.80263C15.358 6.76525 15.0631 6.61574 14.8789 6.42886C14.7683 6.31673 14.6209 6.20459 14.5103 6.20459C14.3998 6.16722 14.2523 6.12984 14.1786 6.05509C14.0312 5.90558 12.9256 5.15803 12.6308 5.00852C12.5202 4.93377 12.1885 4.82164 11.9305 4.78426C11.6726 4.7095 11.1197 4.56 10.7143 4.41049C8.90848 3.77508 8.61366 3.70032 7.98713 3.66295L7.32376 3.62558L6.36554 4.2236C4.19114 5.5318 3.23295 6.31672 2.71699 7.21377C2.53272 7.55016 2.09046 8.52197 1.75877 9.38164C0.874267 11.6616 0.616292 13.1193 0.358313 17.5672C0.174042 20.7069 -0.0839463 28.8924 0.0266162 29.0793C0.0634704 29.1167 0.0634704 30.1633 0.0266162 31.4341C0.0266162 32.7049 0.0266162 34.3121 0.0266162 35.0223C0.0266162 35.7324 0.0634839 36.9285 0.0634839 37.676C0.0634839 39.0964 0.32145 45.8616 0.395158 46.4596C0.468867 47.1324 0.947975 49.6367 1.02168 49.8236C1.05854 49.8983 1.0954 50.0852 1.0954 50.16C1.05854 50.5711 2.31159 53.7108 2.90126 54.72C3.34351 55.4675 4.15429 56.3646 4.59654 56.5888C5.70217 57.1495 5.88645 57.1869 7.25005 57.3737C9.75614 57.598 10.1247 57.6354 10.4195 57.5233ZM9.49815 54.5705C9.35073 54.4957 9.16647 54.2714 9.09276 54.1219C9.01905 53.9724 8.83477 53.7108 8.68735 53.5613C8.53993 53.4118 8.42939 53.2623 8.42939 53.1875C8.42939 53.1128 8.35568 52.9632 8.24512 52.8137C8.13456 52.6642 8.06084 52.4773 8.09769 52.3652C8.09769 52.2531 8.02398 52.1036 7.95027 52.0662C7.8397 51.9914 7.80286 51.9541 7.91342 51.8419C8.02398 51.7672 7.98714 51.6551 7.87658 51.3934C7.6186 50.7954 7.43432 50.0852 7.43432 49.6741C7.43432 49.4498 7.39747 49.0387 7.32376 48.7397C7.25006 48.4406 7.17634 48.1416 7.17634 48.0669C7.17634 47.9921 7.13948 47.8426 7.10262 47.8052C7.06577 47.7305 7.02893 47.4314 7.06578 47.1324C7.10263 46.8334 7.06577 46.5344 7.02891 46.497C6.99206 46.4597 6.95521 46.1232 6.91835 45.8242C6.91835 45.4878 6.84465 45.1888 6.73408 45.0393C6.62352 44.8898 6.62353 44.8151 6.69724 44.8151C6.84465 44.7777 6.91836 43.5069 6.8078 43.3947C6.69723 43.32 6.69722 42.7967 6.84464 42.7219C6.9552 42.6472 6.99207 41.8997 6.88151 41.7501C6.84465 41.7128 6.80779 41.2642 6.84464 40.7783C6.84464 40.2924 6.80779 39.8065 6.73408 39.6944C6.62352 39.5075 6.62353 39.4328 6.77095 39.0964C6.88151 38.8347 6.91836 38.4984 6.88151 37.9003C6.84465 36.4426 6.84465 36.3305 6.91835 35.8072C6.95521 35.5082 6.99206 35.0223 6.91835 34.6485C6.8815 34.3121 6.8815 33.2282 6.91835 32.2938C6.95521 31.3593 6.99208 30.238 6.95522 29.8269C6.91837 29.4157 6.91835 28.5934 6.91835 27.958C6.91835 27.3226 6.91835 26.5377 6.91835 26.2387C6.91835 25.9397 6.95521 25.678 6.99207 25.6406C7.06578 25.6033 7.10263 24.3325 7.06578 22.9495C7.06578 22.5384 7.06577 21.9403 7.10262 21.6413C7.17633 21.0059 7.17635 20.7069 7.32376 17.4177C7.43433 14.8387 7.50803 13.9416 7.80286 12.8203C7.87657 12.4839 7.95027 12.0354 7.95027 11.8485C7.95027 11.6616 7.98714 11.4748 8.06085 11.4374C8.0977 11.4 8.17141 11.3252 8.17141 11.2505C8.17141 10.9515 9.31389 8.85836 9.4613 8.89573C9.53501 8.89573 9.71929 8.74622 9.90356 8.52196C10.0878 8.2977 10.3089 8.14819 10.3458 8.18557C10.4564 8.18557 10.7512 8.59672 10.9355 9.04525C11.4146 10.0918 11.8568 12.4092 12.1148 15.3246C12.1885 16.0347 12.2622 16.9318 12.2991 17.3056C12.3359 17.6793 12.3728 18.2774 12.4096 18.6512C12.4465 19.0249 12.4833 19.4734 12.4833 19.6229C12.5571 20.2957 12.5939 21.7534 12.6676 24.0334C12.7045 25.379 12.7782 26.9862 12.815 27.6964C12.8519 28.4065 12.8887 29.3783 12.8887 29.9016C12.8887 30.4249 12.9256 31.2846 12.9256 31.8452C12.9624 32.3685 12.9624 33.0787 12.9256 33.4151C12.8887 33.7515 12.9256 34.1252 12.9625 34.2374C13.2573 35.1718 12.7045 45.002 12.1517 48.5528C12.0779 49.0013 11.6357 50.758 11.4883 51.2439C11.3777 51.6177 10.4564 53.636 10.1247 54.3088C9.90355 54.7573 9.90354 54.7947 9.49815 54.5705Z" fill="#EC8132"/>
</svg>
