<svg width="41" height="60" viewBox="0 0 41 60" fill="none" xmlns="http://www.w3.org/2000/svg">
<path d="M38.4304 0.0835963C38.3564 0.120762 37.7638 0.120762 37.1342 0.0835963L36.0232 0.00927224L35.764 0.418094C35.3937 1.04991 35.3937 1.08707 36.0973 1.27289C36.3565 1.34722 36.4306 1.42155 36.4676 1.57021C36.5047 1.68171 36.3936 4.24613 36.2454 7.21936C36.0973 10.1926 35.9862 13.3145 35.9492 14.1693C35.9121 15.0241 35.801 18.2575 35.6529 21.3794C35.3196 28.7381 35.2085 31.637 35.2825 32.1945C35.3196 32.4547 35.2826 33.0865 35.2455 33.6068L35.1714 34.5359L34.5419 34.5731C34.1715 34.5731 32.8383 34.6846 31.5421 34.7961C30.246 34.9076 29.0238 35.0191 28.8387 35.0563C28.5054 35.0934 28.4683 35.0563 28.5424 34.9076C28.5794 34.7961 28.6905 34.4988 28.7646 34.2014C28.8757 33.9041 29.0238 33.4581 29.0979 33.198C29.209 32.9378 29.2831 32.5662 29.2831 32.3803C29.2831 32.1945 29.3571 32.0087 29.3942 32.0087C29.4682 32.0087 29.5423 31.8229 29.5423 31.5999C29.6164 30.9681 29.7275 30.5221 29.8386 30.3363C29.8756 30.2619 30.0237 29.7416 30.1348 29.2213C30.2459 28.701 30.4682 27.8833 30.5793 27.4374C30.7274 26.9542 30.8385 26.4711 30.8755 26.3224C30.9126 26.0994 31.0607 25.3561 31.394 23.9438C31.431 23.7951 31.4681 23.6093 31.5051 23.535C31.5421 23.4607 31.5792 23.2748 31.6162 23.1633C31.6532 23.0147 31.7273 22.7545 31.8014 22.4943C31.8754 22.2713 31.9865 21.8997 32.0606 21.6767C32.1347 21.4537 32.1717 21.2679 32.1717 21.1935C32.1717 21.1564 32.2087 20.9706 32.2828 20.8219C32.3569 20.6732 32.3939 20.4874 32.3569 20.4131C32.3198 20.3388 32.3569 20.1158 32.4309 19.9299C32.505 19.7441 32.6161 19.1123 32.7272 18.4805C32.8383 17.8858 32.9124 17.2912 32.9494 17.2169C32.9865 16.9939 33.1716 15.6559 33.2457 15.0241C33.4309 13.426 33.4679 13.0915 33.542 12.9428C33.579 12.8685 33.579 12.534 33.579 12.2367C33.542 11.9394 33.542 11.6049 33.579 11.5306C33.616 11.3076 33.8382 8.96613 33.8753 7.96267C33.9493 6.51322 33.8012 5.06377 33.542 4.69212C33.5049 4.61779 33.5049 4.50628 33.542 4.43195C33.579 4.35762 33.579 4.1718 33.5049 4.0603C33.4679 3.9488 33.3568 3.53999 33.2827 3.16833C33.2087 2.79668 33.0976 2.38786 32.9865 2.2392C32.9124 2.09054 32.8383 1.9047 32.8383 1.79321C32.8383 1.60738 31.9125 0.641082 31.431 0.343759C31.2088 0.232262 30.8385 0.120771 30.4311 0.0464399C29.8386 -0.0278909 29.7645 -0.0278954 29.6904 0.157932C29.5793 0.306593 29.6164 0.380929 29.8386 0.603921C30.3571 1.1614 30.4311 2.79667 30.1348 6.40172C30.0237 7.77684 29.9126 9.0033 29.9126 9.1148C29.9126 9.22629 29.8386 9.78377 29.7275 10.3784C29.6164 10.9731 29.5053 11.7164 29.5053 12.0509C29.4312 13.3145 28.8387 16.4364 28.0239 19.9671C27.5425 22.0112 27.061 24.427 27.0981 24.5756C27.1351 24.6499 27.0981 24.7243 27.061 24.7243C27.024 24.7243 26.9499 24.8729 26.8759 25.0588C26.8388 25.2446 26.6907 25.9136 26.5426 26.5082C26.3944 27.1029 26.2093 27.9577 26.0982 28.4036C25.9871 28.8496 25.6908 30.0018 25.4316 30.9681C25.1723 31.9344 24.9131 32.975 24.9131 33.2351C24.9131 33.4953 24.802 33.9785 24.6538 34.2386C24.3205 35.0934 24.3576 35.5766 24.802 36.134C25.2093 36.6544 27.3943 38.141 27.8017 38.141C27.8758 38.141 28.098 38.0666 28.2832 37.918C28.4683 37.8065 28.6905 37.695 28.8016 37.695C28.9127 37.695 28.9868 37.6578 29.0238 37.6207C29.0609 37.5835 29.172 37.5463 29.246 37.5463C29.3571 37.5463 29.4312 37.5092 29.4682 37.4348C29.5053 37.3605 29.6534 37.3233 29.8015 37.3233C29.9497 37.3233 30.32 37.3234 30.6533 37.2862C30.9866 37.249 31.8384 37.1747 32.5791 37.1375C33.8012 37.0632 34.9122 36.8402 34.8752 36.6915C34.8752 36.6544 34.8752 36.6172 34.9122 36.6172C34.9492 36.6172 34.9863 36.8402 34.9863 37.1375C34.9863 37.695 35.0233 39.6276 35.0974 41.3372C35.0974 41.9319 35.1344 42.861 35.1344 43.3813C35.1344 43.9016 35.1714 44.7564 35.2085 45.2396C35.2455 45.7599 35.3196 46.7634 35.3566 47.5438C35.4307 48.9933 35.6529 51.5577 35.8381 53.5275C35.9121 54.1593 35.9492 54.9398 35.9862 55.2371C35.9862 55.5344 36.0603 55.8317 36.0973 55.8689C36.1343 55.9061 36.1714 56.0175 36.1343 56.0919C36.0232 56.3892 36.2454 58.0245 36.5047 58.4705C36.9491 59.3253 37.8008 59.8084 39.2081 59.9571C39.8007 59.9943 40.2081 60.0314 40.2451 59.9571C40.2821 59.9199 40.3932 59.8828 40.5414 59.8828C40.8376 59.8828 41.0598 59.5483 40.9858 59.1766C40.9487 59.0279 40.9487 58.7306 40.9117 58.5076C40.9117 58.2846 40.8747 57.9873 40.8006 57.8015C40.7636 57.6157 40.7636 57.3555 40.8006 57.2068C40.8376 57.0582 40.8006 56.798 40.7265 56.6122C40.6525 56.4635 40.6154 56.2777 40.6524 56.2405C40.6895 56.2034 40.6895 55.8317 40.6524 55.4229C40.6154 55.0141 40.5784 54.4194 40.5784 54.0849C40.5784 53.7504 40.5413 53.416 40.4673 53.3045C40.4302 53.193 40.3932 53.0443 40.3932 52.9328C40.3932 52.2267 40.3562 51.5205 40.2821 51.4462C40.208 51.409 40.208 51.3347 40.3191 51.186C40.4302 51.0374 40.4303 50.8887 40.3562 50.3312C40.2821 49.9596 40.2821 49.5879 40.3191 49.5136C40.4302 49.3649 40.3191 48.6588 40.134 48.5473C40.0599 48.473 40.0599 48.4358 40.134 48.3986C40.3191 48.2871 40.3562 48.027 40.2821 47.6925C40.171 47.2094 40.134 46.0572 40.171 43.8644C40.171 43.2698 40.171 42.415 40.171 42.0062C40.171 41.5974 40.171 40.9656 40.171 40.6682C40.171 40.3709 40.134 39.9993 40.0969 39.9249C40.0599 39.8134 40.0599 39.7019 40.134 39.6648C40.208 39.5904 40.208 39.4789 40.171 39.3303C40.134 39.2188 40.0969 38.7728 40.0969 38.364C40.0969 37.9552 40.0599 37.6207 40.0229 37.5835C39.9858 37.5463 39.9858 37.472 40.0599 37.4348C40.134 37.3605 40.134 37.1747 40.0969 36.9517C40.0229 36.58 40.0969 35.7996 40.208 35.7252C40.2821 35.6509 40.2821 34.1643 40.171 33.6811C40.134 33.4581 40.0229 33.2351 39.9488 33.1608C39.8377 33.0865 39.8377 33.0493 39.9858 33.0865C40.134 33.0865 40.134 33.0493 40.0969 32.8263C40.0599 32.6777 40.0599 32.4547 40.0969 32.2689C40.134 32.0459 40.171 31.6742 40.171 30.8566C40.171 30.8194 40.2451 30.4477 40.3191 30.0761C40.3932 29.7044 40.4303 29.1841 40.4303 28.9983C40.4303 28.7753 40.4303 28.1807 40.4303 27.6603C40.4303 27.14 40.4303 26.6569 40.3932 26.5825C40.3562 26.5082 40.3932 26.3595 40.4303 26.2852C40.5043 26.1737 40.5784 25.8021 40.5784 25.4676C40.6154 24.8358 40.6895 21.4537 40.6895 20.5246C40.6895 20.2644 40.7265 19.4839 40.7636 18.815C40.8006 18.1088 40.8006 17.3655 40.7265 17.1054C40.6525 16.808 40.6525 15.8789 40.7265 14.6153C40.7636 13.5003 40.8006 12.0509 40.8006 11.3819C40.8006 10.6757 40.7636 9.59795 40.8006 8.92897C40.8006 8.25999 40.7636 7.47951 40.6895 7.14502C40.6154 6.81054 40.5784 6.14157 40.5784 5.62125C40.6154 3.98597 40.5784 3.8373 40.0599 1.75604C39.9858 1.42155 39.9118 1.08707 39.9118 0.975575C39.9118 0.901244 39.7266 0.641077 39.5044 0.45525C39.097 0.00926543 38.7267 -0.0650654 38.4304 0.0835963ZM37.7638 22.9775C37.7638 23.0147 37.7268 23.089 37.6527 23.0518C37.5787 23.0518 37.5786 23.0147 37.6157 22.9403C37.6527 22.9032 37.6897 22.866 37.7268 22.866C37.7268 22.9032 37.7638 22.9403 37.7638 22.9775Z" fill="#EC8132"/>
<path d="M10.4703 56.8259C10.6184 56.7516 10.7666 56.7144 10.7666 56.7516C10.8036 56.7888 10.8777 56.7516 10.9517 56.6773C11.0258 56.6029 11.1369 56.6029 11.1739 56.6401C11.211 56.6773 11.285 56.6401 11.3591 56.6029C11.4332 56.5658 11.6183 56.5286 11.7665 56.5658C11.9887 56.6029 12.0627 56.6029 12.2479 56.4171C12.359 56.2684 12.5442 56.1941 12.6923 56.1941C12.9886 56.1941 13.433 55.711 14.1366 54.596C14.2107 54.4845 14.3218 54.373 14.3588 54.373C14.4699 54.373 15.0995 53.8527 15.0995 53.7412C15.0995 53.704 15.1736 53.6297 15.2847 53.5553C15.4328 53.481 15.4699 53.4067 15.4699 53.1837C15.4328 52.9979 15.4699 52.8864 15.618 52.812C15.7291 52.7377 15.8032 52.6262 15.8032 52.5519C15.8032 52.4404 15.9143 52.2546 16.0624 52.0687C16.2105 51.8829 16.3216 51.6599 16.3216 51.5484C16.3216 51.4369 16.3957 51.3254 16.4327 51.2883C16.5068 51.2511 16.5438 51.1768 16.5438 51.1024C16.5438 51.0281 16.6549 50.8423 16.766 50.7308C16.8771 50.5821 16.9883 50.3963 16.9883 50.2476C16.9883 50.099 17.0623 49.9503 17.0993 49.9131C17.1734 49.876 17.2104 49.5787 17.2475 49.3185C17.2845 49.0212 17.3215 48.761 17.3956 48.6867C17.4326 48.6124 17.5067 48.4265 17.5067 48.2779C17.5067 48.1292 17.5437 47.9434 17.6178 47.869C17.6919 47.7947 17.7289 47.5717 17.766 47.3487C17.803 47.1258 17.84 46.7541 17.9141 46.5311C17.9511 46.2709 17.9511 46.048 17.8771 45.9736C17.803 45.8621 17.803 45.8249 17.9141 45.7506C18.0622 45.6763 18.0622 45.602 17.9881 45.3046C17.9511 45.0073 17.9511 44.8586 18.0993 44.6357C18.2104 44.4498 18.2474 44.264 18.1733 44.1897C18.1363 44.1154 18.1363 43.8923 18.2104 43.7065C18.2844 43.5207 18.3215 43.2234 18.2844 43.0375C18.2474 42.8517 18.2844 42.7031 18.3215 42.7031C18.3585 42.7031 18.4326 42.5916 18.4326 42.4429C18.4326 42.2942 18.4696 42.1456 18.5066 42.0713C18.5437 42.0341 18.5437 41.9226 18.5066 41.8482C18.4696 41.7739 18.4696 41.6253 18.5066 41.5509C18.5807 41.4766 18.5807 41.2908 18.5437 41.0678C18.4696 40.8076 18.5066 40.7333 18.6177 40.659C18.7288 40.5846 18.7659 40.4731 18.7288 40.2873C18.6548 39.8413 18.7659 37.8344 18.914 37.5742C19.0251 37.3141 19.0621 36.2363 18.914 35.6788C18.877 35.493 18.877 35.1957 18.914 35.0098C18.951 34.824 18.951 34.5638 18.877 34.4523C18.8029 34.3037 18.8029 34.1922 18.877 34.1178C18.951 34.0435 18.951 33.9692 18.914 33.932C18.8399 33.8577 18.877 32.4826 18.951 30.9216C18.951 30.55 18.951 29.8067 18.914 29.3235C18.877 28.8404 18.8399 27.7254 18.877 26.8334C18.914 25.1982 18.914 24.9008 18.8029 24.6778C18.7659 24.6035 18.7659 24.269 18.8029 23.9717C18.8399 23.6372 18.8399 23.3399 18.8029 23.2655C18.7659 23.1912 18.7659 22.7452 18.7659 22.2249C18.7659 21.7046 18.7659 21.2214 18.7288 21.1099C18.6918 20.9985 18.6548 20.664 18.6918 20.3295C18.7288 20.0322 18.6918 19.6977 18.6548 19.6233C18.6177 19.549 18.5807 19.4003 18.6177 19.326C18.6548 19.2145 18.6177 18.9172 18.5807 18.6199C18.5066 18.3225 18.5066 17.7651 18.5066 17.3563C18.5437 16.9474 18.5066 16.5014 18.4696 16.3528C18.3585 16.0183 18.3215 15.4608 18.3585 15.052C18.3585 14.9033 18.3215 14.6803 18.2474 14.5317C18.1733 14.4202 18.1363 14.2715 18.1363 14.1972C18.1363 14.1229 18.1363 14.0114 18.0993 13.8999C18.0622 13.8255 18.0993 13.6397 18.1733 13.5282C18.2474 13.4167 18.2844 13.3052 18.2474 13.2309C18.2104 13.1937 18.1733 12.7849 18.1363 12.3389C18.0993 11.8929 17.9882 11.224 17.8771 10.8151C17.7659 10.4063 17.6549 10.0347 17.6549 9.96033C17.6549 9.88599 17.5808 9.66301 17.4326 9.51435C17.3215 9.32852 17.2104 9.14269 17.2475 9.10553C17.2475 8.88253 16.8031 7.99056 16.6179 7.9534C16.4698 7.91623 16.4327 7.80473 16.4698 7.58174C16.4698 7.32158 16.3957 7.17292 16.0624 6.83843C15.8402 6.61544 15.618 6.39245 15.5809 6.39245C15.4328 6.35529 15.1366 6.20663 14.9514 6.0208C14.8403 5.9093 14.6922 5.79781 14.5811 5.79781C14.47 5.76064 14.3218 5.72348 14.2477 5.64915C14.0996 5.50048 12.9886 4.75717 12.6923 4.60851C12.5812 4.53418 12.2479 4.42268 11.9887 4.38551C11.7295 4.31118 11.1739 4.16252 10.7666 4.01386C8.9519 3.38205 8.65564 3.30772 8.02606 3.27055L7.35946 3.23339L6.39657 3.82803C4.21157 5.12882 3.24871 5.9093 2.73023 6.80127C2.54506 7.13575 2.10064 8.10206 1.76734 8.95687C0.878528 11.224 0.619296 12.6734 0.360059 17.0961C0.17489 20.218 -0.0843555 28.3572 0.026746 28.543C0.0637798 28.5802 0.0637798 29.6208 0.026746 30.8844C0.026746 32.1481 0.026746 33.7462 0.026746 34.4523C0.026746 35.1585 0.0637934 36.3478 0.0637934 37.0911C0.0637934 38.5034 0.323017 45.2303 0.397084 45.8249C0.471152 46.4939 0.952596 48.984 1.02666 49.1698C1.0637 49.2442 1.10074 49.43 1.10074 49.5043C1.0637 49.9132 2.32286 53.0351 2.9154 54.0385C3.35981 54.7818 4.17454 55.6738 4.61895 55.8968C5.72996 56.4543 5.91514 56.4914 7.28539 56.6773C9.80369 56.9002 10.174 56.9374 10.4703 56.8259ZM9.54444 53.8898C9.39631 53.8155 9.21115 53.5925 9.13708 53.4439C9.06301 53.2952 8.87783 53.035 8.72969 52.8864C8.58156 52.7377 8.47048 52.5891 8.47048 52.5147C8.47048 52.4404 8.39641 52.2917 8.28531 52.1431C8.1742 51.9944 8.10013 51.8086 8.13716 51.6971C8.13716 51.5856 8.06308 51.4369 7.98902 51.3998C7.87792 51.3254 7.84089 51.2883 7.95199 51.1768C8.06309 51.1024 8.02607 50.9909 7.91497 50.7308C7.65573 50.1361 7.47056 49.43 7.47056 49.0212C7.47056 48.7982 7.43353 48.3894 7.35946 48.0921C7.28539 47.7947 7.21132 47.4974 7.21132 47.4231C7.21132 47.3487 7.17428 47.2001 7.13724 47.1629C7.10021 47.0886 7.06319 46.7912 7.10022 46.4939C7.13725 46.1966 7.10021 45.8993 7.06317 45.8621C7.02614 45.825 6.98911 45.4905 6.95207 45.1931C6.95207 44.8586 6.87801 44.5613 6.76691 44.4127C6.6558 44.264 6.65581 44.1897 6.72988 44.1897C6.87802 44.1525 6.95208 42.8889 6.84098 42.7774C6.72988 42.703 6.72987 42.1827 6.878 42.1084C6.9891 42.0341 7.02615 41.2908 6.91505 41.1421C6.87802 41.1049 6.84097 40.659 6.878 40.1758C6.878 39.6926 6.84097 39.2095 6.76691 39.098C6.6558 38.9122 6.65582 38.8378 6.80395 38.5034C6.91505 38.2432 6.95208 37.9087 6.91505 37.3141C6.87802 35.8646 6.87801 35.7531 6.95207 35.2328C6.98911 34.9355 7.02614 34.4523 6.95207 34.0807C6.91504 33.7462 6.91504 32.6684 6.95207 31.7393C6.98911 30.8101 7.02616 29.6952 6.98912 29.2863C6.95209 28.8775 6.95207 28.0599 6.95207 27.4281C6.95207 26.7963 6.95207 26.0158 6.95207 25.7185C6.95207 25.4211 6.98911 25.161 7.02615 25.1238C7.10021 25.0866 7.13725 23.823 7.10022 22.4479C7.10022 22.0391 7.10021 21.4445 7.13724 21.1471C7.21131 20.5153 7.21133 20.218 7.35946 16.9474C7.47056 14.383 7.54462 13.491 7.8409 12.3761C7.91496 12.0416 7.98902 11.5956 7.98902 11.4098C7.98902 11.224 8.02607 11.0381 8.10014 11.001C8.13717 10.9638 8.21123 10.8895 8.21123 10.8151C8.21123 10.5178 9.35928 8.43654 9.50742 8.47371C9.58148 8.47371 9.76666 8.32505 9.95183 8.10205C10.137 7.87906 10.3592 7.7304 10.3962 7.76757C10.5073 7.76757 10.8036 8.17639 10.9888 8.62238C11.4702 9.66301 11.9146 11.9673 12.1739 14.8662C12.2479 15.5723 12.322 16.4643 12.359 16.8359C12.3961 17.2076 12.4331 17.8022 12.4701 18.1739C12.5072 18.5455 12.5442 18.9915 12.5442 19.1402C12.6183 19.8092 12.6553 21.2586 12.7294 23.5257C12.7664 24.8637 12.8405 26.4618 12.8775 27.1679C12.9145 27.8741 12.9516 28.8404 12.9516 29.3607C12.9516 29.881 12.9886 30.7358 12.9886 31.2933C13.0256 31.8136 13.0256 32.5197 12.9886 32.8542C12.9515 33.1887 12.9886 33.5604 13.0256 33.6719C13.3219 34.601 12.7664 44.3755 12.2109 47.9062C12.1368 48.3522 11.6924 50.099 11.5443 50.5821C11.4332 50.9538 10.5073 52.9607 10.174 53.6297C9.95182 54.0757 9.95181 54.1128 9.54444 53.8898Z" fill="#EC8132"/>
</svg>
