<svg width="42" height="60" viewBox="0 0 42 60" fill="none" xmlns="http://www.w3.org/2000/svg">
<path d="M32.1547 0.075954C31.5876 0.227853 30.1508 1.21519 29.2056 2.08861C28.1848 3.03797 27.4286 3.94937 27.0505 4.74683C26.9371 5.01266 26.7858 5.27848 26.7102 5.39241C26.6724 5.46836 26.5968 5.65823 26.5968 5.81013C26.5968 5.92406 26.559 6.07595 26.5212 6.07595C26.4077 6.1519 25.8028 7.67089 25.6138 8.27849C25.3113 9.34178 25.0466 12.3038 25.0844 13.8608C25.1222 14.5823 25.1222 15.5317 25.1222 15.9494C25.1222 16.3671 25.1978 16.8228 25.2735 16.9367C25.3491 17.0886 25.3869 17.4304 25.3491 17.8861C25.3491 18.2658 25.3113 19.0253 25.3491 19.557C25.3869 20.4304 25.4247 20.5823 25.7272 21.1519C26.1431 21.8734 26.2187 21.9114 27.3908 21.9873C28.1091 22.0253 28.2604 22.0253 28.5628 21.8355C28.9787 21.6076 29.1678 21.1899 29.0166 20.8861C28.9787 20.7722 28.9031 20.5063 28.8653 20.3544C28.8275 20.1646 28.7519 19.8228 28.6385 19.557C28.4872 19.1392 28.336 17.6203 28.2982 16.3671C28.2982 16.0633 28.2226 15.6456 28.1848 15.4937C28.1091 15.3418 28.0713 14.962 28.0713 14.6582C28.0713 14.3544 28.0335 14.0506 27.9957 13.9367C27.9579 13.8228 27.9579 13.7089 28.0335 13.6709C28.1091 13.5949 28.1469 13.3291 28.1091 12.9494C28.0335 11.3924 28.0335 11.0127 28.1091 10.3291C28.1469 9.68355 28.336 8.96203 28.6007 8.46836C28.6385 8.35444 28.7519 8.05063 28.8275 7.74683C28.9031 7.44303 29.0165 7.13924 29.0922 7.06329C29.1678 6.98734 29.2434 6.83545 29.2434 6.7595C29.2434 6.68355 29.3946 6.41773 29.5837 6.18988C29.7727 5.96203 29.8862 5.69621 29.924 5.62026C29.924 5.54431 29.9996 5.43038 30.113 5.35443C30.2264 5.31646 30.3399 5.16456 30.3777 5.05064C30.4911 4.70887 31.0582 4.2152 31.3985 4.10127C31.5876 4.0633 31.89 3.91139 32.1547 3.75949C32.7218 3.45569 33.1755 3.3038 33.7805 3.26582C34.4232 3.22785 34.5745 3.3038 34.8391 3.79747C35.4819 5.05063 35.6331 7.89874 35.2172 10.3291C34.461 14.6203 34.3476 15.3418 33.8561 17.2785C33.6292 18.1519 33.4024 19.4051 33.3268 20.0506C33.1755 21.076 33.0243 21.9873 32.3059 25.2152C32.0791 26.2025 31.8144 27.7215 31.5497 29.1646C31.4741 29.6582 31.3229 30.2658 31.2851 30.4557C31.1717 30.8734 30.7936 33.1899 30.6801 34.1013C30.6423 34.4051 30.6045 34.7089 30.5667 34.7848C30.4911 34.9367 29.6593 39.2278 29.5459 39.9873C29.3568 41.3544 28.9787 43.3671 28.6007 45.1139C28.4116 46.0253 28.2604 46.8608 28.2982 47.0886C28.336 47.3544 28.2982 47.5063 28.1848 47.5823C28.0713 47.6582 27.9957 47.8861 27.9579 48.2658C27.9201 48.5696 27.8067 49.1012 27.731 49.443C27.6554 49.7468 27.5798 50.1646 27.542 50.3544C27.4664 50.7721 27.4286 50.924 27.0883 52.3671C26.6724 54.0759 26.6346 55.557 26.8993 56.5063C27.0127 56.8861 27.0883 57.2658 27.0505 57.3418C27.0127 57.4557 27.0505 57.6456 27.1261 57.8354C27.2017 57.9873 27.2395 58.1772 27.2017 58.2152C27.1639 58.2532 27.1639 58.3671 27.2017 58.443C27.2773 58.6709 28.0335 59.2405 28.2604 59.2405C28.4116 59.2405 28.4494 59.2785 28.4116 59.3924C28.336 59.5823 28.8653 60 29.1678 60C29.319 60 29.5837 60 29.8105 60C30.0374 60 30.3021 59.924 30.4533 59.8481C30.6045 59.7721 30.907 59.6582 31.1339 59.6203C31.3607 59.5823 31.8144 59.5063 32.1169 59.4304C32.6462 59.3165 33.4402 59.3164 35.3685 59.5063C35.86 59.5443 36.2759 59.5443 36.3137 59.5443C36.3515 59.5063 36.843 59.5063 37.4479 59.5443C38.0151 59.5443 38.62 59.5443 38.7713 59.4683C38.9225 59.3924 39.1872 59.3544 39.3762 59.3544C39.8299 59.3165 40.397 59.0886 40.5861 58.8228C40.7373 58.6329 40.7751 58.2911 40.8886 56.962C40.9642 56.0886 41.0398 55.2152 41.1154 55.0633C41.2667 54.6835 41.1154 54.4937 40.7751 54.6076C40.6239 54.6456 40.397 54.6076 40.0568 54.4557C39.6409 54.2658 39.414 54.2278 38.2419 54.2278C37.4858 54.2278 36.8052 54.2278 36.7296 54.3038C36.654 54.3418 35.6709 54.3418 34.5367 54.3038L32.495 54.2278V54C32.495 53.8481 32.5328 53.7721 32.7218 53.6962C32.9487 53.6202 33.0243 53.4304 33.0243 52.9747C33.0243 52.8608 33.0999 52.519 33.2134 52.1772C33.3268 51.8354 33.3646 51.5316 33.3646 51.4557C33.3268 51.4177 33.3646 51.3038 33.478 51.2658C33.5914 51.2279 33.6671 51 33.7049 50.4683C33.7427 50.0886 33.8561 49.7088 33.8939 49.6329C33.9695 49.5569 33.9695 49.443 33.9317 49.3671C33.8939 49.2911 33.9695 49.0253 34.0451 48.7975C34.1208 48.5696 34.2342 48.1519 34.2342 47.8481C34.272 47.2405 34.4232 46.443 34.5367 46.1772C34.5745 46.1013 34.6879 45.3418 34.7635 44.5443C34.8769 43.1392 35.066 42.038 35.255 41.6202C35.2928 41.5063 35.3306 41.2025 35.3306 40.9747C35.3306 40.7089 35.3685 40.481 35.4441 40.443C35.5953 40.3671 35.5953 39.9494 35.4441 39.8734C35.3306 39.8354 35.3306 39.7975 35.4441 39.6835C35.5197 39.6076 35.5953 39.4557 35.5953 39.3418C35.5953 39.2278 35.7087 39 35.8222 38.8481C35.9734 38.6962 36.049 38.4304 36.0868 38.1266C36.1246 37.8607 36.1624 37.5949 36.2381 37.519C36.2759 37.443 36.3137 37.2911 36.3137 37.1392C36.3137 36.9873 36.3137 36.8734 36.3893 36.8354C36.4271 36.7975 36.5027 36.5316 36.5027 36.2278C36.5405 35.1645 36.654 34.5949 36.8052 34.481C36.8808 34.4051 36.9942 34.3671 37.032 34.3671C37.1455 34.443 37.3345 34.1392 37.2967 33.9873C37.2589 33.9114 37.2967 33.7215 37.3723 33.5696C37.448 33.4177 37.5236 33.076 37.5614 32.7722C37.6748 31.7089 37.826 30.6456 37.9395 30.6076C37.9773 30.5696 38.0151 30.4557 37.9773 30.3418C37.9395 30.1519 37.9773 30.1139 38.1663 30.0759C38.3554 30.038 38.3554 29.962 38.3176 29.6962C38.2797 29.5063 38.3176 29.2405 38.431 29.0506C38.5066 28.8608 38.6578 28.481 38.7334 28.1392C38.8091 27.7975 38.9225 27.5316 38.9603 27.4937C38.9981 27.4557 39.0737 27.2658 39.0737 27.076C39.0737 26.8861 39.1493 26.6582 39.1872 26.6582C39.225 26.6202 39.3006 26.4683 39.3006 26.2785C39.3384 25.6709 39.3762 25.557 39.5274 25.2532C39.6409 25.0633 39.6787 24.7975 39.6787 24.6076C39.6787 24.4177 39.6787 24.2658 39.7543 24.1899C39.8299 24.1139 39.8299 24.038 39.7543 23.8861C39.6787 23.6962 39.6787 23.5823 39.8299 23.3164C39.9811 23.0506 39.9811 22.9367 39.9055 22.7468C39.8299 22.557 39.8299 22.519 39.9433 22.519C40.1702 22.519 40.4349 21.7975 40.5105 20.962C40.5861 20.4304 40.7373 19.7089 40.8129 19.5949C40.8886 19.481 40.9264 19.1392 41.0398 18.038C41.191 16.6709 41.3423 15.7595 41.4179 15.7595C41.4557 15.7595 41.5313 15.5317 41.5313 15.1899C41.5313 14.8861 41.6069 14.4683 41.6825 14.3164C41.7582 14.0886 41.7582 13.9367 41.7204 13.8608C41.6447 13.7848 41.6447 13.7089 41.7204 13.6709C41.796 13.6329 41.8338 13.2152 41.8716 12.6456C41.9094 12.1139 41.9472 11.5823 41.985 11.4684C42.0228 11.3544 41.985 10.9747 41.9094 10.6329C41.8338 10.2911 41.796 9.9114 41.796 9.79747C41.8338 9.68355 41.796 9.4557 41.7582 9.34177C41.7204 9.22785 41.6447 8.92405 41.6447 8.6962C41.6069 8.01265 41.5691 7.78481 41.5313 7.63291C41.4935 7.55696 41.4557 7.36708 41.4179 7.17721C41.3801 7.02531 41.3423 6.87342 41.2666 6.83544C41.2288 6.79747 41.1532 6.53165 41.1154 6.18988C41.0776 5.88608 40.9642 5.50633 40.8886 5.35443C40.5483 4.82279 40.4349 4.55696 40.397 4.13924C40.3592 3.64557 40.019 3.26582 39.225 2.65823C38.9603 2.46835 38.6956 2.24051 38.62 2.12658C38.5444 2.05063 38.431 1.97469 38.3176 1.93671C38.2041 1.93671 38.1285 1.89874 38.0907 1.82279C38.0529 1.78482 37.9395 1.70886 37.7882 1.67088C37.637 1.63291 37.2589 1.44304 36.9564 1.29114C36.654 1.13924 35.8978 0.797466 35.2928 0.531643C34.3854 0.189871 34.0451 0.0759494 33.3268 0C32.7974 0.0379747 32.3059 0.0379793 32.1547 0.075954Z" fill="#EC8132"/>
<path d="M10.6894 57.6835C10.8407 57.6076 10.9919 57.5696 10.9919 57.6076C11.0297 57.6456 11.1053 57.6076 11.1809 57.5316C11.2566 57.4557 11.37 57.4557 11.4078 57.4937C11.4456 57.5316 11.5212 57.4936 11.5969 57.4557C11.6725 57.4177 11.8615 57.3797 12.0127 57.4177C12.2396 57.4557 12.3152 57.4557 12.5043 57.2658C12.6177 57.1139 12.8067 57.038 12.958 57.038C13.2604 57.038 13.7142 56.5443 14.4325 55.4051C14.5081 55.2911 14.6216 55.1772 14.6594 55.1772C14.7728 55.1772 15.4155 54.6455 15.4155 54.5316C15.4155 54.4936 15.4912 54.4177 15.6046 54.3417C15.7558 54.2658 15.7936 54.1898 15.7936 53.962C15.7558 53.7721 15.7936 53.6582 15.9449 53.5823C16.0583 53.5063 16.1339 53.3924 16.1339 53.3164C16.1339 53.2025 16.2474 53.0126 16.3986 52.8228C16.5498 52.6329 16.6632 52.4051 16.6632 52.2911C16.6632 52.1772 16.7389 52.0633 16.7767 52.0253C16.8523 51.9873 16.8901 51.9114 16.8901 51.8354C16.8901 51.7595 17.0035 51.5696 17.1169 51.4557C17.2304 51.3038 17.3438 51.1139 17.3438 50.962C17.3438 50.8101 17.4194 50.6582 17.4572 50.6202C17.5329 50.5823 17.5707 50.2785 17.6085 50.0126C17.6463 49.7089 17.6841 49.443 17.7597 49.3671C17.7975 49.2911 17.8731 49.1013 17.8731 48.9494C17.8731 48.7975 17.9109 48.6076 17.9866 48.5316C18.0622 48.4557 18.1 48.2278 18.1378 48C18.1756 47.7721 18.2134 47.3924 18.289 47.1645C18.3268 46.8987 18.3268 46.6709 18.2512 46.5949C18.1756 46.481 18.1756 46.443 18.289 46.3671C18.4403 46.2911 18.4403 46.2152 18.3646 45.9114C18.3268 45.6076 18.3268 45.4557 18.4781 45.2278C18.5915 45.038 18.6293 44.8481 18.5537 44.7721C18.5159 44.6962 18.5159 44.4683 18.5915 44.2785C18.6671 44.0886 18.7049 43.7848 18.6671 43.5949C18.6293 43.405 18.6671 43.2532 18.7049 43.2532C18.7427 43.2532 18.8184 43.1392 18.8184 42.9873C18.8184 42.8354 18.8562 42.6835 18.894 42.6076C18.9318 42.5696 18.9318 42.4557 18.894 42.3797C18.8562 42.3038 18.8562 42.1519 18.894 42.0759C18.9696 42 18.9696 41.8101 18.9318 41.5823C18.8562 41.3164 18.894 41.2405 19.0074 41.1646C19.1208 41.0886 19.1586 40.9747 19.1208 40.7848C19.0452 40.3291 19.1586 38.2785 19.3099 38.0126C19.4233 37.7468 19.4611 36.6456 19.3099 36.0759C19.2721 35.8861 19.2721 35.5823 19.3099 35.3924C19.3477 35.2025 19.3477 34.9367 19.2721 34.8228C19.1964 34.6709 19.1964 34.5569 19.2721 34.481C19.3477 34.405 19.3477 34.3291 19.3099 34.2911C19.2342 34.2152 19.2721 32.8101 19.3477 31.2152C19.3477 30.8354 19.3477 30.0759 19.3099 29.5823C19.2721 29.0886 19.2343 27.9494 19.2721 27.038C19.3099 25.3671 19.3099 25.0633 19.1964 24.8354C19.1586 24.7595 19.1586 24.4177 19.1964 24.1139C19.2343 23.7721 19.2343 23.4683 19.1964 23.3924C19.1586 23.3164 19.1586 22.8607 19.1586 22.3291C19.1586 21.7975 19.1586 21.3038 19.1208 21.1899C19.083 21.0759 19.0452 20.7342 19.083 20.3924C19.1208 20.0886 19.083 19.7468 19.0452 19.6709C19.0074 19.5949 18.9696 19.443 19.0074 19.3671C19.0452 19.2532 19.0074 18.9493 18.9696 18.6456C18.894 18.3418 18.894 17.7721 18.894 17.3544C18.9318 16.9367 18.894 16.481 18.8562 16.3291C18.7427 15.9873 18.7049 15.4177 18.7427 15C18.7427 14.8481 18.7049 14.6202 18.6293 14.4683C18.5537 14.3544 18.5159 14.2025 18.5159 14.1266C18.5159 14.0506 18.5159 13.9367 18.4781 13.8228C18.4403 13.7468 18.4781 13.557 18.5537 13.443C18.6293 13.3291 18.6671 13.2152 18.6293 13.1392C18.5915 13.1013 18.5537 12.6835 18.5159 12.2278C18.4781 11.7721 18.3646 11.0886 18.2512 10.6709C18.1378 10.2532 18.0244 9.87341 18.0244 9.79746C18.0244 9.72151 17.9487 9.49367 17.7975 9.34177C17.6841 9.15189 17.5707 8.96202 17.6085 8.92404C17.6085 8.6962 17.1548 7.7848 16.9657 7.74683C16.8145 7.70885 16.7767 7.59493 16.8145 7.36708C16.8145 7.10126 16.7389 6.94936 16.3986 6.60759C16.1717 6.37974 15.9449 6.1519 15.9071 6.1519C15.7558 6.11392 15.4534 5.96202 15.2643 5.77215C15.1509 5.65823 14.9997 5.5443 14.8862 5.5443C14.7728 5.50633 14.6216 5.46835 14.5459 5.3924C14.3947 5.2405 13.2604 4.481 12.958 4.32911C12.8445 4.25316 12.5043 4.13923 12.2396 4.10126C11.9749 4.02531 11.4078 3.87341 10.9919 3.72151C9.13926 3.07594 8.8368 2.99999 8.19405 2.96201L7.51349 2.92405L6.53045 3.53163C4.29972 4.86075 3.3167 5.65822 2.78738 6.56961C2.59833 6.91138 2.14461 7.89873 1.80433 8.77215C0.896916 11.0886 0.632258 12.5696 0.367595 17.0886C0.178551 20.2785 -0.086121 28.5949 0.0273058 28.7848C0.0651147 28.8228 0.0651147 29.8861 0.0273058 31.1772C0.0273058 32.4683 0.0273058 34.1013 0.0273058 34.8228C0.0273058 35.5443 0.0651286 36.7595 0.0651286 37.519C0.0651286 38.962 0.329777 45.8354 0.405395 46.443C0.481013 47.1266 0.972534 49.6709 1.04815 49.8607C1.08596 49.9367 1.12377 50.1266 1.12377 50.2025C1.08597 50.6202 2.37148 53.8101 2.97642 54.8354C3.43013 55.5949 4.26192 56.5063 4.71562 56.7342C5.84989 57.3038 6.03894 57.3418 7.43787 57.5316C10.0089 57.7595 10.387 57.7975 10.6894 57.6835ZM9.74421 54.6835C9.59297 54.6076 9.40394 54.3797 9.32832 54.2278C9.2527 54.0759 9.06364 53.8101 8.91241 53.6582C8.76117 53.5063 8.64776 53.3544 8.64776 53.2785C8.64776 53.2025 8.57214 53.0506 8.45872 52.8987C8.34529 52.7468 8.26966 52.5569 8.30747 52.443C8.30747 52.3291 8.23184 52.1772 8.15623 52.1392C8.0428 52.0633 8.005 52.0253 8.11843 51.9114C8.23185 51.8354 8.19405 51.7215 8.08063 51.4557C7.81597 50.8481 7.62692 50.1266 7.62692 49.7089C7.62692 49.481 7.58911 49.0633 7.51349 48.7595C7.43788 48.4557 7.36225 48.1519 7.36225 48.0759C7.36225 48 7.32443 47.8481 7.28663 47.8101C7.24882 47.7342 7.21102 47.4304 7.24883 47.1266C7.28664 46.8228 7.24881 46.519 7.211 46.481C7.17319 46.443 7.13539 46.1012 7.09758 45.7974C7.09758 45.4557 7.02196 45.1519 6.90854 45C6.79511 44.8481 6.79512 44.7721 6.87074 44.7721C7.02197 44.7342 7.09759 43.443 6.98416 43.3291C6.87073 43.2531 6.87072 42.7215 7.02196 42.6456C7.13539 42.5696 7.17321 41.8101 7.05978 41.6582C7.02197 41.6202 6.98415 41.1645 7.02196 40.6709C7.02196 40.1772 6.98415 39.6835 6.90854 39.5696C6.79511 39.3797 6.79512 39.3038 6.94636 38.962C7.05979 38.6962 7.09759 38.3544 7.05978 37.7468C7.02197 36.2658 7.02196 36.1519 7.09758 35.6202C7.13539 35.3164 7.1732 34.8228 7.09758 34.443C7.05977 34.1013 7.05977 33 7.09758 32.0506C7.13539 31.1013 7.17321 29.962 7.1354 29.5443C7.0976 29.1266 7.09758 28.2911 7.09758 27.6456C7.09758 27 7.09758 26.2025 7.09758 25.8987C7.09758 25.5949 7.1354 25.3291 7.1732 25.2911C7.24882 25.2531 7.28664 23.962 7.24883 22.557C7.24883 22.1392 7.24882 21.5316 7.28663 21.2278C7.36224 20.5823 7.36226 20.2785 7.51349 16.9367C7.62692 14.3164 7.70253 13.4051 8.005 12.2658C8.08062 11.924 8.15623 11.4684 8.15623 11.2785C8.15623 11.0886 8.19405 10.8987 8.26967 10.8608C8.30748 10.8228 8.38309 10.7468 8.38309 10.6709C8.38309 10.3671 9.55517 8.24049 9.70641 8.27847C9.78203 8.27847 9.97107 8.12657 10.1601 7.89872C10.3492 7.67087 10.576 7.51898 10.6138 7.55695C10.7272 7.55695 11.0297 7.97468 11.2188 8.43038C11.7103 9.49367 12.164 11.8481 12.4287 14.8101C12.5043 15.5316 12.5799 16.443 12.6177 16.8228C12.6555 17.2025 12.6933 17.8101 12.7311 18.1899C12.7689 18.5696 12.8067 19.0253 12.8067 19.1772C12.8824 19.8608 12.9202 21.3418 12.9958 23.6582C13.0336 25.0253 13.1092 26.6582 13.147 27.3797C13.1848 28.1012 13.2226 29.0886 13.2226 29.6202C13.2226 30.1519 13.2604 31.0253 13.2604 31.5949C13.2982 32.1266 13.2982 32.8481 13.2604 33.1899C13.2226 33.5316 13.2604 33.9114 13.2983 34.0253C13.6007 34.9747 13.0336 44.962 12.4665 48.5696C12.3908 49.0253 11.9371 50.8101 11.7859 51.3038C11.6725 51.6835 10.7272 53.7342 10.387 54.4177C10.1601 54.8734 10.1601 54.9114 9.74421 54.6835Z" fill="#EC8132"/>
</svg>
