<svg width="28" height="32" viewBox="0 0 28 32" fill="none" xmlns="http://www.w3.org/2000/svg">
<path d="M23.943 9.71212C22.2771 9.58936 20.6313 9.48704 18.9654 9.38475C18.7246 7.93213 18.4837 6.49999 18.2228 5.04737C17.5404 1.13963 17.2594 -3.34096 13.1047 3.69706C12.0811 5.41564 11.0775 7.13422 10.0539 8.87326C8.58872 8.79142 7.12353 8.73005 5.65835 8.66867C0.118765 8.42316 -2.10911 8.60729 2.447 13.1697C3.53083 14.2745 4.61465 15.3589 5.69848 16.4637C4.39387 18.7756 3.12942 21.108 1.90509 23.4608C-0.663993 28.412 -0.443217 31.6445 5.43757 27.6754C7.66545 26.1819 9.85319 24.627 12.0409 23.0925C13.6265 24.7702 15.2121 26.4683 16.7977 28.1664C21.8757 33.6291 23.4613 33.7723 21.7753 25.1998C21.2535 22.581 20.7919 19.9622 20.3302 17.323C21.7553 16.3409 23.1602 15.3384 24.5652 14.3155C29.3019 10.8988 29.1815 10.0804 23.943 9.71212Z" fill="#EC8132"/>
</svg>
