<svg width="26" height="32" viewBox="0 0 26 32" fill="none" xmlns="http://www.w3.org/2000/svg">
<path d="M23.4966 16.6535C22.2784 15.1506 21.0248 13.666 19.7536 12.1998C20.5128 10.5136 21.2544 8.80908 21.9606 7.08623C23.7615 2.76078 23.3377 0.964617 18.9944 3.69552C17.529 4.61193 16.0636 5.54667 14.5805 6.46308C13.5565 5.36339 12.5325 4.28202 11.5084 3.20065C8.03026 -0.446655 6.1411 -2.68269 6.63546 6.2248C6.72374 7.911 6.79436 9.59718 6.84733 11.2834C5.68205 11.9982 4.51678 12.713 3.36916 13.4278C-2.12176 16.8002 -0.161981 17.8449 3.98711 18.7796C5.02879 19.0179 6.07048 19.2378 7.11217 19.4761C7.20044 21.5288 7.32403 23.5816 7.51824 25.616C8.43634 35.0917 9.83114 32.7457 12.7443 26.8074C13.6448 24.9562 14.5629 23.1051 15.4633 21.2539C17.1936 21.6205 18.9238 22.0054 20.6541 22.4086C26.8512 23.8932 27.4692 21.5838 23.4966 16.6535Z" fill="#EC8132"/>
</svg>
