<svg width="68" height="60" viewBox="0 0 68 60" fill="none" xmlns="http://www.w3.org/2000/svg">
<path d="M40.0609 30C40.0609 33.3115 37.3473 35.9959 34 35.9959C30.6527 35.9959 27.9391 33.3115 27.9391 30C27.9391 26.6886 30.6527 24.0041 34 24.0041C37.3473 24.0041 40.0609 26.6886 40.0609 30Z" fill="#EEEEEE"/>
<path fill-rule="evenodd" clip-rule="evenodd" d="M31.0383 4.82007C32.0164 5.60653 33.0064 6.48115 34 7.43685C34.9936 6.48116 35.9836 5.60653 36.9617 4.82007C39.4881 2.78884 41.9983 1.29479 44.3421 0.544662C46.6858 -0.205402 49.0268 -0.256242 51 0.870795C52.9732 1.99783 54.0992 4.02885 54.6144 6.41179C55.1297 8.79494 55.0769 11.6926 54.5619 14.8726C54.3625 16.1038 54.0918 17.3893 53.752 18.7184C55.0854 19.0918 56.3461 19.5027 57.5236 19.9475C60.565 21.0963 63.128 22.4999 64.9566 24.1329C66.785 25.7657 68 27.7459 68 30C68 32.2541 66.785 34.2343 64.9566 35.8671C63.128 37.5001 60.565 38.9037 57.5236 40.0525C56.3461 40.4973 55.0854 40.9082 53.752 41.2816C54.0918 42.6107 54.3625 43.8962 54.5619 45.1274C55.0769 48.3074 55.1297 51.2051 54.6144 53.5882C54.0992 55.9711 52.9733 58.0022 51 59.1292C49.0268 60.2562 46.6858 60.2054 44.3422 59.4553C41.9983 58.7052 39.4881 57.2112 36.9618 55.1799C35.9836 54.3935 34.9936 53.5188 34 52.5631C33.0064 53.5188 32.0164 54.3935 31.0382 55.1799C28.5119 57.2112 26.0017 58.7052 23.6578 59.4553C21.3142 60.2054 18.9732 60.2562 17 59.1292C15.0268 58.0022 13.9008 55.9712 13.3856 53.5882C12.8703 51.2051 12.9231 48.3074 13.4381 45.1274C13.6375 43.8962 13.9082 42.6107 14.248 41.2816C12.9146 40.9082 11.6539 40.4973 10.4764 40.0525C7.43504 38.9037 4.87203 37.5001 3.04343 35.8671C1.21499 34.2343 0 32.2541 0 30C0 27.7459 1.21499 25.7657 3.04343 24.1329C4.87203 22.4999 7.43504 21.0963 10.4764 19.9475C11.6539 19.5027 12.9146 19.0918 14.248 18.7184C13.9082 17.3893 13.6375 16.1038 13.4381 14.8726C12.9231 11.6926 12.8703 8.79493 13.3856 6.41178C13.9008 4.02885 15.0268 1.99782 17 0.870788C18.9733 -0.256248 21.3142 -0.205409 23.6579 0.544655C26.0017 1.29478 28.5119 2.78883 31.0383 4.82007ZM18.4783 3.40376C19.4746 2.83469 20.8727 2.72736 22.7478 3.32748C24.6228 3.92754 26.8112 5.19037 29.1736 7.0898C30.0812 7.81957 31.0053 8.63581 31.9374 9.53225C29.9905 11.6155 28.0516 13.9905 26.1821 16.6042C22.9593 16.899 19.9108 17.3727 17.1137 17.999C16.795 16.7522 16.5424 15.5524 16.3574 14.4099C15.8758 11.4362 15.8645 8.92993 16.2767 7.02354C16.6889 5.11695 17.4819 3.97283 18.4783 3.40376ZM30.0398 16.3419C31.3479 14.6341 32.6758 13.0589 34 11.6339C35.3242 13.0589 36.6521 14.6341 37.9602 16.3419C36.6603 16.2834 35.3387 16.2533 34 16.2533C32.6613 16.2533 31.3397 16.2834 30.0398 16.3419ZM17.9222 20.817C19.8318 20.395 21.8746 20.0449 24.0237 19.7782C23.3225 20.8625 22.6354 21.9797 21.966 23.1267C21.2966 24.2736 20.6622 25.4209 20.0635 26.5638C19.2225 24.5892 18.5075 22.664 17.9222 20.817ZM24.5264 24.5891C23.4667 26.4049 22.5011 28.2152 21.6321 30C22.5011 31.7848 23.4667 33.5951 24.5264 35.4109C25.5862 37.2267 26.6881 38.9592 27.8161 40.5961C29.813 40.744 31.8806 40.8219 34 40.8219C36.1194 40.8219 38.187 40.744 40.1839 40.5961C41.3119 38.9592 42.4138 37.2267 43.4736 35.4109C44.5333 33.5951 45.4989 31.7848 46.3679 30C45.4989 28.2151 44.5333 26.4049 43.4736 24.5891C42.4139 22.7733 41.3119 21.0409 40.184 19.4039C38.187 19.256 36.1194 19.1781 34 19.1781C31.8806 19.1781 29.813 19.256 27.8161 19.4039C26.6881 21.0409 25.5861 22.7733 24.5264 24.5891ZM15.051 21.5333C15.9013 24.2428 17.0109 27.0915 18.3643 30C17.0109 32.9085 15.9013 35.7572 15.051 38.4667C13.8002 38.1164 12.6236 37.7328 11.531 37.3201C8.687 36.2458 6.48731 35.0024 5.02453 33.6961C3.56159 32.3896 2.95652 31.1381 2.95652 30C2.95652 28.8619 3.56159 27.6104 5.02453 26.3039C6.48731 24.9976 8.687 23.7542 11.531 22.6799C12.6236 22.2672 13.8002 21.8836 15.051 21.5333ZM20.0635 33.4362C19.2225 35.4107 18.5075 37.336 17.9222 39.183C19.8317 39.6051 21.8747 39.9551 24.0237 40.2219C23.3225 39.1375 22.6354 38.0203 21.966 36.8733C21.2967 35.7264 20.6622 34.5791 20.0635 33.4362ZM16.3574 45.5901C16.5424 44.4476 16.7949 43.2478 17.1137 42.001C19.9107 42.6273 22.9593 43.101 26.1822 43.3958C28.0516 46.0095 29.9905 48.3845 31.9374 50.4677C31.0053 51.3642 30.0812 52.1804 29.1735 52.9102C26.8112 54.8096 24.6228 56.0725 22.7478 56.6725C20.8727 57.2726 19.4746 57.1653 18.4783 56.5962C17.4819 56.0272 16.6889 54.8831 16.2767 52.9765C15.8645 51.0701 15.8758 48.5638 16.3574 45.5901ZM38.8265 52.9102C37.9188 52.1804 36.9947 51.3642 36.0627 50.4677C38.0095 48.3845 39.9484 46.0095 41.8179 43.3958C45.0407 43.101 48.0893 42.6273 50.8864 42.001C51.2051 43.2478 51.4576 44.4476 51.6426 45.5901C52.1242 48.5638 52.1355 51.0701 51.7233 52.9765C51.3111 54.883 50.5181 56.0272 49.5218 56.5962C48.5254 57.1653 47.1273 57.2726 45.2522 56.6725C43.3772 56.0724 41.1888 54.8096 38.8265 52.9102ZM34 48.366C35.3242 46.941 36.6521 45.3659 37.9601 43.6581C36.6603 43.7166 35.3387 43.7467 34 43.7467C32.6613 43.7467 31.3397 43.7166 30.0399 43.6581C31.3479 45.3659 32.6758 46.941 34 48.366ZM50.0778 39.183C48.1683 39.6051 46.1254 39.9551 43.9763 40.2219C44.6775 39.1375 45.3646 38.0203 46.034 36.8733C46.7034 35.7264 47.3378 34.5791 47.9365 33.4362C48.7775 35.4107 49.4925 37.336 50.0778 39.183ZM52.949 38.4667C52.0987 35.7572 50.9891 32.9085 49.6357 30C50.9891 27.0915 52.0987 24.2428 52.949 21.5333C54.1998 21.8836 55.3764 22.2672 56.469 22.6799C59.313 23.7542 61.5127 24.9976 62.9755 26.3039C64.4384 27.6104 65.0435 28.8619 65.0435 30C65.0435 31.1381 64.4384 32.3896 62.9755 33.6961C61.5127 35.0024 59.313 36.2458 56.469 37.3201C55.3764 37.7328 54.1998 38.1164 52.949 38.4667ZM41.8179 16.6042C45.0407 16.899 48.0893 17.3727 50.8863 17.999C51.205 16.7522 51.4576 15.5524 51.6426 14.4099C52.1242 11.4362 52.1355 8.92994 51.7233 7.02355C51.3111 5.11696 50.5181 3.97284 49.5217 3.40377C48.5254 2.8347 47.1273 2.72736 45.2522 3.32749C43.3772 3.92755 41.1888 5.19038 38.8264 7.0898C37.9188 7.81957 36.9947 8.63582 36.0627 9.53225C38.0095 11.6155 39.9484 13.9905 41.8179 16.6042ZM47.9365 26.5638C48.7775 24.5892 49.4925 22.664 50.0778 20.817C48.1683 20.395 46.1254 20.0449 43.9763 19.7782C44.6775 20.8625 45.3646 21.9797 46.034 23.1267C46.7034 24.2736 47.3378 25.4209 47.9365 26.5638Z" fill="#EEEEEE"/>
</svg>
