<svg width="64" height="64" viewBox="0 0 64 64" fill="none" xmlns="http://www.w3.org/2000/svg">
<path fill-rule="evenodd" clip-rule="evenodd" d="M62.3215 7.8735C58.4487 8.11123 63.5861 7.00182 62.6377 5.49618C62.0054 4.46601 60.0294 7.00181 59.7133 6.92257C59.5552 6.84333 60.1875 3.27735 60.1085 3.11887C60.0294 2.96038 59.8713 2.96038 59.8713 3.11887C59.16 4.6245 57.7373 3.83206 57.7373 4.86223C57.7373 5.33769 57.5002 5.73391 57.4212 5.41694C57.105 4.78299 57.026 5.41694 56.1566 6.05089C52.837 8.50745 53.8645 6.6056 53.8645 8.90367C53.8645 9.1414 53.5484 8.90367 53.4693 8.74518C53.3113 8.26972 53.2322 8.34896 51.0192 10.2508C50.703 10.5678 50.8611 10.8055 51.0192 13.896C51.0192 14.4507 50.0707 14.7677 49.3594 15.4017C44.38 20.1563 46.0398 19.5223 43.9848 16.9073C40.6653 12.7866 35.0536 8.4282 29.8371 7.47728C25.5691 6.68484 21.0639 7.23955 20.5107 7.47728C18.1396 8.26972 15.2152 9.29989 10.8681 11.4395C7.0743 13.3413 5.65163 13.4206 2.25302 19.9186C-1.54078 27.209 -0.0390653 35.4504 3.0434 42.6616C7.39046 52.6463 14.7409 59.7782 25.5691 60.9669C27.466 61.2046 29.9952 60.0952 31.1017 59.7782C31.813 59.5405 32.4453 59.2235 33.1567 58.9858C34.0261 58.6688 34.8955 58.5103 35.7649 58.1934C36.002 58.1141 40.2701 56.45 40.9023 55.6576C40.9814 55.5783 42.6412 54.3896 45.3285 51.2199C47.3834 48.8426 48.3319 44.6426 48.8061 43.2955C50.1497 39.571 49.5174 33.8655 48.8061 30.0618C46.514 18.4129 43.9058 21.7412 48.49 18.0167C51.8095 15.3224 51.9676 15.1639 52.679 15.2432C53.5484 15.2432 54.4178 15.0847 55.3662 15.0847C56.7889 15.0847 56.7889 14.6885 57.5002 14.1338C59.7133 12.3904 58.6858 13.1036 58.1325 12.3112C57.8954 11.9942 59.0019 12.1527 59.3181 12.2319C59.7923 12.3904 59.6342 12.1527 61.9263 9.93384C62.0054 9.85459 63.9813 8.19047 63.9813 8.03199C64.1394 7.55652 63.27 7.8735 62.3215 7.8735ZM59.4762 3.99055C59.7923 3.83206 59.6343 4.06979 59.3971 7.08106C59.3971 7.55652 59.16 7.79425 57.9744 8.74518C57.7373 8.90367 57.8164 8.74518 57.8164 8.50745C57.7374 4.38677 57.9744 4.70374 59.4762 3.99055ZM56.7098 5.97165C56.7889 5.8924 57.026 5.73391 57.026 5.81316C57.3422 6.13013 57.5002 8.74518 57.5002 9.06216C55.8404 10.7263 56.2356 10.0923 56.2356 7.71501C56.3147 6.84333 55.9985 6.36786 56.7098 5.97165ZM54.1807 7.95274C54.1807 7.47728 55.2872 6.92257 55.5243 6.76408C56.1566 6.36786 55.9985 10.2508 55.6824 10.4885C53.8645 12.3112 54.1807 12.5489 54.1807 7.95274ZM52.758 9.29989C53.6274 8.58669 53.6274 9.77535 53.9435 11.5187C54.0226 11.7564 54.1016 11.9942 54.0226 12.0734C50.1497 15.0054 51.9676 14.1338 51.0982 10.8055C50.9401 10.4885 51.3353 10.4093 52.758 9.29989ZM43.5896 17.145C43.8268 17.3828 45.1704 19.2846 44.8542 19.5223C41.8508 21.5034 42.167 21.1865 41.7718 21.5827C41.1395 22.2959 41.0604 21.4242 39.0055 18.5714C36.8714 15.6394 34.3423 13.3413 30.8646 12.6281C18.2976 10.2508 21.222 15.8771 19.3251 8.66594C19.167 7.8735 33.1567 3.83206 43.5896 17.145ZM28.8887 37.3522C28.4935 37.4315 28.5725 37.1145 27.9402 35.1334C27.7821 34.6579 28.4144 34.7372 28.4935 34.8957C29.1258 36.956 29.2048 37.273 28.8887 37.3522ZM29.1258 34.8164C29.521 34.9749 29.9952 35.0541 30.1533 35.5296C30.2323 35.6881 30.3113 35.8466 30.2323 35.9258C29.4419 37.1145 29.521 37.3522 28.8887 34.9749C28.8096 34.8957 28.8096 34.7372 29.1258 34.8164ZM27.7821 34.1825C27.7821 34.1032 28.0192 34.1032 28.0192 34.1825C28.0192 34.341 27.7821 34.2617 27.7821 34.1825ZM27.1498 31.8051C27.2289 31.7259 27.387 31.7259 27.387 31.8051C28.0983 32.9938 27.466 33.3108 27.3079 32.9146C27.0708 32.0429 27.0708 32.0429 27.1498 31.8051ZM27.3079 34.1825C26.9918 34.5787 25.2529 33.39 26.5966 32.2014C26.8337 31.8844 27.387 34.024 27.3079 34.1825ZM28.0192 31.8844C28.0983 31.8051 28.0983 31.8051 28.0983 31.8051C28.3354 31.9636 28.6516 32.2014 28.4935 32.3599C28.1773 32.6768 27.8612 32.0429 28.0192 31.8844ZM27.466 30.2995C27.466 30.2203 27.387 30.141 27.3079 30.141C26.8337 30.141 27.6241 31.4882 27.0708 31.2504C26.7546 31.092 26.9127 30.8542 26.8337 30.6165C26.7546 30.5372 26.6756 30.3788 26.5175 30.458C26.0433 30.6165 26.9918 31.3297 26.3595 31.9636C25.2529 32.9938 25.9643 34.4994 26.9918 34.6579C27.387 34.7372 27.7031 34.8957 27.7821 35.3711C28.0193 36.639 28.6515 37.6692 28.0192 37.3522C27.6241 37.1937 27.1498 37.1145 26.9918 36.639C26.9918 36.5598 26.9127 36.5598 26.8337 36.5598C26.2804 36.4013 26.9127 37.7484 28.4144 37.9069C28.4935 37.9069 28.7306 38.4616 28.8887 38.5409C28.9677 38.6201 29.1258 38.5409 29.1258 38.4616C29.2048 38.1447 29.0467 38.2239 29.0467 37.9862C28.9677 37.7484 29.2838 37.7484 29.4419 37.8277C29.521 37.9069 29.6 38.0654 29.679 38.2239C29.7581 38.3031 29.9161 38.3031 29.9952 38.1447C30.0742 37.7484 29.4419 37.7484 30.0742 37.1145C31.1017 35.9258 30.9436 34.6579 29.4419 34.2617C28.7306 34.1032 28.7306 34.1825 31.0227 32.2014C31.655 31.6467 31.734 33.707 31.8921 34.7372C32.6825 39.4918 28.9677 40.522 27.545 39.0163C23.356 34.5787 24.3045 28.8731 27.0708 29.0316C27.7031 29.1109 28.5725 28.3977 30.3904 30.0618C30.8646 30.458 30.1533 30.8542 29.679 31.4089C29.3629 31.7259 29.1258 31.8844 28.8096 31.4089C28.4935 31.2504 27.7821 31.8844 27.466 30.2995ZM15.0571 15.7979C16.875 14.3715 20.1945 13.1828 20.3526 13.5791C20.4316 13.8168 22.0914 18.1752 21.6962 18.3337C17.1121 19.6808 11.8166 26.0996 12.9231 33.3108C13.7925 39.0956 15.7684 37.1145 9.76158 39.0956C9.3664 39.2541 9.28737 39.0163 9.20833 38.7786C8.97122 38.2239 7.78566 34.8957 8.02277 34.6579C7.31144 28.6354 6.52106 22.6921 15.0571 15.7979ZM28.2564 40.4427C29.9952 39.9673 29.3629 39.571 30.7065 43.5332C30.8646 43.9295 31.5759 44.7219 30.7856 44.8804C30.7065 44.8804 28.3354 45.3558 28.2564 45.3558C25.6481 44.7219 22.7237 43.6125 21.3011 41.3144C19.9574 39.3333 19.088 36.7183 19.4042 36.5598C22.9609 35.3711 23.198 35.2126 23.356 35.6881C23.9883 37.7484 24.6997 39.3333 27.1498 40.6805C27.3079 40.9182 27.8612 40.6012 28.2564 40.4427ZM27.1498 39.8088C27.3079 39.571 27.6241 39.888 27.6241 40.0465C27.6241 40.205 27.3079 40.3635 27.3079 40.2842C27.0708 40.1258 26.9918 40.1258 27.1498 39.8088ZM32.2082 33.2315C36.0811 32.0429 35.5278 31.1712 35.923 34.9749C36.3972 39.0956 35.2907 42.1861 31.734 44.4842C31.2598 44.8011 31.3388 44.4049 30.8646 43.3748C30.7856 43.2163 30.7065 43.137 30.7065 42.9785C30.2323 41.4729 29.679 39.888 30.2323 39.7295C31.2598 39.3333 31.655 38.4616 31.8921 37.4315C32.5244 35.2919 31.3388 33.5485 32.2082 33.2315ZM31.8921 44.9596C34.8165 43.5332 36.6343 39.9673 36.4763 36.8768C36.1601 30.8542 34.8955 32.4391 39.3216 30.6165C39.7168 30.458 39.7168 30.5372 39.8749 31.8844C41.3766 45.1181 33.3938 50.1105 32.9196 48.6841C31.5759 45.1974 31.5759 45.1181 31.8921 44.9596ZM14.4248 38.2239C14.4248 38.0654 17.7444 36.956 17.9025 36.956C18.5348 36.7183 18.6138 36.7975 18.7719 37.3522C20.5897 41.9484 22.0124 44.4049 27.0708 45.7521C28.2564 46.069 28.7306 45.7521 31.0227 45.3558C31.2598 45.2766 31.2598 45.3558 32.5244 48.7633C32.9986 49.8727 17.9024 52.3293 14.4248 38.2239ZM24.0674 31.8844L24.1464 31.9636C24.1464 32.8353 24.3835 32.7561 23.198 33.1523C23.198 33.1523 23.1189 32.9938 23.1189 32.9146C23.277 32.2014 23.4351 32.0429 24.0674 31.8844ZM24.4626 30.8542C24.3835 31.4882 23.6722 31.8051 23.4351 31.6467C23.198 31.3297 24.4626 30.3788 24.4626 30.8542ZM23.9883 33.4693C24.2254 33.39 24.3045 33.9447 24.3835 34.2617C24.3835 34.4202 23.5932 34.6579 23.4351 34.6579C23.356 34.6579 23.198 34.5787 23.198 34.4994C22.9608 33.707 23.4351 33.6278 23.9883 33.4693ZM26.5175 39.7295C26.3595 39.7295 25.8062 39.2541 25.7272 39.1748C25.6481 39.0956 26.2014 38.7786 26.2804 38.6994C26.3595 38.6201 26.9918 39.3333 27.0708 39.4126C27.1498 39.571 26.6756 39.6503 26.5175 39.7295ZM25.2529 38.7786C25.0158 38.7786 24.6997 38.2239 24.6997 38.0654C24.6997 37.9069 25.2529 37.5899 25.49 37.5899C25.6481 37.5899 26.0433 38.0654 26.0433 38.2239C26.0433 38.3824 25.49 38.7786 25.2529 38.7786ZM25.2529 37.0352C25.0949 37.273 24.8578 37.3522 24.5416 37.5107C24.3045 37.6692 23.9883 36.7975 24.0674 36.7183C24.2254 36.4805 24.6206 36.322 24.9368 36.322C25.0158 36.322 25.332 36.8768 25.2529 37.0352ZM23.9883 36.0843C23.7512 36.2428 23.356 35.3711 23.4351 35.2126C23.5932 34.8957 24.3835 34.8164 24.4626 34.9749C24.7787 35.6089 24.9368 35.5296 23.9883 36.0843ZM24.7787 29.824C24.8577 29.7448 24.9368 29.9825 24.7787 30.0618C23.9883 30.3788 23.7512 30.458 24.7787 29.824ZM24.6997 29.3486C22.7237 30.2995 22.9609 32.8353 22.9609 34.8164C22.9609 34.8957 22.8818 35.0541 22.8028 35.0541C19.2461 36.322 19.009 36.4013 19.009 36.0843C17.5073 27.2882 20.5897 25.8619 23.8303 24.0392C23.9093 24.0392 24.1464 24.1185 24.1464 24.1977C26.4385 29.1901 26.3595 29.0316 25.8062 28.9524C25.4901 28.7939 25.0949 29.1109 24.6997 29.3486ZM23.7512 23.4845C19.8784 25.9411 17.2701 27.1298 18.5347 36.2428C18.6138 36.5598 18.4557 36.5598 14.82 37.7484C14.3458 37.9069 14.4248 38.0654 13.3973 33.3108C11.8956 26.3373 17.9024 19.8393 21.9334 18.7299C22.3285 18.6507 22.1705 18.4922 23.9093 23.4053C23.8303 23.326 23.7512 23.4053 23.7512 23.4845ZM14.0296 38.3824C15.7684 46.3068 22.8028 51.5369 32.5244 49.635C32.9196 49.5558 32.9196 50.0312 33.868 53.0425C34.0261 53.5972 34.0261 53.4387 30.3904 54.3896C29.2048 54.7066 25.5691 54.9444 21.6172 53.5972C17.5073 52.1708 17.2701 51.6954 15.6894 50.0312C12.686 46.7822 9.91967 41.0767 9.52448 39.7295C9.44544 39.4126 13.9506 37.9069 14.0296 38.3824ZM33.3938 49.3973C34.5793 48.8426 36.2392 48.5256 37.5828 45.7521C39.0845 42.82 40.2701 41.3937 40.3491 34.8957C40.4281 29.6656 38.4522 30.8542 43.5106 29.1901C44.459 28.8731 44.5381 36.956 44.301 40.205C44.2219 41.2352 42.6412 47.7332 38.6893 50.8237C37.978 51.3784 34.5794 53.9142 34.2632 53.1217C33.0776 49.5558 33.0776 49.5558 33.3938 49.3973ZM43.4316 28.7146C40.5072 29.7448 40.112 29.9033 40.112 29.9033C39.7958 29.9825 39.7168 29.4278 38.3732 26.575C38.057 25.9411 38.2941 26.0996 41.3766 23.643C42.0089 23.0883 43.5106 28.0014 43.5896 28.3977C43.6687 28.5561 43.5106 28.7146 43.4316 28.7146ZM39.4006 30.2203C35.7649 31.6467 35.923 31.8051 35.6069 31.0127C35.1326 29.6656 34.5794 29.1109 34.8955 28.8731C37.8989 26.4166 37.8199 26.3373 38.057 26.8128C39.4797 29.9825 39.6378 30.141 39.4006 30.2203ZM35.2117 31.8844C31.1017 33.4693 31.9711 32.9146 31.4969 32.2014C31.2598 31.8051 31.734 31.5674 34.1051 29.5071C34.3423 29.2693 34.3423 29.5863 34.4213 29.6656C35.3697 31.7259 35.5278 31.7259 35.2117 31.8844ZM27.9402 28.7146C26.7546 28.6354 26.6756 29.0316 26.2804 28.2392C26.2014 28.0807 24.3045 24.1185 24.3835 23.96C24.5416 23.2468 28.1773 22.4544 30.5485 24.6732C33.3148 27.3675 34.1842 27.7637 32.9986 28.7146C31.1017 30.2203 30.9436 30.3788 30.7065 30.2203C29.1258 28.8731 29.4419 28.8731 27.9402 28.7146ZM31.9711 25.2279C31.1017 24.4355 30.2323 23.4845 29.0467 23.0883C26.5175 22.1374 25.1739 23.0091 24.3835 23.1676C24.3045 23.1676 24.0674 23.0883 23.9883 22.9298C22.4076 18.8092 22.2495 18.4129 22.5657 18.3337C26.7547 17.0658 30.2323 17.3828 35.3697 22.6921C37.2666 24.594 37.2666 25.0694 36.6343 25.4656C32.5244 28.5561 35.1326 28.2392 31.9711 25.2279ZM22.6447 17.8582C22.3286 18.0167 22.0914 17.9375 22.0124 17.5412C20.5897 13.0243 20.3526 13.1828 20.8268 13.0243C23.5141 12.0734 26.9918 12.4696 29.8371 13.0243C34.1842 13.896 34.8955 14.1338 39.8749 20.394C40.112 20.6318 40.9814 22.0581 40.7443 22.2959C37.8989 24.7524 37.5828 24.9902 37.5037 24.6732C36.3182 22.2166 28.4935 14.7677 22.6447 17.8582ZM17.7444 8.82442C18.8509 8.34896 18.9299 8.34896 19.009 8.66594C20.8268 14.6885 20.5897 11.8357 15.9265 14.6885C2.41111 22.9298 8.73411 39.2541 8.73411 39.2541C4.54512 40.6012 4.78223 40.4427 4.70319 40.1257C2.64821 32.5183 2.01591 31.2504 2.64821 27.6052C3.12243 24.6732 3.51764 22.6129 4.86127 20.1563C5.41454 19.1261 6.20489 16.4318 9.68254 13.4206C11.9746 11.4395 11.9746 11.1225 17.7444 8.82442ZM27.0708 60.4914C23.9883 61.0461 19.8784 59.382 19.5622 59.3028C4.70318 54.3104 -7.46858 27.4467 6.75817 14.1338C7.54854 13.3413 10.631 11.9942 10.4729 12.2319C9.91965 13.2621 4.38704 16.2733 2.33206 27.0505C1.54169 31.0919 2.33206 33.9447 3.91281 39.3333C4.46608 41.2352 5.1774 43.8502 9.28735 50.0312C12.9231 55.5783 18.1396 58.7481 24.4626 59.699C27.466 60.1744 28.4935 60.016 28.8096 60.016C29.4419 60.016 27.7031 60.4122 27.0708 60.4914ZM32.2082 58.8273C31.1017 59.4613 22.1705 60.8876 14.741 55.0236C12.8441 53.5972 12.2118 53.2802 10.7891 51.4576C9.99871 50.4275 5.33548 42.6616 5.01933 41.1559C4.9403 40.7597 5.57261 40.6805 7.94373 40.0465C8.97122 39.7295 9.05025 39.3333 9.3664 40.0465C11.0262 43.8502 14.1086 49.635 17.6653 52.2501C18.3767 52.7255 23.6722 55.7368 30.7065 54.7066C35.1326 54.0727 33.789 52.2501 35.4488 57.4009C35.6068 58.0349 33.6309 57.9556 32.2082 58.8273ZM48.9642 33.707C49.5174 40.205 49.3594 40.8389 47.2253 47.02C46.593 48.9218 45.8027 50.4275 43.6687 52.6463C39.7958 56.6085 39.7958 55.9745 38.057 56.8462C37.8199 57.0047 35.8439 57.7179 35.7649 57.4009C34.0261 52.6463 34.0261 54.3896 37.0295 52.4878C38.3732 51.6161 39.6378 50.6652 40.6652 49.3973C42.167 47.5747 42.7993 45.8313 44.2219 42.1861C44.8542 40.522 44.6962 35.0541 44.6171 34.024C44.38 30.2203 44.38 30.3788 44.2219 29.4278C44.0639 28.7146 43.9848 28.8731 47.5415 27.7637C48.2529 27.6052 48.8851 33.073 48.9642 33.707ZM44.459 28.3977C43.7477 28.7146 44.1429 28.7939 42.7202 24.9109C42.4041 24.0392 41.8508 23.2468 42.0879 23.0091C45.5656 20.1563 45.3285 20.2355 45.4865 20.711C48.4109 29.2693 48.4109 26.5751 44.459 28.3977ZM40.9023 22.5336C43.1944 20.8695 43.7477 21.1072 48.7271 16.4318C52.0467 13.3413 50.703 14.847 52.5209 13.4998C56.3147 10.7263 61.7682 5.09996 62.3215 5.65467C62.7957 6.13013 62.5586 5.97164 56.4727 10.964C8.1018 50.8237 34.7374 26.7335 40.9023 22.5336ZM55.9985 14.6885C51.3353 15.1639 52.1257 14.9262 54.1807 13.4206C54.3387 13.3413 57.2631 13.4206 57.2631 13.5791C57.3422 13.8168 56.0775 14.847 55.9985 14.6885ZM59.6342 11.6772C59.3971 11.8357 57.1841 11.5187 57.105 12.0734C57.105 12.3112 57.9745 12.7074 58.0535 12.8659C58.2906 13.3413 57.2631 13.1036 56.5518 13.0243C54.4178 12.9451 53.8645 13.5791 57.6583 10.2508C58.1325 9.85459 60.9779 9.93384 61.0569 10.0923C61.1359 10.3301 59.7923 11.598 59.6342 11.6772ZM63.0328 8.50745C61.6102 10.0131 62.0844 9.61686 58.9229 9.69611C58.7648 9.69611 58.7648 9.53762 58.8439 9.45837C60.7408 7.8735 60.4246 8.50745 62.8748 8.19047C63.0329 8.19047 63.1119 8.19047 63.1909 8.26972C63.1909 8.34896 63.1119 8.4282 63.0328 8.50745Z" fill="#4A494E"/>
</svg>
