<svg width="64" height="64" viewBox="0 0 64 64" fill="none" xmlns="http://www.w3.org/2000/svg">
<path fill-rule="evenodd" clip-rule="evenodd" d="M56.4971 30.2054C56.4971 25.704 57.1336 24.0455 56.9745 21.7553C56.4176 14.174 57.3722 9.6725 56.0993 6.75051C55.7811 5.96078 55.9402 5.88181 48.3029 1.8542C43.4499 -0.67293 45.9957 -0.19909 30.3232 0.827556C25.9476 1.14345 19.5036 2.01215 13.7755 3.27571C7.80883 4.61825 7.88839 11.9627 7.49061 20.8866C7.17239 27.6783 7.49062 26.1778 7.17239 37.234C6.93373 47.1846 6.69505 52.0809 8.28617 54.7659C8.44529 55.0029 8.60441 55.3187 9.63864 55.7926C10.116 56.0295 10.5138 56.2664 10.9115 56.5033C11.3889 56.7402 11.548 57.372 11.6275 57.9248C11.8662 58.8725 11.7867 59.9781 12.5027 60.2151C14.8098 60.9258 15.3667 61.7155 16.56 61.3997C17.6738 61.1627 17.1965 61.3996 18.3102 59.7412C18.3898 59.6622 18.4693 59.6622 18.5489 59.6622C23.9587 61.4786 20.9356 61.3997 25.9476 61.3997C27.3001 61.3997 27.3001 63.295 27.857 63.374C30.9596 63.9268 30.9596 64.2427 32.3121 63.7688C32.6303 63.6899 32.9485 63.6899 33.1077 63.295C33.8237 61.2417 34.0623 60.7679 34.6192 60.6889C34.8579 60.6099 44.9615 58.9515 45.1206 59.1884C45.7571 60.1361 45.3593 60.452 46.314 60.5309C47.6664 60.6889 48.1438 60.8468 49.0984 60.8468C49.4962 60.8468 49.9735 60.7679 50.5304 60.5309C51.0078 60.373 51.0078 60.452 52.2011 57.8459C52.8376 56.5033 53.7922 57.0561 54.906 54.9239C55.7811 53.1075 55.7811 47.4215 55.9402 44.8154C56.8153 31.7849 56.4176 38.1817 56.4971 30.2054ZM14.9689 60.2151C14.8098 60.294 13.1391 59.5043 12.98 59.4253C12.6617 59.2674 12.5822 58.8725 12.1049 56.9772C12.1049 56.8982 12.264 56.8192 12.3435 56.8982C14.4915 57.8459 14.3324 57.7669 14.4916 58.3197C14.4916 58.3987 15.0484 60.2151 14.9689 60.2151ZM17.0373 60.6099C16.56 61.0048 15.7644 60.6099 15.5258 59.9781C15.0484 58.4777 14.8098 58.1618 15.4462 58.3987C15.6849 58.4777 15.844 58.3197 16.1622 58.4776C16.2418 58.5566 17.6738 59.1884 17.6738 59.2674C17.7534 59.4253 17.3556 60.294 17.0373 60.6099ZM19.3445 58.6356C19.1058 57.8459 18.8671 56.9772 18.6285 56.1874C18.5489 55.8716 18.1511 56.0295 18.3102 56.7403C18.6285 57.9248 18.708 58.0828 18.5489 58.1618C18.2307 58.3197 17.6738 57.0562 17.5942 56.6613C17.5147 56.5033 17.276 55.4767 17.1965 55.3977C17.1169 55.3187 16.9578 55.3188 16.8782 55.4767C16.7987 55.7136 17.276 57.2931 17.992 58.5566C17.992 58.6356 17.992 58.7146 17.992 58.7146C17.7533 58.9515 16.8782 58.3987 16.4009 57.2141C16.0827 56.4244 15.844 55.5557 15.5258 54.7659C15.3667 54.3711 15.0484 54.608 15.128 54.9239C15.9236 57.2931 16.56 58.4776 16.0031 58.0828C14.9689 57.372 15.2076 57.8459 14.0142 54.8449C13.9347 54.608 14.0142 54.3711 13.8551 54.1342C13.7755 54.0552 13.6164 54.0552 13.6164 54.1342C13.2187 54.687 14.6507 57.1351 14.4916 57.2141C14.2529 57.451 13.2982 56.4244 13.0595 56.0295C12.5026 55.0029 12.4231 53.6603 12.3435 53.4234C12.264 53.2655 12.1049 53.2655 12.0253 53.4234C11.9458 53.5813 11.9457 53.5813 12.5822 56.0295C12.7413 56.5823 11.2297 56.0295 11.0706 53.2655C11.0706 52.6337 10.116 53.0285 11.2298 55.7136C11.3093 55.7926 11.1502 55.9505 11.0706 55.7926C10.2751 54.8449 10.116 54.529 10.0364 53.3444C10.0364 53.1865 9.95685 52.3178 9.87729 52.1598C9.79774 52.0809 9.55908 52.0809 9.55908 52.2388C9.63863 54.1342 9.71819 53.9762 9.95686 55.0029C9.95686 55.1608 9.79775 55.2398 9.7182 55.0818C8.60441 53.5814 8.84307 52.3178 8.76352 52.0019C8.6044 51.607 8.36574 51.765 8.36574 52.0019C8.6044 53.8972 8.68397 53.8972 8.52486 53.9762C8.28619 54.0552 7.80885 51.765 7.7293 51.5281C7.01329 48.2112 7.57018 37.4709 7.57018 36.9181C7.72929 26.6516 7.33152 22.4661 8.52486 11.015C8.84308 8.25099 9.63864 7.0664 10.116 6.11873C10.1955 5.96078 10.3546 5.88181 10.5138 5.72386C11.548 4.22338 13.0595 3.67057 14.7302 3.35468C25.0725 1.14344 40.4268 0.274743 44.7228 0.669607C44.8024 0.669607 45.0411 0.748583 45.0411 0.827556C45.2002 1.06447 41.7793 1.06447 41.461 1.06447C41.3815 1.06447 41.2224 1.14345 41.2224 1.22242C41.2224 1.30139 41.3019 1.45933 41.3815 1.45933C42.0179 1.38036 42.0975 1.45934 43.3704 1.38036C47.4277 1.14344 46.8708 1.69625 46.3935 1.69625C43.1317 2.01215 43.3704 1.93317 43.2113 2.09112C43.1317 2.17009 43.1317 2.32804 43.2113 2.40701C43.3704 2.48598 44.0068 2.40701 44.6433 2.32804C45.7571 2.17009 46.4731 2.24906 47.3482 2.09112C47.5073 2.01215 47.746 2.09112 47.9051 2.17009C48.462 2.48598 46.7913 2.7229 45.3593 2.88085C45.0411 2.88085 44.9615 2.80187 44.6433 3.03879C44.5637 3.11776 44.5637 3.27571 44.7228 3.35468C45.0411 3.51263 50.2122 2.48598 49.9735 3.35468C49.894 3.5916 47.03 3.74955 46.7117 3.90749C45.6775 4.69722 49.4166 3.67058 50.9282 3.90749C51.326 3.98647 51.9624 4.30236 52.1215 4.4603C52.4398 4.69722 49.7349 4.69722 49.3371 4.69722C48.462 4.69722 47.5868 4.77619 46.7913 4.85516C41.0632 5.09208 35.2557 6.11873 33.3463 6.35565C25.9476 7.38229 23.1631 6.82948 20.5378 11.6468C18.9467 14.5688 19.9014 21.3605 19.9014 22.1502C19.424 62.0314 19.2649 53.5024 19.9809 59.2674C20.14 59.5043 19.5831 59.1884 19.3445 58.6356ZM28.0956 62.5842C28.0161 62.4263 27.6978 61.4786 27.7774 61.3997C27.857 61.3207 29.4481 61.2417 29.6072 61.2417C29.7663 61.2417 30.6414 62.9791 30.721 63.0581C30.8801 63.5319 28.1752 62.8212 28.0956 62.5842ZM32.7099 62.9791C32.5508 63.216 31.437 63.5319 31.1983 63.1371C30.8801 62.5842 30.6414 62.0314 30.3232 61.4786C30.3232 61.3996 30.4027 61.1627 30.4823 61.1627C30.6414 61.1627 33.4259 60.7679 33.5054 60.9258C33.6646 61.0838 32.7894 62.8212 32.7099 62.9791ZM47.03 59.9781C46.5526 59.8992 46.314 60.373 45.7571 59.1884C45.6775 58.9515 45.6775 58.8725 45.9162 58.8725C47.1095 58.7146 47.5073 58.5566 47.5868 58.7146C48.9393 60.452 48.9393 60.2151 47.03 59.9781ZM51.6442 57.9248C50.8486 59.8202 50.6895 59.8992 50.2122 60.0571C49.4962 60.294 49.4962 60.294 49.0189 59.6622C48.9393 59.5833 48.2233 58.6356 48.3029 58.5566C48.3824 58.3987 51.4055 57.7669 51.4851 57.6879C51.6442 57.6879 51.7238 57.8459 51.6442 57.9248ZM55.3833 48.2112C54.9856 53.4234 55.0651 55.3977 52.5193 56.7403C49.5758 58.3197 33.4259 60.6099 27.3001 60.8468C16.9578 61.3207 20.5378 58.3987 20.3787 28.3101C20.3787 23.6507 20.4583 22.2292 20.4583 22.2292C20.4583 21.2815 20.2196 20.6497 20.2196 18.0436C20.2196 14.8057 20.0605 12.6735 21.8107 10.4622C23.2427 8.56688 25.6294 7.61921 27.6978 7.46127C30.721 7.22435 51.5646 3.5916 54.7469 6.03976C56.9744 7.77716 56.2584 10.0674 56.4176 17.017C56.4971 22.2292 56.8949 21.5184 56.4176 26.3357C55.7016 32.9695 56.6562 32.9695 55.3833 48.2112ZM17.1169 6.1977C17.276 6.03975 17.1169 5.88181 16.9578 5.96078C16.3213 6.1977 14.6507 7.69818 14.5711 9.98839C14.5711 10.1463 14.7302 10.2253 14.8098 10.1463C14.9689 9.98839 15.2076 9.75147 15.128 9.59353C14.8893 8.09305 15.9236 7.38229 17.1169 6.1977ZM18.2307 6.67154C18.5489 6.43462 18.1511 6.11873 17.7533 6.51359C16.7987 7.38229 16.3213 8.56688 15.9236 9.75147C15.6849 10.4622 16.4805 10.2253 16.4009 9.6725C16.3213 9.19866 16.9578 7.61921 18.2307 6.67154ZM16.3213 5.56592C16.56 5.40797 16.4009 4.85516 14.5711 6.51359C13.6164 7.38229 12.98 9.19866 13.6164 8.88277C13.9347 8.72483 13.8551 8.48791 13.9347 8.25099C14.2529 7.0664 15.2871 6.35565 16.3213 5.56592ZM19.6627 11.5678C20.2196 10.6202 20.14 9.35661 21.9698 8.01407C22.0494 7.9351 22.0494 7.85613 21.9698 7.77715C21.572 7.22434 19.1853 10.3833 19.424 11.4099C19.424 11.6468 19.5831 11.6468 19.6627 11.5678ZM13.2982 4.85516C13.3778 4.77619 13.2982 4.53927 13.1391 4.61824C12.98 4.61824 12.8209 4.77619 12.7413 4.85516C10.9115 5.96078 10.4342 6.98743 10.116 8.17202C10.0364 8.32996 10.2751 8.48791 10.3546 8.32997C10.4342 8.17202 10.5933 8.01408 10.6729 7.85613C10.832 7.54024 10.832 7.22434 10.9911 6.98743C11.7071 5.72386 12.5822 5.64489 13.2982 4.85516ZM19.3445 6.90845C19.0262 6.51359 17.276 8.96175 17.4351 10.3043C17.4351 10.3833 17.5942 10.4622 17.6738 10.4622C18.0716 10.3043 17.8329 10.0674 17.9125 9.59353C18.0716 8.64586 18.6285 7.85613 19.3445 7.14538C19.424 7.0664 19.424 6.98743 19.3445 6.90845ZM20.7765 7.54024C20.856 7.46127 20.9356 7.38229 20.856 7.30332C20.5378 7.14537 20.2991 7.30332 19.7422 8.09305C17.8329 10.6991 18.8671 11.9627 19.1058 10.4622C19.3445 8.64585 20.3787 7.69818 20.7765 7.54024ZM14.412 5.01311C12.6618 5.72386 12.7413 6.43462 11.548 8.01407C11.4684 8.09305 11.548 8.25099 11.548 8.32997C11.548 8.40894 11.7071 8.40894 11.7866 8.25099C13.2186 6.1977 12.7413 6.67154 14.7302 5.17106C14.8893 5.09208 14.7302 4.93413 14.412 5.01311ZM52.8375 8.72483C49.894 6.67154 47.3482 7.38229 39.1539 8.32997C38.3584 8.40894 37.2446 8.17202 29.0503 9.6725C26.6636 10.1463 26.1067 10.0674 25.2316 10.8571C24.7543 11.3309 23.7996 11.9627 23.6405 13.1473C23.3223 16.2272 24.0383 16.0693 22.7654 16.5431C21.7311 16.859 22.0494 17.4118 21.8107 23.9666C21.7311 25.7829 23.1632 24.7563 23.0836 25.625L22.9245 43.6308C22.9245 44.5785 21.2538 43.7098 21.4129 45.6051C21.572 47.4215 21.4925 49.5537 21.4129 51.4491C21.3334 52.2388 21.7311 52.2388 22.6063 52.3178C22.8449 52.3178 22.7654 52.6337 22.7654 53.1865C22.7654 55.5557 22.4472 57.0561 24.8338 57.7669C26.425 58.2407 26.0272 58.1618 28.8116 58.0038C30.9597 57.9249 31.5165 57.451 33.9828 57.451C35.8921 57.451 47.03 55.5557 47.2686 55.4767C54.8264 54.0552 52.6784 52.6337 53.3149 28.8629C53.3149 27.7573 53.474 26.7306 53.474 25.625C53.5536 23.4927 53.0762 24.2035 53.9513 15.2796C54.2695 11.6468 53.9513 12.1996 54.0309 10.8571C53.9513 10.0674 53.7127 9.35661 52.8375 8.72483ZM23.72 16.859C23.8791 17.017 24.1178 17.0959 24.1178 17.2539C24.0383 17.4908 22.7654 17.4118 22.7654 17.1749C22.6858 16.859 23.6405 16.6221 23.72 16.859ZM22.6063 18.0436C22.6858 17.8067 23.0041 17.7277 24.4361 17.8067C24.8338 17.8067 24.4361 20.4918 24.4361 20.7287C24.2769 21.3605 22.5267 21.1236 22.5267 20.6497C22.3676 19.1492 22.4471 18.5174 22.6063 18.0436ZM22.288 23.9666V21.9922C22.288 21.1235 22.4472 21.3605 22.8449 21.4394C24.1974 21.4394 24.3565 21.3605 24.2769 21.7553C24.1974 25.2301 24.3565 24.6773 23.2427 24.9142C22.5267 24.9932 22.288 24.5983 22.288 23.9666ZM22.0494 44.8943C22.5267 44.3415 24.1178 44.7364 24.0383 45.1313C24.0383 45.2102 23.9587 45.2892 23.7996 45.2892C23.3223 45.2892 22.7654 45.3682 22.288 45.3682C21.9698 45.3682 21.8903 45.0523 22.0494 44.8943ZM22.6063 45.842C23.4018 45.842 24.1178 45.6051 24.1178 46C24.0383 47.1846 24.0383 47.7374 23.7996 48.0533C23.5609 48.2902 22.0494 48.3691 22.0494 47.8163C22.1289 46.0789 21.6516 45.842 22.6063 45.842ZM21.9698 51.5281C22.0494 48.685 21.8903 48.685 22.3676 48.685C23.6405 48.685 23.8792 48.6061 23.8792 49.0799L24.0383 51.5281C24.0383 51.765 23.9587 52.0019 23.6405 52.0019C22.2085 51.9229 21.8903 52.0019 21.9698 51.5281ZM53.5535 14.8847C52.9171 20.6497 53.2353 17.4118 53.0762 21.5184C53.0762 22.1502 52.9967 22.782 52.9967 23.4138C52.9967 26.8886 52.8375 32.9695 52.8375 33.2064C51.8829 56.8192 55.3038 53.7393 42.0179 56.0295C41.1428 56.1875 41.1428 56.4244 38.1197 56.8192C35.733 57.1351 33.1076 57.2141 31.6756 57.372C31.2779 57.372 30.9596 57.53 30.5619 57.609C30.1641 57.6879 27.1409 57.9248 26.5841 57.9248C25.9476 57.9248 24.5156 57.53 24.0383 57.0562C23.0041 56.0295 23.0041 54.529 23.2427 52.8706C23.3223 52.3178 24.2769 52.8706 24.5156 52.0809C24.5952 51.765 24.6747 51.4491 24.5952 51.1332C24.1178 49.0799 24.6747 46.2369 24.8338 45.3682C24.8338 45.2892 24.8338 45.1313 24.7543 45.1313C24.4361 44.8943 24.1178 44.5785 23.7996 44.4205C23.2427 44.2626 23.2427 44.1836 23.3223 40.5508C23.3223 40.7878 23.4814 25.625 23.6405 25.4671C23.6405 25.4671 23.72 25.4671 23.7996 25.4671C24.3565 25.546 24.8338 25.2301 24.8338 24.6773C24.8338 23.8876 25.0725 18.6754 25.1521 17.8857C25.4703 16.2272 23.7996 17.2539 23.8792 15.9903C24.0383 13.7001 23.4814 12.9894 25.3112 11.4099C27.1409 9.75148 40.745 8.72483 41.3019 8.72483C44.8819 8.32997 49.178 7.22435 52.1215 9.11969C53.3149 9.90942 53.3944 10.1463 53.3944 11.3309C53.5536 13.0683 53.7922 12.5155 53.5535 14.8847ZM38.597 28.468C37.9606 28.0732 36.2103 27.1255 35.0966 27.2045C27.0614 27.7573 28.573 36.4443 29.3685 38.1027C30.4823 40.3139 31.1187 43.2359 37.2446 41.4985C38.5175 41.1036 39.313 40.156 39.7904 38.9714C40.9837 35.8915 41.8588 32.3377 39.8699 29.7316C39.5517 29.2577 39.1539 28.7839 38.597 28.468ZM39.7904 30.3634C39.9495 30.5213 39.2335 30.9951 38.8357 31.2321C38.7561 31.311 38.6766 31.2321 38.597 31.1531C38.2788 30.7582 37.9606 30.4423 37.4832 30.2844C37.165 30.2054 37.7219 29.2577 37.8015 29.0208C38.3584 28.2311 39.5517 30.1264 39.7904 30.3634ZM38.3584 36.8391C38.1993 37.3919 37.881 37.9447 37.4832 38.3396C36.9263 38.8134 34.3806 39.5242 33.9032 37.076C33.4259 34.6279 33.9828 31.9428 35.4943 31.0741C36.2899 30.6003 37.5628 30.6793 38.0401 31.311C38.597 32.1008 38.9152 32.9695 38.9948 33.9961C38.9948 34.7858 38.597 36.0494 38.3584 36.8391ZM35.3352 27.6783C37.2446 28.3101 37.8015 28.3101 37.4037 29.0998C37.0059 30.1264 37.0059 30.1264 35.5739 30.2844C34.9375 30.3634 34.9374 30.2054 34.8579 29.4157C34.8579 29.0208 34.7783 28.0732 34.7783 27.9942C34.8579 27.5993 34.9374 27.5203 35.3352 27.6783ZM34.6192 31.1531C32.153 34.0751 33.7441 38.1027 33.7441 38.3396C33.7441 38.4186 33.585 38.6555 33.5054 38.6555C31.2779 38.8134 31.5961 32.2587 33.6645 30.8372C33.9032 30.6793 34.9374 30.6793 34.6192 31.1531ZM33.9828 27.8362C34.2215 27.7573 34.3806 27.8362 34.3806 28.1521C34.301 30.2054 34.4601 30.1264 34.0623 30.2054C33.7441 30.2054 33.0281 30.5213 32.869 30.2844C32.7894 30.1264 31.9939 28.626 32.0734 28.468C32.153 28.389 33.8237 27.8362 33.9828 27.8362ZM31.437 28.9419C31.5165 28.8629 31.6756 28.8629 31.7552 29.0208C32.6303 30.8372 32.7894 30.9951 32.2325 31.548C31.9939 31.7849 30.721 30.9162 30.2436 30.6003C29.9254 30.4423 30.4823 29.9685 31.437 28.9419ZM29.8459 31.39C29.9254 30.9951 30.721 31.548 31.7552 32.1008C32.2325 32.4167 31.7552 32.7325 31.7552 33.2064C31.7552 33.8382 31.3574 33.6802 30.721 33.6802C30.4823 33.6802 29.7663 33.6012 29.6867 33.6012C29.289 33.5223 29.3685 32.9695 29.8459 31.39ZM29.3685 36.1284C29.289 36.0494 29.2094 34.4699 29.2094 34.391C29.2094 34.233 29.289 34.233 29.4481 34.233C31.0392 34.233 31.437 34.233 31.437 34.6279C31.5165 34.8648 31.5165 35.6545 31.1983 35.7335C31.1188 35.6545 29.4481 36.2073 29.3685 36.1284ZM29.6072 37.313C29.5276 36.6812 29.1298 36.6812 30.0845 36.4443C30.5619 36.2863 31.437 36.0494 31.437 36.2863C31.5961 37.6289 31.7552 38.1027 30.5619 38.8134C30.2436 38.9714 29.7663 38.1027 29.6072 37.313ZM33.4259 39.7611C32.9485 41.1826 33.4259 41.4985 31.5961 40.5508C31.3574 40.3929 30.6414 39.6032 30.8005 39.2873C32.2325 38.0237 31.7552 38.2606 32.3917 38.7345C32.6303 38.8924 32.869 39.1293 33.1872 39.2083C33.4259 39.2873 33.5054 39.4452 33.4259 39.7611ZM35.9717 41.3406C35.0966 41.5775 33.7441 41.5775 33.5054 41.3406C33.4259 41.1826 33.9828 39.6821 33.9828 39.5242C34.0623 39.2083 35.3352 39.3663 35.6534 39.4452C36.1308 39.5242 36.1308 40.077 36.2899 40.7088C36.5286 41.1826 36.449 41.1826 35.9717 41.3406ZM38.8357 39.9191C38.2788 40.5508 37.0855 41.0247 37.0059 40.9457C36.8468 40.8667 36.6877 39.5242 36.6081 39.3663C36.6081 39.2873 36.6877 39.2083 36.7672 39.2083C37.881 38.5765 38.0401 38.4186 38.3584 38.7345C38.8357 39.2873 39.2335 39.4452 38.8357 39.9191ZM39.4721 38.8134C39.313 39.2083 39.1539 39.0504 38.3584 38.0237C38.1993 37.8658 38.5175 37.3919 38.9948 35.6545C39.1539 35.1807 39.2335 35.2597 40.3473 35.4966C40.9042 35.5756 39.6313 38.5765 39.4721 38.8134ZM40.2677 31.469C40.745 33.6012 40.745 33.4433 40.5859 34.7858C40.5859 35.1017 39.6312 34.8648 39.313 34.7069C39.0744 34.6279 39.2335 34.0751 39.1539 33.2064C38.9948 31.9428 38.597 31.9428 39.3926 31.39C39.9495 31.0741 40.1881 30.8372 40.2677 31.469ZM49.0189 26.9675C48.3029 27.0465 45.9957 26.1778 45.6775 26.5727C45.0411 27.4414 44.4842 28.389 44.8819 29.5736C45.2002 30.6793 47.1095 30.2054 47.1095 30.7582C47.1891 32.1797 47.1891 33.0484 47.1891 33.6802C47.1891 35.1017 47.4277 37.5499 47.5073 38.9714C47.5869 40.235 47.746 40.156 49.894 39.7611C50.4509 39.6821 49.894 39.0504 50.6895 32.9695C50.9282 31.469 50.9282 29.9685 50.6895 28.468C50.61 27.5993 50.2122 26.8886 49.0189 26.9675ZM47.1095 29.7316C47.1095 29.9685 46.3935 29.8106 45.9162 29.8106C44.4842 29.6526 45.3593 26.9675 46.314 27.1255C46.9504 27.2044 48.3028 27.3624 47.9846 27.6783C47.4277 28.2311 47.1891 28.9419 47.1095 29.7316ZM49.7349 38.7345C49.7349 39.6821 49.0189 39.4452 48.6211 39.5242C47.9051 39.7611 48.0642 38.9714 47.8255 37.155C47.746 36.6812 47.5868 36.1284 47.5868 35.6545C47.5073 34.0751 47.5073 30.9162 47.5868 29.4157C47.6664 28.547 48.1437 27.8362 49.0189 27.6783C49.178 27.6783 49.4962 27.6783 49.6553 27.6783C49.7349 27.6783 49.894 27.6783 49.6553 27.8362C49.5757 27.9152 49.4962 27.8362 49.2575 27.8362C48.7802 27.9152 48.6211 28.0732 48.3824 28.2311C47.746 28.7049 47.6664 29.6526 48.1437 30.2844C48.462 30.7582 49.5758 30.5213 49.8144 30.0475C49.8144 29.9685 49.894 29.8895 49.894 29.8895C49.9735 29.7316 50.2122 29.8106 50.2122 29.9685C50.6895 33.2064 49.8144 35.6545 49.7349 38.7345ZM49.8144 29.0208C49.894 30.4423 48.5415 30.2054 48.5415 29.3367C48.5415 29.1788 48.7006 28.3101 49.5757 28.389C49.894 28.468 49.8144 28.8629 49.8144 29.0208ZM35.4148 32.3377C35.1761 32.5746 34.6192 33.2854 34.4601 34.0751C34.301 35.0228 34.4601 35.4966 34.4601 36.2863C34.4601 36.9971 35.017 37.7868 35.5739 38.0237C36.9264 38.5765 37.8015 36.6022 37.881 34.7069C37.881 34.312 37.881 33.6802 37.881 33.2064C37.8015 31.8638 36.5286 31.0741 35.4148 32.3377ZM37.2446 36.6812C37.165 37.155 36.5286 37.6289 36.2103 37.5499C35.5739 37.4709 35.0966 36.9971 35.017 36.3653C34.9374 35.8125 34.8579 35.2597 34.9374 34.7858C35.017 34.233 35.2557 32.5746 36.6081 32.3377C36.7672 32.3377 36.9263 32.4167 37.0855 32.5746C37.881 33.2854 37.4832 35.5756 37.2446 36.6812Z" fill="#4A494E"/>
</svg>
