<svg width="64" height="64" viewBox="0 0 64 64" fill="none" xmlns="http://www.w3.org/2000/svg">
<path fill-rule="evenodd" clip-rule="evenodd" d="M53.2684 16.0092C51.7247 10.5467 46.9311 2.63825 41.8938 0.763055C34.9879 -1.84591 22.8821 3.0459 22.5571 3.37202C22.4759 3.37202 20.4447 4.35038 20.4447 4.43191C16.4636 6.14404 10.6138 15.52 11.0201 22.5316C11.0717 23.309 11.78 25.5031 12.3101 27.1451C12.6139 28.0863 12.8592 28.8461 12.8887 29.054C13.302 30.9362 15.2329 32.731 17.7371 35.0588C21.6329 38.68 26.9161 43.5909 30.0318 52.127C30.2792 52.8718 30.4959 53.0303 30.6818 53.1664C30.9232 53.343 31.1128 53.4817 31.2505 54.8175C31.2505 54.8422 31.258 54.8669 31.2661 54.8938C31.2848 54.9559 31.3072 55.0299 31.2505 55.1436C30.335 56.1107 30.9056 56.5043 31.335 56.8005C31.6297 57.0037 31.8579 57.1611 31.4943 57.4265C31.1693 57.6711 31.088 58.2418 31.1693 58.4864C31.5471 59.0821 31.6739 59.1022 31.7879 59.1203C31.8456 59.1294 31.8999 59.138 31.9817 59.2201C32.071 59.3097 31.9859 59.5197 31.886 59.7659C31.7133 60.1916 31.4967 60.7256 32.063 60.9323C33.1682 61.3636 33.3918 61.4689 33.6104 61.4595C33.6757 61.4566 33.7405 61.4436 33.8283 61.4259L33.8504 61.4214C34.3637 61.2927 34.4942 61.5481 34.6568 61.8664C34.803 62.1528 34.9752 62.49 35.4754 62.6444C36.0306 62.8832 36.3922 62.85 36.7209 62.8198C37.0656 62.7882 37.374 62.7599 37.8315 63.0521C41.5512 65.5874 44.4221 62.3434 45.2922 61.3602C45.4293 61.2052 45.5168 61.1064 45.55 61.0953C46.5446 60.8605 46.8651 59.8223 47.0576 59.1987C47.1324 58.9563 47.1879 58.7766 47.2561 58.731C48.0686 58.2418 47.9874 57.508 47.9061 57.2634C47.7436 57.0188 47.5811 56.0405 47.9061 55.7959C48.5354 55.3749 48.3185 54.818 48.1511 54.3884C48.0592 54.1524 47.9822 53.9548 48.0686 53.8391C48.4392 53.1883 48.2815 52.8556 48.1528 52.584C48.0558 52.3792 47.9753 52.2093 48.1499 51.964C48.4748 51.2302 48.2311 50.8225 47.4999 50.3334C47.1593 50.1197 47.2872 49.839 47.4511 49.4793C47.5999 49.1526 47.7784 48.7608 47.6624 48.2951C47.8189 49.5514 46.5436 49.9759 45.3606 50.3697L45.225 50.4149C44.9512 50.4898 44.807 50.5648 44.6312 50.6561C44.2334 50.8629 43.6737 51.1539 41.0814 51.7194C40.2689 51.8824 36.1253 34.3535 36.1253 34.0273L35.8003 33.049C35.3941 33.2936 32.388 21.3086 33.2004 21.3086L33.4442 20.6564C33.038 20.6564 32.9567 20.4933 32.713 19.515C32.388 18.2105 31.738 14.134 31.738 14.0525C31.738 13.4035 31.595 12.7994 31.481 12.3175C31.403 11.988 31.3385 11.7156 31.3425 11.525C31.343 11.4979 31.345 11.4725 31.3485 11.4488L31.413 10.6282C31.1643 10.6282 30.9791 9.77956 30.8141 9.02386C30.6557 8.29814 30.516 7.65812 30.3568 7.9377C30.1877 8.22045 30.2923 8.66009 30.4536 9.33824C30.5248 9.63781 30.6071 9.98392 30.6818 10.3836C30.7341 10.5934 30.5509 10.6008 30.0026 10.6227C29.6986 10.6349 29.2824 10.6516 28.7319 10.7097C28.4379 10.7425 28.249 10.8148 28.1229 10.8631C27.9353 10.9349 27.8867 10.9535 27.8382 10.7097C27.6734 10.2797 27.562 9.87659 27.4717 9.54928C27.3393 9.06977 27.2518 8.753 27.1069 8.753C26.9444 8.753 26.8632 8.99759 26.9444 9.16066C27.0663 9.36448 27.1476 9.71098 27.2288 10.0575C27.3101 10.404 27.3913 10.7505 27.5132 10.9543C27.5944 11.1174 27.4319 11.1989 27.1882 11.2804L27.4319 12.1773C27.4437 12.2246 27.5017 12.4331 27.5911 12.7552C28.1185 14.6533 29.7409 20.4933 29.4631 20.4933L29.6256 21.2271C29.6989 21.2228 29.7649 21.2171 29.8247 21.2119C30.103 21.1878 30.2471 21.1754 30.3709 21.3675C30.372 21.3353 30.3793 21.31 30.3942 21.2906C30.4964 21.1575 30.9564 21.2992 32.2255 21.3902C32.4692 21.3902 32.4692 21.5532 32.4692 21.7978C34.2978 31.5457 35.3627 33.0264 35.0423 33.444C34.9071 33.6202 34.5254 33.6071 33.8504 33.9458L32.713 34.9359C33.1721 34.9943 33.4409 34.8942 33.6222 34.8268C33.7788 34.7685 33.8701 34.7345 33.9623 34.8484C33.9374 34.6519 34.0179 34.4992 34.3379 34.435C35.0154 34.3443 35.2158 34.0773 35.33 34.1102C35.4212 34.1364 35.4574 34.354 35.6378 35.0057C35.6378 35.0465 36.6534 39.2453 37.669 43.4441C38.6846 47.6429 39.7002 51.8417 39.7002 51.8824C39.2173 52.0843 39.0135 52.1462 38.8221 51.6819C39.0111 52.3321 38.8775 52.3399 37.3514 52.4287C37.2235 52.4361 37.0859 52.4441 36.9378 52.4531C36.3671 52.4736 35.7197 52.5454 35.0623 52.6182C33.0992 52.8358 31.047 53.0633 30.6818 51.964C30.5193 51.6378 30.3568 51.3117 31.3318 51.3932C33.4442 51.6378 36.6941 51.0671 37.019 50.8225C37.4652 50.5126 36.389 50.61 34.9542 50.7398C32.9924 50.9174 30.3603 51.1557 30.0318 50.4964C30.0318 50.4556 29.9303 50.2722 29.8287 50.0888C29.7271 49.9053 29.6256 49.7219 29.6256 49.6811C29.5933 49.584 30.509 49.5254 31.6198 49.4544C33.3065 49.3465 35.4431 49.2099 35.3941 48.8658C35.3941 48.6512 34.3742 48.7896 33.4914 48.9094C33.0323 48.9716 32.6103 49.0289 32.388 49.0289C32.0476 48.9978 31.778 49.0259 31.5027 49.0545C31.0552 49.1011 30.593 49.1493 29.7881 48.9473C29.4996 48.883 29.3755 48.8694 29.3011 48.8015C29.1868 48.6972 29.1895 48.4648 28.8944 47.7244C28.8131 47.5613 28.8944 47.3983 29.2194 47.4798C29.8693 47.6429 33.4442 47.6429 33.7692 47.2352C33.9779 46.9559 33.1289 47.0205 32.0516 47.1024C30.6129 47.2117 28.7669 47.3521 28.4881 46.746C28.3575 46.4577 28.2354 46.22 28.1378 46.0301C27.9317 45.6292 27.8353 45.4415 28.0007 45.4415C28.9756 45.6046 31.2505 45.7677 31.738 45.5231C32.063 45.36 31.3318 45.1154 30.9255 45.197C30.4946 45.3205 29.737 45.21 29.0772 45.1137C28.8662 45.083 28.6653 45.0536 28.4881 45.0339C27.5178 44.8948 27.4344 44.7557 27.0777 44.161C27.0163 44.0586 26.9467 43.9427 26.8632 43.8109C26.6168 43.4153 27.058 43.4697 27.6065 43.5373C27.9622 43.5811 28.363 43.6305 28.6506 43.5664H28.8944C29.3006 43.6479 29.4631 43.1587 28.9756 43.1587C26.6638 43.207 26.322 42.8256 24.3622 40.6388C23.0159 39.1366 20.9061 36.7825 16.8698 33.1305C14.6861 31.1218 14.2233 30.1129 13.8923 29.3912C13.78 29.1463 13.6828 28.9345 13.5387 28.7279C13.5387 28.7279 13.4575 27.9941 13.1325 27.0157C11.5933 22.6027 11.641 22.1708 11.8441 20.3328C11.8661 20.1334 11.8899 19.9174 11.9138 19.678C12.4013 15.2754 15.5699 8.67148 19.7947 5.57333C25.9695 1.17071 38.8877 -0.133776 42.3813 1.57836C47.7436 4.26885 52.5372 12.5034 53.5122 17.3952C54.2881 21.2885 53.6608 25.0938 52.2424 28.714C53.7707 25.0195 54.7462 21.1642 53.2684 16.0092ZM30.4381 20.5749C30.2756 20.5749 30.1131 20.5749 30.0318 20.4118C30.0141 20.3405 29.9652 20.1794 29.8988 19.9628L29.8693 19.8666C29.6256 19.0717 29.199 17.6806 29.1381 17.0691C29.1241 17.0033 29.1101 16.9383 29.0962 16.8741L27.9374 12.389C27.6306 11.3864 27.6261 11.3719 28.0819 11.2804L28.1995 11.2561L28.414 11.2112C29.2778 11.0297 29.7978 10.9205 30.1516 11.1145C30.6868 11.4079 30.8417 12.395 31.231 14.8756C31.4109 16.0222 31.6409 17.488 31.9817 19.3519C32.0417 19.8334 32.1214 20.1471 32.1723 20.3475C32.2175 20.5255 32.24 20.6143 32.206 20.6521C32.1722 20.6896 32.0824 20.6768 31.9033 20.6512C31.6411 20.6138 31.1876 20.5489 30.4381 20.5749ZM34.4191 54.4099C40.4314 53.7576 46.6062 50.0888 44.7375 50.9041C42.0563 52.127 38.7252 52.7793 34.0129 53.1869C33.4427 53.2505 33.0097 53.259 32.684 53.2654C31.7567 53.2835 31.699 53.2847 31.8193 54.4914C31.8193 54.8416 32.064 54.7927 32.7036 54.665C33.1063 54.5846 33.6657 54.4729 34.4191 54.4099ZM46.4437 53.0238C44.0875 54.3283 36.1253 56.2035 36.1253 56.2035C29.5443 57.3449 32.063 58.8125 32.713 58.6494C33.038 58.5679 47.9061 54.4914 47.5811 53.1054C47.4422 52.4779 47.0656 52.6851 46.6545 52.9113C46.5849 52.9496 46.5143 52.9884 46.4437 53.0238ZM39.8627 63.2966C41.8938 63.9489 45.55 61.0953 44.0063 61.503C42.9387 61.741 41.8711 61.9026 40.9734 62.0385C38.7969 62.368 37.6193 62.5462 39.8627 63.2966ZM35.5566 61.8291C35.8816 62.4813 38.4815 62.0737 42.3001 61.2584C46.0808 60.4597 46.1252 60.2043 46.1909 59.827C46.2057 59.7421 46.2215 59.651 46.2812 59.5463C46.2812 59.5125 46.323 59.4507 46.372 59.3784C46.4413 59.2761 46.5249 59.1526 46.5249 59.0571C46.1999 58.6494 36.3691 60.7692 35.9628 61.0138C35.8373 61.0894 35.6963 61.1027 35.5782 61.1138C35.3138 61.1388 35.1636 61.153 35.5566 61.8291ZM46.8499 56.4481C45.7125 56.8558 37.7503 59.7908 37.669 59.8724C37.392 60.2059 38.2482 59.9709 39.1043 59.7359C39.5038 59.6263 39.9033 59.5166 40.1877 59.4647C40.5777 59.297 41.6364 59.158 42.8267 59.0018C45.1075 58.7024 47.8713 58.3396 47.3374 57.5895C47.2384 57.4571 47.2064 57.2169 47.1761 56.9894C47.1318 56.6569 47.0911 56.3513 46.8499 56.4481ZM33.2004 60.4431L34.4191 60.1985C36.0988 59.6754 41.1226 57.868 44.1341 56.7845L44.1367 56.7836L44.1389 56.7828C45.3495 56.3473 46.234 56.0291 46.4437 55.9589C47.5601 55.5108 47.5856 55.3364 47.6445 54.9342L47.6503 54.8947L47.6555 54.8603L47.6624 54.8175C47.7073 54.0515 46.3127 54.6054 43.9861 55.5296C42.1032 56.2775 39.6099 57.2678 36.7753 57.9972C36.0331 58.1834 35.4345 58.3274 34.9474 58.4446C33.0887 58.8918 32.8555 58.9479 32.4692 59.4647C31.9817 59.9539 32.3067 60.6061 33.2004 60.4431ZM37.994 54.0837C37.8315 54.0837 37.669 54.1653 37.5065 54.3283C37.3861 54.4794 36.3837 54.6193 35.2235 54.7813C33.2539 55.0562 30.8296 55.3945 31.4943 55.9589C33.038 57.2634 50.6685 52.2901 47.1749 50.9041C46.5884 50.6687 46.4676 50.7306 45.468 51.2432C45.0828 51.4408 44.567 51.7053 43.8438 52.0455C42.6251 52.6162 38.0753 54.0837 37.994 54.0837Z" fill="#4A494E"/>
<path fill-rule="evenodd" clip-rule="evenodd" d="M47.6316 43.9615C47.6342 44.2865 47.6443 44.6167 47.6624 44.9524C47.7436 47.3167 47.6624 48.2951 47.6624 48.2951C47.5723 47.5717 47.5155 45.9678 47.6316 43.9615ZM50.9786 31.568C51.0815 31.3433 51.184 31.119 51.286 30.895C51.0148 31.4552 50.7269 32.0103 50.4248 32.5598C49.5236 34.1729 48.8925 36.0572 48.4572 37.9577C49.1059 35.6614 50.0515 33.5945 50.9786 31.568ZM37.5868 46.9317C37.8503 47.7905 38.0116 48.3018 37.994 48.2136C38.1343 48.828 38.2486 49.35 38.3453 49.7918C38.4491 50.2658 38.5327 50.6476 38.6066 50.9524C38.5641 50.7927 38.5212 50.6143 38.4815 50.4149C38.2907 49.567 37.9536 48.2787 37.5868 46.9317ZM29.0962 16.8741L27.9374 12.389C28.1713 13.153 28.5809 14.4909 29.0962 16.8741Z" fill="#4A494E"/>
<path d="M33.7692 33.6197C33.5254 33.049 33.6879 32.9674 33.5254 32.3152C30.9097 24.0984 30.7217 21.9119 30.3709 21.3675C30.3661 21.51 30.4833 21.7872 30.6005 22.287C30.6005 22.3642 33.4446 32.8327 33.8129 33.8646C33.822 33.7935 33.8087 33.7122 33.7692 33.6197Z" fill="#4A494E"/>
<path d="M34.3379 35.9025C34.3379 36.1581 36.6326 43.8224 37.5868 46.9317C36.8602 44.2634 36.0168 41.3645 35.9628 41.202C34.4589 36.4968 34.2072 35.1509 33.9623 34.8484C34.0006 35.1507 34.2887 35.5566 34.3379 35.9025Z" fill="#4A494E"/>
<path fill-rule="evenodd" clip-rule="evenodd" d="M35.8816 3.20896C37.1815 3.53508 40.9189 6.47016 41.4064 7.1224C44.7375 11.6066 44.7375 12.0142 46.1999 11.2804C50.4248 9.07913 42.1376 1.4153 36.2066 1.90448C34.7441 1.98601 34.5004 1.90448 34.3379 2.31213C34.0942 2.71978 35.4754 3.0459 35.8816 3.20896ZM46.7687 8.67148C45.6312 5.81792 40.9189 3.20896 39.294 2.80131C36.4503 1.98601 35.8003 2.47519 36.5316 2.71978C39.7981 3.86705 41.8607 6.80809 43.3062 8.86913C44.0179 9.88389 44.58 10.6853 45.0625 10.9543C45.7937 11.2804 47.2561 9.89443 46.7687 8.67148Z" fill="#4A494E"/>
<path fill-rule="evenodd" clip-rule="evenodd" d="M46.0374 14.297L46.0687 14.3769C46.9332 16.5856 47.0248 16.8197 48.0686 16.4168C50.7498 15.4385 50.831 13.7263 48.8811 11.2804C48.4748 10.7097 44.9 11.2804 46.0374 14.297ZM47.8249 15.9277C51.6435 14.7047 48.7998 10.7913 47.0937 11.9327C46.9937 12.0029 46.8974 12.062 46.8079 12.117C46.1695 12.5089 45.8724 12.6914 47.0124 15.1939C47.3374 15.9277 47.4999 16.0092 47.8249 15.9277Z" fill="#4A494E"/>
</svg>
