<svg width="208" height="42" viewBox="0 0 208 42" fill="none" xmlns="http://www.w3.org/2000/svg">
<path d="M0.601333 28.16V3.88H0L0.400888 0.16H6.65475L8.57901 15.24L10.5434 0.16H16.677V28.16H12.8685V6.4L9.90194 24.16H7.29617L4.40977 6.88V28.16H0.601333Z" fill="white"/>
<path d="M21.6996 28.16H17.8912L20.056 3.88H19.3344L19.7353 0.16H27.0716L29.5571 28.16H25.7486L25.3076 23.36H22.1406L21.6996 28.16ZM22.4613 19.64H24.9869L23.7442 5.72L22.4613 19.64Z" fill="white"/>
<path d="M30.3407 3.88L30.7416 0.16H37.0756C38.1981 0.16 39.1068 0.506667 39.8016 1.2C40.4965 1.86667 40.8439 2.76 40.8439 3.88V16.4C40.8439 16.9867 40.7237 17.52 40.4832 18C40.2426 18.4533 39.9219 18.84 39.521 19.16L42.0867 28.16H38.2382L35.9531 20.12H34.7505V28.16H30.942V3.88H30.3407ZM36.8351 3.88H34.7505V16.4H36.8351C36.9687 16.4 37.0355 16.3333 37.0355 16.2V4.08C37.0355 3.94667 36.9687 3.88 36.8351 3.88Z" fill="white"/>
<path d="M46.2948 20.16V24.4C46.2948 24.5333 46.3616 24.6 46.4952 24.6H48.0988C48.2324 24.6 48.2992 24.5333 48.2992 24.4V17.2L45.1322 15.8C44.8917 15.72 44.5576 15.5867 44.13 15.4C43.7024 15.1867 43.3148 14.88 42.9674 14.48C42.6467 14.08 42.4863 13.5333 42.4863 12.84V3.72C42.4863 2.6 42.8338 1.70667 43.5286 1.04C44.2235 0.346667 45.1322 0 46.2547 0H48.3393C49.4618 0 50.3705 0.346667 51.0653 1.04C51.7602 1.70667 52.1077 2.6 52.1077 3.72V9.64L48.2992 9.32V3.92C48.2992 3.78667 48.2324 3.72 48.0988 3.72H46.4952C46.3616 3.72 46.2948 3.78667 46.2948 3.92V12.28L49.4618 13.68C49.7023 13.7867 50.0364 13.9333 50.464 14.12C50.8916 14.3067 51.2658 14.6 51.5865 15C51.9339 15.4 52.1077 15.9467 52.1077 16.64V24.6C52.1077 25.72 51.7602 26.6267 51.0653 27.32C50.3705 27.9867 49.4618 28.32 48.3393 28.32H46.2547C45.1322 28.32 44.2235 27.9867 43.5286 27.32C42.8338 26.6267 42.4863 25.72 42.4863 24.6V20.16H46.2948Z" fill="white"/>
<path d="M57.7311 0.16V12.24H60.0161V0.16H63.8246V28.16H60.0161V15.96H57.7311V28.16H53.9226V3.88H53.3213L53.7222 0.16H57.7311Z" fill="white"/>
<path d="M68.8354 28.16H65.0269L67.1917 3.88H66.4701L66.871 0.16H74.2073L76.6928 28.16H72.8843L72.4434 23.36H69.2763L68.8354 28.16ZM69.597 19.64H72.1226L70.8799 5.72L69.597 19.64Z" fill="white"/>
<path d="M87.9797 24.44L87.659 28.16H78.0777V3.88H77.4764L77.8773 0.16H81.8862V24.44H87.9797Z" fill="white"/>
<path d="M99.6853 24.44L99.3646 28.16H89.7833V3.88H89.182L89.5829 0.16H93.5918V24.44H99.6853Z" fill="white"/>
<path d="M112.3 20.16V24.4C112.3 24.5333 112.367 24.6 112.501 24.6H114.104C114.238 24.6 114.305 24.5333 114.305 24.4V17.2L111.138 15.8C110.897 15.72 110.563 15.5867 110.136 15.4C109.708 15.1867 109.32 14.88 108.973 14.48C108.652 14.08 108.492 13.5333 108.492 12.84V3.72C108.492 2.6 108.839 1.70667 109.534 1.04C110.229 0.346667 111.138 0 112.26 0H114.345C115.467 0 116.376 0.346667 117.071 1.04C117.766 1.70667 118.113 2.6 118.113 3.72V9.64L114.305 9.32V3.92C114.305 3.78667 114.238 3.72 114.104 3.72H112.501C112.367 3.72 112.3 3.78667 112.3 3.92V12.28L115.467 13.68C115.708 13.7867 116.042 13.9333 116.47 14.12C116.897 14.3067 117.271 14.6 117.592 15C117.94 15.4 118.113 15.9467 118.113 16.64V24.6C118.113 25.72 117.766 26.6267 117.071 27.32C116.376 27.9867 115.467 28.32 114.345 28.32H112.26C111.138 28.32 110.229 27.9867 109.534 27.32C108.839 26.6267 108.492 25.72 108.492 24.6V20.16H112.3Z" fill="white"/>
<path d="M130.151 24.6C130.151 25.72 129.803 26.6267 129.109 27.32C128.414 27.9867 127.505 28.32 126.383 28.32H123.496C122.374 28.32 121.465 27.9867 120.77 27.32C120.075 26.6267 119.728 25.72 119.728 24.6V3.72C119.728 2.6 120.075 1.70667 120.77 1.04C121.465 0.346667 122.374 0 123.496 0H126.383C127.505 0 128.414 0.346667 129.109 1.04C129.803 1.70667 130.151 2.6 130.151 3.72V24.6ZM123.737 3.72C123.603 3.72 123.536 3.78667 123.536 3.92V24.4C123.536 24.5333 123.603 24.6 123.737 24.6H126.142C126.276 24.6 126.342 24.5333 126.342 24.4V3.92C126.342 3.78667 126.276 3.72 126.142 3.72H123.737Z" fill="white"/>
<path d="M142.241 24.44L141.92 28.16H132.339V3.88H131.737L132.138 0.16H136.147V24.44H142.241Z" fill="white"/>
<path d="M153.479 24.6C153.479 25.72 153.132 26.6267 152.437 27.32C151.742 27.9867 150.833 28.32 149.711 28.32H147.225C146.103 28.32 145.194 27.9867 144.499 27.32C143.804 26.6267 143.457 25.72 143.457 24.6V3.88H142.856L143.257 0.16H147.265V24.4C147.265 24.5333 147.332 24.6 147.466 24.6H149.47C149.604 24.6 149.671 24.5333 149.671 24.4V0.240002H153.479V24.6Z" fill="white"/>
<path d="M154.688 3.88V0.16H165.713V3.88H162.105V28.16H158.296V3.88H154.688Z" fill="white"/>
<path d="M167.142 28.16V3.88H166.541L166.942 0.16H170.951V28.16H167.142Z" fill="white"/>
<path d="M182.963 24.6C182.963 25.72 182.616 26.6267 181.921 27.32C181.226 27.9867 180.317 28.32 179.195 28.32H176.309C175.186 28.32 174.277 27.9867 173.582 27.32C172.888 26.6267 172.54 25.72 172.54 24.6V3.72C172.54 2.6 172.888 1.70667 173.582 1.04C174.277 0.346667 175.186 0 176.309 0H179.195C180.317 0 181.226 0.346667 181.921 1.04C182.616 1.70667 182.963 2.6 182.963 3.72V24.6ZM176.549 3.72C176.415 3.72 176.349 3.78667 176.349 3.92V24.4C176.349 24.5333 176.415 24.6 176.549 24.6H178.954C179.088 24.6 179.155 24.5333 179.155 24.4V3.92C179.155 3.78667 179.088 3.72 178.954 3.72H176.549Z" fill="white"/>
<path d="M192.978 0.16H196.786V28.16H192.978L188.568 11.04V28.16H184.759V3.88H184.158L184.559 0.16H188.768L193.218 17.96L192.978 0.16Z" fill="white"/>
<path d="M202.187 20.16V24.4C202.187 24.5333 202.254 24.6 202.388 24.6H203.991C204.125 24.6 204.192 24.5333 204.192 24.4V17.2L201.025 15.8C200.784 15.72 200.45 15.5867 200.022 15.4C199.595 15.1867 199.207 14.88 198.86 14.48C198.539 14.08 198.379 13.5333 198.379 12.84V3.72C198.379 2.6 198.726 1.70667 199.421 1.04C200.116 0.346667 201.025 0 202.147 0H204.232C205.354 0 206.263 0.346667 206.958 1.04C207.653 1.70667 208 2.6 208 3.72V9.64L204.192 9.32V3.92C204.192 3.78667 204.125 3.72 203.991 3.72H202.388C202.254 3.72 202.187 3.78667 202.187 3.92V12.28L205.354 13.68C205.595 13.7867 205.929 13.9333 206.356 14.12C206.784 14.3067 207.158 14.6 207.479 15C207.826 15.4 208 15.9467 208 16.64V24.6C208 25.72 207.653 26.6267 206.958 27.32C206.263 27.9867 205.354 28.32 204.232 28.32H202.147C201.025 28.32 200.116 27.9867 199.421 27.32C198.726 26.6267 198.379 25.72 198.379 24.6V20.16H202.187Z" fill="white"/>
<path d="M27.6613 40.16V35.76H25.4324V34.56H31.2934V35.76H29.0243V40.16H27.6613Z" fill="url(#paint0_linear_107_420)"/>
<path d="M34.1461 40.16V34.24H35.4049V37.096L35.0201 37.216C35.0789 36.9707 35.2071 36.744 35.4049 36.536C35.608 36.3227 35.8619 36.152 36.1666 36.024C36.4713 35.8907 36.8027 35.824 37.1608 35.824C37.5884 35.824 37.9465 35.9093 38.2352 36.08C38.5292 36.2453 38.7483 36.4667 38.8926 36.744C39.0423 37.016 39.1171 37.312 39.1171 37.632V40.16H37.8343V37.976C37.8343 37.752 37.7835 37.56 37.682 37.4C37.5857 37.24 37.4521 37.1173 37.2811 37.032C37.1154 36.9413 36.9203 36.896 36.6958 36.896C36.5087 36.896 36.3376 36.928 36.1826 36.992C36.0276 37.056 35.894 37.144 35.7817 37.256C35.6695 37.3627 35.5813 37.4853 35.5172 37.624C35.4584 37.7573 35.429 37.8987 35.429 38.048V40.16H34.7875C34.5737 40.16 34.4134 40.16 34.3065 40.16C34.1996 40.16 34.1461 40.16 34.1461 40.16Z" fill="url(#paint1_linear_107_420)"/>
<path d="M45.028 40.24C44.4347 40.24 43.9136 40.1467 43.4646 39.96C43.0209 39.768 42.6762 39.5067 42.4303 39.176C42.1844 38.8453 42.0615 38.472 42.0615 38.056C42.0615 37.7093 42.1363 37.4 42.286 37.128C42.4356 36.8507 42.6388 36.616 42.8953 36.424C43.1572 36.232 43.4566 36.0853 43.7933 35.984C44.1354 35.8773 44.4935 35.824 44.8677 35.824C45.2472 35.824 45.5973 35.8773 45.918 35.984C46.2441 36.0853 46.5274 36.232 46.7679 36.424C47.0138 36.6107 47.2035 36.8347 47.3372 37.096C47.4708 37.3573 47.5323 37.648 47.5216 37.968L47.5136 38.36H42.9996L42.8151 37.56H46.4712L46.3349 37.744V37.584C46.3136 37.44 46.2334 37.3147 46.0944 37.208C45.9608 37.096 45.7871 37.008 45.5733 36.944C45.3648 36.88 45.135 36.848 44.8837 36.848C44.5951 36.848 44.3278 36.8853 44.082 36.96C43.8361 37.0347 43.6383 37.1547 43.4886 37.32C43.339 37.48 43.2641 37.6933 43.2641 37.96C43.2641 38.1893 43.3443 38.3973 43.5047 38.584C43.6704 38.7653 43.9002 38.9093 44.1942 39.016C44.4935 39.1227 44.8436 39.176 45.2445 39.176C45.6508 39.176 45.9795 39.1333 46.2307 39.048C46.4819 38.9573 46.669 38.88 46.792 38.816L47.3372 39.632C47.1394 39.7547 46.9176 39.864 46.6717 39.96C46.4258 40.0507 46.1639 40.12 45.8859 40.168C45.608 40.216 45.322 40.24 45.028 40.24Z" fill="url(#paint2_linear_107_420)"/>
<path d="M55.0026 40.16V34.56H58.2017C58.6934 34.56 59.1077 34.616 59.4444 34.728C59.7865 34.84 60.0431 34.9973 60.2141 35.2C60.3852 35.4027 60.4707 35.648 60.4707 35.936C60.4707 36.2453 60.3772 36.512 60.1901 36.736C60.003 36.9547 59.7197 37.1067 59.3402 37.192L59.3803 37.048C59.6208 37.1013 59.8453 37.1867 60.0538 37.304C60.2676 37.416 60.4386 37.568 60.5669 37.76C60.7006 37.952 60.7674 38.1867 60.7674 38.464C60.7674 38.8053 60.6952 39.0853 60.5509 39.304C60.4066 39.5227 60.2168 39.696 59.9816 39.824C59.7464 39.9467 59.4899 40.0347 59.2119 40.088C58.9393 40.136 58.6721 40.16 58.4101 40.16H55.0026ZM56.2854 39.024H58.4422C58.6293 39.024 58.795 39.0027 58.9393 38.96C59.089 38.9173 59.2066 38.8507 59.2921 38.76C59.383 38.664 59.4284 38.544 59.4284 38.4C59.4284 38.2347 59.3723 38.1093 59.26 38.024C59.1478 37.9333 59.0115 37.872 58.8511 37.84C58.6908 37.8027 58.5411 37.784 58.4021 37.784H56.2854V39.024ZM56.2854 36.76H58.2177C58.3941 36.76 58.5491 36.7387 58.6827 36.696C58.8217 36.6533 58.9286 36.592 59.0035 36.512C59.0836 36.432 59.1237 36.3307 59.1237 36.208C59.1237 36.0213 59.0302 35.8907 58.8431 35.816C58.6614 35.736 58.4369 35.696 58.1696 35.696H56.2854V36.76Z" fill="url(#paint3_linear_107_420)"/>
<path d="M63.8038 40.16V34.24H65.0867V40.16H63.8038Z" fill="url(#paint4_linear_107_420)"/>
<path d="M71.0632 40.24C70.4859 40.24 69.9754 40.1467 69.5318 39.96C69.0881 39.768 68.7407 39.5067 68.4895 39.176C68.2436 38.84 68.1207 38.4587 68.1207 38.032C68.1207 37.6 68.2436 37.2187 68.4895 36.888C68.7407 36.5573 69.0881 36.2987 69.5318 36.112C69.9754 35.92 70.4859 35.824 71.0632 35.824C71.6405 35.824 72.1483 35.92 72.5866 36.112C73.0249 36.2987 73.367 36.5573 73.6128 36.888C73.8641 37.2187 73.9897 37.6 73.9897 38.032C73.9897 38.4587 73.8641 38.84 73.6128 39.176C73.367 39.5067 73.0249 39.768 72.5866 39.96C72.1483 40.1467 71.6405 40.24 71.0632 40.24ZM71.0632 39.136C71.3625 39.136 71.6351 39.0907 71.881 39C72.1322 38.904 72.33 38.7733 72.4743 38.608C72.624 38.4427 72.6961 38.2507 72.6908 38.032C72.6961 37.8133 72.624 37.6213 72.4743 37.456C72.33 37.2853 72.1322 37.1547 71.881 37.064C71.6351 36.968 71.3625 36.92 71.0632 36.92C70.7585 36.92 70.4806 36.968 70.2293 37.064C69.9835 37.1547 69.7857 37.2827 69.636 37.448C69.4917 37.6133 69.4195 37.808 69.4195 38.032C69.4195 38.2507 69.4917 38.4427 69.636 38.608C69.7857 38.7733 69.9835 38.904 70.2293 39C70.4806 39.0907 70.7585 39.136 71.0632 39.136Z" fill="url(#paint5_linear_107_420)"/>
<path d="M79.2909 40.24C78.7457 40.24 78.2593 40.144 77.8317 39.952C77.4094 39.76 77.078 39.4987 76.8375 39.168C76.5969 38.832 76.4767 38.4533 76.4767 38.032C76.4767 37.6053 76.5943 37.2267 76.8295 36.896C77.07 36.5653 77.396 36.304 77.8076 36.112C78.2192 35.92 78.6842 35.824 79.2027 35.824C79.6998 35.824 80.1595 35.888 80.5818 36.016C81.004 36.1387 81.3595 36.3173 81.6481 36.552L80.9346 37.496C80.8063 37.3947 80.6513 37.3013 80.4695 37.216C80.2931 37.1307 80.1061 37.064 79.9083 37.016C79.7105 36.9627 79.5101 36.936 79.3069 36.936C78.9969 36.936 78.7297 36.984 78.5052 37.08C78.2807 37.1707 78.1096 37.2987 77.992 37.464C77.8744 37.624 77.8156 37.8133 77.8156 38.032C77.8156 38.24 77.8771 38.4293 78.0001 38.6C78.123 38.7653 78.294 38.8933 78.5132 38.984C78.7377 39.0747 78.9969 39.12 79.2909 39.12C79.5582 39.12 79.7934 39.0987 79.9965 39.056C80.2049 39.0133 80.3867 38.96 80.5417 38.896C80.6967 38.832 80.833 38.7707 80.9506 38.712L81.6401 39.632C81.3248 39.8027 80.9746 39.9467 80.5898 40.064C80.2049 40.1813 79.772 40.24 79.2909 40.24Z" fill="url(#paint6_linear_107_420)"/>
<path d="M85.7972 39.152L85.4524 38.192L88.395 35.912H90.1268L85.7972 39.152ZM84.6988 40.16V34.24H85.9014V40.16H84.6988ZM88.5393 40.16L86.4466 37.744L87.3045 37.04L90.0627 40.16H88.5393Z" fill="url(#paint7_linear_107_420)"/>
<path d="M95.1103 40.24C94.5651 40.24 94.0787 40.144 93.6511 39.952C93.2288 39.76 92.8974 39.4987 92.6569 39.168C92.4164 38.832 92.2961 38.4533 92.2961 38.032C92.2961 37.6053 92.4137 37.2267 92.6489 36.896C92.8894 36.5653 93.2155 36.304 93.6271 36.112C94.0386 35.92 94.5037 35.824 95.0221 35.824C95.5192 35.824 95.9789 35.888 96.4012 36.016C96.8235 36.1387 97.1789 36.3173 97.4676 36.552L96.754 37.496C96.6257 37.3947 96.4707 37.3013 96.289 37.216C96.1126 37.1307 95.9255 37.064 95.7277 37.016C95.5299 36.9627 95.3295 36.936 95.1264 36.936C94.8164 36.936 94.5491 36.984 94.3246 37.08C94.1001 37.1707 93.9291 37.2987 93.8115 37.464C93.6939 37.624 93.6351 37.8133 93.6351 38.032C93.6351 38.24 93.6965 38.4293 93.8195 38.6C93.9424 38.7653 94.1135 38.8933 94.3326 38.984C94.5571 39.0747 94.8164 39.12 95.1103 39.12C95.3776 39.12 95.6128 39.0987 95.8159 39.056C96.0244 39.0133 96.2061 38.96 96.3611 38.896C96.5161 38.832 96.6524 38.7707 96.77 38.712L97.4595 39.632C97.1442 39.8027 96.7941 39.9467 96.4092 40.064C96.0244 40.1813 95.5914 40.24 95.1103 40.24Z" fill="url(#paint8_linear_107_420)"/>
<path d="M100.518 40.16V34.24H101.777V37.096L101.392 37.216C101.451 36.9707 101.579 36.744 101.777 36.536C101.98 36.3227 102.234 36.152 102.539 36.024C102.843 35.8907 103.175 35.824 103.533 35.824C103.961 35.824 104.319 35.9093 104.607 36.08C104.901 36.2453 105.12 36.4667 105.265 36.744C105.414 37.016 105.489 37.312 105.489 37.632V40.16H104.206V37.976C104.206 37.752 104.156 37.56 104.054 37.4C103.958 37.24 103.824 37.1173 103.653 37.032C103.487 36.9413 103.292 36.896 103.068 36.896C102.881 36.896 102.71 36.928 102.555 36.992C102.4 37.056 102.266 37.144 102.154 37.256C102.042 37.3627 101.953 37.4853 101.889 37.624C101.83 37.7573 101.801 37.8987 101.801 38.048V40.16H101.16C100.946 40.16 100.785 40.16 100.679 40.16C100.572 40.16 100.518 40.16 100.518 40.16Z" fill="url(#paint9_linear_107_420)"/>
<path d="M110.927 40.232C110.414 40.232 109.97 40.1387 109.596 39.952C109.227 39.7653 108.941 39.5067 108.738 39.176C108.54 38.8453 108.442 38.4667 108.442 38.04C108.442 37.608 108.546 37.2267 108.754 36.896C108.963 36.56 109.254 36.2987 109.628 36.112C110.002 35.92 110.441 35.824 110.943 35.824C111.237 35.824 111.51 35.8587 111.761 35.928C112.012 35.992 112.234 36.0773 112.426 36.184C112.619 36.2907 112.771 36.4053 112.883 36.528C112.996 36.6453 113.062 36.76 113.084 36.872L112.763 36.92V35.912H114.03V40.16H112.739V38.976L112.996 39.088C112.985 39.216 112.921 39.3467 112.803 39.48C112.691 39.6133 112.541 39.7387 112.354 39.856C112.167 39.968 111.951 40.0587 111.705 40.128C111.459 40.1973 111.2 40.232 110.927 40.232ZM111.248 39.152C111.563 39.152 111.833 39.1067 112.058 39.016C112.287 38.92 112.464 38.7893 112.587 38.624C112.715 38.4533 112.779 38.2587 112.779 38.04C112.779 37.816 112.715 37.6213 112.587 37.456C112.464 37.2907 112.287 37.16 112.058 37.064C111.833 36.9627 111.563 36.912 111.248 36.912C110.943 36.912 110.676 36.9627 110.446 37.064C110.216 37.16 110.037 37.2907 109.909 37.456C109.781 37.6213 109.716 37.816 109.716 38.04C109.716 38.2587 109.781 38.4533 109.909 38.624C110.037 38.7893 110.216 38.92 110.446 39.016C110.676 39.1067 110.943 39.152 111.248 39.152Z" fill="url(#paint10_linear_107_420)"/>
<path d="M117.748 40.16V35.912H119.031V40.16H117.748ZM118.382 34.992C118.141 34.992 117.954 34.936 117.82 34.824C117.687 34.7067 117.62 34.5413 117.62 34.328C117.62 34.136 117.687 33.9787 117.82 33.856C117.959 33.7333 118.147 33.672 118.382 33.672C118.622 33.672 118.809 33.7307 118.943 33.848C119.082 33.96 119.151 34.12 119.151 34.328C119.151 34.5253 119.082 34.6853 118.943 34.808C118.804 34.9307 118.617 34.992 118.382 34.992Z" fill="url(#paint11_linear_107_420)"/>
<path d="M122.83 40.16V35.912H124.041L124.089 37.096L123.72 37.176C123.806 36.9467 123.942 36.7307 124.129 36.528C124.321 36.32 124.559 36.152 124.843 36.024C125.131 35.8907 125.455 35.824 125.813 35.824C126.24 35.824 126.601 35.9067 126.895 36.072C127.194 36.2373 127.419 36.4587 127.569 36.736C127.724 37.008 127.801 37.3147 127.801 37.656V40.16H126.518V37.952C126.518 37.744 126.468 37.5627 126.366 37.408C126.27 37.248 126.136 37.1253 125.965 37.04C125.794 36.9493 125.599 36.904 125.38 36.904C125.177 36.904 124.995 36.9413 124.835 37.016C124.68 37.0853 124.549 37.176 124.442 37.288C124.335 37.3947 124.252 37.512 124.193 37.64C124.14 37.7627 124.113 37.88 124.113 37.992V40.16H123.472C123.258 40.16 123.097 40.16 122.991 40.16C122.884 40.16 122.83 40.16 122.83 40.16Z" fill="url(#paint12_linear_107_420)"/>
<path d="M134.974 40.16L137.764 34.56H139.047L141.821 40.16H140.41L138.75 36.84C138.692 36.7227 138.638 36.6133 138.59 36.512C138.542 36.4053 138.496 36.304 138.454 36.208C138.411 36.1067 138.371 36.008 138.333 35.912C138.301 35.8107 138.267 35.7067 138.229 35.6L138.542 35.592C138.504 35.704 138.464 35.8133 138.422 35.92C138.384 36.0213 138.341 36.1227 138.293 36.224C138.251 36.3253 138.205 36.4293 138.157 36.536C138.109 36.6373 138.058 36.7413 138.005 36.848L136.353 40.16H134.974ZM136.265 39.168L136.714 38.144H140.073L140.258 39.168H136.265Z" fill="url(#paint13_linear_107_420)"/>
<path d="M146.781 42C146.241 42 145.776 41.944 145.386 41.832C144.995 41.7253 144.68 41.6 144.439 41.456L144.872 40.512C144.995 40.56 145.137 40.616 145.297 40.68C145.463 40.7493 145.653 40.808 145.867 40.856C146.086 40.9093 146.334 40.936 146.612 40.936C146.896 40.936 147.144 40.88 147.358 40.768C147.577 40.6613 147.745 40.504 147.863 40.296C147.986 40.088 148.047 39.8293 148.047 39.52V39.128L148.288 39.168C148.245 39.3333 148.117 39.4907 147.903 39.64C147.695 39.784 147.43 39.9013 147.109 39.992C146.794 40.0827 146.449 40.128 146.075 40.128C145.61 40.128 145.198 40.04 144.84 39.864C144.488 39.688 144.212 39.44 144.015 39.12C143.817 38.8 143.718 38.432 143.718 38.016C143.718 37.584 143.822 37.2053 144.031 36.88C144.244 36.5493 144.536 36.2907 144.905 36.104C145.279 35.9173 145.712 35.824 146.203 35.824C146.326 35.824 146.476 35.8373 146.652 35.864C146.834 35.8907 147.021 35.9307 147.214 35.984C147.406 36.0373 147.585 36.104 147.751 36.184C147.922 36.2587 148.061 36.3493 148.168 36.456C148.275 36.5627 148.331 36.68 148.336 36.808L148.072 36.872L148.12 35.912H149.338V39.496C149.338 39.9173 149.266 40.2853 149.122 40.6C148.983 40.9147 148.793 41.176 148.553 41.384C148.312 41.592 148.037 41.7467 147.727 41.848C147.422 41.9493 147.107 42 146.781 42ZM146.588 39.136C146.893 39.136 147.155 39.0907 147.374 39C147.598 38.904 147.772 38.7733 147.895 38.608C148.018 38.4373 148.08 38.2427 148.08 38.024C148.08 37.8 148.018 37.6053 147.895 37.44C147.778 37.2747 147.606 37.144 147.382 37.048C147.163 36.952 146.898 36.904 146.588 36.904C146.273 36.904 145.995 36.952 145.754 37.048C145.514 37.144 145.327 37.2747 145.193 37.44C145.06 37.6053 144.993 37.8 144.993 38.024C144.993 38.2427 145.06 38.4373 145.193 38.608C145.327 38.7733 145.514 38.904 145.754 39C145.995 39.0907 146.273 39.136 146.588 39.136Z" fill="url(#paint14_linear_107_420)"/>
<path d="M155.194 40.24C154.601 40.24 154.08 40.1467 153.631 39.96C153.187 39.768 152.842 39.5067 152.596 39.176C152.35 38.8453 152.227 38.472 152.227 38.056C152.227 37.7093 152.302 37.4 152.452 37.128C152.602 36.8507 152.805 36.616 153.061 36.424C153.323 36.232 153.623 36.0853 153.959 35.984C154.301 35.8773 154.66 35.824 155.034 35.824C155.413 35.824 155.763 35.8773 156.084 35.984C156.41 36.0853 156.693 36.232 156.934 36.424C157.18 36.6107 157.37 36.8347 157.503 37.096C157.637 37.3573 157.698 37.648 157.688 37.968L157.68 38.36H153.166L152.981 37.56H156.637L156.501 37.744V37.584C156.48 37.44 156.399 37.3147 156.26 37.208C156.127 37.096 155.953 37.008 155.739 36.944C155.531 36.88 155.301 36.848 155.05 36.848C154.761 36.848 154.494 36.8853 154.248 36.96C154.002 37.0347 153.804 37.1547 153.655 37.32C153.505 37.48 153.43 37.6933 153.43 37.96C153.43 38.1893 153.51 38.3973 153.671 38.584C153.836 38.7653 154.066 38.9093 154.36 39.016C154.66 39.1227 155.01 39.176 155.411 39.176C155.817 39.176 156.146 39.1333 156.397 39.048C156.648 38.9573 156.835 38.88 156.958 38.816L157.503 39.632C157.305 39.7547 157.084 39.864 156.838 39.96C156.592 40.0507 156.33 40.12 156.052 40.168C155.774 40.216 155.488 40.24 155.194 40.24Z" fill="url(#paint15_linear_107_420)"/>
<path d="M160.852 40.16V35.912H162.063L162.111 37.096L161.742 37.176C161.827 36.9467 161.964 36.7307 162.151 36.528C162.343 36.32 162.581 36.152 162.864 36.024C163.153 35.8907 163.476 35.824 163.835 35.824C164.262 35.824 164.623 35.9067 164.917 36.072C165.216 36.2373 165.441 36.4587 165.59 36.736C165.745 37.008 165.823 37.3147 165.823 37.656V40.16H164.54V37.952C164.54 37.744 164.489 37.5627 164.388 37.408C164.292 37.248 164.158 37.1253 163.987 37.04C163.816 36.9493 163.621 36.904 163.402 36.904C163.198 36.904 163.017 36.9413 162.856 37.016C162.701 37.0853 162.57 37.176 162.463 37.288C162.357 37.3947 162.274 37.512 162.215 37.64C162.161 37.7627 162.135 37.88 162.135 37.992V40.16H161.493C161.28 40.16 161.119 40.16 161.012 40.16C160.905 40.16 160.852 40.16 160.852 40.16Z" fill="url(#paint16_linear_107_420)"/>
<path d="M171.71 40.24C171.165 40.24 170.678 40.144 170.251 39.952C169.828 39.76 169.497 39.4987 169.256 39.168C169.016 38.832 168.896 38.4533 168.896 38.032C168.896 37.6053 169.013 37.2267 169.248 36.896C169.489 36.5653 169.815 36.304 170.227 36.112C170.638 35.92 171.103 35.824 171.622 35.824C172.119 35.824 172.578 35.888 173.001 36.016C173.423 36.1387 173.778 36.3173 174.067 36.552L173.353 37.496C173.225 37.3947 173.07 37.3013 172.888 37.216C172.712 37.1307 172.525 37.064 172.327 37.016C172.129 36.9627 171.929 36.936 171.726 36.936C171.416 36.936 171.149 36.984 170.924 37.08C170.7 37.1707 170.529 37.2987 170.411 37.464C170.293 37.624 170.235 37.8133 170.235 38.032C170.235 38.24 170.296 38.4293 170.419 38.6C170.542 38.7653 170.713 38.8933 170.932 38.984C171.157 39.0747 171.416 39.12 171.71 39.12C171.977 39.12 172.212 39.0987 172.415 39.056C172.624 39.0133 172.806 38.96 172.961 38.896C173.116 38.832 173.252 38.7707 173.369 38.712L174.059 39.632C173.744 39.8027 173.394 39.9467 173.009 40.064C172.624 40.1813 172.191 40.24 171.71 40.24Z" fill="url(#paint17_linear_107_420)"/>
<path d="M177.505 42L178.828 39.728L178.74 40.352L176.158 35.912H177.682L178.892 38.232C178.999 38.4347 179.101 38.6373 179.197 38.84C179.299 39.0427 179.384 39.2453 179.454 39.448H179.117C179.192 39.272 179.277 39.0773 179.373 38.864C179.475 38.6453 179.577 38.4347 179.678 38.232L180.873 35.912H182.364L179.863 40.208L178.836 42H177.505Z" fill="url(#paint18_linear_107_420)"/>
<defs>
<linearGradient id="paint0_linear_107_420" x1="25.4324" y1="33.672" x2="91.1331" y2="115.368" gradientUnits="userSpaceOnUse">
<stop stop-color="#3264F8"/>
<stop offset="1" stop-color="#F02EE5"/>
</linearGradient>
<linearGradient id="paint1_linear_107_420" x1="25.4324" y1="33.672" x2="91.1331" y2="115.368" gradientUnits="userSpaceOnUse">
<stop stop-color="#3264F8"/>
<stop offset="1" stop-color="#F02EE5"/>
</linearGradient>
<linearGradient id="paint2_linear_107_420" x1="25.4324" y1="33.672" x2="91.1331" y2="115.368" gradientUnits="userSpaceOnUse">
<stop stop-color="#3264F8"/>
<stop offset="1" stop-color="#F02EE5"/>
</linearGradient>
<linearGradient id="paint3_linear_107_420" x1="25.4324" y1="33.672" x2="91.1331" y2="115.368" gradientUnits="userSpaceOnUse">
<stop stop-color="#3264F8"/>
<stop offset="1" stop-color="#F02EE5"/>
</linearGradient>
<linearGradient id="paint4_linear_107_420" x1="25.4324" y1="33.672" x2="91.1331" y2="115.368" gradientUnits="userSpaceOnUse">
<stop stop-color="#3264F8"/>
<stop offset="1" stop-color="#F02EE5"/>
</linearGradient>
<linearGradient id="paint5_linear_107_420" x1="25.4324" y1="33.672" x2="91.1331" y2="115.368" gradientUnits="userSpaceOnUse">
<stop stop-color="#3264F8"/>
<stop offset="1" stop-color="#F02EE5"/>
</linearGradient>
<linearGradient id="paint6_linear_107_420" x1="25.4324" y1="33.672" x2="91.1331" y2="115.368" gradientUnits="userSpaceOnUse">
<stop stop-color="#3264F8"/>
<stop offset="1" stop-color="#F02EE5"/>
</linearGradient>
<linearGradient id="paint7_linear_107_420" x1="25.4324" y1="33.672" x2="91.1331" y2="115.368" gradientUnits="userSpaceOnUse">
<stop stop-color="#3264F8"/>
<stop offset="1" stop-color="#F02EE5"/>
</linearGradient>
<linearGradient id="paint8_linear_107_420" x1="25.4324" y1="33.672" x2="91.1331" y2="115.368" gradientUnits="userSpaceOnUse">
<stop stop-color="#3264F8"/>
<stop offset="1" stop-color="#F02EE5"/>
</linearGradient>
<linearGradient id="paint9_linear_107_420" x1="25.4324" y1="33.672" x2="91.1331" y2="115.368" gradientUnits="userSpaceOnUse">
<stop stop-color="#3264F8"/>
<stop offset="1" stop-color="#F02EE5"/>
</linearGradient>
<linearGradient id="paint10_linear_107_420" x1="25.4324" y1="33.672" x2="91.1331" y2="115.368" gradientUnits="userSpaceOnUse">
<stop stop-color="#3264F8"/>
<stop offset="1" stop-color="#F02EE5"/>
</linearGradient>
<linearGradient id="paint11_linear_107_420" x1="25.4324" y1="33.672" x2="91.1331" y2="115.368" gradientUnits="userSpaceOnUse">
<stop stop-color="#3264F8"/>
<stop offset="1" stop-color="#F02EE5"/>
</linearGradient>
<linearGradient id="paint12_linear_107_420" x1="25.4324" y1="33.672" x2="91.1331" y2="115.368" gradientUnits="userSpaceOnUse">
<stop stop-color="#3264F8"/>
<stop offset="1" stop-color="#F02EE5"/>
</linearGradient>
<linearGradient id="paint13_linear_107_420" x1="25.4324" y1="33.672" x2="91.1331" y2="115.368" gradientUnits="userSpaceOnUse">
<stop stop-color="#3264F8"/>
<stop offset="1" stop-color="#F02EE5"/>
</linearGradient>
<linearGradient id="paint14_linear_107_420" x1="25.4324" y1="33.672" x2="91.1331" y2="115.368" gradientUnits="userSpaceOnUse">
<stop stop-color="#3264F8"/>
<stop offset="1" stop-color="#F02EE5"/>
</linearGradient>
<linearGradient id="paint15_linear_107_420" x1="25.4324" y1="33.672" x2="91.1331" y2="115.368" gradientUnits="userSpaceOnUse">
<stop stop-color="#3264F8"/>
<stop offset="1" stop-color="#F02EE5"/>
</linearGradient>
<linearGradient id="paint16_linear_107_420" x1="25.4324" y1="33.672" x2="91.1331" y2="115.368" gradientUnits="userSpaceOnUse">
<stop stop-color="#3264F8"/>
<stop offset="1" stop-color="#F02EE5"/>
</linearGradient>
<linearGradient id="paint17_linear_107_420" x1="25.4324" y1="33.672" x2="91.1331" y2="115.368" gradientUnits="userSpaceOnUse">
<stop stop-color="#3264F8"/>
<stop offset="1" stop-color="#F02EE5"/>
</linearGradient>
<linearGradient id="paint18_linear_107_420" x1="25.4324" y1="33.672" x2="91.1331" y2="115.368" gradientUnits="userSpaceOnUse">
<stop stop-color="#3264F8"/>
<stop offset="1" stop-color="#F02EE5"/>
</linearGradient>
</defs>
</svg>
