<svg width="209" height="45" viewBox="0 0 209 45" fill="none" xmlns="http://www.w3.org/2000/svg">
<path d="M0.601333 27.8418V3.83616H0L0.400888 0.158192H6.65475L8.57901 15.0678L10.5434 0.158192H16.677V27.8418H12.8685V6.32768L9.90194 23.887H7.29617L4.40977 6.80226V27.8418H0.601333Z" fill="white"/>
<path d="M21.6996 27.8418H17.8912L20.056 3.83616H19.3344L19.7353 0.158192H27.0716L29.5571 27.8418H25.7486L25.3076 23.096H22.1406L21.6996 27.8418ZM22.4613 19.4181H24.9869L23.7442 5.65537L22.4613 19.4181Z" fill="white"/>
<path d="M30.3407 3.83616L30.7416 0.158192H37.0756C38.1981 0.158192 39.1068 0.500942 39.8016 1.18644C40.4965 1.84557 40.8439 2.72881 40.8439 3.83616V16.2147C40.8439 16.7947 40.7237 17.322 40.4831 17.7966C40.2426 18.2448 39.9219 18.6271 39.521 18.9435L42.0867 27.8418H38.2382L35.9531 19.8927H34.7504V27.8418H30.942V3.83616H30.3407ZM36.8351 3.83616H34.7504V16.2147H36.8351C36.9687 16.2147 37.0355 16.1488 37.0355 16.0169V4.0339C37.0355 3.90207 36.9687 3.83616 36.8351 3.83616Z" fill="white"/>
<path d="M46.2948 19.9322V24.1243C46.2948 24.2561 46.3616 24.322 46.4952 24.322H48.0988C48.2324 24.322 48.2992 24.2561 48.2992 24.1243V17.0056L45.1322 15.6215C44.8917 15.5424 44.5576 15.4105 44.13 15.226C43.7024 15.0151 43.3148 14.7119 42.9674 14.3164C42.6467 13.9209 42.4863 13.3804 42.4863 12.6949V3.67797C42.4863 2.57062 42.8338 1.68738 43.5286 1.02825C44.2235 0.34275 45.1322 0 46.2547 0H48.3393C49.4618 0 50.3705 0.34275 51.0654 1.02825C51.7602 1.68738 52.1077 2.57062 52.1077 3.67797V9.53107L48.2992 9.21469V3.87571C48.2992 3.74388 48.2324 3.67797 48.0988 3.67797H46.4952C46.3616 3.67797 46.2948 3.74388 46.2948 3.87571V12.1412L49.4618 13.5254C49.7023 13.6309 50.0364 13.7759 50.464 13.9605C50.8916 14.145 51.2658 14.435 51.5865 14.8305C51.9339 15.226 52.1077 15.7665 52.1077 16.452V24.322C52.1077 25.4294 51.7602 26.3258 51.0654 27.0113C50.3705 27.6704 49.4618 28 48.3393 28H46.2547C45.1322 28 44.2235 27.6704 43.5286 27.0113C42.8338 26.3258 42.4863 25.4294 42.4863 24.322V19.9322H46.2948Z" fill="white"/>
<path d="M57.7311 0.158192V12.1017H60.0161V0.158192H63.8246V27.8418H60.0161V15.7797H57.7311V27.8418H53.9226V3.83616H53.3213L53.7222 0.158192H57.7311Z" fill="white"/>
<path d="M68.8354 27.8418H65.0269L67.1917 3.83616H66.4701L66.871 0.158192H74.2073L76.6928 27.8418H72.8843L72.4434 23.096H69.2763L68.8354 27.8418ZM69.597 19.4181H72.1226L70.8799 5.65537L69.597 19.4181Z" fill="white"/>
<path d="M87.9797 24.1638L87.6589 27.8418H78.0777V3.83616H77.4764L77.8773 0.158192H81.8862V24.1638H87.9797Z" fill="white"/>
<path d="M99.6853 24.1638L99.3646 27.8418H89.7833V3.83616H89.182L89.5829 0.158192H93.5918V24.1638H99.6853Z" fill="white"/>
<path d="M112.3 19.9322V24.1243C112.3 24.2561 112.367 24.322 112.501 24.322H114.104C114.238 24.322 114.305 24.2561 114.305 24.1243V17.0056L111.138 15.6215C110.897 15.5424 110.563 15.4105 110.136 15.226C109.708 15.0151 109.32 14.7119 108.973 14.3164C108.652 13.9209 108.492 13.3804 108.492 12.6949V3.67797C108.492 2.57062 108.839 1.68738 109.534 1.02825C110.229 0.34275 111.138 0 112.26 0H114.345C115.467 0 116.376 0.34275 117.071 1.02825C117.766 1.68738 118.113 2.57062 118.113 3.67797V9.53107L114.305 9.21469V3.87571C114.305 3.74388 114.238 3.67797 114.104 3.67797H112.501C112.367 3.67797 112.3 3.74388 112.3 3.87571V12.1412L115.467 13.5254C115.708 13.6309 116.042 13.7759 116.47 13.9605C116.897 14.145 117.271 14.435 117.592 14.8305C117.94 15.226 118.113 15.7665 118.113 16.452V24.322C118.113 25.4294 117.766 26.3258 117.071 27.0113C116.376 27.6704 115.467 28 114.345 28H112.26C111.138 28 110.229 27.6704 109.534 27.0113C108.839 26.3258 108.492 25.4294 108.492 24.322V19.9322H112.3Z" fill="white"/>
<path d="M130.151 24.322C130.151 25.4294 129.803 26.3258 129.109 27.0113C128.414 27.6704 127.505 28 126.383 28H123.496C122.374 28 121.465 27.6704 120.77 27.0113C120.075 26.3258 119.728 25.4294 119.728 24.322V3.67797C119.728 2.57062 120.075 1.68738 120.77 1.02825C121.465 0.34275 122.374 0 123.496 0H126.383C127.505 0 128.414 0.34275 129.109 1.02825C129.803 1.68738 130.151 2.57062 130.151 3.67797V24.322ZM123.737 3.67797C123.603 3.67797 123.536 3.74388 123.536 3.87571V24.1243C123.536 24.2561 123.603 24.322 123.737 24.322H126.142C126.276 24.322 126.342 24.2561 126.342 24.1243V3.87571C126.342 3.74388 126.276 3.67797 126.142 3.67797H123.737Z" fill="white"/>
<path d="M142.241 24.1638L141.92 27.8418H132.339V3.83616H131.737L132.138 0.158192H136.147V24.1638H142.241Z" fill="white"/>
<path d="M153.479 24.322C153.479 25.4294 153.132 26.3258 152.437 27.0113C151.742 27.6704 150.833 28 149.711 28H147.225C146.103 28 145.194 27.6704 144.499 27.0113C143.804 26.3258 143.457 25.4294 143.457 24.322V3.83616H142.856L143.257 0.158192H147.265V24.1243C147.265 24.2561 147.332 24.322 147.466 24.322H149.47C149.604 24.322 149.671 24.2561 149.671 24.1243V0.23729H153.479V24.322Z" fill="white"/>
<path d="M154.688 3.83616V0.158192H165.713V3.83616H162.105V27.8418H158.296V3.83616H154.688Z" fill="white"/>
<path d="M167.142 27.8418V3.83616H166.541L166.942 0.158192H170.951V27.8418H167.142Z" fill="white"/>
<path d="M182.963 24.322C182.963 25.4294 182.616 26.3258 181.921 27.0113C181.226 27.6704 180.317 28 179.195 28H176.309C175.186 28 174.277 27.6704 173.582 27.0113C172.888 26.3258 172.54 25.4294 172.54 24.322V3.67797C172.54 2.57062 172.888 1.68738 173.582 1.02825C174.277 0.34275 175.186 0 176.309 0H179.195C180.317 0 181.226 0.34275 181.921 1.02825C182.616 1.68738 182.963 2.57062 182.963 3.67797V24.322ZM176.549 3.67797C176.415 3.67797 176.349 3.74388 176.349 3.87571V24.1243C176.349 24.2561 176.415 24.322 176.549 24.322H178.954C179.088 24.322 179.155 24.2561 179.155 24.1243V3.87571C179.155 3.74388 179.088 3.67797 178.954 3.67797H176.549Z" fill="white"/>
<path d="M192.978 0.158192H196.786V27.8418H192.978L188.568 10.9153V27.8418H184.759V3.83616H184.158L184.559 0.158192H188.768L193.218 17.7571L192.978 0.158192Z" fill="white"/>
<path d="M202.187 19.9322V24.1243C202.187 24.2561 202.254 24.322 202.388 24.322H203.991C204.125 24.322 204.192 24.2561 204.192 24.1243V17.0056L201.025 15.6215C200.784 15.5424 200.45 15.4105 200.022 15.226C199.595 15.0151 199.207 14.7119 198.86 14.3164C198.539 13.9209 198.379 13.3804 198.379 12.6949V3.67797C198.379 2.57062 198.726 1.68738 199.421 1.02825C200.116 0.34275 201.025 0 202.147 0H204.232C205.354 0 206.263 0.34275 206.958 1.02825C207.653 1.68738 208 2.57062 208 3.67797V9.53107L204.192 9.21469V3.87571C204.192 3.74388 204.125 3.67797 203.991 3.67797H202.388C202.254 3.67797 202.187 3.74388 202.187 3.87571V12.1412L205.354 13.5254C205.595 13.6309 205.929 13.7759 206.356 13.9605C206.784 14.145 207.158 14.435 207.479 14.8305C207.826 15.226 208 15.7665 208 16.452V24.322C208 25.4294 207.653 26.3258 206.958 27.0113C206.263 27.6704 205.354 28 204.232 28H202.147C201.025 28 200.116 27.6704 199.421 27.0113C198.726 26.3258 198.379 25.4294 198.379 24.322V19.9322H202.187Z" fill="white"/>
<path d="M5.40804 39.7739C5.76369 39.8911 6.04575 40.0884 6.25424 40.3659C6.46272 40.6372 6.56696 40.9764 6.56696 41.3834C6.56696 41.9445 6.35235 42.3792 5.92312 42.6876C5.49389 42.9897 4.86844 43.1408 4.04677 43.1408H0.845947V36.666H3.86282C4.62317 36.666 5.20876 36.8171 5.61959 37.1192C6.03043 37.4152 6.23584 37.8253 6.23584 38.3494C6.23584 38.6701 6.16226 38.9538 6.0151 39.2004C5.86793 39.4471 5.66558 39.6382 5.40804 39.7739ZM2.04166 37.6095V39.3947H3.73405C4.15101 39.3947 4.46987 39.3207 4.69062 39.1727C4.91749 39.0185 5.03093 38.7965 5.03093 38.5067C5.03093 38.2107 4.91749 37.9887 4.69062 37.8407C4.46987 37.6865 4.15101 37.6095 3.73405 37.6095H2.04166ZM3.97319 42.1973C4.8991 42.1973 5.36205 41.8859 5.36205 41.2631C5.36205 40.6403 4.8991 40.3289 3.97319 40.3289H2.04166V42.1973H3.97319Z" fill="url(#paint0_linear_489_25)"/>
<path d="M15.0909 36.2775H16.2406V43.1408H15.0909V36.2775Z" fill="url(#paint1_linear_489_25)"/>
<path d="M27.3153 43.2055C26.8187 43.2055 26.371 43.0976 25.9725 42.8818C25.5739 42.666 25.2612 42.3669 25.0343 41.9846C24.8135 41.5961 24.7032 41.1583 24.7032 40.6711C24.7032 40.184 24.8135 39.7492 25.0343 39.3669C25.2612 38.9846 25.5739 38.6855 25.9725 38.4697C26.371 38.2539 26.8187 38.1459 27.3153 38.1459C27.8182 38.1459 28.2688 38.2539 28.6674 38.4697C29.066 38.6855 29.3756 38.9846 29.5964 39.3669C29.8233 39.7492 29.9367 40.184 29.9367 40.6711C29.9367 41.1583 29.8233 41.5961 29.5964 41.9846C29.3756 42.3669 29.066 42.666 28.6674 42.8818C28.2688 43.0976 27.8182 43.2055 27.3153 43.2055ZM27.3153 42.2158C27.7384 42.2158 28.088 42.074 28.3639 41.7903C28.6398 41.5067 28.7778 41.1336 28.7778 40.6711C28.7778 40.2086 28.6398 39.8356 28.3639 39.5519C28.088 39.2682 27.7384 39.1264 27.3153 39.1264C26.8922 39.1264 26.5427 39.2682 26.2668 39.5519C25.997 39.8356 25.8621 40.2086 25.8621 40.6711C25.8621 41.1336 25.997 41.5067 26.2668 41.7903C26.5427 42.074 26.8922 42.2158 27.3153 42.2158Z" fill="url(#paint2_linear_489_25)"/>
<path d="M40.6478 43.2055C40.1389 43.2055 39.682 43.0976 39.2773 42.8818C38.8726 42.666 38.5568 42.3669 38.33 41.9846C38.1031 41.5961 37.9896 41.1583 37.9896 40.6711C37.9896 40.184 38.1031 39.7492 38.33 39.3669C38.5568 38.9846 38.8696 38.6855 39.2681 38.4697C39.6728 38.2539 40.1327 38.1459 40.6478 38.1459C41.1322 38.1459 41.5553 38.2446 41.9171 38.4419C42.285 38.6393 42.5609 38.9229 42.7449 39.2929L41.8619 39.8109C41.7209 39.5827 41.543 39.4132 41.3284 39.3022C41.1199 39.185 40.89 39.1264 40.6386 39.1264C40.2094 39.1264 39.8537 39.2682 39.5717 39.5519C39.2896 39.8294 39.1486 40.2025 39.1486 40.6711C39.1486 41.1398 39.2865 41.5159 39.5625 41.7996C39.8445 42.0771 40.2032 42.2158 40.6386 42.2158C40.89 42.2158 41.1199 42.1603 41.3284 42.0493C41.543 41.9322 41.7209 41.7595 41.8619 41.5313L42.7449 42.0493C42.5548 42.4193 42.2758 42.7061 41.9079 42.9096C41.5461 43.1069 41.1261 43.2055 40.6478 43.2055Z" fill="url(#paint3_linear_489_25)"/>
<path d="M53.0572 41.0226L52.2018 41.8366V43.1408H51.0521V36.2775H52.2018V40.4214L54.584 38.2014H55.9637L53.9126 40.2734L56.1568 43.1408H54.7588L53.0572 41.0226Z" fill="url(#paint4_linear_489_25)"/>
<path d="M66.3046 43.2055C65.7956 43.2055 65.3388 43.0976 64.9341 42.8818C64.5294 42.666 64.2136 42.3669 63.9867 41.9846C63.7598 41.5961 63.6464 41.1583 63.6464 40.6711C63.6464 40.184 63.7598 39.7492 63.9867 39.3669C64.2136 38.9846 64.5263 38.6855 64.9249 38.4697C65.3296 38.2539 65.7895 38.1459 66.3046 38.1459C66.789 38.1459 67.2121 38.2446 67.5738 38.4419C67.9418 38.6393 68.2177 38.9229 68.4016 39.2929L67.5187 39.8109C67.3776 39.5827 67.1998 39.4132 66.9852 39.3022C66.7767 39.185 66.5468 39.1264 66.2954 39.1264C65.8661 39.1264 65.5105 39.2682 65.2284 39.5519C64.9463 39.8294 64.8053 40.2025 64.8053 40.6711C64.8053 41.1398 64.9433 41.5159 65.2192 41.7996C65.5013 42.0771 65.86 42.2158 66.2954 42.2158C66.5468 42.2158 66.7767 42.1603 66.9852 42.0493C67.1998 41.9322 67.3776 41.7595 67.5187 41.5313L68.4016 42.0493C68.2116 42.4193 67.9326 42.7061 67.5646 42.9096C67.2029 43.1069 66.7828 43.2055 66.3046 43.2055Z" fill="url(#paint5_linear_489_25)"/>
<path d="M79.4957 38.1459C80.1151 38.1459 80.6117 38.3279 80.9858 38.6917C81.3598 39.0555 81.5468 39.5951 81.5468 40.3104V43.1408H80.3971V40.4584C80.3971 40.0267 80.2959 39.703 80.0936 39.4872C79.8912 39.2652 79.603 39.1542 79.229 39.1542C78.8059 39.1542 78.4717 39.2837 78.2264 39.5427C77.9812 39.7955 77.8585 40.1624 77.8585 40.6434V43.1408H76.7088V36.2775H77.8585V38.7749C78.0486 38.5714 78.2816 38.4173 78.5576 38.3124C78.8396 38.2014 79.1524 38.1459 79.4957 38.1459Z" fill="url(#paint6_linear_489_25)"/>
<path d="M92.2399 38.1459C92.9635 38.1459 93.5153 38.3217 93.8955 38.6732C94.2818 39.0185 94.475 39.5427 94.475 40.2456V43.1408H93.3896V42.5396C93.2486 42.7554 93.0462 42.9219 92.7826 43.0391C92.525 43.1501 92.2123 43.2055 91.8444 43.2055C91.4765 43.2055 91.1546 43.1439 90.8786 43.0206C90.6027 42.8911 90.3881 42.7153 90.2348 42.4933C90.0876 42.2652 90.014 42.0092 90.014 41.7256C90.014 41.2816 90.1765 40.927 90.5015 40.6619C90.8326 40.3905 91.3508 40.2549 92.0559 40.2549H93.3252V40.1809C93.3252 39.8356 93.221 39.5704 93.0125 39.3854C92.8102 39.2004 92.5066 39.1079 92.1019 39.1079C91.826 39.1079 91.5531 39.1511 91.2833 39.2374C91.0197 39.3237 90.7959 39.444 90.6119 39.5981L90.1612 38.7564C90.4187 38.5591 90.7284 38.408 91.0902 38.3032C91.452 38.1984 91.8352 38.1459 92.2399 38.1459ZM92.0835 42.3638C92.3717 42.3638 92.6262 42.2991 92.847 42.1696C93.0738 42.0339 93.2333 41.8428 93.3252 41.5961V41.0226H92.1387C91.4765 41.0226 91.1454 41.2415 91.1454 41.6793C91.1454 41.889 91.2281 42.0555 91.3937 42.1788C91.5593 42.3022 91.7892 42.3638 92.0835 42.3638Z" fill="url(#paint7_linear_489_25)"/>
<path d="M103.309 38.2014H104.458V43.1408H103.309V38.2014ZM103.888 37.3875C103.68 37.3875 103.505 37.3227 103.364 37.1932C103.223 37.0576 103.152 36.8911 103.152 36.6937C103.152 36.4964 103.223 36.333 103.364 36.2035C103.505 36.0678 103.68 36 103.888 36C104.097 36 104.271 36.0647 104.412 36.1942C104.553 36.3176 104.624 36.4748 104.624 36.666C104.624 36.8695 104.553 37.0421 104.412 37.184C104.278 37.3196 104.103 37.3875 103.888 37.3875Z" fill="url(#paint8_linear_489_25)"/>
<path d="M116.113 38.1459C116.732 38.1459 117.229 38.3279 117.603 38.6917C117.977 39.0555 118.164 39.5951 118.164 40.3104V43.1408H117.014V40.4584C117.014 40.0267 116.913 39.703 116.71 39.4872C116.508 39.2652 116.22 39.1542 115.846 39.1542C115.423 39.1542 115.089 39.2837 114.843 39.5427C114.598 39.7955 114.475 40.1624 114.475 40.6434V43.1408H113.326V38.2014H114.42V38.8397C114.61 38.6115 114.849 38.4388 115.138 38.3217C115.426 38.2045 115.751 38.1459 116.113 38.1459Z" fill="url(#paint9_linear_489_25)"/>
<path d="M141.167 41.6423H137.948L137.313 43.1408H136.08L138.978 36.666H140.155L143.061 43.1408H141.811L141.167 41.6423ZM140.771 40.6989L139.557 37.8684L138.352 40.6989H140.771Z" fill="url(#paint10_linear_489_25)"/>
<path d="M155.958 38.2014V42.3916C155.958 44.1305 155.075 45 153.309 45C152.837 45 152.389 44.9383 151.966 44.815C151.543 44.6978 151.194 44.5252 150.918 44.297L151.433 43.4275C151.647 43.6064 151.917 43.7482 152.242 43.853C152.573 43.964 152.907 44.0195 153.245 44.0195C153.784 44.0195 154.18 43.8962 154.431 43.6495C154.683 43.4029 154.808 43.0267 154.808 42.5211V42.2621C154.612 42.4779 154.373 42.6413 154.091 42.7523C153.809 42.8633 153.499 42.9188 153.162 42.9188C152.696 42.9188 152.273 42.8201 151.893 42.6228C151.519 42.4193 151.221 42.1357 151 41.7718C150.786 41.408 150.679 40.9918 150.679 40.5231C150.679 40.0545 150.786 39.6413 151 39.2837C151.221 38.9198 151.519 38.6393 151.893 38.4419C152.273 38.2446 152.696 38.1459 153.162 38.1459C153.518 38.1459 153.839 38.2045 154.128 38.3217C154.422 38.4388 154.667 38.6177 154.864 38.8582V38.2014H155.958ZM153.337 41.9383C153.772 41.9383 154.128 41.8088 154.404 41.5498C154.686 41.2847 154.827 40.9424 154.827 40.5231C154.827 40.11 154.686 39.7739 154.404 39.5149C154.128 39.2559 153.772 39.1264 153.337 39.1264C152.895 39.1264 152.533 39.2559 152.251 39.5149C151.975 39.7739 151.837 40.11 151.837 40.5231C151.837 40.9424 151.975 41.2847 152.251 41.5498C152.533 41.8088 152.895 41.9383 153.337 41.9383Z" fill="url(#paint11_linear_489_25)"/>
<path d="M169.445 40.6989C169.445 40.779 169.439 40.8931 169.427 41.0411H165.573C165.64 41.4049 165.815 41.6948 166.097 41.9106C166.385 42.1202 166.741 42.2251 167.164 42.2251C167.704 42.2251 168.148 42.0462 168.498 41.6886L169.114 42.4008C168.893 42.666 168.614 42.8664 168.277 43.0021C167.94 43.1377 167.56 43.2055 167.136 43.2055C166.597 43.2055 166.122 43.0976 165.711 42.8818C165.3 42.666 164.981 42.3669 164.754 41.9846C164.533 41.5961 164.423 41.1583 164.423 40.6711C164.423 40.1901 164.53 39.7585 164.745 39.3762C164.966 38.9877 165.269 38.6855 165.656 38.4697C166.042 38.2539 166.477 38.1459 166.962 38.1459C167.44 38.1459 167.866 38.2539 168.24 38.4697C168.62 38.6793 168.915 38.9784 169.123 39.3669C169.338 39.7492 169.445 40.1932 169.445 40.6989ZM166.962 39.0709C166.594 39.0709 166.281 39.1819 166.023 39.4039C165.772 39.6197 165.619 39.9096 165.564 40.2734H168.351C168.301 39.9157 168.151 39.6259 167.9 39.4039C167.648 39.1819 167.336 39.0709 166.962 39.0709Z" fill="url(#paint12_linear_489_25)"/>
<path d="M180.695 38.1459C181.314 38.1459 181.811 38.3279 182.185 38.6917C182.559 39.0555 182.746 39.5951 182.746 40.3104V43.1408H181.596V40.4584C181.596 40.0267 181.495 39.703 181.292 39.4872C181.09 39.2652 180.802 39.1542 180.428 39.1542C180.005 39.1542 179.671 39.2837 179.425 39.5427C179.18 39.7955 179.057 40.1624 179.057 40.6434V43.1408H177.908V38.2014H179.002V38.8397C179.192 38.6115 179.431 38.4388 179.72 38.3217C180.008 38.2045 180.333 38.1459 180.695 38.1459Z" fill="url(#paint13_linear_489_25)"/>
<path d="M193.861 43.2055C193.352 43.2055 192.895 43.0976 192.49 42.8818C192.086 42.666 191.77 42.3669 191.543 41.9846C191.316 41.5961 191.203 41.1583 191.203 40.6711C191.203 40.184 191.316 39.7492 191.543 39.3669C191.77 38.9846 192.083 38.6855 192.481 38.4697C192.886 38.2539 193.346 38.1459 193.861 38.1459C194.345 38.1459 194.768 38.2446 195.13 38.4419C195.498 38.6393 195.774 38.9229 195.958 39.2929L195.075 39.8109C194.934 39.5827 194.756 39.4132 194.541 39.3022C194.333 39.185 194.103 39.1264 193.852 39.1264C193.422 39.1264 193.067 39.2682 192.785 39.5519C192.503 39.8294 192.362 40.2025 192.362 40.6711C192.362 41.1398 192.499 41.5159 192.775 41.7996C193.057 42.0771 193.416 42.2158 193.852 42.2158C194.103 42.2158 194.333 42.1603 194.541 42.0493C194.756 41.9322 194.934 41.7595 195.075 41.5313L195.958 42.0493C195.768 42.4193 195.489 42.7061 195.121 42.9096C194.759 43.1069 194.339 43.2055 193.861 43.2055Z" fill="url(#paint14_linear_489_25)"/>
<path d="M208.846 38.2014L206.546 43.5385C206.332 44.075 206.071 44.4512 205.765 44.667C205.458 44.889 205.087 45 204.652 45C204.406 45 204.164 44.9599 203.925 44.8798C203.686 44.7996 203.49 44.6886 203.336 44.5468L203.796 43.6958C203.907 43.8006 204.036 43.8839 204.183 43.9455C204.336 44.0072 204.489 44.038 204.643 44.038C204.845 44.038 205.01 43.9856 205.139 43.8808C205.274 43.776 205.397 43.6002 205.507 43.3535L205.59 43.1593L203.447 38.2014H204.643L206.188 41.8551L207.742 38.2014H208.846Z" fill="url(#paint15_linear_489_25)"/>
<defs>
<linearGradient id="paint0_linear_489_25" x1="0.845947" y1="36" x2="67.5147" y2="137.673" gradientUnits="userSpaceOnUse">
<stop stop-color="#3264F8"/>
<stop offset="1" stop-color="#F02EE5"/>
</linearGradient>
<linearGradient id="paint1_linear_489_25" x1="0.845947" y1="36" x2="67.5147" y2="137.673" gradientUnits="userSpaceOnUse">
<stop stop-color="#3264F8"/>
<stop offset="1" stop-color="#F02EE5"/>
</linearGradient>
<linearGradient id="paint2_linear_489_25" x1="0.845947" y1="36" x2="67.5147" y2="137.673" gradientUnits="userSpaceOnUse">
<stop stop-color="#3264F8"/>
<stop offset="1" stop-color="#F02EE5"/>
</linearGradient>
<linearGradient id="paint3_linear_489_25" x1="0.845947" y1="36" x2="67.5147" y2="137.673" gradientUnits="userSpaceOnUse">
<stop stop-color="#3264F8"/>
<stop offset="1" stop-color="#F02EE5"/>
</linearGradient>
<linearGradient id="paint4_linear_489_25" x1="0.845947" y1="36" x2="67.5147" y2="137.673" gradientUnits="userSpaceOnUse">
<stop stop-color="#3264F8"/>
<stop offset="1" stop-color="#F02EE5"/>
</linearGradient>
<linearGradient id="paint5_linear_489_25" x1="0.845947" y1="36" x2="67.5147" y2="137.673" gradientUnits="userSpaceOnUse">
<stop stop-color="#3264F8"/>
<stop offset="1" stop-color="#F02EE5"/>
</linearGradient>
<linearGradient id="paint6_linear_489_25" x1="0.845947" y1="36" x2="67.5147" y2="137.673" gradientUnits="userSpaceOnUse">
<stop stop-color="#3264F8"/>
<stop offset="1" stop-color="#F02EE5"/>
</linearGradient>
<linearGradient id="paint7_linear_489_25" x1="0.845947" y1="36" x2="67.5147" y2="137.673" gradientUnits="userSpaceOnUse">
<stop stop-color="#3264F8"/>
<stop offset="1" stop-color="#F02EE5"/>
</linearGradient>
<linearGradient id="paint8_linear_489_25" x1="0.845947" y1="36" x2="67.5147" y2="137.673" gradientUnits="userSpaceOnUse">
<stop stop-color="#3264F8"/>
<stop offset="1" stop-color="#F02EE5"/>
</linearGradient>
<linearGradient id="paint9_linear_489_25" x1="0.845947" y1="36" x2="67.5147" y2="137.673" gradientUnits="userSpaceOnUse">
<stop stop-color="#3264F8"/>
<stop offset="1" stop-color="#F02EE5"/>
</linearGradient>
<linearGradient id="paint10_linear_489_25" x1="0.845947" y1="36" x2="67.5147" y2="137.673" gradientUnits="userSpaceOnUse">
<stop stop-color="#3264F8"/>
<stop offset="1" stop-color="#F02EE5"/>
</linearGradient>
<linearGradient id="paint11_linear_489_25" x1="0.845947" y1="36" x2="67.5147" y2="137.673" gradientUnits="userSpaceOnUse">
<stop stop-color="#3264F8"/>
<stop offset="1" stop-color="#F02EE5"/>
</linearGradient>
<linearGradient id="paint12_linear_489_25" x1="0.845947" y1="36" x2="67.5147" y2="137.673" gradientUnits="userSpaceOnUse">
<stop stop-color="#3264F8"/>
<stop offset="1" stop-color="#F02EE5"/>
</linearGradient>
<linearGradient id="paint13_linear_489_25" x1="0.845947" y1="36" x2="67.5147" y2="137.673" gradientUnits="userSpaceOnUse">
<stop stop-color="#3264F8"/>
<stop offset="1" stop-color="#F02EE5"/>
</linearGradient>
<linearGradient id="paint14_linear_489_25" x1="0.845947" y1="36" x2="67.5147" y2="137.673" gradientUnits="userSpaceOnUse">
<stop stop-color="#3264F8"/>
<stop offset="1" stop-color="#F02EE5"/>
</linearGradient>
<linearGradient id="paint15_linear_489_25" x1="0.845947" y1="36" x2="67.5147" y2="137.673" gradientUnits="userSpaceOnUse">
<stop stop-color="#3264F8"/>
<stop offset="1" stop-color="#F02EE5"/>
</linearGradient>
</defs>
</svg>
