<svg width="208" height="42" viewBox="0 0 208 42" fill="none" xmlns="http://www.w3.org/2000/svg">
<path d="M0.601333 28.16V3.88H0L0.400888 0.16H6.65475L8.57901 15.24L10.5434 0.16H16.677V28.16H12.8685V6.4L9.90194 24.16H7.29617L4.40977 6.88V28.16H0.601333Z" fill="white"/>
<path d="M21.6996 28.16H17.8912L20.056 3.88H19.3344L19.7353 0.16H27.0716L29.5571 28.16H25.7486L25.3076 23.36H22.1406L21.6996 28.16ZM22.4613 19.64H24.9869L23.7442 5.72L22.4613 19.64Z" fill="white"/>
<path d="M30.3407 3.88L30.7416 0.16H37.0756C38.1981 0.16 39.1068 0.506667 39.8016 1.2C40.4965 1.86667 40.8439 2.76 40.8439 3.88V16.4C40.8439 16.9867 40.7237 17.52 40.4831 18C40.2426 18.4533 39.9219 18.84 39.521 19.16L42.0867 28.16H38.2382L35.9531 20.12H34.7504V28.16H30.942V3.88H30.3407ZM36.8351 3.88H34.7504V16.4H36.8351C36.9687 16.4 37.0355 16.3333 37.0355 16.2V4.08C37.0355 3.94667 36.9687 3.88 36.8351 3.88Z" fill="white"/>
<path d="M46.2948 20.16V24.4C46.2948 24.5333 46.3616 24.6 46.4952 24.6H48.0988C48.2324 24.6 48.2992 24.5333 48.2992 24.4V17.2L45.1322 15.8C44.8917 15.72 44.5576 15.5867 44.13 15.4C43.7024 15.1867 43.3148 14.88 42.9674 14.48C42.6467 14.08 42.4863 13.5333 42.4863 12.84V3.72C42.4863 2.6 42.8338 1.70667 43.5286 1.04C44.2235 0.346667 45.1322 0 46.2547 0H48.3393C49.4618 0 50.3705 0.346667 51.0654 1.04C51.7602 1.70667 52.1077 2.6 52.1077 3.72V9.64L48.2992 9.32V3.92C48.2992 3.78667 48.2324 3.72 48.0988 3.72H46.4952C46.3616 3.72 46.2948 3.78667 46.2948 3.92V12.28L49.4618 13.68C49.7023 13.7867 50.0364 13.9333 50.464 14.12C50.8916 14.3067 51.2658 14.6 51.5865 15C51.9339 15.4 52.1077 15.9467 52.1077 16.64V24.6C52.1077 25.72 51.7602 26.6267 51.0654 27.32C50.3705 27.9867 49.4618 28.32 48.3393 28.32H46.2547C45.1322 28.32 44.2235 27.9867 43.5286 27.32C42.8338 26.6267 42.4863 25.72 42.4863 24.6V20.16H46.2948Z" fill="white"/>
<path d="M57.7311 0.16V12.24H60.0161V0.16H63.8246V28.16H60.0161V15.96H57.7311V28.16H53.9226V3.88H53.3213L53.7222 0.16H57.7311Z" fill="white"/>
<path d="M68.8354 28.16H65.0269L67.1917 3.88H66.4701L66.871 0.16H74.2073L76.6928 28.16H72.8843L72.4434 23.36H69.2763L68.8354 28.16ZM69.597 19.64H72.1226L70.8799 5.72L69.597 19.64Z" fill="white"/>
<path d="M87.9797 24.44L87.6589 28.16H78.0777V3.88H77.4764L77.8773 0.16H81.8862V24.44H87.9797Z" fill="white"/>
<path d="M99.6853 24.44L99.3646 28.16H89.7833V3.88H89.182L89.5829 0.16H93.5918V24.44H99.6853Z" fill="white"/>
<path d="M112.3 20.16V24.4C112.3 24.5333 112.367 24.6 112.501 24.6H114.104C114.238 24.6 114.305 24.5333 114.305 24.4V17.2L111.138 15.8C110.897 15.72 110.563 15.5867 110.136 15.4C109.708 15.1867 109.32 14.88 108.973 14.48C108.652 14.08 108.492 13.5333 108.492 12.84V3.72C108.492 2.6 108.839 1.70667 109.534 1.04C110.229 0.346667 111.138 0 112.26 0H114.345C115.467 0 116.376 0.346667 117.071 1.04C117.766 1.70667 118.113 2.6 118.113 3.72V9.64L114.305 9.32V3.92C114.305 3.78667 114.238 3.72 114.104 3.72H112.501C112.367 3.72 112.3 3.78667 112.3 3.92V12.28L115.467 13.68C115.708 13.7867 116.042 13.9333 116.47 14.12C116.897 14.3067 117.271 14.6 117.592 15C117.94 15.4 118.113 15.9467 118.113 16.64V24.6C118.113 25.72 117.766 26.6267 117.071 27.32C116.376 27.9867 115.467 28.32 114.345 28.32H112.26C111.138 28.32 110.229 27.9867 109.534 27.32C108.839 26.6267 108.492 25.72 108.492 24.6V20.16H112.3Z" fill="white"/>
<path d="M130.151 24.6C130.151 25.72 129.803 26.6267 129.109 27.32C128.414 27.9867 127.505 28.32 126.383 28.32H123.496C122.374 28.32 121.465 27.9867 120.77 27.32C120.075 26.6267 119.728 25.72 119.728 24.6V3.72C119.728 2.6 120.075 1.70667 120.77 1.04C121.465 0.346667 122.374 0 123.496 0H126.383C127.505 0 128.414 0.346667 129.109 1.04C129.803 1.70667 130.151 2.6 130.151 3.72V24.6ZM123.737 3.72C123.603 3.72 123.536 3.78667 123.536 3.92V24.4C123.536 24.5333 123.603 24.6 123.737 24.6H126.142C126.276 24.6 126.342 24.5333 126.342 24.4V3.92C126.342 3.78667 126.276 3.72 126.142 3.72H123.737Z" fill="white"/>
<path d="M142.241 24.44L141.92 28.16H132.339V3.88H131.737L132.138 0.16H136.147V24.44H142.241Z" fill="white"/>
<path d="M153.479 24.6C153.479 25.72 153.132 26.6267 152.437 27.32C151.742 27.9867 150.833 28.32 149.711 28.32H147.225C146.103 28.32 145.194 27.9867 144.499 27.32C143.804 26.6267 143.457 25.72 143.457 24.6V3.88H142.856L143.257 0.16H147.265V24.4C147.265 24.5333 147.332 24.6 147.466 24.6H149.47C149.604 24.6 149.671 24.5333 149.671 24.4V0.240002H153.479V24.6Z" fill="white"/>
<path d="M154.688 3.88V0.16H165.713V3.88H162.105V28.16H158.296V3.88H154.688Z" fill="white"/>
<path d="M167.142 28.16V3.88H166.541L166.942 0.16H170.951V28.16H167.142Z" fill="white"/>
<path d="M182.963 24.6C182.963 25.72 182.616 26.6267 181.921 27.32C181.226 27.9867 180.317 28.32 179.195 28.32H176.309C175.186 28.32 174.277 27.9867 173.582 27.32C172.888 26.6267 172.54 25.72 172.54 24.6V3.72C172.54 2.6 172.888 1.70667 173.582 1.04C174.277 0.346667 175.186 0 176.309 0H179.195C180.317 0 181.226 0.346667 181.921 1.04C182.616 1.70667 182.963 2.6 182.963 3.72V24.6ZM176.549 3.72C176.415 3.72 176.349 3.78667 176.349 3.92V24.4C176.349 24.5333 176.415 24.6 176.549 24.6H178.954C179.088 24.6 179.155 24.5333 179.155 24.4V3.92C179.155 3.78667 179.088 3.72 178.954 3.72H176.549Z" fill="white"/>
<path d="M192.978 0.16H196.786V28.16H192.978L188.568 11.04V28.16H184.759V3.88H184.158L184.559 0.16H188.768L193.218 17.96L192.978 0.16Z" fill="white"/>
<path d="M202.187 20.16V24.4C202.187 24.5333 202.254 24.6 202.388 24.6H203.991C204.125 24.6 204.192 24.5333 204.192 24.4V17.2L201.025 15.8C200.784 15.72 200.45 15.5867 200.022 15.4C199.595 15.1867 199.207 14.88 198.86 14.48C198.539 14.08 198.379 13.5333 198.379 12.84V3.72C198.379 2.6 198.726 1.70667 199.421 1.04C200.116 0.346667 201.025 0 202.147 0H204.232C205.354 0 206.263 0.346667 206.958 1.04C207.653 1.70667 208 2.6 208 3.72V9.64L204.192 9.32V3.92C204.192 3.78667 204.125 3.72 203.991 3.72H202.388C202.254 3.72 202.187 3.78667 202.187 3.92V12.28L205.354 13.68C205.595 13.7867 205.929 13.9333 206.356 14.12C206.784 14.3067 207.158 14.6 207.479 15C207.826 15.4 208 15.9467 208 16.64V24.6C208 25.72 207.653 26.6267 206.958 27.32C206.263 27.9867 205.354 28.32 204.232 28.32H202.147C201.025 28.32 200.116 27.9867 199.421 27.32C198.726 26.6267 198.379 25.72 198.379 24.6V20.16H202.187Z" fill="white"/>
<path d="M40 40.1599V34.5599H43.1991C43.6908 34.5599 44.1051 34.6159 44.4418 34.7279C44.7839 34.8399 45.0405 34.9972 45.2116 35.1999C45.3826 35.4025 45.4681 35.6479 45.4681 35.9359C45.4681 36.2452 45.3746 36.5119 45.1875 36.7359C45.0004 36.9545 44.7171 37.1065 44.3376 37.1919L44.3777 37.0479C44.6182 37.1012 44.8427 37.1865 45.0512 37.3039C45.265 37.4159 45.436 37.5679 45.5643 37.7599C45.698 37.9519 45.7648 38.1865 45.7648 38.4639C45.7648 38.8052 45.6926 39.0852 45.5483 39.3039C45.404 39.5225 45.2142 39.6959 44.979 39.8239C44.7438 39.9465 44.4873 40.0345 44.2093 40.0879C43.9367 40.1359 43.6695 40.1599 43.4076 40.1599H40ZM41.2828 39.0239H43.4396C43.6267 39.0239 43.7924 39.0025 43.9367 38.9599C44.0864 38.9172 44.204 38.8505 44.2895 38.7599C44.3804 38.6639 44.4258 38.5439 44.4258 38.3999C44.4258 38.2345 44.3697 38.1092 44.2574 38.0239C44.1452 37.9332 44.0089 37.8719 43.8485 37.8399C43.6882 37.8025 43.5385 37.7839 43.3995 37.7839H41.2828V39.0239ZM41.2828 36.7599H43.2151C43.3915 36.7599 43.5465 36.7385 43.6802 36.6959C43.8191 36.6532 43.926 36.5919 44.0009 36.5119C44.081 36.4319 44.1211 36.3305 44.1211 36.2079C44.1211 36.0212 44.0276 35.8905 43.8405 35.8159C43.6588 35.7359 43.4343 35.6959 43.167 35.6959H41.2828V36.7599Z" fill="url(#paint0_linear_489_25)"/>
<path d="M48.8013 40.1599V34.2399H50.0841V40.1599H48.8013Z" fill="url(#paint1_linear_489_25)"/>
<path d="M56.0606 40.2399C55.4833 40.2399 54.9728 40.1465 54.5292 39.9599C54.0855 39.7679 53.7381 39.5065 53.4869 39.1759C53.241 38.8399 53.1181 38.4585 53.1181 38.0319C53.1181 37.5999 53.241 37.2185 53.4869 36.8879C53.7381 36.5572 54.0855 36.2985 54.5292 36.1119C54.9728 35.9199 55.4833 35.8239 56.0606 35.8239C56.6379 35.8239 57.1457 35.9199 57.584 36.1119C58.0223 36.2985 58.3644 36.5572 58.6102 36.8879C58.8615 37.2185 58.9871 37.5999 58.9871 38.0319C58.9871 38.4585 58.8615 38.8399 58.6102 39.1759C58.3644 39.5065 58.0223 39.7679 57.584 39.9599C57.1457 40.1465 56.6379 40.2399 56.0606 40.2399ZM56.0606 39.1359C56.3599 39.1359 56.6325 39.0905 56.8784 38.9999C57.1296 38.9039 57.3274 38.7732 57.4717 38.6079C57.6214 38.4425 57.6935 38.2505 57.6882 38.0319C57.6935 37.8132 57.6214 37.6212 57.4717 37.4559C57.3274 37.2852 57.1296 37.1545 56.8784 37.0639C56.6325 36.9679 56.3599 36.9199 56.0606 36.9199C55.7559 36.9199 55.478 36.9679 55.2267 37.0639C54.9809 37.1545 54.7831 37.2825 54.6334 37.4479C54.4891 37.6132 54.4169 37.8079 54.4169 38.0319C54.4169 38.2505 54.4891 38.4425 54.6334 38.6079C54.7831 38.7732 54.9809 38.9039 55.2267 38.9999C55.478 39.0905 55.7559 39.1359 56.0606 39.1359Z" fill="url(#paint2_linear_489_25)"/>
<path d="M64.2883 40.2399C63.7431 40.2399 63.2567 40.1439 62.8291 39.9519C62.4068 39.7599 62.0754 39.4985 61.8349 39.1679C61.5944 38.8319 61.4741 38.4532 61.4741 38.0319C61.4741 37.6052 61.5917 37.2265 61.8269 36.8959C62.0674 36.5652 62.3935 36.3039 62.805 36.1119C63.2166 35.9199 63.6816 35.8239 64.2001 35.8239C64.6972 35.8239 65.1569 35.8879 65.5792 36.0159C66.0015 36.1385 66.3569 36.3172 66.6455 36.5519L65.932 37.4959C65.8037 37.3945 65.6487 37.3012 65.4669 37.2159C65.2905 37.1305 65.1035 37.0639 64.9057 37.0159C64.7079 36.9625 64.5075 36.9359 64.3044 36.9359C63.9943 36.9359 63.7271 36.9839 63.5026 37.0799C63.2781 37.1705 63.107 37.2985 62.9894 37.4639C62.8718 37.6239 62.8131 37.8132 62.8131 38.0319C62.8131 38.2399 62.8745 38.4292 62.9975 38.5999C63.1204 38.7652 63.2914 38.8932 63.5106 38.9839C63.7351 39.0745 63.9943 39.1199 64.2883 39.1199C64.5556 39.1199 64.7908 39.0985 64.9939 39.0559C65.2023 39.0132 65.3841 38.9599 65.5391 38.8959C65.6941 38.8319 65.8304 38.7705 65.948 38.7119L66.6375 39.6319C66.3222 39.8025 65.9721 39.9465 65.5872 40.0639C65.2023 40.1812 64.7694 40.2399 64.2883 40.2399Z" fill="url(#paint3_linear_489_25)"/>
<path d="M70.7946 39.1519L70.4498 38.1919L73.3924 35.9119H75.1242L70.7946 39.1519ZM69.6962 40.1599V34.2399H70.8988V40.1599H69.6962ZM73.5367 40.1599L71.4441 37.7439L72.302 37.0399L75.0601 40.1599H73.5367Z" fill="url(#paint4_linear_489_25)"/>
<path d="M80.1077 40.2399C79.5625 40.2399 79.0761 40.1439 78.6485 39.9519C78.2262 39.7599 77.8948 39.4985 77.6543 39.1679C77.4138 38.8319 77.2935 38.4532 77.2935 38.0319C77.2935 37.6052 77.4111 37.2265 77.6463 36.8959C77.8868 36.5652 78.2129 36.3039 78.6245 36.1119C79.036 35.9199 79.5011 35.8239 80.0196 35.8239C80.5167 35.8239 80.9763 35.8879 81.3986 36.0159C81.8209 36.1385 82.1763 36.3172 82.465 36.5519L81.7514 37.4959C81.6231 37.3945 81.4681 37.3012 81.2864 37.2159C81.11 37.1305 80.9229 37.0639 80.7251 37.0159C80.5273 36.9625 80.3269 36.9359 80.1238 36.9359C79.8138 36.9359 79.5465 36.9839 79.322 37.0799C79.0975 37.1705 78.9265 37.2985 78.8089 37.4639C78.6913 37.6239 78.6325 37.8132 78.6325 38.0319C78.6325 38.2399 78.6939 38.4292 78.8169 38.5999C78.9398 38.7652 79.1109 38.8932 79.33 38.9839C79.5545 39.0745 79.8138 39.1199 80.1077 39.1199C80.375 39.1199 80.6102 39.0985 80.8133 39.0559C81.0218 39.0132 81.2035 38.9599 81.3585 38.8959C81.5135 38.8319 81.6498 38.7705 81.7674 38.7119L82.457 39.6319C82.1416 39.8025 81.7915 39.9465 81.4066 40.0639C81.0218 40.1812 80.5888 40.2399 80.1077 40.2399Z" fill="url(#paint5_linear_489_25)"/>
<path d="M85.5156 40.1599V34.2399H86.7744V37.0959L86.3895 37.2159C86.4483 36.9705 86.5766 36.7439 86.7744 36.5359C86.9775 36.3225 87.2314 36.1519 87.5361 36.0239C87.8408 35.8905 88.1722 35.8239 88.5303 35.8239C88.9579 35.8239 89.316 35.9092 89.6047 36.0799C89.8986 36.2452 90.1178 36.4665 90.2621 36.7439C90.4118 37.0159 90.4866 37.3119 90.4866 37.6319V40.1599H89.2038V37.9759C89.2038 37.7519 89.153 37.5599 89.0514 37.3999C88.9552 37.2399 88.8216 37.1172 88.6506 37.0319C88.4849 36.9412 88.2898 36.8959 88.0653 36.8959C87.8782 36.8959 87.7071 36.9279 87.5521 36.9919C87.3971 37.0559 87.2635 37.1439 87.1512 37.2559C87.039 37.3625 86.9508 37.4852 86.8867 37.6239C86.8279 37.7572 86.7985 37.8985 86.7985 38.0479V40.1599H86.157C85.9432 40.1599 85.7829 40.1599 85.676 40.1599C85.5691 40.1599 85.5156 40.1599 85.5156 40.1599Z" fill="url(#paint6_linear_489_25)"/>
<path d="M95.9245 40.2319C95.4114 40.2319 94.9677 40.1385 94.5935 39.9519C94.2247 39.7652 93.9388 39.5065 93.7356 39.1759C93.5379 38.8452 93.439 38.4665 93.439 38.0399C93.439 37.6079 93.5432 37.2265 93.7517 36.8959C93.9601 36.5599 94.2515 36.2985 94.6256 36.1119C94.9998 35.9199 95.4381 35.8239 95.9405 35.8239C96.2345 35.8239 96.5071 35.8585 96.7583 35.9279C97.0096 35.9919 97.2314 36.0772 97.4238 36.1839C97.6162 36.2905 97.7686 36.4052 97.8808 36.5279C97.9931 36.6452 98.0599 36.7599 98.0813 36.8719L97.7606 36.9199V35.9119H99.0274V40.1599H97.7365V38.9759L97.9931 39.0879C97.9824 39.2159 97.9182 39.3465 97.8006 39.4799C97.6884 39.6132 97.5387 39.7385 97.3517 39.8559C97.1646 39.9679 96.9481 40.0585 96.7022 40.1279C96.4563 40.1972 96.1971 40.2319 95.9245 40.2319ZM96.2452 39.1519C96.5606 39.1519 96.8305 39.1065 97.055 39.0159C97.2848 38.9199 97.4612 38.7892 97.5842 38.6239C97.7124 38.4532 97.7766 38.2585 97.7766 38.0399C97.7766 37.8159 97.7124 37.6212 97.5842 37.4559C97.4612 37.2905 97.2848 37.1599 97.055 37.0639C96.8305 36.9625 96.5606 36.9119 96.2452 36.9119C95.9405 36.9119 95.6733 36.9625 95.4434 37.0639C95.2136 37.1599 95.0345 37.2905 94.9062 37.4559C94.7779 37.6212 94.7138 37.8159 94.7138 38.0399C94.7138 38.2585 94.7779 38.4532 94.9062 38.6239C95.0345 38.7892 95.2136 38.9199 95.4434 39.0159C95.6733 39.1065 95.9405 39.1519 96.2452 39.1519Z" fill="url(#paint7_linear_489_25)"/>
<path d="M102.746 40.1599V35.9119H104.029V40.1599H102.746ZM103.379 34.9919C103.139 34.9919 102.952 34.9359 102.818 34.8239C102.684 34.7065 102.617 34.5412 102.617 34.3279C102.617 34.1359 102.684 33.9785 102.818 33.8559C102.957 33.7332 103.144 33.6719 103.379 33.6719C103.62 33.6719 103.807 33.7305 103.94 33.8479C104.079 33.9599 104.149 34.1199 104.149 34.3279C104.149 34.5252 104.079 34.6852 103.94 34.8079C103.801 34.9305 103.614 34.9919 103.379 34.9919Z" fill="url(#paint8_linear_489_25)"/>
<path d="M107.828 40.1599V35.9119H109.038L109.086 37.0959L108.718 37.1759C108.803 36.9465 108.939 36.7305 109.126 36.5279C109.319 36.3199 109.557 36.1519 109.84 36.0239C110.129 35.8905 110.452 35.8239 110.81 35.8239C111.238 35.8239 111.599 35.9065 111.893 36.0719C112.192 36.2372 112.416 36.4585 112.566 36.7359C112.721 37.0079 112.799 37.3145 112.799 37.6559V40.1599H111.516V37.9519C111.516 37.7439 111.465 37.5625 111.363 37.4079C111.267 37.2479 111.134 37.1252 110.962 37.0399C110.791 36.9492 110.596 36.9039 110.377 36.9039C110.174 36.9039 109.992 36.9412 109.832 37.0159C109.677 37.0852 109.546 37.1759 109.439 37.2879C109.332 37.3945 109.249 37.5119 109.191 37.6399C109.137 37.7625 109.11 37.8799 109.11 37.9919V40.1599H108.469C108.255 40.1599 108.095 40.1599 107.988 40.1599C107.881 40.1599 107.828 40.1599 107.828 40.1599Z" fill="url(#paint9_linear_489_25)"/>
<path d="M119.971 40.1599L122.762 34.5599H124.044L126.819 40.1599H125.407L123.748 36.8399C123.689 36.7225 123.636 36.6132 123.587 36.5119C123.539 36.4052 123.494 36.3039 123.451 36.2079C123.408 36.1065 123.368 36.0079 123.331 35.9119C123.299 35.8105 123.264 35.7065 123.227 35.5999L123.539 35.5919C123.502 35.7039 123.462 35.8132 123.419 35.9199C123.382 36.0212 123.339 36.1225 123.291 36.2239C123.248 36.3252 123.203 36.4292 123.154 36.5359C123.106 36.6372 123.056 36.7412 123.002 36.8479L121.35 40.1599H119.971ZM121.262 39.1679L121.711 38.1439H125.071L125.255 39.1679H121.262Z" fill="url(#paint10_linear_489_25)"/>
<path d="M131.778 41.9999C131.238 41.9999 130.773 41.9439 130.383 41.8319C129.993 41.7252 129.677 41.5999 129.437 41.4559L129.87 40.5119C129.993 40.5599 130.134 40.6159 130.295 40.6799C130.46 40.7492 130.65 40.8079 130.864 40.8559C131.083 40.9092 131.332 40.9359 131.61 40.9359C131.893 40.9359 132.142 40.8799 132.355 40.7679C132.574 40.6612 132.743 40.5039 132.86 40.2959C132.983 40.0879 133.045 39.8292 133.045 39.5199V39.1279L133.285 39.1679C133.243 39.3332 133.114 39.4905 132.901 39.6399C132.692 39.7839 132.428 39.9012 132.107 39.9919C131.791 40.0825 131.447 40.1279 131.072 40.1279C130.607 40.1279 130.196 40.0399 129.838 39.8639C129.485 39.6879 129.21 39.4399 129.012 39.1199C128.814 38.7999 128.715 38.4319 128.715 38.0159C128.715 37.5839 128.82 37.2052 129.028 36.8799C129.242 36.5492 129.533 36.2905 129.902 36.1039C130.276 35.9172 130.709 35.8239 131.201 35.8239C131.324 35.8239 131.473 35.8372 131.65 35.8639C131.832 35.8905 132.019 35.9305 132.211 35.9839C132.403 36.0372 132.583 36.1039 132.748 36.1839C132.919 36.2585 133.058 36.3492 133.165 36.4559C133.272 36.5625 133.328 36.6799 133.334 36.8079L133.069 36.8719L133.117 35.9119H134.336V39.4959C134.336 39.9172 134.264 40.2852 134.119 40.5999C133.98 40.9145 133.791 41.1759 133.55 41.3839C133.309 41.5919 133.034 41.7465 132.724 41.8479C132.419 41.9492 132.104 41.9999 131.778 41.9999ZM131.586 39.1359C131.89 39.1359 132.152 39.0905 132.371 38.9999C132.596 38.9039 132.77 38.7732 132.893 38.6079C133.015 38.4372 133.077 38.2425 133.077 38.0239C133.077 37.7999 133.015 37.6052 132.893 37.4399C132.775 37.2745 132.604 37.1439 132.379 37.0479C132.16 36.9519 131.896 36.9039 131.586 36.9039C131.27 36.9039 130.992 36.9519 130.752 37.0479C130.511 37.1439 130.324 37.2745 130.191 37.4399C130.057 37.6052 129.99 37.7999 129.99 38.0239C129.99 38.2425 130.057 38.4372 130.191 38.6079C130.324 38.7732 130.511 38.9039 130.752 38.9999C130.992 39.0905 131.27 39.1359 131.586 39.1359Z" fill="url(#paint11_linear_489_25)"/>
<path d="M140.191 40.2399C139.598 40.2399 139.077 40.1465 138.628 39.9599C138.184 39.7679 137.84 39.5065 137.594 39.1759C137.348 38.8452 137.225 38.4719 137.225 38.0559C137.225 37.7092 137.3 37.3999 137.449 37.1279C137.599 36.8505 137.802 36.6159 138.059 36.4239C138.321 36.2319 138.62 36.0852 138.957 35.9839C139.299 35.8772 139.657 35.8239 140.031 35.8239C140.411 35.8239 140.761 35.8772 141.081 35.9839C141.407 36.0852 141.691 36.2319 141.931 36.4239C142.177 36.6105 142.367 36.8345 142.501 37.0959C142.634 37.3572 142.696 37.6479 142.685 37.9679L142.677 38.3599H138.163L137.979 37.5599H141.635L141.498 37.7439V37.5839C141.477 37.4399 141.397 37.3145 141.258 37.2079C141.124 37.0959 140.95 37.0079 140.737 36.9439C140.528 36.8799 140.298 36.8479 140.047 36.8479C139.759 36.8479 139.491 36.8852 139.245 36.9599C138.999 37.0345 138.802 37.1545 138.652 37.3199C138.502 37.4799 138.428 37.6932 138.428 37.9599C138.428 38.1892 138.508 38.3972 138.668 38.5839C138.834 38.7652 139.064 38.9092 139.358 39.0159C139.657 39.1225 140.007 39.1759 140.408 39.1759C140.814 39.1759 141.143 39.1332 141.394 39.0479C141.645 38.9572 141.832 38.8799 141.955 38.8159L142.501 39.6319C142.303 39.7545 142.081 39.8639 141.835 39.9599C141.589 40.0505 141.327 40.1199 141.049 40.1679C140.771 40.2159 140.485 40.2399 140.191 40.2399Z" fill="url(#paint12_linear_489_25)"/>
<path d="M145.849 40.1599V35.9119H147.06L147.108 37.0959L146.739 37.1759C146.825 36.9465 146.961 36.7305 147.148 36.5279C147.341 36.3199 147.578 36.1519 147.862 36.0239C148.15 35.8905 148.474 35.8239 148.832 35.8239C149.26 35.8239 149.62 35.9065 149.914 36.0719C150.214 36.2372 150.438 36.4585 150.588 36.7359C150.743 37.0079 150.82 37.3145 150.82 37.6559V40.1599H149.537V37.9519C149.537 37.7439 149.487 37.5625 149.385 37.4079C149.289 37.2479 149.155 37.1252 148.984 37.0399C148.813 36.9492 148.618 36.9039 148.399 36.9039C148.196 36.9039 148.014 36.9412 147.854 37.0159C147.699 37.0852 147.568 37.1759 147.461 37.2879C147.354 37.3945 147.271 37.5119 147.212 37.6399C147.159 37.7625 147.132 37.8799 147.132 37.9919V40.1599H146.491C146.277 40.1599 146.117 40.1599 146.01 40.1599C145.903 40.1599 145.849 40.1599 145.849 40.1599Z" fill="url(#paint13_linear_489_25)"/>
<path d="M156.707 40.2399C156.162 40.2399 155.676 40.1439 155.248 39.9519C154.826 39.7599 154.494 39.4985 154.254 39.1679C154.013 38.8319 153.893 38.4532 153.893 38.0319C153.893 37.6052 154.011 37.2265 154.246 36.8959C154.486 36.5652 154.812 36.3039 155.224 36.1119C155.635 35.9199 156.1 35.8239 156.619 35.8239C157.116 35.8239 157.576 35.8879 157.998 36.0159C158.42 36.1385 158.776 36.3172 159.064 36.5519L158.351 37.4959C158.223 37.3945 158.068 37.3012 157.886 37.2159C157.709 37.1305 157.522 37.0639 157.325 37.0159C157.127 36.9625 156.926 36.9359 156.723 36.9359C156.413 36.9359 156.146 36.9839 155.921 37.0799C155.697 37.1705 155.526 37.2985 155.408 37.4639C155.291 37.6239 155.232 37.8132 155.232 38.0319C155.232 38.2399 155.293 38.4292 155.416 38.5999C155.539 38.7652 155.71 38.8932 155.929 38.9839C156.154 39.0745 156.413 39.1199 156.707 39.1199C156.974 39.1199 157.21 39.0985 157.413 39.0559C157.621 39.0132 157.803 38.9599 157.958 38.8959C158.113 38.8319 158.249 38.7705 158.367 38.7119L159.056 39.6319C158.741 39.8025 158.391 39.9465 158.006 40.0639C157.621 40.1812 157.188 40.2399 156.707 40.2399Z" fill="url(#paint14_linear_489_25)"/>
<path d="M162.503 41.9999L163.826 39.7279L163.737 40.3519L161.156 35.9119H162.679L163.89 38.2319C163.997 38.4345 164.098 38.6372 164.194 38.8399C164.296 39.0425 164.382 39.2452 164.451 39.4479H164.114C164.189 39.2719 164.275 39.0772 164.371 38.8639C164.472 38.6452 164.574 38.4345 164.676 38.2319L165.87 35.9119H167.361L164.86 40.2079L163.834 41.9999H162.503Z" fill="url(#paint15_linear_489_25)"/>
<defs>
<linearGradient id="paint0_linear_489_25" x1="40" y1="33.6719" x2="107.264" y2="101.552" gradientUnits="userSpaceOnUse">
<stop stop-color="#3264F8"/>
<stop offset="1" stop-color="#F02EE5"/>
</linearGradient>
<linearGradient id="paint1_linear_489_25" x1="40" y1="33.6719" x2="107.264" y2="101.552" gradientUnits="userSpaceOnUse">
<stop stop-color="#3264F8"/>
<stop offset="1" stop-color="#F02EE5"/>
</linearGradient>
<linearGradient id="paint2_linear_489_25" x1="40" y1="33.6719" x2="107.264" y2="101.552" gradientUnits="userSpaceOnUse">
<stop stop-color="#3264F8"/>
<stop offset="1" stop-color="#F02EE5"/>
</linearGradient>
<linearGradient id="paint3_linear_489_25" x1="40" y1="33.6719" x2="107.264" y2="101.552" gradientUnits="userSpaceOnUse">
<stop stop-color="#3264F8"/>
<stop offset="1" stop-color="#F02EE5"/>
</linearGradient>
<linearGradient id="paint4_linear_489_25" x1="40" y1="33.6719" x2="107.264" y2="101.552" gradientUnits="userSpaceOnUse">
<stop stop-color="#3264F8"/>
<stop offset="1" stop-color="#F02EE5"/>
</linearGradient>
<linearGradient id="paint5_linear_489_25" x1="40" y1="33.6719" x2="107.264" y2="101.552" gradientUnits="userSpaceOnUse">
<stop stop-color="#3264F8"/>
<stop offset="1" stop-color="#F02EE5"/>
</linearGradient>
<linearGradient id="paint6_linear_489_25" x1="40" y1="33.6719" x2="107.264" y2="101.552" gradientUnits="userSpaceOnUse">
<stop stop-color="#3264F8"/>
<stop offset="1" stop-color="#F02EE5"/>
</linearGradient>
<linearGradient id="paint7_linear_489_25" x1="40" y1="33.6719" x2="107.264" y2="101.552" gradientUnits="userSpaceOnUse">
<stop stop-color="#3264F8"/>
<stop offset="1" stop-color="#F02EE5"/>
</linearGradient>
<linearGradient id="paint8_linear_489_25" x1="40" y1="33.6719" x2="107.264" y2="101.552" gradientUnits="userSpaceOnUse">
<stop stop-color="#3264F8"/>
<stop offset="1" stop-color="#F02EE5"/>
</linearGradient>
<linearGradient id="paint9_linear_489_25" x1="40" y1="33.6719" x2="107.264" y2="101.552" gradientUnits="userSpaceOnUse">
<stop stop-color="#3264F8"/>
<stop offset="1" stop-color="#F02EE5"/>
</linearGradient>
<linearGradient id="paint10_linear_489_25" x1="40" y1="33.6719" x2="107.264" y2="101.552" gradientUnits="userSpaceOnUse">
<stop stop-color="#3264F8"/>
<stop offset="1" stop-color="#F02EE5"/>
</linearGradient>
<linearGradient id="paint11_linear_489_25" x1="40" y1="33.6719" x2="107.264" y2="101.552" gradientUnits="userSpaceOnUse">
<stop stop-color="#3264F8"/>
<stop offset="1" stop-color="#F02EE5"/>
</linearGradient>
<linearGradient id="paint12_linear_489_25" x1="40" y1="33.6719" x2="107.264" y2="101.552" gradientUnits="userSpaceOnUse">
<stop stop-color="#3264F8"/>
<stop offset="1" stop-color="#F02EE5"/>
</linearGradient>
<linearGradient id="paint13_linear_489_25" x1="40" y1="33.6719" x2="107.264" y2="101.552" gradientUnits="userSpaceOnUse">
<stop stop-color="#3264F8"/>
<stop offset="1" stop-color="#F02EE5"/>
</linearGradient>
<linearGradient id="paint14_linear_489_25" x1="40" y1="33.6719" x2="107.264" y2="101.552" gradientUnits="userSpaceOnUse">
<stop stop-color="#3264F8"/>
<stop offset="1" stop-color="#F02EE5"/>
</linearGradient>
<linearGradient id="paint15_linear_489_25" x1="40" y1="33.6719" x2="107.264" y2="101.552" gradientUnits="userSpaceOnUse">
<stop stop-color="#3264F8"/>
<stop offset="1" stop-color="#F02EE5"/>
</linearGradient>
</defs>
</svg>
