<svg width="64" height="64" viewBox="0 0 64 64" fill="none" xmlns="http://www.w3.org/2000/svg">
<path fill-rule="evenodd" clip-rule="evenodd" d="M34.7239 43.4192C31.4239 41.3192 32.5239 42.4192 29.7239 39.7192C28.5239 38.5192 28.7239 42.1192 27.6239 41.7192C26.5239 41.3192 25.4239 41.0192 24.5239 40.4192C20.4239 38.1192 19.4239 34.6192 20.1239 30.0192C20.9239 24.2192 26.5239 20.1192 30.2239 21.1192C32.1239 21.6192 30.6239 20.2192 31.9239 17.7192C32.2239 17.2192 31.9239 16.9192 31.4239 17.0192C29.5239 17.4192 27.5239 17.5192 25.8239 18.6192C23.3239 20.3192 19.2239 22.1192 17.6239 27.3192C15.6239 33.8192 18.9239 39.4192 20.6239 41.0192C22.2239 42.6192 23.9239 44.1192 26.1239 44.8192C29.1239 45.7192 26.1239 48.1192 28.0239 47.7192C30.1239 47.2192 32.8239 46.3192 34.3239 45.4192C35.6239 44.8192 36.2239 44.3192 34.7239 43.4192ZM45.9239 28.3192C44.9239 25.2192 43.2239 22.5192 40.7239 20.5192C40.0239 19.9192 40.4239 19.7192 40.6239 17.6192C40.8239 16.0192 38.9239 18.1192 34.4239 18.5192C34.1239 18.5192 33.3239 19.0192 34.1239 19.6192C36.2239 21.5192 37.1239 25.3192 37.1239 25.3192C37.8239 25.8192 38.3239 22.5192 39.5239 23.6192C40.9239 24.9192 43.6239 26.3192 42.6239 34.0192C42.1239 38.3192 39.8239 39.2192 37.8239 40.5192C36.4239 41.4192 37.8239 41.1192 37.8239 44.9192C37.8239 45.5192 38.1239 45.7192 38.7239 45.4192C44.3239 42.9192 46.2239 41.7192 46.7239 34.1192C46.8239 31.4192 46.3239 29.8192 45.9239 28.3192Z" fill="#4A494E"/>
</svg>
