<svg width="253" height="251" viewBox="0 0 253 251" fill="none" xmlns="http://www.w3.org/2000/svg">
<path d="M182.374 44.4214C162.072 39.201 143.689 26.7224 122.794 23.6141C122.668 23.5645 122.532 23.5673 122.427 23.5486C122.27 23.5205 122.112 23.4924 121.955 23.4643C121.61 23.4297 121.298 23.5093 121.039 23.5982C120.894 23.6535 120.748 23.7087 120.625 23.7949C120.625 23.7949 120.625 23.7949 120.594 23.8164C120.264 24.0008 119.998 24.278 119.858 24.6047C91.6197 42.1762 62.401 60.844 37.3869 82.7779C36.8992 82.9343 36.4667 83.2358 36.2804 83.8246C29.2064 103.903 32.9736 126.891 30.7631 147.757C30.7472 147.998 30.7931 148.195 30.8081 148.414C30.3681 149.364 30.591 150.539 31.867 151.119C76.9059 170.953 125.361 187.259 173.168 199.013C173.464 199.174 173.778 199.23 174.081 199.203C174.969 199.226 175.763 198.719 175.947 197.534C179.361 172.204 181.013 146.586 182.616 121.094C184.183 96.4078 185.485 71.5389 183.918 46.8339C184.117 45.8687 183.644 44.7293 182.374 44.4214ZM153.077 39.1368C161.104 42.3551 169.093 45.7831 177.552 47.6449C166.19 58.4105 154.544 69.0985 143.671 80.3032C139.119 62.7742 132.623 45.2228 125.218 28.6722C134.553 31.9888 143.869 35.4102 153.077 39.1368ZM106.885 68.0284C117.592 73.5103 128.149 79.3714 138.915 84.6745C122.618 97.778 104.401 108.456 87.9875 121.457C87.5083 100.355 87.9737 78.961 86.4085 57.8809C92.9845 61.6516 100.265 64.6556 106.885 68.0284ZM87.8126 53.0464C98.996 45.2513 110.05 37.2708 120.796 29.0459C126.297 45.9598 132.736 62.7707 138.798 79.5685C129.838 74.1549 120.259 69.6316 110.967 64.8621C103.564 61.0249 95.7966 56.2029 87.8126 53.0464ZM118.824 105.242C126.606 99.6802 134.598 94.1554 141.799 87.7591C154.276 121.201 157.67 157.944 170.718 191.218C158.845 179.848 144.905 170.056 132.23 159.84C118.016 148.403 103.576 137.17 89.5652 125.499C99.6964 119.355 109.241 112.106 118.824 105.242ZM81.8811 57.1808C81.7814 68.4965 81.8174 79.8094 81.9583 91.141C82.1 100.498 81.7718 110.367 83.1783 119.76C76.2044 114.431 69.0293 109.471 62.3802 103.686C55.2631 97.4923 48.6159 90.7875 41.4276 84.6895C54.8719 75.5939 68.4518 66.4955 81.8811 57.1808ZM39.4487 88.5017C51.7385 101.326 65.5722 115.048 81.0533 124.087C73.2082 127.123 65.6111 131.041 58.0581 134.561C50.4742 138.103 42.5298 141.392 35.1547 145.431C38.6226 126.764 36.6221 107.364 39.4487 88.5017ZM38.4614 148.726C54.1854 142.769 70.0395 135.023 84.888 127.152C97.7948 140.006 113.563 150.773 127.703 162.17C140.239 172.252 153.788 181.812 165.971 192.507C146.295 186.208 126.622 180.045 107.073 173.336C84.0956 165.529 61.4789 156.46 38.4614 148.726ZM172.597 183.574C168.048 168.751 164.957 153.187 161.004 138.361C157.866 126.548 154.675 114.726 151.255 102.972C149.521 96.9278 147.924 90.4214 145.079 84.6929C157.365 74.6603 169.888 63.4527 180.133 51.2163C179.976 95.5757 175.286 139.423 172.597 183.574Z" fill="#2D2D2D"/>
<path d="M74.5184 136.905C65.6275 139.889 57.128 144.62 48.6548 148.598C48.5621 148.663 48.5649 148.798 48.7006 148.796C53.3329 148 57.7123 145.59 61.9026 143.633C66.238 141.621 70.5088 139.516 74.7122 137.183C74.8357 137.097 74.6944 136.828 74.5184 136.905Z" fill="#2D2D2D"/>
<path d="M69.0261 145.094C69.233 144.996 69.101 144.675 68.8819 144.69C66.034 144.884 63.3631 146.058 60.7634 147.135C58.1945 148.191 55.4993 149.198 53.1701 150.73C53.0774 150.794 53.1327 150.939 53.2375 150.958C56.0086 150.587 58.584 149.343 61.196 148.349C63.7957 147.271 66.5368 146.462 69.0261 145.094Z" fill="#2D2D2D"/>
<path d="M70.2279 144.119C70.1876 144.193 70.2522 144.285 70.3262 144.325C71.4515 144.689 73.4278 143.77 73.908 142.747C73.9576 142.621 73.893 142.528 73.7882 142.509C72.6628 142.146 70.6866 143.064 70.2279 144.119Z" fill="#2D2D2D"/>
<path d="M59.7758 153.424C59.714 153.467 59.7477 153.581 59.831 153.569C65.0661 152.123 70.8639 150.102 75.5372 147.257C75.7226 147.128 75.5906 146.807 75.393 146.853C70.0849 147.799 64.0306 150.045 59.7758 153.424Z" fill="#2D2D2D"/>
<path d="M175.474 62.3131C168.22 69.1597 160.802 76.1665 154.028 83.5046C153.956 83.6001 154.074 83.7021 154.166 83.6375C162.153 77.8412 170.025 70.564 175.76 62.5266C175.872 62.3571 175.638 62.153 175.474 62.3131Z" fill="#2D2D2D"/>
<path d="M174.394 68.6661C171.204 71.5319 167.826 74.8508 165.625 78.5423C165.585 78.6163 165.68 78.6874 165.742 78.6444C168.996 75.8712 172.692 72.7442 174.649 68.9011C174.708 68.7223 174.527 68.5276 174.394 68.6661Z" fill="#2D2D2D"/>
<path d="M171.689 77.2989C171.64 77.4252 171.788 77.5058 171.88 77.4412C173.613 76.371 175.539 74.5239 176.135 72.5475C176.163 72.3903 175.963 72.3004 175.87 72.365C174.168 73.4136 172.603 75.5144 171.689 77.2989Z" fill="#2D2D2D"/>
<path d="M96.552 125.908C103.408 131.595 110.476 137.455 117.648 142.739C117.817 142.85 117.99 142.638 117.852 142.505C111.895 136.329 104.613 129.24 96.6231 125.812C96.5491 125.772 96.478 125.867 96.552 125.908Z" fill="#2D2D2D"/>
<path d="M124.917 148.229C124.124 147.222 123.209 146.436 122.22 145.611C121.413 144.98 120.542 144.256 119.493 144.069C119.357 144.072 119.308 144.198 119.403 144.269C120.204 145.088 121.168 145.747 122.009 146.493C122.871 147.269 123.699 147.93 124.754 148.389C124.871 148.491 125.004 148.353 124.917 148.229Z" fill="#2D2D2D"/>
<path d="M47.5691 85.1367C54.8207 82.6986 61.2671 77.1954 67.4552 72.8363C67.6405 72.7071 67.4776 72.4075 67.2707 72.5058C60.1876 75.515 53.9051 80.8581 47.5045 85.044C47.4212 85.0562 47.4858 85.1489 47.5691 85.1367Z" fill="#2D2D2D"/>
<path d="M51.3608 88.1398C51.2372 88.226 51.3449 88.3804 51.49 88.3252C54.8967 86.3638 58.3708 84.6307 61.8636 82.7929C61.9872 82.7067 61.8795 82.5523 61.7962 82.5644C57.7088 82.4298 54.2348 85.6775 51.3608 88.1398Z" fill="#2D2D2D"/>
<path d="M53.5524 90.5598C53.4906 90.6029 53.5552 90.6956 53.6385 90.6834C55.5558 89.9437 57.7576 88.8221 59.072 87.2174C59.1431 87.1219 59.057 86.9983 58.9428 87.032C56.9918 87.6575 54.9407 88.9954 53.5524 90.5598Z" fill="#2D2D2D"/>
<path d="M119.51 35.0376C119.612 34.9206 119.474 34.7877 119.35 34.8738C113.781 38.3426 109.236 43.3467 104.064 47.3192C104.033 47.3407 104.076 47.4025 104.107 47.3809C109.71 44.0264 114.756 39.5446 119.51 35.0376Z" fill="#2D2D2D"/>
<path d="M113.219 44.5176C113.158 44.5607 113.244 44.6843 113.336 44.6197C115.468 43.1338 118.288 41.5815 119.767 39.3571C119.838 39.2616 119.761 39.0856 119.616 39.1408C117.152 40.2157 115.062 42.6826 113.219 44.5176Z" fill="#2D2D2D"/>
<path d="M118.12 43.5804C118.08 43.6543 118.145 43.747 118.185 43.673C119.016 42.9559 119.998 42.455 120.626 41.5122C120.698 41.4167 120.621 41.2407 120.476 41.296C119.312 41.6021 118.77 42.6685 118.12 43.5804Z" fill="#2D2D2D"/>
</svg>
