<svg width="159" height="194" viewBox="0 0 159 194" fill="none" xmlns="http://www.w3.org/2000/svg">
<path d="M20.2694 76.5476C20.5834 76.5476 21.0718 76.443 21.6997 76.3383C21.909 76.3035 22.1183 76.1988 22.2578 76.0244C22.4322 75.85 22.6415 75.7453 22.9206 75.7104C23.1299 75.6755 23.3392 75.6406 23.5136 75.5709C23.688 75.5011 23.9322 75.4662 24.1764 75.4662C24.3508 75.4314 24.4903 75.3965 24.6299 75.3267C24.7345 75.3267 24.8392 75.2918 24.9089 75.2569C24.9787 75.222 25.0485 75.1872 25.1182 75.1872C25.9903 74.9081 26.7229 74.6639 27.3159 74.4546C27.9089 74.2453 28.4322 74.036 28.8508 73.7918C29.2694 73.5825 29.6879 73.3732 30.0368 73.1988C30.3856 73.0244 30.7345 72.85 31.1182 72.7104C32.1298 72.1872 32.967 71.7686 33.5949 71.4197C34.2228 71.0709 34.9554 70.6174 35.7228 70.0942C36.56 69.5361 37.3972 69.0128 38.2344 68.4896C39.0716 67.9663 39.839 67.3384 40.6413 66.6407C42.0367 65.3152 43.432 64.0942 44.8274 62.9431C46.2227 61.7919 47.5134 60.4315 48.7343 58.8617C49.3273 58.0943 49.8854 57.3966 50.4087 56.7687C50.9319 56.1757 51.4203 55.5478 51.8389 54.9548C52.2924 54.3618 52.711 53.7339 53.1645 53.0362C53.618 52.3734 54.0715 51.5711 54.5598 50.699C55.4668 49.0595 56.4087 47.3851 57.3505 45.6758C58.2924 43.9665 59.0947 42.1874 59.7923 40.3735C60.3854 38.7689 60.9784 37.1991 61.5016 35.5596C62.0249 33.955 62.4435 32.2806 62.7574 30.5015C63.1063 28.8969 63.3156 27.3271 63.4551 25.7923C63.5946 24.2574 63.5946 22.6527 63.49 21.0132C63.5249 20.5249 63.5598 20.0365 63.5598 19.5481C63.5598 19.0598 63.4202 18.5365 63.2109 17.9784C63.0714 17.7342 62.9667 17.3854 62.897 16.9319C62.8272 16.4784 62.7574 16.0249 62.6528 15.5365L62.1644 14.3156C61.6412 12.7459 60.9086 11.2459 59.9668 9.81566C59.6877 9.43194 59.4784 9.04824 59.2691 8.69941C59.0598 8.35057 58.8156 8.0366 58.5017 7.75753C57.1761 6.39708 55.8156 5.28082 54.3505 4.37386C52.8854 3.46689 51.3157 2.73432 49.6762 2.17618C47.4436 1.3041 45.2808 0.955282 43.1181 1.05993C42.839 0.990165 42.56 0.990174 42.3158 1.02506C42.0367 1.09482 41.8274 1.05995 41.653 0.990182C41.4437 0.955299 41.2693 0.955299 41.1297 0.990182C40.9902 1.02507 40.8855 1.02506 40.7809 1.02506C40.0483 1.12971 39.3158 1.19946 38.653 1.26922C37.9902 1.33899 37.3274 1.44363 36.6995 1.65293C36.1065 1.79247 35.6182 1.89712 35.1647 2.00177C34.7112 2.10642 34.2228 2.24597 33.6298 2.45527C33.1065 2.62969 32.5833 2.80411 32.0252 2.94364C31.467 3.08318 30.9438 3.29247 30.4205 3.50177C26.3043 5.14129 22.4671 7.23429 18.909 9.81566C17.7579 10.618 16.9206 11.211 16.3276 11.6296C15.7695 12.0133 15.2462 12.397 14.8276 12.7807C14.3741 13.1296 13.8858 13.5482 13.3625 14.0715C12.8393 14.5598 12.037 15.3273 10.9905 16.3389C10.6067 16.7226 10.3277 16.9668 10.1882 17.1412C10.0486 17.2807 9.90909 17.4202 9.83932 17.5249C9.73467 17.6295 9.63002 17.7691 9.49049 17.9435C9.35096 18.1179 9.10675 18.4319 8.72303 18.8505C7.53699 20.1412 6.42072 21.5016 5.40911 22.9667C4.39749 24.4318 3.49054 25.9667 2.7231 27.6411C2.23473 28.4783 1.81611 29.3155 1.43239 30.1876C1.04867 31.0597 0.734738 32.0015 0.490554 32.9434C-0.0326974 35.1061 -0.137356 37.1991 0.176595 39.2224C0.211478 39.9549 0.385895 40.6875 0.699846 41.42C1.11845 42.5712 1.85101 43.5131 2.89752 44.2456C3.94402 45.013 4.95561 45.5014 5.96723 45.7456C6.2463 45.8153 6.63002 45.8502 7.15328 45.8502C7.67653 45.8502 7.99049 45.8851 8.1649 45.9549C8.51374 46.0246 8.89746 46.0246 9.38582 45.9549C9.87419 45.8851 10.3626 45.8153 10.8858 45.6758C11.4091 45.5712 11.8974 45.4316 12.3858 45.2921C12.8393 45.1526 13.2927 45.0479 13.6416 45.013C14.3741 44.9084 15.0369 44.6642 15.63 44.3154C16.1881 43.9316 16.816 43.6526 17.409 43.4781C17.7927 43.1642 18.2113 42.8502 18.6648 42.6061C19.1183 42.327 19.7462 41.7688 20.5485 40.8968L21.0718 40.0247C21.2811 39.7107 21.4555 39.3619 21.4903 38.9084C21.5601 38.4898 21.3857 37.9317 21.0369 37.2689C20.9671 37.1294 20.9322 36.9201 20.9322 36.7108C20.9322 36.5015 20.8625 36.3271 20.7578 36.2573C20.6183 36.1178 20.4439 35.9433 20.1648 35.7689C19.8857 35.5945 19.6067 35.4201 19.3276 35.3154C19.2578 35.1759 19.1183 35.0713 18.8741 35.0015C18.6648 34.9317 18.4555 34.8619 18.2811 34.7922C18.0718 34.9317 17.8974 34.9317 17.723 34.7922C17.409 34.548 17.1299 34.5131 16.8858 34.6527C16.6416 34.7922 16.3625 34.8619 16.1183 34.8968C16.0137 34.9666 15.909 35.0364 15.7695 35.141C15.6649 35.2457 15.5253 35.2806 15.4207 35.2457C15.0021 35.3154 14.4788 35.5596 13.8509 36.0131C13.223 36.4666 12.7346 36.8503 12.316 37.0945C12.2463 37.2689 12.037 37.4084 11.7579 37.4782C11.4788 37.5829 11.1649 37.6177 10.8509 37.6526C10.537 37.6526 10.223 37.6177 9.97882 37.5131C9.73464 37.4084 9.59512 37.2689 9.56024 37.0247C9.24629 37.0247 9.0021 36.7805 8.86257 36.3619C8.72304 35.9084 8.68817 35.4549 8.79282 34.9666C8.82771 34.7922 8.82771 34.6178 8.79282 34.4085C8.89747 34.0247 8.96723 33.7108 9.00211 33.4666C9.037 33.2224 9.07185 33.0131 9.10674 32.8038C9.17651 32.5945 9.2463 32.4201 9.35095 32.2108C9.4556 32.0015 9.63002 31.7224 9.83932 31.3038C9.90909 31.0248 10.1533 30.6062 10.5719 30.0132C10.9905 29.4201 11.2346 28.9667 11.3742 28.6178C11.6183 28.3039 11.7928 28.0248 11.9323 27.676C12.0719 27.362 12.2114 27.1527 12.3858 27.0132C13.1532 25.8272 13.9556 24.7807 14.7579 23.8388C15.5951 22.897 16.4672 21.9202 17.409 20.9435C18.002 20.3853 18.2811 20.0714 18.316 20.0714C18.3508 20.0365 18.316 20.0714 18.2113 20.2109C18.1067 20.3156 18.0718 20.4202 18.0718 20.4202C18.0718 20.4551 18.3508 20.176 18.8741 19.6179C19.1532 19.3737 19.3625 19.1644 19.502 19.0598C19.6067 18.9202 19.7462 18.8505 19.8508 18.8156C19.9555 18.7807 20.0601 18.711 20.1997 18.6063C20.3392 18.5017 20.5485 18.3272 20.8973 18.083C21.6997 17.5598 22.4671 17.0365 23.1648 16.5133C23.8973 15.99 24.6647 15.4668 25.5019 14.9086C26.0601 14.6296 26.5834 14.3156 27.1066 13.9668C27.6299 13.618 28.188 13.2691 28.781 12.9203C29.6531 12.5017 30.4903 12.0831 31.2926 11.7342C32.0949 11.3854 33.0019 11.1063 33.9437 10.8622C34.7112 10.5482 35.4786 10.304 36.2809 10.1645C37.0832 10.025 37.8158 9.85057 38.5832 9.71103C39.8041 9.50173 40.9553 9.36217 42.1065 9.32728C43.2227 9.2924 44.4088 9.39705 45.6297 9.67612C46.8855 9.88542 48.0017 10.2343 48.8738 10.7575C49.7808 11.2459 50.6878 11.9784 51.6296 12.9552C51.9436 13.1993 52.2227 13.5133 52.5715 13.897C52.8854 14.2808 53.1296 14.5947 53.2692 14.8738C53.5482 15.4668 53.8273 16.0249 54.0017 16.5133C54.211 17.0017 54.3506 17.4551 54.4901 17.8737C54.6296 18.2923 54.7343 18.7109 54.8738 19.1644C54.9784 19.6179 55.118 20.1063 55.2226 20.6993C55.1877 21.676 55.1878 22.7574 55.1878 23.9434C55.2226 25.1295 55.118 26.2109 54.9087 27.1527C54.4901 30.1178 53.8273 32.9085 52.9901 35.4898C52.4668 36.9201 51.9785 38.2805 51.525 39.641C51.0715 41.0014 50.4785 42.327 49.7459 43.5828C49.3971 44.3154 48.9087 45.1874 48.3157 46.1991C47.6878 47.2107 46.9901 48.3269 46.2576 49.6176C45.7343 50.4897 45.246 51.1525 44.8274 51.6409C44.4088 52.0943 43.8855 52.7223 43.2925 53.4897C42.839 54.0478 42.3506 54.5711 41.8274 55.0595C41.339 55.5478 40.8158 56.071 40.2925 56.5594C39.8739 57.0478 39.3158 57.571 38.6181 58.1292C37.9205 58.7222 37.2228 59.2803 36.5251 59.8733C35.8275 60.4664 35.1298 61.0245 34.467 61.5478C33.8042 62.1059 33.2461 62.5594 32.7577 62.9431C31.9205 63.5361 31.188 64.0245 30.5949 64.3733C30.0019 64.7221 29.2345 65.1407 28.3275 65.6291C28.0136 65.7686 27.595 66.0128 27.0019 66.3268C26.4089 66.6407 25.8857 66.85 25.4322 66.8849L25.8857 65.2803C26.1996 64.4431 26.5136 63.571 26.7578 62.7338C27.0368 61.8966 27.281 61.0943 27.4903 60.292C27.7345 59.385 28.0136 58.5827 28.2229 57.885C28.4322 57.1873 28.7112 56.5245 28.9205 55.8966C29.1647 55.2687 29.4089 54.6409 29.6531 54.013C29.8973 53.3851 30.1763 52.6525 30.4903 51.7804C30.4903 51.8153 30.5949 51.5711 30.7694 51.0129C30.9438 50.4548 31.1182 49.8269 31.3275 49.1293C31.5368 48.4316 31.8159 47.5246 32.2345 46.3735C32.6531 45.3619 32.967 44.3502 33.2112 43.3386C33.4554 42.327 33.7693 41.3154 34.1182 40.3038C34.4321 39.2921 34.6763 38.3503 34.9205 37.5131C35.1646 36.6759 35.4786 35.5596 35.8275 34.1643C35.8275 33.8503 35.8972 33.5015 36.0368 33.2224C36.1763 32.9085 36.2461 32.6294 36.3507 32.4201C36.6995 31.7922 36.9786 31.1294 37.1879 30.4317C37.3972 29.769 37.5716 29.0713 37.7111 28.4085L37.6414 27.9202C37.5367 27.676 37.467 27.4318 37.4321 27.2225C37.3623 27.0132 37.2925 26.8388 37.153 26.6992C37.0135 26.3504 36.8739 26.0016 36.7693 25.6876C36.6646 25.3737 36.4902 25.0946 36.1763 24.8853C35.9321 24.7109 35.7228 24.5016 35.5135 24.2923C35.3391 24.083 35.06 24.0132 34.6763 24.1179C34.5716 24.1179 34.467 24.1179 34.4321 24.0132C34.3624 23.9435 34.2926 23.8737 34.1879 23.8388C33.7693 23.6295 33.56 23.49 33.5251 23.3853C33.4902 23.3155 33.2461 23.3155 32.8275 23.4202L31.4321 23.8388C30.8391 23.9086 30.4903 24.1528 30.3856 24.5365C30.1763 24.9551 29.9321 25.1993 29.6531 25.269C29.0949 25.5132 28.7461 26.0713 28.5717 26.9434C28.5368 27.4318 28.4321 27.9202 28.2926 28.4085C28.1531 28.8969 28.0485 29.3504 27.9787 29.769C27.8043 30.4318 27.6647 31.0946 27.5601 31.7225C27.4554 32.3504 27.2461 32.9783 26.9671 33.641C26.7578 34.1643 26.5833 34.6875 26.4438 35.2805C26.3043 35.8736 26.1647 36.4317 26.0252 36.9898C25.7461 37.7922 25.5368 38.5247 25.3973 39.1875C25.2578 39.8503 25.0834 40.548 24.8741 41.2805C24.7345 41.8038 24.5601 42.2921 24.3508 42.8153C24.1415 43.3386 24.002 43.827 23.8973 44.3154C23.4787 45.7805 23.0252 47.2107 22.5368 48.5711C22.0485 49.9664 21.595 51.3967 21.1764 52.8269C20.9671 53.2804 20.7927 53.7688 20.6881 54.2571C20.5485 54.7455 20.409 55.2338 20.2694 55.6873C20.1648 56.1757 20.0602 56.5943 19.9904 56.9083C19.8857 57.2222 19.7811 57.5013 19.7113 57.7455C19.6067 57.9896 19.502 58.2687 19.3973 58.5129C19.2927 58.7571 19.1532 59.1408 19.0136 59.6641C18.7346 60.8501 18.3857 61.8966 17.9671 62.8733C17.7578 63.4314 17.5485 64.0245 17.3043 64.6175C17.0602 65.2105 16.8509 65.8384 16.6416 66.4314C16.3974 67.0593 16.1881 67.7221 16.0137 68.4547C15.8393 69.1872 15.6299 69.8849 15.3858 70.5477C15.316 71.0011 15.3509 71.35 15.4207 71.6291C15.4904 71.9081 15.5602 72.257 15.6648 72.6058C15.909 73.6174 16.2927 74.35 16.8509 74.8732C17.409 75.3965 18.0718 75.8151 18.8741 76.1639C19.502 76.443 19.9555 76.5476 20.2694 76.5476Z" fill="#2D2D2D"/>
<path d="M157.954 21.7458C157.675 21.4318 157.501 21.1877 157.431 21.0481C157.536 20.9435 157.675 20.8388 157.85 20.8039C158.024 20.769 158.094 20.5946 157.989 20.3505L157.326 19.7225C157.257 19.5132 157.117 19.4086 156.943 19.3737C156.838 19.2691 156.698 19.3039 156.594 19.4435C156.489 19.583 156.35 19.583 156.245 19.4435C156.14 19.4086 156.001 19.4086 155.791 19.4086C155.617 19.4435 155.443 19.4086 155.338 19.3737C155.059 19.3039 154.815 19.3039 154.605 19.3737C154.396 19.4435 154.187 19.4435 153.943 19.3737C153.664 19.3039 153.384 19.3039 153.071 19.4086C152.757 19.5132 152.408 19.583 152.024 19.6179C151.536 19.6876 151.082 19.8272 150.664 20.0365C150.245 20.2458 149.757 20.3504 149.268 20.2807L148.954 20.3155C148.85 20.3155 148.64 20.3853 148.361 20.5249C148.082 20.6295 147.768 20.7691 147.419 20.8737C147.071 21.0132 146.757 21.1179 146.443 21.1876C146.129 21.2923 145.885 21.3272 145.745 21.362C144.838 21.5713 144.175 21.7458 143.687 21.8155C143.199 21.9202 142.536 22.0946 141.664 22.3737C141.559 22.3737 141.42 22.4086 141.28 22.4783C141.14 22.5132 140.966 22.5481 140.792 22.583C140.757 22.4434 140.792 22.1993 140.861 21.8504C140.931 21.5365 141.001 21.1876 141.106 20.8039C141.175 20.4551 141.28 20.1062 141.385 19.7574C141.489 19.4086 141.559 19.1993 141.594 19.0946C141.594 18.7109 141.594 18.3621 141.559 18.0132C141.524 17.6644 141.454 17.3505 141.315 17.1063C141.175 16.8621 141.001 16.583 140.861 16.3039C140.687 16.0249 140.478 15.8156 140.234 15.6063C139.92 15.3621 139.675 15.1877 139.466 15.0482C139.257 14.9086 138.943 14.804 138.489 14.6993C138.106 14.6296 137.792 14.6296 137.582 14.5947C137.373 14.5947 137.199 14.6295 137.024 14.7342C136.885 14.8388 136.745 14.9784 136.606 15.1528C136.466 15.3272 136.257 15.5365 135.943 15.8156C135.768 15.8505 135.629 15.9551 135.524 16.1993C135.454 16.4784 135.28 16.7923 135.036 17.1412C134.792 17.49 134.687 17.804 134.722 18.083C134.827 18.5714 134.792 19.0249 134.582 19.4784C134.373 19.9319 134.234 20.3853 134.199 20.8388C134.129 21.2225 134.024 21.6063 133.885 21.9551C133.745 22.3388 133.641 22.6876 133.571 23.0713C133.501 23.3504 133.396 23.6295 133.327 23.9434C133.222 24.2574 133.047 24.4318 132.768 24.4667C132.559 24.5016 132.385 24.5365 132.245 24.6062C132.106 24.676 131.966 24.7109 131.722 24.7458C131.094 24.8155 130.606 24.9202 130.327 24.9899C130.048 25.0946 129.594 25.2341 129.036 25.4086C128.199 25.583 127.362 25.7574 126.559 25.9318C125.757 26.1062 124.641 26.3155 123.28 26.5597C123.001 26.5946 122.722 26.6643 122.373 26.7341C122.024 26.8039 121.676 26.9434 121.327 27.1527C121.117 27.1876 120.838 27.3271 120.524 27.5713C120.21 27.8155 120.001 28.0597 119.931 28.3038C119.792 28.7573 119.582 29.2806 119.303 29.8387C119.269 30.048 119.269 30.2573 119.303 30.3969L119.408 30.4666C119.548 30.7806 119.652 31.0596 119.687 31.2689C119.722 31.5131 119.862 31.7224 120.106 31.8969C120.315 32.141 120.524 32.4201 120.734 32.6992C120.978 33.0131 121.222 33.1876 121.501 33.2573C121.885 33.362 122.269 33.4317 122.582 33.4317C122.896 33.4317 123.245 33.4317 123.629 33.3271C123.978 33.2573 124.431 33.1178 124.92 32.9085C125.408 32.6992 126.036 32.455 126.803 32.141C126.908 32.141 127.152 32.0713 127.536 31.9666C127.92 31.862 128.373 31.7573 128.827 31.6178C129.315 31.5131 129.768 31.3736 130.187 31.2341C130.641 31.0945 130.92 30.9899 131.094 30.9201C131.024 31.1294 130.989 31.3038 130.989 31.3736C130.989 31.4434 130.989 31.5131 130.92 31.5829L126.594 43.1642C126.175 44.5246 125.896 45.3967 125.757 45.8153C125.687 46.0246 125.652 46.1991 125.582 46.3386C125.303 46.8967 125.024 47.4548 124.745 47.9781C124.362 48.7107 124.048 49.3386 123.769 49.8618L120.42 55.2339C120.21 55.5827 119.862 56.071 119.443 56.7338C119.024 57.3966 118.536 58.0594 118.048 58.792C117.559 59.4896 117.036 60.1524 116.513 60.7803C115.989 61.3733 115.606 61.7919 115.292 62.0012C114.699 62.4547 114.245 62.664 113.966 62.664C113.687 62.664 113.443 62.5245 113.303 62.2454C113.164 62.0012 113.094 61.6524 113.094 61.2687C113.094 60.8501 113.129 60.5013 113.199 60.1524C113.548 57.3966 114.036 55.0594 114.629 53.1059C115.257 51.1525 115.92 49.199 116.617 47.2107C116.827 46.4084 117.106 45.6758 117.385 44.9781C117.664 44.2456 118.013 43.4084 118.431 42.4316C118.815 41.5247 119.164 40.4433 119.548 39.2572C119.931 38.0363 120.071 36.7457 120.001 35.3503L119.862 34.3038C119.652 33.4666 119.269 32.769 118.745 32.2108C118.222 31.6527 117.664 31.1643 117.036 30.6759C116.722 30.3969 116.234 30.2224 115.571 30.2224C114.908 30.1876 114.35 30.1527 113.896 30.1178C113.338 30.0829 112.955 30.1178 112.676 30.1876C112.431 30.2573 112.083 30.3969 111.664 30.5713C111.21 30.7457 110.862 30.9201 110.617 31.0596C110.408 31.2341 109.78 31.6875 108.804 32.455C108.455 32.7341 108.036 33.1178 107.513 33.6759C106.99 34.234 106.466 34.8619 105.873 35.5596C105.315 36.2573 104.757 36.9898 104.199 37.7572C103.641 38.5247 103.187 39.2572 102.769 39.9549C102.734 40.0247 102.664 40.1293 102.525 40.3386C102.42 40.5479 102.28 40.7572 102.176 41.0014C102.036 41.2456 101.932 41.4549 101.792 41.6293C101.687 41.8038 101.583 41.9084 101.548 41.9084C101.548 41.8735 101.548 41.7689 101.583 41.6642C101.583 41.6293 101.618 41.42 101.652 41.0712C101.687 40.8619 101.722 40.5828 101.792 40.234C101.792 40.1642 101.827 39.8503 101.966 39.2921C102.071 38.6991 102.211 38.0712 102.35 37.3735C102.49 36.8154 102.594 36.2921 102.664 35.8038C102.734 35.5945 102.804 35.4201 102.908 35.1759C103.083 34.8271 103.187 34.5131 103.187 34.1992C103.187 33.8852 103.292 33.6061 103.466 33.2922C103.431 32.9085 103.431 32.5247 103.571 32.141C103.676 31.7573 103.815 31.3387 103.955 30.8852H103.885C103.885 30.9899 103.745 31.0596 103.431 31.0945C103.362 30.9899 103.362 30.8852 103.466 30.7108C103.536 30.5713 103.571 30.3969 103.571 30.1876C103.676 30.048 103.711 29.9085 103.676 29.7341C103.641 29.5596 103.501 29.4201 103.222 29.3504C103.118 29.455 103.013 29.7341 102.908 30.1178C102.49 29.9434 102.42 29.7341 102.629 29.455C102.838 29.176 102.873 28.9317 102.734 28.6876C102.594 28.8271 102.49 28.9318 102.42 29.0015C102.35 29.1062 102.176 29.2108 101.932 29.3504C102.036 29.2457 102.071 29.0713 102.036 28.862C101.897 28.9317 101.827 29.1062 101.827 29.4201C101.827 29.6992 101.757 29.8736 101.618 29.9085C101.583 30.0131 101.443 30.0829 101.199 30.0829C100.955 30.0829 100.815 30.048 100.745 29.9434L100.711 29.6294C100.327 29.9085 100.187 30.1178 100.327 30.3271C100.466 30.5364 100.327 30.7457 99.9431 31.0248C100.013 30.7806 100.048 30.7108 99.978 30.7457C99.9431 30.7806 99.9083 30.6759 99.8734 30.4666C99.8036 30.4666 99.699 30.3969 99.5594 30.1876C99.385 29.9783 99.3501 29.9434 99.4199 30.048C99.2106 30.1876 99.2455 30.3969 99.4897 30.6759H99.4199L98.7222 31.4782C98.6524 31.4782 98.5827 31.4782 98.5129 31.4782C98.0943 31.5131 97.7804 31.5829 97.5362 31.7224C96.385 32.4201 95.6874 33.3271 95.4781 34.5131C95.4432 35.1061 95.3734 35.5945 95.2339 36.0131C95.0943 36.3968 94.9548 36.9549 94.7455 37.6875C94.7106 37.9317 94.6758 38.141 94.6409 38.3852C94.6409 38.42 94.606 38.4549 94.5711 38.4898C94.292 38.9433 93.9781 39.3619 93.699 39.7805C93.4199 40.1991 93.0362 40.5828 92.6176 40.9317C92.199 41.2805 91.7106 41.6642 91.0827 42.0479C90.3153 42.3968 89.7223 42.7107 89.2688 42.92C88.8153 43.1293 88.3967 43.3037 88.013 43.4433C87.6293 43.5828 87.3851 43.6177 87.3502 43.5828C87.3502 43.5479 87.42 43.3735 87.5246 43.1293C87.6642 42.8502 87.7688 42.606 87.9084 42.2921C88.013 42.013 88.1525 41.734 88.2921 41.5247C88.4316 41.2805 88.5014 41.1409 88.5712 41.0712C89.8967 37.8619 90.6641 35.0712 90.9083 32.6643C91.1525 30.2573 91.2223 28.5132 91.2223 27.4318C91.0827 26.3853 90.8386 25.3039 90.5246 24.1876C90.1758 23.1062 89.6874 22.0946 88.9549 21.1528C88.5711 20.5946 88.1177 20.2109 87.6293 19.9318C87.1409 19.6528 86.5828 19.4086 85.9549 19.1644C85.7805 19.0946 85.4665 18.99 85.0131 18.8853C84.5596 18.7807 84.2107 18.8156 83.9666 18.9551C83.3735 18.9202 82.7108 18.99 82.048 19.1295H81.9782C81.8386 19.304 81.6991 19.4086 81.5247 19.4435C81.3503 19.4783 81.1759 19.4784 80.9666 19.5132C80.5828 19.5481 80.2689 19.6528 80.0247 19.8272C79.7805 20.0016 79.5364 20.1411 79.2573 20.2807C78.8736 20.5597 78.4898 20.769 78.1759 20.9783C77.8619 21.1876 77.5829 21.3969 77.3387 21.6411L72.6992 25.9667C72.6294 26.1411 72.5248 26.3155 72.455 26.4551C72.3504 26.5946 72.2108 26.7341 72.0364 26.8736C71.7922 27.0132 71.583 27.2923 71.4085 27.676C71.2341 28.0946 71.0248 28.4085 70.8155 28.6527C70.7457 28.8969 70.6062 29.0713 70.3969 29.2457C70.1876 29.4201 69.9783 29.6294 69.769 29.9434C68.9318 31.3038 68.1295 32.6643 67.3969 34.0945C66.6644 35.5247 66.0365 36.9549 65.5132 38.42C65.3039 38.4549 65.1993 38.6293 65.269 38.9433C65.0248 39.2572 64.8504 39.5363 64.7458 39.8502C64.6062 40.1642 64.4667 40.4782 64.2923 40.827C64.1179 41.4898 63.9783 42.2223 63.8737 42.9549C63.769 43.6874 63.6644 44.3851 63.5249 44.9781C63.0365 46.9316 62.7225 48.8153 62.6528 50.6292C62.583 52.4432 62.6877 54.3269 62.9667 56.2106C62.9667 56.978 63.0714 57.5013 63.3156 57.7803C63.3504 58.0594 63.4202 58.2687 63.5249 58.478C63.6295 58.6873 63.7691 58.8966 63.9086 59.1757C64.083 59.5943 64.2574 59.978 64.4319 60.3617C64.6063 60.7454 64.9202 61.0594 65.4086 61.2338C65.7225 61.5129 66.0713 61.7919 66.4899 62.0361C66.9085 62.2803 67.2923 62.5245 67.7109 62.7338C68.3039 62.8733 68.9667 62.978 69.5946 63.0128C70.2574 63.0477 70.8852 63.0477 71.548 62.978C72.2806 62.8733 72.9434 62.6989 73.5364 62.385C74.1294 62.1059 74.7573 61.757 75.3852 61.4082C76.3619 60.9198 77.2341 60.292 78.0713 59.5943C78.9085 58.8966 79.6061 58.1989 80.1643 57.5362C80.827 56.9083 81.3154 56.3153 81.6293 55.7571C81.9433 55.199 82.2921 54.6408 82.7107 54.1176C82.92 53.699 83.0596 53.4548 83.0945 53.385C83.1294 53.3153 83.1642 53.2455 83.1642 53.1757C83.1642 53.1409 83.1642 53.0362 83.234 52.9664C83.2689 52.8967 83.4433 52.6176 83.6875 52.2339C83.8968 51.8153 84.0363 51.5711 84.0363 51.5013C84.0363 51.4315 84.0712 51.3618 84.0712 51.3269C84.0712 51.292 84.0712 51.2571 84.141 51.1874C84.1759 51.1176 84.3502 50.9432 84.6293 50.6292C84.8037 50.3502 85.1875 50.1758 85.7456 50.1758C86.3037 50.1758 86.7223 50.0362 86.9665 49.8618C87.9433 49.6176 89.0595 49.2688 90.2804 48.7455C91.4665 48.2223 92.3037 47.8734 92.7572 47.6641C92.8269 47.6293 92.8618 47.5944 92.9316 47.5944C92.8618 47.9781 92.7921 48.3967 92.7223 48.7804C92.5828 49.7572 92.4083 50.7688 92.2339 51.8501C92.0595 52.9315 91.7804 54.2571 91.4316 55.792L89.9316 63.0477C89.7921 63.6756 89.6526 64.2687 89.5479 64.8268C89.4433 65.4198 89.3735 66.0128 89.3386 66.6058C89.3037 66.8849 89.2688 67.0942 89.1642 67.2686C89.0944 67.4431 89.0595 67.5826 89.1293 67.6872C89.2339 68.1058 89.2688 68.4895 89.2688 68.8035C89.2339 68.9081 89.2688 69.1523 89.4432 69.4663C89.5828 69.8151 89.7223 70.0244 89.8618 70.1988C90.1758 70.443 90.2805 70.6174 90.2456 70.7221C90.2107 70.8267 90.2804 71.0011 90.4897 71.2453C91.1874 71.9081 91.9548 72.1872 92.792 72.0825C93.6292 71.9779 94.5013 71.6988 95.3734 71.2802C95.7222 71.1407 95.8967 70.9314 95.8269 70.6523C95.7571 70.3732 95.8967 70.0942 96.2455 69.7802C96.4199 69.536 96.5594 69.4314 96.6641 69.3965C96.7687 69.3965 96.8385 69.1523 96.9083 68.6989C96.8385 68.2105 96.8734 67.9314 97.0129 67.8268C97.1176 67.7221 97.2222 67.4779 97.292 67.0244C97.3269 66.4314 97.3966 65.8035 97.5013 65.1756C97.6059 64.5477 97.7804 63.9547 98.0594 63.4315C98.1292 63.0477 98.1641 62.7338 98.199 62.4896C98.2338 62.2454 98.2339 62.0361 98.2688 61.8617C98.3036 61.6873 98.3734 61.5129 98.4432 61.2687C98.5129 61.0245 98.6525 60.7454 98.8269 60.3966C98.9315 60.0129 99.0013 59.8036 99.0013 59.7687C99.0013 59.7338 99.0013 59.7687 98.9664 59.8036C99.0013 59.7338 99.0711 59.5245 99.1757 59.1408C99.385 58.6175 99.5245 58.0943 99.5943 57.5362C99.6641 56.978 99.8385 56.4199 100.152 55.8269C100.501 54.7455 100.92 53.699 101.373 52.6525C101.827 51.606 102.42 50.4897 103.118 49.3037C103.292 49.0246 103.571 48.5711 103.92 47.9781C104.269 47.3851 104.652 46.7921 105.071 46.1642C105.49 45.5363 105.873 44.9781 106.257 44.42C106.641 43.8968 106.92 43.513 107.129 43.2688C108.559 41.42 109.676 40.1642 110.408 39.5712C111.176 38.9433 111.664 38.734 111.873 38.8735C112.083 39.0131 112.083 39.4317 111.873 40.1293C111.664 40.827 111.385 41.5944 111.001 42.3968C110.059 44.2456 109.292 46.0595 108.664 47.8734C108.071 49.6874 107.548 51.7455 107.059 54.0827C106.78 55.3734 106.571 56.5594 106.362 57.7106C106.152 58.8268 106.048 60.0129 106.048 61.1989C106.013 61.7919 106.048 62.4198 106.118 63.0128C106.187 63.6407 106.327 64.1989 106.501 64.7919C106.711 65.5244 106.955 66.1872 107.234 66.8151C107.513 67.443 108.036 67.8965 108.699 68.2453L109.676 68.8384C110.199 69.1872 110.757 69.3965 111.385 69.4314C111.978 69.4663 112.606 69.4314 113.234 69.3616C113.548 69.3268 113.931 69.257 114.35 69.1523C114.769 69.0477 115.222 68.943 115.676 68.8035C116.129 68.6988 116.583 68.5244 116.966 68.35C117.35 68.1756 117.664 67.9663 117.908 67.7919C118.431 67.3035 118.92 66.85 119.408 66.4663C119.862 66.0826 120.35 65.6291 120.803 65.1407C120.908 65.0361 120.978 64.8965 121.082 64.757C121.152 64.6175 121.292 64.5128 121.431 64.4431C121.641 64.3035 121.815 64.1989 121.955 64.0942C122.094 63.9896 122.199 63.7803 122.199 63.4663C122.234 63.3617 122.373 63.2222 122.652 63.0826C122.687 63.0129 122.722 62.978 122.792 62.9082C122.757 63.5361 122.757 64.1291 122.757 64.6873C122.792 65.8035 122.827 66.7802 122.827 67.5477C122.862 68.3151 123.036 69.2919 123.42 70.443C123.629 71.1756 123.978 71.8732 124.466 72.536C124.955 73.1988 125.582 73.6872 126.385 74.036C126.768 74.1058 127.048 74.2104 127.222 74.3499C127.571 74.5592 128.059 74.6639 128.722 74.5592C129.35 74.4895 129.873 74.3848 130.292 74.2802C131.931 73.8965 133.536 73.0244 135.14 71.6291C136.745 70.2337 138.245 68.6988 139.64 66.9896C141.036 65.3152 142.257 63.6059 143.338 61.9315C144.385 60.2571 145.187 58.9315 145.71 57.9547C145.885 57.6757 146.199 57.1524 146.687 56.4199C147.175 55.6873 147.629 54.9199 148.117 54.0827C148.605 53.2804 149.059 52.478 149.478 51.7106C149.896 50.9432 150.14 50.4199 150.21 50.0711C150.315 49.9665 150.35 49.8269 150.385 49.7223C150.385 49.6176 150.454 49.513 150.524 49.3734C150.768 49.1293 150.908 48.8502 150.978 48.5362C151.047 48.2223 151.082 47.9432 151.117 47.6641L150.943 47.5246H150.873C150.943 47.3153 150.978 47.106 150.908 46.8967C150.873 46.7223 150.838 46.5828 150.908 46.4432C150.978 46.2339 150.908 46.0595 150.733 45.9898C150.524 45.92 150.454 45.7456 150.489 45.5363C150.664 45.1525 150.489 44.9084 150.001 44.8735C149.826 44.4549 149.861 44.1758 150.036 44.0712C150.21 43.9316 150.175 43.9316 149.896 44.0014C149.687 44.0711 149.652 44.0712 149.792 43.9316C149.931 43.7921 149.966 43.7572 149.861 43.7572C149.757 43.8967 149.722 43.827 149.722 43.5828C149.722 43.3386 149.722 43.1991 149.722 43.1293C149.547 42.9898 149.408 42.92 149.338 42.8851C149.268 42.8851 149.199 42.8851 149.199 42.9898C149.164 43.0595 149.164 43.1642 149.164 43.2688C149.164 43.3735 149.094 43.4782 148.989 43.5479C148.919 43.513 148.885 43.4433 148.885 43.3735C148.885 43.3037 148.815 43.234 148.71 43.1991C148.571 43.3386 148.431 43.4432 148.361 43.513C148.257 43.6177 148.152 43.6525 148.047 43.6874C147.489 43.9665 147.14 44.2805 147.001 44.6293C146.861 44.9781 146.687 45.3618 146.443 45.7456C146.338 45.8502 146.268 45.9549 146.199 46.0595C146.129 46.1642 146.059 46.2688 146.024 46.3735C144.664 48.4316 143.513 50.3153 142.571 51.9897C141.629 53.6641 140.687 55.2687 139.78 56.7687C138.873 58.2687 137.861 59.6989 136.815 61.0943C135.734 62.4547 134.478 63.85 132.978 65.2454C132.734 65.3849 132.454 65.5244 132.175 65.6291C131.896 65.7337 131.617 65.8035 131.303 65.8384C130.989 65.8384 130.78 65.7338 130.571 65.5245C130.396 65.3152 130.257 64.8966 130.187 64.3036C130.048 63.7454 129.978 63.2919 129.978 63.0477C129.978 62.7686 130.013 62.4198 130.117 61.9663C130.222 60.6059 130.361 59.4199 130.606 58.3734C130.815 57.3618 131.059 56.1757 131.338 54.8501C131.617 53.6292 131.827 52.6873 131.931 52.0594C132.071 51.4315 132.21 50.7688 132.42 50.1409C132.594 49.513 132.838 48.7107 133.152 47.7339C133.466 46.7572 133.885 45.327 134.443 43.4433C134.652 42.9898 134.792 42.6758 134.861 42.5363C134.931 42.3968 134.966 42.2921 134.966 42.2223C135.001 42.1526 135.001 42.0828 135.071 41.9433C135.106 41.8037 135.21 41.4898 135.35 40.9665C135.454 40.6177 135.734 39.8851 136.187 38.8037C136.64 37.6875 137.094 36.5015 137.582 35.2457C138.071 33.9899 138.524 32.8038 138.943 31.6526C139.361 30.5015 139.64 29.769 139.745 29.455C139.954 28.9318 140.164 28.6876 140.373 28.7225C140.582 28.7574 141.001 28.6527 141.559 28.4783C142.675 28.0248 143.652 27.7457 144.42 27.676C145.187 27.6062 145.85 27.4667 146.338 27.2225C146.478 27.1527 146.826 27.048 147.385 26.9085C147.943 26.769 148.536 26.6643 149.164 26.5248C149.792 26.3853 150.419 26.2458 151.012 26.1062C151.605 25.9667 152.059 25.862 152.303 25.7923C152.408 25.7923 152.512 25.7574 152.617 25.7574C152.722 25.7574 152.826 25.6876 152.931 25.6527C153.001 25.4783 153.35 25.3736 153.908 25.3388C154.466 25.3039 154.85 25.2341 155.059 25.1295C155.408 25.0248 155.757 24.9551 156.071 24.8853C156.384 24.8155 156.664 24.6411 156.908 24.3969C156.838 24.2574 156.908 24.083 157.187 23.9085C157.431 23.7341 157.605 23.6643 157.71 23.6295C157.954 23.5248 158.024 23.4202 157.919 23.2806C157.78 23.1411 157.78 22.9667 157.85 22.7923C158.094 22.6876 158.268 22.6179 158.303 22.4783C158.338 22.3737 158.443 22.3039 158.617 22.269C158.373 22.3388 158.233 22.0597 157.954 21.7458ZM78.1759 49.8269C78.0363 50.106 77.9317 50.3153 77.862 50.4199C77.7573 50.5246 77.6875 50.6641 77.5829 50.7339C77.4782 50.8385 77.3736 50.9432 77.2689 51.0479C77.1643 51.1874 76.9899 51.3967 76.7457 51.6757C76.5364 52.0943 76.3968 52.3385 76.3968 52.4083C76.3968 52.478 76.362 52.5478 76.3271 52.5827C76.2922 52.6176 76.2573 52.6525 76.1527 52.7222C76.048 52.792 75.8736 53.0013 75.5945 53.3502C75.3155 53.6641 75.0364 53.9432 74.8271 54.2222C74.5829 54.5013 74.3736 54.7804 74.1294 55.0943C73.9201 55.2687 73.7457 55.4432 73.5364 55.5827C73.3271 55.7222 73.1876 55.8617 73.1178 56.0362C72.9783 56.2106 72.7341 56.3152 72.3852 56.385C72.0364 56.4199 71.8271 56.5245 71.7225 56.699C71.5829 56.8385 71.4783 56.8734 71.3736 56.8385C71.3038 56.8036 71.1294 56.8385 70.8504 56.9082L70.2922 56.2454C70.2574 55.8617 70.1527 55.5129 70.0132 55.1292C69.8737 54.7804 69.8039 54.3967 69.7341 54.0129C69.769 53.0362 69.769 52.0944 69.6992 51.2223C69.6295 50.3502 69.7341 49.4083 69.9783 48.3967C70.048 48.013 70.0829 47.699 70.1178 47.4897C70.1527 47.2804 70.1876 47.106 70.2225 46.9665C70.2574 46.8269 70.2574 46.7223 70.2574 46.5828C70.2574 46.4781 70.2574 46.3037 70.2574 46.0944C70.3271 45.6758 70.4667 45.1177 70.7806 44.4549C71.0597 43.7921 71.3388 43.3037 71.583 43.0247C71.583 42.92 71.583 42.8502 71.583 42.7805C71.6178 42.7107 71.6178 42.6758 71.583 42.606C71.8271 43.2339 72.0364 43.7572 72.2108 44.1758C72.3852 44.5944 72.5597 45.013 72.769 45.3618C72.9783 45.7107 73.2225 46.0595 73.5713 46.4432C73.8852 46.7921 74.3038 47.2107 74.862 47.6293C75.2806 48.013 75.8387 48.3269 76.5713 48.5362C77.2689 48.7804 77.8619 48.9897 78.3154 49.199C78.3154 49.3037 78.3503 49.4083 78.3503 49.4781C78.3154 49.5828 78.2805 49.6874 78.1759 49.8269ZM84.5247 30.0131C84.4898 30.3271 84.4898 30.7108 84.5247 31.1992C84.4549 31.6527 84.3154 32.3503 84.1061 33.3271C83.8968 34.3038 83.6177 35.3503 83.3038 36.5014C82.9898 37.6526 82.641 38.8038 82.2573 39.9549C81.8735 41.1061 81.455 42.0828 81.0015 42.8153C80.8968 42.8851 80.7922 43.0944 80.6875 43.4084C80.5829 43.7572 80.4782 43.9665 80.3736 44.1061C78.4898 43.6874 77.3038 42.6758 76.8155 41.0712C76.6062 40.4084 76.4666 39.8503 76.3968 39.4665C76.3271 39.0828 76.2573 38.7689 76.2224 38.5247C76.1875 38.2805 76.1875 38.0712 76.1875 37.827C76.1875 37.6177 76.1527 37.3387 76.048 37.0247C76.1875 36.4317 76.2224 36.0131 76.1875 35.8736C76.1527 35.734 76.2224 35.3154 76.4666 34.6875C76.5015 34.4782 76.6062 34.0596 76.8155 33.4666C76.9899 32.8736 77.1294 32.455 77.1992 32.1759C77.2689 31.7922 77.6527 31.0597 78.4201 29.9783C79.1875 28.8969 80.0596 27.9202 81.0712 26.9783C81.734 26.3504 82.4317 26.1411 83.1642 26.3155C83.8968 26.4899 84.2805 26.9434 84.3851 27.7108C84.42 28.0946 84.4549 28.3736 84.4898 28.5829C84.5247 28.7922 84.5247 29.0015 84.5247 29.2108C84.5596 29.455 84.5596 29.6992 84.5247 30.0131Z" fill="#2D2D2D"/>
<path d="M149.547 43.3037C149.512 43.3037 149.512 43.3386 149.512 43.3735H149.582C149.582 43.3037 149.547 43.3037 149.547 43.3037Z" fill="#2D2D2D"/>
<path d="M33.0369 133.617C34.0834 133.338 35.1647 132.989 36.3159 132.64C37.7461 131.977 39.3856 130.966 41.1995 129.605C43.0135 128.28 44.5832 126.849 45.9088 125.384C46.0134 125.384 46.153 125.105 46.3274 124.582C46.5018 124.059 46.6763 123.85 46.8507 123.954C46.8507 124.059 46.8507 124.129 46.8507 124.198C46.8158 124.268 46.8158 124.303 46.8158 124.373C46.6065 125.175 46.4321 125.768 46.3274 126.187C46.2228 126.605 46.1181 126.989 45.9786 127.338C45.8739 127.687 45.6995 128.07 45.56 128.489C45.3855 128.908 45.1414 129.57 44.8274 130.408C44.7577 130.756 44.6181 131.07 44.4437 131.419C44.2344 131.768 44.1298 132.222 44.0949 132.745C44.06 133.338 44.0251 133.791 43.9553 134.105C43.8856 134.419 43.8856 134.698 43.9205 134.908C43.9902 135.152 44.0949 135.396 44.3042 135.675C44.5135 135.954 44.8274 136.338 45.246 136.826C45.3158 137.07 45.5949 137.28 46.0135 137.454C46.4321 137.628 46.7809 137.663 47.06 137.628C47.2693 137.698 47.5483 137.733 47.8274 137.733C48.1064 137.733 48.3855 137.733 48.5948 137.768C49.153 137.803 49.8158 137.594 50.653 137.105C51.4902 136.617 52.0134 136.128 52.2227 135.605C52.153 135.501 52.153 135.396 52.2227 135.291C52.2925 135.187 52.3274 135.047 52.3971 134.942L52.6762 133.373C52.7459 132.989 52.7808 132.745 52.7808 132.64C52.7808 132.535 52.8157 132.431 52.8157 132.396C52.8506 132.326 52.8506 132.256 52.8506 132.152C52.8506 132.047 52.9204 131.803 53.0599 131.489C53.0948 131.035 53.1646 130.722 53.1646 130.442C53.1994 130.198 53.2343 129.919 53.3041 129.57C53.4088 129.082 53.4436 128.803 53.4436 128.733C53.4436 128.698 53.4436 128.629 53.4087 128.524C53.4087 128.454 53.4088 128.245 53.4785 127.896C53.5483 127.547 53.6878 126.884 53.932 125.873C54.2459 124.582 54.5599 123.291 54.839 121.931C55.118 120.605 55.432 119.28 55.7459 117.919C55.9204 117.152 56.1645 116.21 56.4785 115.164C56.7924 114.082 57.0366 113.175 57.211 112.408C57.3854 111.78 57.6994 111.012 58.0831 110.036C58.4668 109.059 58.7808 108.082 59.025 107.071C59.0948 106.792 59.1645 106.617 59.2692 106.512C59.3738 106.408 59.4436 106.303 59.5482 106.199C59.932 105.919 60.2459 105.815 60.4203 105.815C60.5947 105.815 60.9087 105.745 61.3273 105.571C61.7808 105.396 62.0947 105.292 62.2691 105.292C62.4435 105.257 62.5133 105.222 62.4784 105.187C62.5831 105.187 62.7226 105.152 62.8622 105.152C63.0366 105.117 63.2459 105.082 63.49 104.978C63.6993 104.908 63.9086 104.838 64.1528 104.768C64.397 104.699 64.5714 104.594 64.711 104.419C64.9551 104.21 65.1994 104.106 65.4784 104.071C65.7575 104.036 66.0017 103.966 66.2458 103.896C66.3156 103.896 66.3854 103.861 66.4551 103.792C66.5598 103.722 66.6644 103.687 66.7691 103.687C66.804 103.408 66.7691 103.199 66.7342 103.059C66.6644 102.885 66.5947 102.71 66.4551 102.431C66.6993 102.326 67.0133 102.222 67.2923 102.117C67.6063 102.012 67.9202 101.873 68.304 101.699L67.9551 101.594C67.6412 101.35 67.5365 101.175 67.5714 101.071C67.5714 101.001 67.5365 100.966 67.5016 100.966C67.4668 100.931 67.4668 100.896 67.4319 100.861V100.792C67.5714 100.617 67.6412 100.478 67.7109 100.338C67.7458 100.233 67.8156 100.129 67.9203 100.059C67.7807 99.8497 67.7458 99.6753 67.8505 99.5009C67.7109 99.2916 67.5714 99.2916 67.4319 99.466C67.2924 99.6404 67.1179 99.6056 66.9435 99.3614C66.9784 99.2567 67.0831 99.1869 67.2226 99.2218C67.3621 99.2218 67.397 99.1172 67.3621 98.8381C67.2574 98.8381 67.1528 98.873 67.0133 98.873C66.8737 98.9079 66.7691 98.873 66.6295 98.8381C66.5249 98.8381 66.4551 98.8381 66.3854 98.8032C66.6296 98.4893 66.8388 98.28 67.0133 98.1404L66.0714 98.2799C65.7575 98.3148 65.583 98.3148 65.583 98.2799C65.4435 98.1404 65.4086 98.0358 65.4086 97.966C65.4435 97.8963 65.4784 97.8614 65.5482 97.8614C65.5831 97.8614 65.583 97.8614 65.583 97.8614C65.1296 97.2683 64.8854 96.9544 64.8156 96.8846C64.7459 96.8148 64.5017 96.8498 64.0133 96.9544C63.3156 97.0591 62.8621 97.1637 62.618 97.3381C62.3738 97.5125 61.8854 97.6521 61.2226 97.7916C60.8389 97.8963 60.1412 98.1056 59.0947 98.4893C58.0482 98.8381 57.0017 99.152 56.025 99.466C54.3506 99.8846 52.8157 100.303 51.4204 100.722C50.0251 101.106 48.4204 101.559 46.6414 102.082C46.1879 102.187 45.839 102.292 45.6646 102.326C45.4902 102.361 45.3158 102.431 45.2111 102.501C45.0716 102.571 44.8972 102.64 44.6879 102.745C44.4437 102.85 44.06 102.919 43.5367 103.059C43.2228 103.199 42.8391 103.303 42.3158 103.338C41.7926 103.373 41.4437 103.478 41.1647 103.617C40.9205 103.722 40.6414 103.722 40.3972 103.687C40.1531 103.652 39.9787 103.792 39.8391 104.106C39.56 104.35 39.281 104.629 39.0717 104.943C38.8275 105.257 38.5833 105.536 38.3042 105.85C38.1298 106.199 38.0252 106.443 37.9554 106.547C37.8856 106.652 37.9205 106.966 38.0949 107.419C38.2345 107.768 38.374 108.152 38.4787 108.501C38.5833 108.85 38.688 109.164 38.8275 109.443C39.2112 110.21 39.56 110.629 39.9786 110.768C40.5716 111.117 41.0252 111.291 41.4089 111.222C41.8275 111.152 42.1414 111.187 42.3158 111.257C42.7693 111.326 43.4321 111.152 44.339 110.838C45.246 110.489 45.9786 110.21 46.5367 110.001C47.1646 109.861 47.5832 109.757 47.8274 109.617C48.0716 109.512 48.4553 109.373 49.0134 109.164C49.2227 109.024 49.5018 108.954 49.8506 108.885C49.5716 109.338 49.2576 109.931 48.8739 110.594C48.4902 111.257 48.0716 111.954 47.6181 112.617C47.1995 113.28 46.7809 113.943 46.3623 114.536C45.9437 115.129 45.6646 115.547 45.4553 115.791C44.8274 116.454 44.0949 117.187 43.2228 117.954C42.3507 118.722 41.6182 119.384 41.06 119.943C40.3973 120.64 39.5949 121.268 38.6879 121.861C37.781 122.454 36.9787 123.047 36.3508 123.605C35.9671 123.919 35.5833 124.163 35.2694 124.303C34.9554 124.443 34.6066 124.582 34.2926 124.652C33.9787 124.756 33.6299 124.861 33.281 124.931C32.9322 125.036 32.5136 125.175 32.0252 125.35C31.9206 125.419 31.6415 125.454 31.188 125.489C30.7345 125.524 30.3857 125.524 30.1764 125.489C29.5834 125.524 29.1299 125.384 28.8159 125.105C28.502 124.826 28.2578 124.477 28.0834 124.059C27.909 123.64 27.7695 123.222 27.6648 122.803C27.595 122.384 27.5253 122.001 27.4904 121.687C27.3857 120.884 27.316 120.117 27.2811 119.35C27.2462 118.617 27.2811 117.815 27.4555 116.977C27.5602 116.036 27.7346 115.094 27.9788 114.152C28.2229 113.21 28.4671 112.268 28.6764 111.396C28.7462 111.012 28.816 110.629 28.8857 110.28C28.9555 109.931 29.1299 109.547 29.3392 109.129C30.1066 106.268 31.0485 103.443 32.1299 100.617C33.2112 97.7916 34.4671 95.1056 35.8624 92.4893C36.7694 91.1289 37.6066 89.8033 38.374 88.4777C39.1414 87.1522 39.9787 85.8266 40.8856 84.4661C41.4089 83.8033 41.8972 83.1057 42.3507 82.3731C42.8391 81.6406 43.3623 80.9778 43.9205 80.3499C45.0018 79.0243 46.0135 77.8034 47.0251 76.6872C48.0018 75.6058 49.1878 74.5244 50.5832 73.4779C50.6878 73.3732 50.9669 73.0941 51.4553 72.6406C51.9436 72.1872 52.1878 71.943 52.2227 71.8035C52.7111 71.4198 53.3041 71.036 54.0018 70.6523C54.6994 70.2686 55.3971 69.9895 56.0599 69.85C56.7227 69.7104 57.2459 69.7453 57.6297 70.0244C58.0134 70.2686 58.118 70.8267 57.9785 71.7337C57.9436 72.1872 57.7692 72.6756 57.525 73.2337C57.2808 73.7918 57.0715 74.3151 56.8971 74.7686C56.5831 75.7104 56.4087 76.3034 56.3389 76.5476C56.2692 76.7569 56.2692 76.9313 56.2692 77.0011C56.2692 77.0708 56.2343 77.2104 56.1297 77.4197C56.025 77.629 55.7808 78.1871 55.432 79.0941C55.1878 79.7917 54.9436 80.315 54.6296 80.7336C54.3506 81.1522 54.1064 81.6406 53.9669 82.1987C53.8622 82.2685 53.8273 82.408 53.8622 82.6173C54.0018 82.9662 53.932 83.3499 53.6181 83.7336C53.3041 84.1173 53.0948 84.501 53.025 84.815C52.9901 85.094 52.9902 85.3033 52.9553 85.5126C52.9204 85.687 52.9204 85.9312 52.9553 86.2103C52.9204 86.4196 52.9552 86.6638 53.0599 86.9428C53.1645 87.187 53.2343 87.4661 53.339 87.7103C53.3739 87.9894 53.4436 88.1987 53.5134 88.3731C53.5832 88.5475 53.6529 88.7219 53.6529 88.8963C53.7576 89.2452 53.932 89.594 54.1413 89.8382C54.3506 90.1173 54.5948 90.3614 54.839 90.6056C55.2227 90.9544 55.6413 91.0591 56.1297 90.9544C56.618 90.8498 57.0366 90.9196 57.3157 91.1638L57.6994 91.1289C58.1529 90.9196 58.6064 90.7103 59.0947 90.5707C59.5482 90.4312 59.9668 90.0823 60.3505 89.5591C60.4552 89.0707 60.6994 88.687 61.118 88.4777C61.3273 88.4428 61.4319 88.3731 61.397 88.1987C61.8156 87.3266 62.0947 86.4894 62.1645 85.6173C62.2343 84.7801 62.4087 83.908 62.6877 83.001C62.8273 82.4429 62.9319 82.0941 63.0017 81.9197C63.0714 81.7452 63.211 81.4313 63.49 80.9778C63.5598 80.6987 63.6645 80.4196 63.7691 80.1406C63.9087 79.8615 63.9784 79.5825 64.0482 79.3034C64.2575 78.7453 64.3621 78.4313 64.3621 78.3615C64.397 78.2918 64.397 78.2918 64.397 78.3267C64.397 78.3615 64.397 78.3267 64.4319 78.2918C64.4668 78.2569 64.5366 77.9429 64.6761 77.4546C64.7807 77.1057 64.8505 76.8964 64.8854 76.8267C64.8854 76.7569 64.9203 76.6871 64.9552 76.6174C64.9901 76.5476 64.9901 76.4778 64.9552 76.4081C64.9552 76.3383 64.9552 76.129 65.0249 75.7802C65.304 74.4895 65.5482 73.0593 65.7575 71.4546C66.0016 69.85 65.897 68.3849 65.5133 67.0244C65.1645 65.1756 64.5017 63.6756 63.4552 62.4547C62.4435 61.2687 61.0831 60.7105 59.3738 60.8501C58.9552 60.6408 58.5715 60.5361 58.1529 60.6059C57.7692 60.6408 57.3506 60.7105 56.932 60.7803C56.339 60.8501 55.8157 60.9547 55.2924 61.0245C54.8041 61.1291 54.2808 61.2687 53.7925 61.4431C53.3041 61.6524 52.746 61.8966 52.1181 62.2454C51.4902 62.5594 50.7576 62.9431 49.8855 63.3965C48.839 64.1291 47.8274 64.8965 46.8507 65.664C45.8739 66.4314 44.9321 67.2686 44.0251 68.1407C42.7693 69.4314 41.4786 70.7221 40.153 71.9779C38.7926 73.2337 37.6066 74.629 36.5601 76.1639C35.9671 77.0011 35.3391 77.8383 34.6764 78.7104C34.0136 79.5825 33.3508 80.4197 32.688 81.2569C32.5485 81.5359 32.4089 81.815 32.2345 82.0592C32.0601 82.3033 31.8857 82.5476 31.781 82.8615C31.3973 83.6289 30.9438 84.3266 30.4206 84.9894C29.8973 85.6522 29.4439 86.315 29.0601 87.0126C28.502 88.1289 27.9439 89.2103 27.3857 90.3614C26.8276 91.4777 26.3043 92.6289 25.816 93.78C25.6764 94.4079 25.4672 94.9312 25.1881 95.4544C24.909 95.9428 24.6648 96.5009 24.4555 97.059C23.6532 99.2218 22.8509 101.454 22.0835 103.792C21.316 106.129 20.6183 108.605 20.0602 111.222C19.6765 113.21 19.2928 115.268 18.9439 117.396C18.5951 119.524 18.5602 121.582 18.8044 123.536C18.9091 123.849 18.944 124.233 18.9091 124.722C18.9091 125.21 18.9788 125.663 19.1184 126.082C19.223 126.431 19.3277 126.815 19.4323 127.233C19.537 127.617 19.6765 128.001 19.816 128.349C20.0253 129.082 20.3393 129.78 20.8277 130.477C21.2811 131.175 21.8742 131.768 22.6067 132.256C22.7462 132.396 22.816 132.535 22.8509 132.64C22.8858 132.745 22.9904 132.849 23.0951 132.919C24.316 133.582 25.4671 134.001 26.5485 134.21C27.6299 134.419 28.6764 134.489 29.7229 134.384C30.9438 134.105 31.9904 133.896 33.0369 133.617Z" fill="#2D2D2D"/>
<path d="M74.7574 89.001C74.6527 89.1056 74.5132 89.3149 74.3388 89.5242C74.1644 89.7684 74.0248 90.0126 73.9551 90.2219C73.4318 91.1638 72.9435 92.1754 72.5249 93.2568C72.1062 94.3382 71.6179 95.873 71.1295 97.8265L70.1528 101.036C69.9783 101.664 69.8388 102.082 69.8039 102.292C69.769 102.501 69.7342 102.71 69.6993 102.85C69.6993 102.989 69.6644 103.129 69.6295 103.303C69.5946 103.478 69.49 103.757 69.3505 104.14C69.1412 104.559 69.0365 104.978 69.0365 105.396C69.0365 105.815 69.0016 106.268 68.897 106.722C68.7923 107.21 68.7226 107.524 68.6528 107.629C68.583 107.733 68.5133 107.838 68.4784 107.943C68.4435 108.012 68.3737 108.152 68.3388 108.361C68.2691 108.571 68.1993 108.989 68.0598 109.652C67.8853 110.803 67.7458 112.164 67.6063 113.733C67.4668 115.303 67.5714 116.768 67.8853 118.164C68.1993 119.559 68.8272 120.675 69.7691 121.582C70.7109 122.454 72.1411 122.803 74.0597 122.594C75.2458 122.489 76.3969 122.175 77.5132 121.652C78.6295 121.129 79.676 120.501 80.6876 119.733C81.6643 119.001 82.6062 118.164 83.5131 117.257C84.4201 116.35 85.2922 115.477 86.0945 114.605C86.548 113.943 86.8619 113.454 87.0712 113.14C87.2805 112.826 87.4549 112.512 87.5945 112.268C87.6642 112.164 87.734 112.024 87.8038 111.919C87.8038 112.059 87.734 112.233 87.734 112.373C87.734 114.361 87.9084 116.175 88.2921 117.815C88.3619 118.303 88.4317 118.757 88.5363 119.175C88.641 119.594 88.8154 120.012 89.0247 120.396C89.3736 120.954 89.7921 121.338 90.3154 121.617C91.2921 122.14 92.2689 122.35 93.2456 122.28C94.6061 122.28 95.7921 121.791 96.8037 120.85C97.3269 120.396 97.8851 119.943 98.4432 119.454C99.0014 118.966 99.4897 118.477 99.9083 117.919C99.9432 117.85 99.9781 117.78 99.9432 117.71C99.9083 117.64 99.9432 117.571 100.013 117.501L101.269 115.966L101.513 115.373C101.792 115.129 102.071 114.815 102.28 114.466C102.49 114.117 102.699 113.768 102.873 113.419C103.432 112.443 103.885 111.64 104.234 111.047C104.548 110.454 104.862 109.896 105.106 109.373C105.35 108.85 105.629 108.292 105.943 107.733C106.257 107.175 106.676 106.373 107.199 105.396C107.513 104.873 107.687 104.594 107.687 104.524C107.722 104.454 107.687 104.454 107.652 104.489C107.618 104.524 107.583 104.524 107.583 104.454C107.583 104.385 107.687 104.106 107.966 103.582C108.35 102.815 108.664 102.222 108.908 101.733C109.152 101.245 109.397 100.792 109.641 100.373C109.885 99.9544 110.129 99.5358 110.373 99.0474C110.618 98.5939 110.897 97.966 111.245 97.2335C111.769 96.187 112.152 95.3846 112.466 94.7916C112.78 94.1986 113.059 93.6754 113.304 93.187C113.548 92.6986 113.862 92.1754 114.245 91.6172C114.594 91.0591 115.083 90.2917 115.641 89.2801C116.269 88.2336 116.617 87.5708 116.722 87.2917C116.827 87.0126 116.897 86.8382 116.931 86.7336C116.966 86.6289 117.071 86.4894 117.28 86.2452C117.455 86.001 117.943 85.3731 118.676 84.3615C118.78 84.222 118.85 84.0824 118.92 83.8383C118.955 83.7336 119.129 83.5941 119.408 83.4894C119.687 83.3848 119.862 83.2452 119.897 83.1406C119.966 82.7918 120.071 82.4778 120.245 82.1638C120.42 81.8499 120.524 81.536 120.629 81.2569C120.524 81.222 120.49 81.1522 120.524 81.0127C120.559 80.908 120.524 80.8034 120.42 80.6988C120.524 80.5941 120.524 80.4546 120.49 80.3499C120.455 80.2453 120.455 80.1406 120.559 80.0011C120.699 79.7569 120.769 79.4778 120.803 79.129C120.838 78.7802 120.873 78.4313 120.873 78.1174C120.908 78.0127 120.943 77.9081 120.908 77.8034C120.629 77.7337 120.559 77.629 120.664 77.5243C120.769 77.3848 120.838 77.2801 120.838 77.1755C120.664 77.2104 120.559 77.2104 120.49 77.2453C120.42 77.2802 120.315 77.315 120.21 77.315C119.931 77.315 119.687 77.2802 119.478 77.2802C119.269 77.2802 119.024 77.3499 118.78 77.4895C118.536 77.629 118.431 77.5244 118.501 77.1057C118.466 76.5127 118.222 76.4081 117.734 76.7918C117.629 76.9313 117.524 76.9662 117.385 76.9313C117.245 76.8964 117.071 76.9313 116.862 77.0709C116.757 77.1406 116.687 77.2104 116.617 77.315C116.548 77.4197 116.443 77.4546 116.338 77.4895C116.129 77.5243 115.955 77.5941 115.815 77.7685C115.676 77.9081 115.536 78.0476 115.397 78.1871C114.524 78.8848 113.757 79.722 113.094 80.6638C112.431 81.6057 111.804 82.5476 111.211 83.4196C110.618 84.2917 110.269 84.8498 110.164 85.0243C110.059 85.1987 110.025 85.3034 110.025 85.2685C110.059 85.2685 110.025 85.3382 109.99 85.5126C109.92 85.6871 109.641 86.2452 109.118 87.1522L107.862 89.3498C107.373 90.2219 106.92 91.0591 106.536 91.8614C106.118 92.6638 105.664 93.501 105.176 94.3033C104.757 95.3847 104.234 96.5707 103.536 97.8265C103.292 98.3498 103.083 98.7684 102.908 99.0474C102.769 99.3265 102.629 99.5707 102.559 99.78C102.49 99.9893 102.35 100.233 102.211 100.513C102.071 100.792 101.862 101.245 101.618 101.803C101.269 102.501 101.059 102.954 100.955 103.199C100.85 103.443 100.78 103.617 100.711 103.757C100.641 103.896 100.571 104.106 100.466 104.315C100.362 104.559 100.152 105.012 99.8037 105.71C99.5595 106.233 99.2804 106.757 99.0362 107.28C98.7921 107.803 98.4781 108.326 98.199 108.85C97.92 109.303 97.7804 109.547 97.7804 109.547C97.7456 109.547 97.7456 109.547 97.7456 109.512C97.7456 109.478 97.7455 109.478 97.7107 109.512C97.6758 109.547 97.5363 109.757 97.2572 110.175C97.0828 110.489 96.9083 110.768 96.7688 111.047C96.6293 111.326 96.42 111.605 96.1758 111.85C96.1409 111.954 96.0363 112.059 95.8967 112.164C95.7572 112.268 95.6177 112.268 95.513 112.164C95.4433 112.024 95.3735 111.78 95.3386 111.466C95.4084 110.664 95.4781 109.826 95.6176 109.024C95.7572 108.222 95.8967 107.419 96.0014 106.652L96.8386 100.547C96.9781 99.8148 97.1177 99.1172 97.2921 98.4544C97.4665 97.7916 97.6409 97.1288 97.7456 96.466C97.9549 95.5591 98.1293 94.687 98.3037 93.8149C98.4781 92.9428 98.6176 92.001 98.7572 91.094C98.8967 90.2219 99.0013 89.3498 99.0711 88.5126C99.1409 87.6754 99.106 86.8033 99.0711 85.8964C98.9665 85.5824 98.8967 85.3033 98.8269 85.0243C98.7572 84.7801 98.6176 84.5359 98.3734 84.3615C98.2339 84.1173 98.0595 83.908 97.8153 83.7685C97.5711 83.6289 97.327 83.4894 97.0479 83.3848C96.7339 83.1406 96.42 83.0359 96.0363 83.0359C95.6526 83.0359 95.2688 83.0359 94.92 83.1057C94.4316 83.1754 93.9782 83.3499 93.5596 83.5941C93.141 83.8731 92.7224 84.1522 92.3386 84.4661C92.1642 84.7103 92.0596 84.9196 92.0247 85.1638C91.8154 85.6173 91.641 86.0708 91.5014 86.5243C91.3619 86.9778 91.327 87.4312 91.3968 87.9196C91.3968 88.0243 91.3968 88.094 91.3619 88.1638C91.327 88.2335 91.2572 88.3033 91.2223 88.4429C91.0479 89.3149 90.9433 90.1521 90.8386 90.9544C90.734 91.7568 90.6293 92.6289 90.5247 93.5358C90.3851 94.373 90.2805 95.2451 90.2107 96.1521C90.141 96.2916 90.0712 96.4312 90.0363 96.6056C89.6875 97.1288 89.234 97.8963 88.7108 98.8381C88.1875 99.8149 87.6643 100.792 87.1061 101.803C86.548 102.815 86.0247 103.792 85.4666 104.699C84.9085 105.605 84.455 106.268 84.141 106.687C83.4085 107.699 82.5015 108.885 81.4201 110.21C80.3387 111.536 79.362 112.582 78.4202 113.35C78.0016 113.559 77.7922 113.733 77.7574 113.838C77.7225 113.943 77.5132 114.152 77.0946 114.396C76.5364 114.675 76.083 114.71 75.769 114.466C75.4551 114.257 75.3155 113.838 75.3504 113.315C75.4202 111.675 75.6992 110.036 76.2574 108.361C76.8155 106.687 77.4085 105.012 78.0713 103.268C78.7341 101.524 79.362 99.7451 79.9899 97.9311C80.5829 96.0823 80.9667 94.2335 81.176 92.3149C81.176 91.8963 81.2108 91.4428 81.2457 90.9894C81.2806 90.5708 81.2108 90.1172 81.0015 89.7335C80.7922 89.4893 80.5829 89.2452 80.3736 89.001C80.1643 88.7568 79.9899 88.5126 79.8504 88.2684C79.6411 88.0243 79.4666 87.9196 79.2224 87.9545C79.0131 87.9196 78.769 87.8847 78.4899 87.8149C78.2108 87.7452 77.9667 87.7103 77.7574 87.6754C77.3388 87.8499 77.0597 87.9196 76.955 87.9545C76.8155 87.9894 76.5713 87.9894 76.1876 88.0591C76.083 88.0591 75.9434 88.094 75.8039 88.1638C75.6644 88.1987 75.4899 88.3033 75.3504 88.408C74.8969 88.7917 74.8272 88.9661 74.7574 89.001Z" fill="#2D2D2D"/>
<path d="M75.8734 84.501C76.0129 84.8498 76.2571 85.1987 76.6059 85.5126C76.9548 85.8266 77.3385 86.001 77.7571 86.0359C78.1757 86.2452 78.5245 86.3498 78.8036 86.3498C79.0827 86.3498 79.4664 86.2801 79.885 86.1754C80.3733 86.2103 80.8268 86.1057 81.2106 85.8266C81.5943 85.5824 82.0129 85.3382 82.4315 85.1987C82.7803 84.8847 83.0594 84.5708 83.3036 84.222C83.5478 83.908 83.7221 83.5243 83.757 83.0708C83.7221 82.8964 83.7571 82.7569 83.7919 82.6173C83.8268 82.4778 83.8617 82.3382 83.8966 82.2336C83.9315 81.5359 83.6524 80.7336 83.0594 79.8267C82.4663 78.9197 81.7338 78.4313 80.7919 78.3267C80.0943 78.3615 79.5013 78.4662 78.978 78.6406C78.4548 78.815 77.9315 79.0243 77.3385 79.2685C77.199 79.3383 77.0943 79.4081 77.0594 79.4778C77.0245 79.5476 76.9199 79.5825 76.8153 79.5825C76.5362 79.8964 76.2571 80.1755 76.0478 80.4545C75.8036 80.7336 75.6641 81.0127 75.5943 81.2917C75.385 81.7104 75.2804 82.0941 75.3501 82.4429C75.4548 82.7569 75.5245 83.0708 75.5594 83.4196C75.6292 83.7685 75.7339 84.1522 75.8734 84.501Z" fill="#2D2D2D"/>
<path d="M111.699 25.1643C111.664 25.2341 111.699 25.3737 111.838 25.583C111.873 25.7923 111.873 25.9318 111.804 26.0364C111.769 26.1062 111.734 26.2806 111.699 26.4899C112.013 26.3504 112.118 26.2457 112.048 26.176C111.978 26.1062 112.083 26.0015 112.327 25.862C112.362 26.0713 112.397 26.2457 112.466 26.4201L112.292 27.676H112.362C112.431 27.676 112.431 27.7108 112.466 27.8155C112.676 27.6411 112.815 27.362 112.92 27.0132C113.408 27.0132 113.687 27.1178 113.757 27.3271C113.827 27.5364 113.966 27.5015 114.141 27.2922C114.315 27.4318 114.455 27.5364 114.559 27.6411C114.664 27.7457 114.838 27.7457 115.083 27.6411C115.187 27.6759 115.397 27.4666 115.711 27.0829C115.99 26.6643 116.199 26.3853 116.304 26.2806L116.652 25.8271C116.687 25.7574 116.652 25.7574 116.478 25.7574C116.304 25.7923 116.338 25.7225 116.548 25.583C116.652 25.5132 116.722 25.5132 116.792 25.548C116.931 25.3039 116.931 25.1295 116.827 24.955C116.722 24.8155 116.862 24.6062 117.21 24.3271C117.28 24.1527 117.35 24.083 117.385 23.9434C117.455 23.9783 117.908 23.3853 118.117 22.9318C118.362 22.3388 118.466 22.269 118.641 21.99C118.78 21.7458 118.955 21.1528 118.885 21.083C118.99 20.8737 119.059 20.6295 119.164 20.4202C119.443 19.7574 119.617 19.269 119.757 18.9202C119.827 18.6411 119.897 18.3272 119.966 18.0132C120.036 17.6993 120.106 17.3504 120.176 17.0016C120.036 16.897 120.001 16.8272 120.071 16.7226C120.106 16.6179 120.071 16.4784 119.931 16.3039C119.897 16.0946 119.897 15.9551 119.966 15.8505C120.001 15.7807 120.036 15.6063 120.071 15.397C119.757 15.5365 119.652 15.6412 119.722 15.7109C119.792 15.7807 119.687 15.8854 119.443 16.0249C119.408 15.8156 119.373 15.6412 119.303 15.4668L119.478 14.2109H119.408C119.338 14.2109 119.303 14.1761 119.303 14.0714C119.129 14.2459 118.955 14.5249 118.85 14.8737C118.362 14.8737 118.083 14.7691 118.013 14.5947C117.943 14.3854 117.804 14.4203 117.629 14.6296C117.455 14.49 117.315 14.3854 117.21 14.2807C117.106 14.1761 116.931 14.1761 116.687 14.2807C116.583 14.2459 116.373 14.4203 116.059 14.8389C115.745 15.2575 115.571 15.5365 115.466 15.6412L115.117 16.0947C115.083 16.1644 115.117 16.1644 115.292 16.1644C115.466 16.1296 115.431 16.1993 115.222 16.3389C115.118 16.4086 115.048 16.4086 114.978 16.3737C114.838 16.6179 114.838 16.7923 114.943 16.9319C115.048 17.0714 114.908 17.2807 114.594 17.5598C114.524 17.7342 114.455 17.804 114.42 17.9435C114.35 17.9086 113.897 18.5016 113.687 18.9551C113.443 19.5133 113.338 19.6179 113.164 19.897C113.024 20.1411 112.85 20.7341 112.92 20.8039C112.85 21.0132 112.745 21.2574 112.641 21.4667C112.362 22.1295 112.187 22.6179 112.048 22.9667C111.978 23.2458 111.908 23.5597 111.838 23.8737C111.769 24.2225 111.699 24.5365 111.629 24.8853C111.699 24.9899 111.734 25.0597 111.699 25.1643Z" fill="#2D2D2D"/>
<path d="M144.489 101.489C144.419 101.454 144.35 101.454 144.245 101.385C144.35 101.21 144.35 101.071 144.28 100.931C144.21 100.792 144.14 100.687 144.071 100.582L143.896 100.443C143.826 100.408 143.791 100.338 143.791 100.303C143.617 99.8497 143.373 99.6753 142.989 99.8497C142.64 99.9892 142.396 100.129 142.326 100.268C142.222 100.164 142.117 100.129 142.082 100.129C141.873 100.199 141.664 100.199 141.419 100.129C141.315 100.024 141.21 100.024 141.14 100.129C141.071 100.233 141.001 100.303 140.966 100.443C140.931 100.547 140.896 100.687 140.896 100.826C140.896 100.966 140.861 101.001 140.861 100.966C140.547 100.966 140.303 101.036 140.198 101.175C140.094 101.315 139.919 101.559 139.745 101.838C139.605 102.082 139.431 102.396 139.222 102.815C139.012 103.233 138.768 103.617 138.524 104.036C138.28 104.454 138.036 104.838 137.826 105.222C137.617 105.605 137.408 105.885 137.268 106.059C136.675 106.931 136.012 108.012 135.245 109.233C134.478 110.454 133.675 111.71 132.768 113.001C131.861 114.291 130.954 115.547 130.013 116.768C129.071 117.989 128.094 119.036 127.152 119.943C125.129 121.757 123.036 123.291 120.943 124.477C120.594 124.617 120.14 124.756 119.582 124.826C119.024 124.896 118.571 124.966 118.257 125.001C117.838 125.001 117.35 124.966 116.861 124.861C116.373 124.756 116.024 124.512 115.885 124.094C115.571 123.431 115.396 122.768 115.292 122.07C115.152 120.989 115.187 119.733 115.396 118.268C115.606 116.803 115.92 115.477 116.303 114.291L116.478 114.257C116.757 114.326 117.036 114.501 117.315 114.745C117.594 115.024 117.873 115.129 118.222 115.164C118.327 115.268 118.396 115.303 118.361 115.338C118.327 115.373 118.396 115.373 118.501 115.373C118.606 115.373 118.675 115.373 118.745 115.373C118.815 115.408 118.85 115.408 118.92 115.408C119.931 115.373 120.734 115.268 121.327 115.059C121.92 114.85 122.478 114.501 123.036 114.082C125.513 111.884 127.361 109.547 128.582 107.105C129.803 104.664 130.815 101.838 131.582 98.6637C131.547 98.4544 131.617 98.2102 131.826 98.0009C131.896 97.2335 131.896 96.5707 131.896 95.9776C131.861 95.3846 131.757 94.7916 131.512 94.1637C131.268 93.0126 130.675 92.0358 129.768 91.2335C129.454 90.8498 129.071 90.6056 128.617 90.501C128.199 90.1172 127.571 89.9428 126.733 89.9428C125.896 89.9428 125.199 90.0126 124.606 90.1173C122.443 90.9196 120.524 92.1056 118.885 93.6056C117.245 95.1056 115.78 96.8846 114.489 98.873C113.199 100.861 112.082 103.024 111.141 105.326C110.199 107.629 109.362 110.001 108.664 112.408L108.071 116.524C108.001 116.873 107.966 117.222 107.966 117.64C107.966 118.059 107.931 118.408 107.862 118.757C107.827 119.21 107.792 119.629 107.792 120.012C107.792 120.431 107.792 120.85 107.792 121.268C107.896 121.966 107.896 122.454 107.827 122.733C107.862 123.431 107.966 124.094 108.071 124.722C108.21 125.349 108.42 125.977 108.734 126.57C108.873 126.71 108.943 126.919 109.013 127.129C109.082 127.373 109.152 127.582 109.292 127.791C109.641 128.349 110.024 128.873 110.478 129.326C110.931 129.815 111.385 130.198 111.838 130.512C112.327 130.896 112.885 131.175 113.582 131.384C114.245 131.594 114.908 131.698 115.571 131.733C116.024 131.768 116.722 131.768 117.664 131.698C118.641 131.628 119.303 131.559 119.687 131.524C122.059 131.105 124.396 130.094 126.664 128.489C128.931 126.884 131.094 124.966 133.082 122.733C135.105 120.501 136.919 118.094 138.594 115.547C140.268 112.966 141.698 110.559 142.85 108.326C143.303 107.559 143.652 106.617 143.931 105.501C143.966 105.326 143.931 105.257 143.826 105.257C143.722 105.257 143.652 105.257 143.652 105.187L144.803 101.559C144.629 101.524 144.559 101.524 144.489 101.489ZM117.664 107.28C117.768 107.175 117.838 106.966 117.873 106.652C117.908 106.338 118.013 106.129 118.152 106.024C118.536 105.326 118.815 104.803 118.954 104.454C119.094 104.105 119.268 103.792 119.443 103.478C119.617 103.164 119.861 102.745 120.175 102.222C120.489 101.699 121.013 100.896 121.815 99.8148C122.164 99.2916 122.513 98.873 122.792 98.5939C123.071 98.3148 123.489 97.966 124.047 97.5125C124.396 97.3032 124.675 97.2334 124.85 97.2334C125.059 97.2683 125.199 97.373 125.303 97.5823C125.408 97.7916 125.478 98.0009 125.513 98.2102C125.547 98.4195 125.547 98.5939 125.513 98.7683C125.338 99.1172 125.233 99.466 125.199 99.7799C125.164 100.094 125.024 100.513 124.815 100.966C124.152 102.466 123.35 104.001 122.478 105.571C121.606 107.14 120.385 108.326 118.815 109.129L118.571 109.164C118.466 109.164 118.396 109.198 118.327 109.233C118.292 109.268 118.222 109.268 118.152 109.303C118.013 109.164 117.943 109.094 117.908 109.094C117.873 109.094 117.838 109.129 117.838 109.129C117.803 109.164 117.803 109.164 117.803 109.129C117.803 109.094 117.734 108.989 117.664 108.78C117.664 108.675 117.629 108.536 117.664 108.396C117.664 108.222 117.699 108.222 117.699 108.326C117.629 108.117 117.594 107.943 117.629 107.803C117.699 107.559 117.699 107.419 117.664 107.28Z" fill="#2D2D2D"/>
<path d="M135.036 141.71C134.931 140.838 134.792 140.035 134.617 139.338C134.443 138.64 134.303 138.291 134.199 138.291C134.024 137.873 133.815 137.559 133.571 137.314C133.326 137.07 133.082 136.791 132.873 136.442C132.559 136.059 132.071 135.745 131.373 135.535C130.71 135.326 130.222 135.187 129.943 135.117C129.664 134.977 129.35 134.908 128.966 134.908C128.617 134.908 128.338 134.873 128.094 134.768C127.92 134.733 127.745 134.768 127.536 134.873C127.326 134.977 127.187 135.012 127.047 134.977C126.001 135.152 124.745 135.605 123.315 136.303C121.885 137.001 120.559 138.117 119.373 139.617C118.85 140.28 118.152 141.152 117.245 142.233C116.338 143.314 115.536 144.466 114.803 145.721C114.873 145.512 114.978 145.093 115.152 144.535C115.292 143.977 115.396 143.384 115.501 142.791C115.571 142.198 115.641 141.64 115.606 141.152C115.606 140.663 115.501 140.349 115.327 140.21C115.047 139.826 114.838 139.407 114.664 139.024C114.489 138.64 114.245 138.396 113.966 138.256C113.861 138.221 113.792 138.187 113.757 138.117C113.722 138.082 113.687 138.012 113.617 137.977L113.024 137.663C112.885 137.559 112.815 137.489 112.71 137.454C112.606 137.419 112.536 137.349 112.396 137.245C111.768 137.105 111.35 137.175 111.106 137.419C110.478 137.873 109.989 138.361 109.675 138.849C109.362 139.338 109.117 140 108.978 140.838C108.803 141.5 108.664 142.268 108.559 143.105C108.455 143.942 108.35 144.849 108.28 145.721C108.21 146.628 108.141 147.5 108.071 148.373C108.001 149.245 107.896 150.012 107.757 150.675C107.513 151.617 107.338 152.628 107.303 153.64C107.234 154.686 107.094 155.663 106.85 156.605C106.675 157.372 106.536 158.14 106.466 158.872C106.362 159.605 106.222 160.372 105.978 161.175C105.699 162.71 105.489 164.279 105.315 165.849C105.106 165.989 104.896 166.093 104.757 166.268C104.582 166.512 104.373 166.756 104.199 167C104.199 167.105 104.129 167.175 103.989 167.175C103.885 167.279 103.78 167.454 103.641 167.663C103.501 167.872 103.362 168.047 103.222 168.151L102.943 168.605V168.535L102.489 169.407V169.337L102.036 169.651C101.687 170.279 101.373 170.803 101.094 171.221C100.815 171.64 100.501 172.058 100.117 172.477V172.547L97.9198 174.954L96.2802 176.768H96.35L94.6407 177.884L93.664 178.407C93.664 178.442 93.5593 178.512 93.35 178.512L93.2454 178.372C92.8268 178.547 92.6524 178.582 92.6873 178.582C92.7221 178.547 92.6524 178.407 92.4082 178.163C92.2338 178.058 92.0593 177.849 91.9198 177.5C92.0244 177.396 92.0593 177.221 92.0245 177.047C91.9896 176.872 91.9896 176.698 91.9547 176.523L91.9896 175.477C92.0245 175.372 92.0245 175.303 91.9896 175.268C91.9547 175.233 91.9198 175.198 91.9198 175.058L91.8849 174.256C91.8849 174.151 91.8501 174.082 91.8152 174.047C91.7803 174.012 91.7803 173.977 91.7454 173.942V173.872L91.8849 173.209C91.9198 173.105 91.9547 172.965 91.9896 172.791C92.0245 172.616 92.0245 172.477 91.9896 172.303L91.85 171.919C91.85 171.814 91.8849 171.71 91.9547 171.57L92.4431 169.093C92.4082 168.884 92.443 168.675 92.4779 168.465C92.5477 168.256 92.6175 168.047 92.6873 167.837C92.6873 167.733 92.7221 167.628 92.7919 167.489C92.7919 167.384 92.757 167.314 92.7221 167.244C92.6872 167.21 92.6523 167.105 92.6523 167C92.6872 166.826 92.7919 166.651 92.9314 166.407C93.071 166.163 93.1756 165.919 93.2105 165.64L93.3849 164.489C93.3849 164.593 93.4198 164.558 93.4198 164.419C93.4198 164.244 93.4198 164.105 93.3849 163.931L93.8733 162.151L94.3965 160.617C94.3616 160.407 94.3965 160.268 94.4314 160.198L94.5709 159.431L94.5361 159.256C94.5361 159.221 94.571 159.151 94.6407 159.117C94.7105 159.082 94.7453 159.012 94.7453 158.907L94.8849 158.175C94.85 158 94.8849 157.861 94.9896 157.756C95.0244 157.582 95.0942 157.303 95.2337 156.884C95.3733 156.465 95.5128 156.012 95.6523 155.524C95.7919 155.035 95.9663 154.582 96.0709 154.163C96.2105 153.745 96.2802 153.431 96.3151 153.291V153.361L96.7337 151.442C96.9779 150.71 97.1523 150.082 97.2919 149.524C97.4314 148.966 97.5709 148.477 97.6756 148.024L97.4314 148.059L97.9198 146.873L98.7569 144.082L99.2453 142.303H99.1756L99.8732 140.768L100.431 138.919H100.362L101.164 136.477L101.269 136.059L102.315 132.361L102.245 132.431L102.699 131.489C102.664 131.315 102.769 131.245 102.978 131.21L103.257 130.198C103.292 129.605 103.327 129.117 103.362 128.733C103.396 128.349 103.327 128.036 103.187 127.791C103.013 127.268 102.908 126.954 102.908 126.78C102.734 125.942 102.106 125.28 100.955 124.826L100.536 124.722C99.7337 124.443 99.2453 124.303 99.036 124.268C97.6058 124.338 96.5244 124.791 95.7918 125.594L95.3733 126.222L95.3035 126.396L94.9896 126.989V126.919C94.8151 127.163 94.6756 127.477 94.6407 127.861C94.3965 128.21 94.2221 128.698 94.0128 129.291C93.8035 129.884 93.6989 130.408 93.6291 130.826L93.1058 132.501C92.8965 133.512 92.757 134.07 92.6873 134.21C92.5826 134.349 92.5128 134.489 92.4082 134.594L92.0593 136.268C92.0593 136.373 92.0594 136.442 91.9896 136.477C91.9547 136.512 91.9198 136.547 91.9198 136.617V136.547C91.6407 137.349 91.4315 138.012 91.2919 138.535C91.1524 139.059 90.978 139.547 90.8384 140.001H90.9082L90.7687 140.663V140.733L90.4198 141.675L89.6524 143.245C89.3035 144.361 88.9198 145.512 88.5013 146.663C88.0826 147.814 87.6989 148.931 87.3501 150.012C87.1757 150.64 86.9664 151.163 86.792 151.617C86.6175 152.07 86.4082 152.489 86.164 152.838L85.2571 155.14V155.07L83.2338 160.617C83.0943 160.791 82.9897 161 82.9199 161.279C82.8501 161.524 82.7106 161.803 82.5362 162.082V162.012L81.1757 165.256L80.6176 166.617L79.4316 168.779C79.3618 169.058 79.1525 169.512 78.8385 170.14C78.5246 170.768 78.1409 171.465 77.6874 172.233L76.5014 174.256C76.0827 174.919 75.7339 175.512 75.3502 176.105C75.0013 176.698 74.6874 177.151 74.4781 177.43C74.3037 177.709 74.1293 177.989 73.92 178.198C73.7456 178.407 73.5362 178.686 73.292 178.965L72.2455 180.221C71.9665 180.535 71.6525 180.814 71.3386 181.023C71.0246 181.268 70.7107 181.477 70.3968 181.686L69.6991 182C69.0014 182.349 68.4084 182.523 67.8851 182.488C67.4316 182.419 67.1177 182.105 66.9433 181.512C66.7689 180.919 66.8038 180.151 67.1177 179.175C67.327 178.372 67.5712 177.64 67.8154 176.942C68.0596 176.244 68.2689 175.477 68.4782 174.64L69.0712 173.035C69.2456 172.372 69.42 171.71 69.5595 171.116C69.6991 170.489 69.8735 169.965 70.0828 169.512L71.7223 164.593L72.7339 161.803L76.3269 150.64C76.5014 149.977 76.7455 149.21 77.0595 148.373C77.3385 147.535 77.6525 146.663 77.9316 145.756C78.2106 144.849 78.4897 143.977 78.7688 143.105C79.0478 142.233 79.2571 141.431 79.4316 140.698L79.5711 139.966L80.4781 136.861C80.3734 136.617 80.4083 136.373 80.5129 136.198C80.6176 136.024 80.7222 135.814 80.792 135.605C80.7571 135.396 80.792 135.117 80.8618 134.768L80.9664 134.419C80.9664 134.315 81.0013 134.245 81.1059 134.21C81.2106 134.175 81.2106 134.105 81.1757 134.001C81.2106 133.547 81.2455 133.059 81.2455 132.535C81.2455 132.012 81.1408 131.524 80.9664 131.105C80.8966 130.582 80.8618 130.128 80.8269 129.78C80.8269 129.431 80.7222 129.117 80.5827 128.873C80.478 128.629 80.3734 128.349 80.199 128.105C80.0246 127.861 79.8502 127.582 79.6409 127.268L79.5362 127.198V127.268L79.1874 126.989C78.9083 126.536 78.5594 126.222 78.1757 125.977C77.7571 125.768 77.513 125.629 77.4083 125.594C76.9548 125.315 76.4316 125.14 75.9083 124.966C75.3851 124.826 74.8967 124.722 74.4432 124.652C74.0246 124.652 73.5712 124.687 73.1525 124.722C72.7339 124.791 72.3851 124.861 72.1409 124.931L71.6177 125.175L70.9898 125.245C70.92 125.245 70.8851 125.28 70.7805 125.315C70.7107 125.349 70.6409 125.384 70.606 125.384C70.0479 125.559 69.5944 125.733 69.3154 125.908C69.0014 126.082 68.7223 126.256 68.4782 126.396L68.5479 126.222C68.1293 126.396 67.5712 126.605 66.9084 126.919C66.2107 127.233 65.6177 127.547 65.0596 127.896L65.1294 127.791C64.7108 128.001 64.2224 128.28 63.6642 128.663C63.1061 129.047 62.548 129.396 62.0596 129.71L61.6759 129.989L60.0713 131.245V131.175C59.9317 131.245 59.7224 131.384 59.4782 131.628C59.234 131.838 59.0596 132.082 58.9201 132.326H58.8504L57.7341 133.128L54.5597 136.128C53.9318 136.756 53.5132 137.245 53.3039 137.594C53.0597 137.942 52.8504 138.256 52.6062 138.57L52.1178 139.128L51.9085 139.477H51.9783L50.2341 141.152V141.221L48.2807 144.396L47.3388 145.826V145.756L46.5714 146.838L45.9086 148.059C45.9086 148.163 45.9086 148.233 45.8737 148.303V148.233C45.6644 148.686 45.4551 149.07 45.2109 149.384C44.8621 149.907 44.5482 150.431 44.3737 150.954C44.1644 151.477 43.9551 151.966 43.7458 152.419L43.5714 153.012L43.1528 154.756L42.9086 156.082V156.012C42.7342 156.396 42.6645 156.849 42.6296 157.338C42.5947 157.826 42.5947 158.279 42.5249 158.733C42.5249 159.431 42.5598 160.198 42.6644 161C42.7691 161.803 42.9784 162.535 43.3621 163.163C43.8505 163.896 44.3389 164.524 44.897 165.047C45.4551 165.535 46.1179 165.884 46.8853 166.058C46.99 166.058 47.0946 166.058 47.1644 166.058C47.2342 166.058 47.3039 166.093 47.3737 166.058H47.3039C47.3737 166.163 47.5481 166.198 47.7923 166.163L47.9667 166.233L48.8388 166.198C49.083 166.268 49.362 166.303 49.7458 166.233C50.1295 166.198 50.4085 166.163 50.6178 166.128C50.7225 166.128 50.7923 166.093 50.862 166.058C50.8969 166.024 50.9667 166.024 51.0016 165.989C51.7341 165.675 52.4318 165.43 53.1295 165.256C53.8271 165.082 54.3853 164.837 54.769 164.524C55.0132 164.454 55.2224 164.384 55.3271 164.349C55.4317 164.314 55.7457 164.105 56.3038 163.791L57.8387 162.535C58.1178 162.221 58.362 161.942 58.5364 161.733C58.7108 161.489 59.1294 161.21 59.7922 160.826L60.0015 160.651H59.9317C60.1759 160.442 60.3852 160.268 60.5596 160.093C60.734 159.919 60.8736 159.605 61.048 159.151L61.4317 158.942C61.8154 158.558 62.0596 158.105 62.1294 157.512C62.234 156.919 62.1991 156.396 62.0945 155.942L62.0596 155.698C62.0596 155.279 61.9899 154.791 61.8503 154.303C61.7108 153.814 61.5712 153.431 61.4317 153.186L60.3852 152.663L60.0713 152.14L59.6875 152.279C59.5131 152.314 59.4085 152.279 59.2689 152.175L58.7806 152.07L58.048 152.175L57.7341 152.279L56.7573 152.977L56.8271 152.872L56.5131 153.082L55.3969 154.372C55.362 154.442 55.2922 154.582 55.2225 154.791C55.1527 155 54.9783 155.21 54.7341 155.349C54.7341 155.419 54.7341 155.419 54.6992 155.384C54.6643 155.349 54.6643 155.384 54.6643 155.419H54.7341L54.3504 155.698V155.628L52.0481 157.791L51.2109 158.14L50.6528 157.093C50.4783 156.535 50.4086 156.151 50.4783 156.012C50.5481 155.872 50.7225 155.489 51.0016 154.861L52.0132 152.14L52.2923 151.686L52.5015 151.338L53.0248 150.361L53.3736 149.838L53.862 149.14L53.8969 149.279L54.1062 148.931L53.9318 148.861C54.2108 148.407 54.4899 147.954 54.8038 147.5C55.1178 147.047 55.4667 146.663 55.8853 146.349L56.1643 146.07C56.5131 145.477 56.8271 145.059 57.1062 144.78C57.3504 144.5 57.6294 144.256 57.8736 144.012C58.4317 143.245 59.0247 142.442 59.6875 141.675C60.3503 140.907 61.048 140.175 61.7457 139.547C62.5131 138.919 63.2805 138.256 64.0131 137.594C64.7456 136.931 65.5131 136.338 66.2805 135.815C66.9782 135.361 67.8502 134.873 68.8967 134.384C69.9433 133.896 70.92 133.512 71.7921 133.233C72.4549 133.268 72.8735 133.477 73.0479 133.896C73.2223 134.315 73.3269 134.628 73.292 134.908C73.292 135.675 73.0828 136.547 72.699 137.524C72.3153 138.535 72.0363 139.442 71.8618 140.245L71.3037 141.605C71.3037 141.675 71.2688 141.745 71.1642 141.919C71.0595 142.059 71.0595 142.198 71.1293 142.303L70.8153 143.07H70.8851C70.4665 144.047 70.2223 144.745 70.1177 145.163C70.013 145.582 69.9432 145.826 69.9781 145.861C69.9781 145.931 69.9781 145.966 69.9433 146C69.9084 146.035 69.9084 146.105 69.9433 146.21L69.7688 146.873C69.6642 146.977 69.6293 147.117 69.6642 147.291V147.221L68.6875 149.628L68.7572 149.524C68.5479 149.977 68.4433 150.361 68.4782 150.605C68.4433 150.779 68.3735 150.954 68.2689 151.198C68.1642 151.442 68.1293 151.582 68.1293 151.686L67.8502 152.698L67.3968 153.71C67.327 153.989 67.2223 154.268 67.1526 154.512C67.0479 154.756 66.9782 155.105 66.9084 155.559L67.048 155.454C66.8387 155.593 66.7689 155.768 66.8037 155.977C66.7689 156.082 66.734 156.221 66.6642 156.396C66.5944 156.57 66.5596 156.675 66.5945 156.745H66.6642L64.8852 161.663L64.5363 162.779C64.5363 162.814 64.5363 162.849 64.5014 162.849C64.4666 162.849 64.4666 162.884 64.4666 162.919V162.849L63.9084 164.698H63.9782L63.734 165.291C63.734 165.361 63.6991 165.43 63.5945 165.535L63.6642 165.361C63.0015 166.791 62.5828 167.942 62.4782 168.849L61.7108 169.93L61.048 172.372C60.6991 173.07 60.4898 173.593 60.3503 174.012C60.2457 174.396 60.141 174.744 60.0713 175.023L59.4782 176.244L59.4085 176.907C59.4085 177.012 59.4085 177.082 59.3736 177.151C59.3387 177.221 59.3038 177.291 59.3387 177.396L59.1643 178.058C59.0596 178.407 58.9899 178.616 59.0248 178.721C59.0248 178.826 59.0596 178.895 59.0596 178.965C59.0248 179.07 58.9899 179.14 58.9201 179.175C58.8503 179.209 58.8154 179.244 58.7806 179.314C58.641 179.489 58.5713 179.628 58.6061 179.733L58.362 180.5C58.362 180.605 58.3271 180.744 58.2224 180.884C58.1178 181.023 58.0829 181.198 58.1527 181.407C58.0829 181.686 58.048 181.895 58.048 182.07C58.048 182.244 58.048 182.384 58.0829 182.558C58.0131 182.837 57.9782 183.116 57.9434 183.43C57.9434 183.744 57.9085 184.023 57.9085 184.302C57.8387 184.582 57.8038 184.861 57.7689 185.14C57.7341 185.419 57.769 185.663 57.8039 185.942C57.6294 186.605 57.6294 187.163 57.8039 187.547C57.9783 187.965 58.1178 188.523 58.1527 189.291C58.1527 189.709 58.2573 190.023 58.4666 190.233C58.6759 190.407 58.8155 190.686 58.9201 191C59.1643 191.558 59.3736 191.942 59.5829 192.116C59.7922 192.291 60.1061 192.605 60.455 192.953L60.5596 193.093L61.641 193.442L61.8154 193.512L63.1061 194L63.5596 193.86C63.7689 193.826 63.9433 193.86 64.0829 193.895C64.2224 193.965 64.3619 193.965 64.4317 193.895H66.3852C66.4898 193.895 66.8735 193.721 67.5363 193.442C68.1991 193.128 69.0363 192.779 70.0828 192.395C70.6409 192.151 71.1642 191.907 71.6525 191.663C72.1409 191.419 72.5246 191.14 72.8037 190.826C73.1874 190.442 73.6758 190.023 74.3037 189.535C74.9316 189.047 75.4548 188.488 75.9083 187.826C76.292 187.337 76.6757 186.884 77.1292 186.395C77.5827 185.942 78.0013 185.523 78.3851 185.14L78.8734 184.442L79.885 182.768L80.7222 181.686C81.0013 181.337 81.2106 180.989 81.4199 180.675C81.5943 180.361 81.8036 180.012 82.0129 179.663L82.8152 178.337L84.8385 174.605L85.0827 173.837L85.0129 174.5C84.9083 174.989 84.8385 175.268 84.8036 175.302C84.7687 175.337 84.6989 175.337 84.6989 175.302C84.6641 175.268 84.6641 175.268 84.6641 175.302C84.6641 175.337 84.6989 175.582 84.7687 176.07C84.7687 176.489 84.7338 176.907 84.6292 177.291C84.5594 177.675 84.5594 178.163 84.6989 178.756L84.6292 179.977C84.8036 180.605 84.978 181.302 85.1175 182.07C85.2571 182.837 85.4315 183.465 85.7455 183.988L85.9896 184.512L86.8268 185.279H86.8966C87.1059 185.593 87.3501 185.802 87.6292 185.942C87.9082 186.081 88.1524 186.221 88.3268 186.291C88.9547 186.64 89.478 186.814 89.8966 186.849C90.3152 186.884 90.8384 186.849 91.4663 186.779C91.5012 186.709 91.7454 186.64 92.164 186.535C92.5826 186.43 93.0361 186.291 93.5244 186.151C94.0128 186.012 94.5012 185.837 94.9198 185.698C95.3732 185.523 95.6523 185.384 95.7918 185.279L98.0244 183.849L99.2802 182.802C99.4546 182.558 99.6988 182.349 100.013 182.14C100.327 181.93 100.536 181.791 100.676 181.651H100.606C101.164 181.023 101.722 180.465 102.315 179.977C102.559 179.733 102.803 179.419 103.048 179.14C103.013 179.593 102.943 179.907 102.873 180.116C102.803 180.361 102.699 180.57 102.594 180.779C102.489 180.988 102.385 181.198 102.315 181.407C102.245 181.616 102.176 182 102.141 182.488C102.036 183.047 101.966 183.675 101.862 184.337C101.757 185.035 101.652 185.698 101.513 186.361L101.234 187.861C100.885 189.326 101.024 190.581 101.652 191.698C102.524 192.605 103.396 193.023 104.269 192.988C104.548 192.953 104.827 192.919 105.106 192.919C105.42 192.919 105.664 192.849 105.873 192.779C106.152 192.849 106.362 192.779 106.501 192.605C106.92 192.221 107.373 191.733 107.862 191.14C108.315 190.547 108.489 189.884 108.35 189.151C108.455 188.767 108.524 188.523 108.489 188.419C108.455 188.209 108.42 188 108.42 187.826C108.385 187.651 108.42 187.477 108.524 187.302C108.559 186.849 108.629 186.465 108.699 186.151C108.768 185.802 108.873 185.523 108.978 185.209C109.048 184.442 109.187 183.361 109.431 182C109.675 180.605 109.85 179.384 109.955 178.302C110.024 177.954 110.059 177.779 110.059 177.675C110.094 177.605 110.094 177.535 110.094 177.465C110.094 177.395 110.094 177.361 110.094 177.256C110.094 177.186 110.164 176.977 110.199 176.628L110.408 175.616L110.687 174.605C110.827 174.361 110.896 174.186 110.896 174.082C110.896 173.977 110.896 173.872 110.896 173.768C110.896 173.663 110.896 173.523 110.931 173.384C110.966 173.244 111.036 173.035 111.175 172.756C111.21 172.651 111.245 172.547 111.315 172.442C111.35 172.372 111.35 172.233 111.28 172.093C111.28 171.814 111.315 171.396 111.315 170.872C111.315 170.314 111.455 169.93 111.699 169.686C111.699 169.791 111.768 169.896 111.838 170.035C111.908 170.175 111.978 170.279 112.048 170.384C112.327 170.837 112.641 171.326 112.989 171.884C113.338 172.442 113.652 172.896 113.966 173.209C114.838 174.012 115.675 174.5 116.513 174.709C117.35 174.919 118.187 174.954 119.024 174.814C119.861 174.64 120.664 174.43 121.361 174.151C122.094 173.872 122.722 173.489 123.315 172.965C124.013 172.163 124.85 171.396 125.757 170.628C126.245 170.14 126.699 169.547 127.117 168.919C127.536 168.256 127.92 167.628 128.268 167C128.547 166.756 128.757 166.477 128.861 166.233C128.966 165.989 129.105 165.744 129.28 165.5C129.524 164.837 129.803 164.14 130.152 163.442C130.501 162.744 130.885 162.082 131.268 161.419C131.826 160.163 132.35 158.838 132.908 157.477C133.466 156.117 133.885 154.721 134.199 153.326C134.512 152.105 134.826 150.814 135.036 149.524C135.28 148.233 135.35 146.942 135.315 145.652C135.385 145.442 135.419 144.919 135.35 144.152C135.245 143.384 135.14 142.582 135.036 141.71ZM128.478 145.128C128.478 145.373 128.478 145.617 128.443 145.896C128.233 149.384 127.606 152.419 126.524 154.965C125.861 156.605 125.164 158.244 124.431 159.849C123.699 161.454 122.861 162.779 121.92 163.826C121.466 164.384 121.082 164.768 120.873 165.012C120.629 165.256 120.245 165.605 119.722 166.058C119.478 166.198 119.338 166.303 119.268 166.372C119.234 166.442 119.059 166.512 118.815 166.582C118.396 166.791 118.013 166.861 117.629 166.826C117.245 166.756 116.861 166.617 116.513 166.372C116.164 166.128 115.885 165.849 115.675 165.5C115.466 165.186 115.361 164.872 115.327 164.628C115.292 164.314 115.187 163.791 115.048 163.093C114.908 162.396 114.803 161.907 114.768 161.628C114.803 161.454 114.873 161.279 114.943 161.035C115.013 160.791 115.013 160.617 114.943 160.477C115.431 158.349 115.954 156.465 116.478 154.791C117.036 153.117 117.699 151.826 118.466 150.849C119.094 149.838 119.966 148.721 121.117 147.466C122.268 146.21 123.35 145.233 124.396 144.57C124.745 144.256 125.059 144.047 125.373 143.907C125.687 143.768 126.036 143.559 126.419 143.245C126.838 143.14 127.292 143.14 127.78 143.245C128.199 143.454 128.408 143.803 128.478 144.291C128.478 144.605 128.478 144.884 128.478 145.128Z" fill="#2D2D2D"/>
<path d="M134.827 77.2104C129.559 75.7453 124.082 80.315 122.338 85.1638C121.78 86.6638 121.466 87.8847 123.943 86.3847C125.757 85.3033 127.501 85.0243 129.106 84.9545C131.164 84.8848 133.047 85.1987 134.582 84.6406C137.652 83.5592 139.257 78.4313 134.827 77.2104Z" fill="#2D2D2D"/>
<path d="M131.722 87.0475C128.512 87.4661 129.943 88.5824 131.094 89.2801C132.14 89.908 133.047 90.6405 133.571 91.8963C133.85 92.5242 133.954 93.2568 134.094 93.9545C134.757 97.6521 140.198 96.3963 139.396 92.4893C139.082 91.0242 138.14 89.594 136.989 88.7219C135.733 87.7103 133.571 86.8033 131.722 87.0475Z" fill="#2D2D2D"/>
<path d="M43.9553 141.535C40.2925 141.396 36.4903 142.128 33.6647 144.605C29.8973 147.884 27.6299 153.57 30.0717 158.21C32.1647 162.151 39.56 163.791 39.7344 153.291C39.7693 150.779 41.0251 147.012 44.0251 144.082C45.4204 142.756 45.9437 141.605 43.9553 141.535Z" fill="#2D2D2D"/>
<path d="M69.2108 24.5365C70.7806 22.7923 72.3154 21.083 74.1642 19.583C77.234 17.0714 80.7921 15.5714 84.1409 13.5133C87.5944 11.3505 87.2804 7.72266 83.8967 5.69942C79.9898 3.36223 75.0712 6.50173 72.734 9.57147C69.8038 13.4086 67.6061 18.3272 66.8387 23.2457C66.3852 26.4899 66.6294 27.4318 69.2108 24.5365Z" fill="#2D2D2D"/>
<path d="M62.932 9.53658C63.6645 10.4784 64.2576 11.3854 64.7808 12.3273C65.5134 13.6877 66.2111 18.0133 67.7459 12.6761C68.5134 9.99007 68.897 5.94359 68.2343 3.08315C66.9785 -2.28889 58.8158 -0.0912625 60.6297 5.4552C61.0483 6.74588 61.8506 8.14125 62.932 9.53658Z" fill="#2D2D2D"/>
<path d="M37.9204 135.989C36.525 135.501 34.8506 135.71 33.839 136.791C33.0018 137.663 32.3739 139.721 33.6646 140.524C34.0134 140.873 34.5715 141.082 35.2692 141.047C35.8622 141.012 36.4902 140.803 37.0483 140.559C37.9901 140.175 38.932 139.896 39.9087 139.756C42.211 139.442 41.4087 138.71 40.5715 137.803C39.8041 137.035 39.0715 136.408 37.9204 135.989Z" fill="#2D2D2D"/>
</svg>
