<svg width="40" height="60" viewBox="0 0 40 60" fill="none" xmlns="http://www.w3.org/2000/svg">
<path d="M33.6912 0.0259706C33.5303 0.104724 33.4901 1.24666 33.651 1.6798C33.7314 1.91606 33.6912 2.23108 33.5705 3.09737C33.1684 5.45997 32.9272 7.31068 32.6457 9.39765C32.3642 11.6421 32.2033 12.4297 31.9219 12.784C31.8414 12.9022 31.8012 13.0597 31.8414 13.0991C31.8817 13.1778 31.8414 13.2566 31.8012 13.3353C31.761 13.4141 31.6806 13.5716 31.6404 13.6897C31.2785 14.871 30.997 15.7373 30.6351 16.958C30.3938 17.7455 30.0319 18.8481 29.8711 19.4387C29.5092 20.7775 28.9864 22.1951 28.7049 22.5889C28.5441 22.8251 28.4235 22.9039 28.142 22.9039C27.9007 22.9039 27.7399 22.9826 27.7399 23.0614C27.7399 23.1402 27.7801 23.2189 27.8203 23.2189C27.8605 23.2189 28.1018 23.3764 28.3028 23.6127C28.8256 24.1639 29.2679 24.3608 30.233 24.4396C30.7155 24.479 31.1578 24.5577 31.1981 24.5971C31.2383 24.6365 31.2383 25.5421 31.1981 26.6053C31.1578 27.6685 31.1578 28.6135 31.1981 28.6923C31.2383 28.771 31.1981 29.7554 31.1578 30.858C31.0774 32.3937 31.1176 32.945 31.1981 33.0631C31.2785 33.1812 31.3187 33.3781 31.2383 33.6931C31.0774 34.3625 31.0774 34.6775 31.1176 35.3469C31.2383 36.7645 31.2383 37.6308 31.1578 37.7489C31.0774 37.8277 31.0774 37.9852 31.1176 38.2608C31.1578 38.4577 31.1981 39.1271 31.1981 39.7571C31.1981 40.3872 31.1981 41.1353 31.2383 41.4897C31.2785 42.041 31.2383 42.1198 31.1176 42.1198C30.8764 42.1198 30.9166 42.356 31.1176 42.6316C31.2383 42.7892 31.3187 42.9861 31.2785 43.3404C31.2785 43.6161 31.2785 43.9311 31.2785 44.0886C31.2785 44.2461 31.3187 45.2305 31.3187 46.2937C31.3187 47.79 31.3187 48.2625 31.1981 48.3413C31.1176 48.3807 31.0774 48.5776 31.1176 49.0501C31.1578 49.4045 31.1578 50.0739 31.1578 50.507C31.1578 50.9401 31.1578 51.3339 31.2383 51.3339C31.2785 51.3733 31.3187 51.5308 31.3187 51.7277C31.3187 51.9246 31.3991 52.2396 31.4795 52.4758C31.6002 52.7121 31.6806 53.1059 31.6404 53.4603C31.6404 54.0509 31.6404 54.0509 31.3589 54.0115C31.1176 53.9722 31.0774 54.0116 31.1578 54.1691C31.1981 54.2872 31.2785 54.6809 31.2785 55.1141L31.3187 55.8623L30.7557 55.9016C30.434 55.9016 29.5896 55.9804 28.8658 55.9804C27.6997 56.0198 27.4584 56.0198 27.2171 55.9016C27.0563 55.8229 26.8954 55.7835 26.8552 55.8229C26.6944 55.9804 26.4933 56.7285 26.5335 57.0436C26.6542 57.9492 26.8954 58.9336 27.0563 59.2486C27.1769 59.4455 27.2573 59.6818 27.2573 59.7605C27.2573 59.9968 27.4986 60.0756 27.8605 59.9181C28.0213 59.8393 28.3028 59.7999 28.4235 59.7999C28.7049 59.8393 29.469 59.6424 29.5896 59.4455C29.7102 59.3274 29.9515 59.3274 31.1578 59.4455C31.9219 59.5243 32.6859 59.5637 32.8467 59.5243C33.0076 59.4849 33.651 59.5243 34.2943 59.6424C34.9377 59.7212 35.6213 59.7999 35.7822 59.7605C35.943 59.7212 36.1843 59.7606 36.3451 59.7999C36.506 59.8393 36.7472 59.8787 36.9081 59.8393C37.0689 59.7999 37.4711 59.7999 37.833 59.8393C39.2001 59.9968 39.6425 60.0362 39.8033 59.9181C39.9642 59.7606 40.0848 58.4217 39.924 58.3036C39.8837 58.2642 39.7229 58.028 39.6023 57.7523C39.3208 57.1223 38.9589 56.6104 38.6372 56.2954C38.4361 56.0985 38.2753 56.0591 37.7525 56.0197C37.3504 55.9804 37.0689 55.941 37.0287 55.8623C36.9885 55.7835 36.9885 55.4291 37.0287 55.0353C37.0689 54.6022 37.0287 54.2478 36.9483 54.1297C36.8679 54.0115 36.8277 53.7753 36.8679 53.5784C36.9885 52.6334 36.9885 52.2396 36.9483 51.0976C36.9483 50.3889 36.9081 49.7589 36.8679 49.6801C36.8277 49.562 36.7875 49.3651 36.7875 47.3962C36.7875 44.8368 36.707 43.6555 36.6266 43.5373C36.5864 43.4586 36.5864 43.2617 36.6266 43.1042C36.6668 42.9073 36.6668 42.7498 36.5864 42.671C36.506 42.5923 36.506 42.5135 36.6266 42.2379C36.707 42.0016 36.7472 41.7654 36.707 41.4897C36.6266 41.0566 36.707 40.3084 36.8277 40.1903C36.9483 40.0722 36.9081 39.0877 36.7875 38.9696C36.707 38.9302 36.7472 38.8121 36.8679 38.694C37.0287 38.5365 37.0287 38.4577 36.9885 38.379C36.8277 38.1821 36.8277 37.0795 36.9885 36.8826C37.0689 36.7645 37.0689 36.6464 36.9483 36.3708C36.8277 36.1345 36.8277 36.0163 36.9081 35.9376C36.9885 35.8588 37.0287 35.2682 37.0287 34.3232C37.0287 33.4962 37.0689 32.63 37.1091 32.3543C37.1896 31.7243 37.2298 30.3461 37.2298 29.9129C37.2298 29.7161 37.27 29.5192 37.3102 29.4404C37.3504 29.3617 37.3504 29.2042 37.3102 29.0467C37.2298 28.8498 37.27 28.7316 37.3504 28.6529C37.4308 28.5741 37.4711 27.9047 37.5515 26.684C37.5917 25.6602 37.6721 24.8333 37.7123 24.794C37.7525 24.7546 37.7525 24.5577 37.7123 24.3608C37.6721 24.1639 37.6319 23.8095 37.6721 23.5339C37.7123 23.0614 37.6721 22.5101 37.5515 22.3526C37.5113 22.2738 37.5515 22.1951 37.5917 22.1163C37.6721 22.0376 37.7123 21.5651 37.7123 20.9744C37.7123 20.4231 37.7927 19.9506 37.833 19.99C37.8732 20.0294 37.9134 19.9113 37.9536 19.7144C37.9938 19.045 38.1949 17.4305 38.2351 17.3518C38.2753 17.3124 38.3155 16.6824 38.3155 15.9736C38.3155 15.2648 38.3959 14.3197 38.4763 13.926C38.5568 13.5322 38.5568 13.1778 38.5166 13.1384C38.4763 13.0991 38.4763 13.0203 38.5166 12.9809C38.5568 12.9022 38.597 12.5478 38.6372 12.154C38.6372 11.6815 38.7176 11.3271 38.8382 11.1302C38.9187 10.9333 38.9991 10.7758 38.9589 10.6971C38.8785 10.579 38.9991 8.76762 39.1197 7.74382C39.2806 6.72003 39.2806 6.6019 39.2806 5.02683C39.2806 4.31804 39.2404 3.72739 39.2002 3.64864C39.1599 3.60926 39.1197 3.25487 39.0795 2.90048C39.0393 2.11295 38.7176 1.52229 38.1547 1.08915C37.9134 0.931641 37.6319 0.656004 37.5515 0.498497C37.4308 0.301613 37.27 0.222862 36.9081 0.144108C35.9832 0.0653545 33.852 -0.052783 33.6912 0.0259706Z" fill="#EC8132"/>
<path d="M11.3687 58.2383C11.5295 58.1595 11.6904 58.1201 11.6904 58.1595C11.7306 58.1989 11.811 58.1595 11.8914 58.0808C11.9719 58.002 12.0925 58.002 12.1327 58.0414C12.1729 58.0808 12.2534 58.0414 12.3338 58.002C12.4142 57.9626 12.6153 57.9233 12.7761 57.9626C13.0174 58.002 13.0978 58.002 13.2988 57.8051C13.4195 57.6476 13.6205 57.5689 13.7814 57.5689C14.1031 57.5689 14.5856 57.057 15.3496 55.8757C15.4301 55.7575 15.5507 55.6394 15.5909 55.6394C15.7115 55.6394 16.3951 55.0881 16.3951 54.97C16.3951 54.9306 16.4756 54.8518 16.5962 54.7731C16.757 54.6943 16.7973 54.6156 16.7973 54.3793C16.757 54.1824 16.7973 54.0643 16.9581 53.9856C17.0787 53.9068 17.1592 53.7887 17.1592 53.7099C17.1592 53.5918 17.2798 53.3949 17.4406 53.198C17.6015 53.0011 17.7221 52.7649 17.7221 52.6468C17.7221 52.5286 17.8026 52.4105 17.8428 52.3711C17.9232 52.3317 17.9634 52.253 17.9634 52.1742C17.9634 52.0955 18.084 51.8986 18.2047 51.7805C18.3253 51.623 18.4459 51.4261 18.4459 51.2686C18.4459 51.1111 18.5264 50.9536 18.5666 50.9142C18.647 50.8748 18.6872 50.5598 18.7274 50.2842C18.7676 49.9691 18.8078 49.6935 18.8883 49.6147C18.9285 49.536 19.0089 49.3391 19.0089 49.1816C19.0089 49.0241 19.0491 48.8272 19.1295 48.7485C19.2099 48.6697 19.2502 48.4334 19.2904 48.1972C19.3306 47.9609 19.3708 47.5672 19.4512 47.3309C19.4914 47.0553 19.4914 46.819 19.411 46.7402C19.3306 46.6221 19.3306 46.5827 19.4512 46.504C19.6121 46.4252 19.6121 46.3465 19.5316 46.0315C19.4914 45.7165 19.4914 45.5589 19.6523 45.3227C19.7729 45.1258 19.8131 44.9289 19.7327 44.8502C19.6925 44.7714 19.6925 44.5351 19.7729 44.3382C19.8533 44.1414 19.8936 43.8264 19.8533 43.6295C19.8131 43.4326 19.8533 43.2751 19.8935 43.2751C19.9338 43.2751 20.0142 43.157 20.0142 42.9995C20.0142 42.8419 20.0544 42.6844 20.0946 42.6057C20.1348 42.5663 20.1348 42.4482 20.0946 42.3694C20.0544 42.2907 20.0544 42.1332 20.0946 42.0544C20.175 41.9756 20.175 41.7788 20.1348 41.5425C20.0544 41.2669 20.0946 41.1881 20.2152 41.1094C20.3359 41.0306 20.3761 40.9125 20.3359 40.7156C20.2554 40.2431 20.3761 38.1167 20.5369 37.8411C20.6576 37.5654 20.6978 36.4235 20.5369 35.8329C20.4967 35.636 20.4967 35.321 20.5369 35.1241C20.5771 34.9272 20.5771 34.6516 20.4967 34.5334C20.4163 34.3759 20.4163 34.2578 20.4967 34.179C20.5771 34.1003 20.5771 34.0215 20.5369 33.9822C20.4565 33.9034 20.4967 32.4465 20.5771 30.7926C20.5771 30.3989 20.5771 29.6113 20.5369 29.0994C20.4967 28.5876 20.4565 27.4062 20.4967 26.4612C20.5369 24.7286 20.5369 24.4136 20.4163 24.1774C20.3761 24.0986 20.3761 23.7442 20.4163 23.4292C20.4565 23.0748 20.4565 22.7598 20.4163 22.681C20.3761 22.6023 20.3761 22.1297 20.3761 21.5785C20.3761 21.0272 20.3761 20.5153 20.3359 20.3972C20.2956 20.279 20.2554 19.9247 20.2957 19.5703C20.3359 19.2552 20.2957 18.9008 20.2555 18.8221C20.2152 18.7433 20.175 18.5858 20.2152 18.5071C20.2554 18.389 20.2152 18.0739 20.175 17.7589C20.0946 17.4439 20.0946 16.8533 20.0946 16.4201C20.1348 15.987 20.0946 15.5144 20.0544 15.3569C19.9338 15.0025 19.8935 14.4119 19.9337 13.9788C19.9337 13.8212 19.8935 13.585 19.8131 13.4275C19.7327 13.3094 19.6925 13.1518 19.6925 13.0731C19.6925 12.9943 19.6925 12.8762 19.6523 12.7581C19.6121 12.6793 19.6523 12.4824 19.7327 12.3643C19.8131 12.2462 19.8533 12.128 19.8131 12.0493C19.7729 12.0099 19.7327 11.5768 19.6925 11.1043C19.6523 10.6317 19.5316 9.92295 19.411 9.4898C19.2904 9.05666 19.1697 8.66288 19.1697 8.58413C19.1697 8.50537 19.0893 8.26912 18.9285 8.11161C18.8078 7.91473 18.6872 7.71784 18.7274 7.67847C18.7274 7.44221 18.2449 6.49716 18.0438 6.45778C17.883 6.41841 17.8428 6.30028 17.883 6.06402C17.883 5.78838 17.8026 5.63087 17.4406 5.27648C17.1994 5.04022 16.9581 4.80397 16.9179 4.80397C16.757 4.76459 16.4354 4.60708 16.2343 4.4102C16.1137 4.29207 15.9528 4.17394 15.8322 4.17394C15.7116 4.13456 15.5507 4.09518 15.4703 4.01643C15.3094 3.85892 14.1031 3.07138 13.7814 2.91387C13.6608 2.83512 13.2989 2.71699 13.0174 2.67761C12.7359 2.59886 12.1327 2.44135 11.6904 2.28384C9.72002 1.61444 9.39834 1.53568 8.71474 1.49631L7.99094 1.45694L6.94543 2.08696C4.57295 3.46515 3.52746 4.29206 2.9645 5.2371C2.76344 5.59149 2.28089 6.6153 1.91899 7.52096C0.953911 9.92295 0.672435 11.4586 0.390954 16.1445C0.189897 19.4521 -0.0915936 28.0756 0.0290409 28.2725C0.0692525 28.3119 0.0692525 29.4144 0.0290409 30.7533C0.0290409 32.0921 0.0290409 33.7853 0.0290409 34.5334C0.0290409 35.2816 0.0692672 36.5416 0.0692672 37.3292C0.0692672 38.8255 0.350733 45.9527 0.431156 46.5827C0.511579 47.2915 1.03433 49.9298 1.11476 50.1266C1.15497 50.2054 1.19518 50.4023 1.19518 50.481C1.15497 50.9142 2.52217 54.2218 3.16556 55.285C3.6481 56.0725 4.53274 57.0176 5.01528 57.2538C6.22163 57.8445 6.42269 57.8839 7.91051 58.0808C10.6449 58.317 11.047 58.3564 11.3687 58.2383ZM10.3634 55.1275C10.2026 55.0487 10.0015 54.8125 9.92109 54.655C9.84067 54.4975 9.6396 54.2218 9.47875 54.0643C9.3179 53.9068 9.19729 53.7493 9.19729 53.6705C9.19729 53.5918 9.11686 53.4343 8.99623 53.2768C8.8756 53.1193 8.79516 52.9224 8.83537 52.8043C8.83537 52.6861 8.75494 52.5286 8.67452 52.4892C8.55388 52.4105 8.51368 52.3711 8.63432 52.253C8.75495 52.1742 8.71475 52.0561 8.59411 51.7805C8.31263 51.1504 8.11157 50.4023 8.11157 49.9691C8.11157 49.7329 8.07136 49.2997 7.99094 48.9847C7.91052 48.6697 7.83009 48.3547 7.83009 48.2759C7.83009 48.1972 7.78987 48.0397 7.74966 48.0003C7.70945 47.9216 7.66924 47.6065 7.70946 47.2915C7.74967 46.9765 7.70944 46.6615 7.66923 46.6221C7.62902 46.5827 7.58881 46.2283 7.5486 45.9133C7.5486 45.5589 7.46818 45.2439 7.34754 45.0864C7.22691 44.9289 7.22692 44.8502 7.30734 44.8502C7.46819 44.8108 7.54861 43.472 7.42797 43.3538C7.30734 43.2751 7.30733 42.7238 7.46817 42.6451C7.58881 42.5663 7.62903 41.7788 7.5084 41.6213C7.46819 41.5819 7.42796 41.1093 7.46817 40.5975C7.46817 40.0856 7.42797 39.5737 7.34754 39.4555C7.22691 39.2587 7.22692 39.1799 7.38777 38.8255C7.5084 38.5499 7.54861 38.1955 7.5084 37.5655C7.46819 36.0298 7.46818 35.9116 7.5486 35.3603C7.58881 35.0453 7.62902 34.5334 7.5486 34.1397C7.50839 33.7853 7.50839 32.6434 7.5486 31.6589C7.58881 30.6745 7.62904 29.4932 7.58883 29.0601C7.54861 28.6269 7.5486 27.7606 7.5486 27.0912C7.5486 26.4218 7.5486 25.5949 7.5486 25.2799C7.5486 24.9649 7.58882 24.6892 7.62903 24.6499C7.70945 24.6105 7.74967 23.2717 7.70946 21.8147C7.70946 21.3816 7.70945 20.7516 7.74966 20.4366C7.83008 19.7672 7.8301 19.4521 7.99094 15.987C8.11158 13.27 8.19199 12.3249 8.51369 11.1436C8.59411 10.7892 8.67452 10.3167 8.67452 10.1198C8.67452 9.92295 8.71475 9.72606 8.79517 9.68669C8.83538 9.64731 8.9158 9.56855 8.9158 9.4898C8.9158 9.17479 10.1624 6.96968 10.3232 7.00906C10.4036 7.00906 10.6047 6.85155 10.8057 6.61529C11.0068 6.37903 11.2481 6.22152 11.2883 6.2609C11.4089 6.2609 11.7306 6.69405 11.9317 7.16657C12.4544 8.26912 12.937 10.7105 13.2184 13.7819C13.2989 14.53 13.3793 15.4751 13.4195 15.8688C13.4597 16.2626 13.4999 16.8926 13.5401 17.2864C13.5803 17.6802 13.6206 18.1527 13.6206 18.3102C13.701 19.019 13.7412 20.5547 13.8216 22.9567C13.8618 24.3742 13.9422 26.0674 13.9824 26.8156C14.0227 27.5637 14.0629 28.5875 14.0629 29.1388C14.0629 29.6901 14.1031 30.5958 14.1031 31.1864C14.1433 31.7377 14.1433 32.4859 14.1031 32.8402C14.0629 33.1946 14.1031 33.5884 14.1433 33.7065C14.465 34.6909 13.8618 45.047 13.2586 48.7878C13.1782 49.2604 12.6957 51.1111 12.5348 51.623C12.4142 52.0167 11.4089 54.1431 11.047 54.8519C10.8057 55.3244 10.8057 55.3638 10.3634 55.1275Z" fill="#EC8132"/>
</svg>
