<svg width="64" height="64" viewBox="0 0 64 64" fill="none" xmlns="http://www.w3.org/2000/svg">
<path fill-rule="evenodd" clip-rule="evenodd" d="M51.9383 23.9184C51.9383 23.7269 51.6838 23.6631 51.6201 23.8546C51.5565 24.1099 51.9383 39.0457 52.5747 37.8968L51.9383 27.3013C51.9383 26.2162 51.9383 25.0673 51.9383 23.9184ZM53.7838 33.5565C53.8474 34.9607 54.0383 36.8755 54.1656 37.7053C54.2293 38.1521 54.3565 37.7691 54.3565 37.6415C54.2293 33.748 53.5929 23.6631 53.402 23.5993C52.5747 23.344 53.7202 31.4501 53.7838 33.5565ZM21.7743 31.8969C21.7107 32.0246 21.8379 33.5565 21.8379 33.6841C22.1561 42.4924 22.1561 47.2795 22.6652 45.9391C22.7925 45.5562 22.1561 35.7266 22.0925 31.9608C22.0925 31.7693 21.8379 31.7055 21.7743 31.8969ZM20.3743 32.0884C20.1197 32.1522 20.0561 44.3434 20.1834 46.1944C20.1834 46.3221 20.1834 46.4497 20.247 46.4497C20.3106 46.4497 20.3106 46.3859 20.3106 46.2583C20.4379 45.3647 20.4379 41.3435 20.5652 32.3437C20.6288 32.2161 20.5016 32.0884 20.3743 32.0884ZM29.9835 29.9821C29.9835 29.7268 29.6653 29.7906 29.6653 29.9183C29.6653 30.1736 30.6835 43.769 30.8108 44.0881C31.5108 45.9391 29.9835 30.8119 29.9835 30.8119C29.9835 30.5565 29.9835 30.3012 29.9835 29.9821ZM28.3926 30.3012L28.7744 42.8115C28.7744 43.6413 28.6471 45.1732 29.0926 44.6626C29.2199 44.4711 28.9653 30.8757 28.7108 30.2374C28.6471 30.0459 28.3926 30.1097 28.3926 30.3012ZM46.0837 25.7056C46.0837 25.5141 45.7655 25.5141 45.7655 25.7056C45.7655 25.8971 46.5928 38.5989 46.5928 38.5989C46.5928 38.7266 46.6564 39.4287 46.7201 39.5563C46.7837 39.684 46.9746 39.684 47.0383 39.5563C47.0383 39.4925 46.7837 37.7053 46.7837 37.3223C46.5292 32.6629 46.8474 33.3011 46.0837 25.7056ZM44.3655 25.5141C44.2382 25.578 44.3019 25.6418 44.3655 25.7694C44.5564 27.1737 44.811 38.4712 44.9382 39.7478C44.9382 40.0031 45.3201 40.0031 45.2564 39.4925C45.1291 37.833 44.9382 27.429 44.4928 25.7694C44.4928 25.5141 44.4291 25.4503 44.3655 25.5141ZM63.9657 46.7689C63.5839 44.7902 63.7112 43.8966 63.393 43.6413C62.0566 42.8754 61.1657 42.6201 61.1657 42.2371C61.1021 40.1308 61.6112 40.0031 60.7203 39.684C58.1111 38.6627 55.8202 37.5138 55.8202 37.2585C55.6293 32.7267 55.502 27.6843 55.502 27.6843C55.1838 23.2163 54.4202 22.0674 55.4384 21.4929C56.202 21.0461 56.2656 19.9611 55.5656 19.3866C55.4384 19.3228 55.1838 19.1313 55.0565 19.0036C54.802 18.8122 55.502 18.3654 55.6929 18.1739C56.902 18.6845 56.902 18.5568 57.2838 18.2377C57.4748 18.0462 57.4748 17.9186 57.2202 17.7909C52.3838 15.5569 41.3109 8.85497 33.5472 6.94013C27.6289 5.47208 22.1561 3.62106 21.5198 4.06786C14.0106 9.55708 3.63771 19.7696 4.01953 20.344C4.52863 21.1738 4.71954 21.4291 5.22864 22.5142C5.61046 23.2801 5.10136 33.1097 5.10136 33.365C5.10136 38.3436 5.48319 39.301 4.91045 39.4925C-0.625983 41.4712 0.137665 40.4499 0.0103903 43.5136C0.0103903 43.769 -0.116887 47.1519 0.519485 47.471C0.519485 47.471 5.10136 51.6837 13.4378 57.8112C17.8924 61.1302 15.0924 60.109 20.5016 58.4494C27.438 56.2793 56.5202 48.4923 63.6476 47.2157C63.8385 47.1519 64.093 47.1519 63.9657 46.7689ZM38.3836 30.365C41.5655 30.5565 41.12 33.8756 41.3109 40.3861C41.3109 40.8329 40.8018 40.8329 38.8927 41.4712C38.4472 41.6626 38.5745 41.3435 38.32 38.5989C37.6836 30.5565 37.7472 30.3012 38.3836 30.365ZM38.32 41.0244C38.3836 41.7903 36.92 41.9818 35.7745 42.2371C35.3927 42.3009 34.8836 42.3647 34.8199 41.9179C34.629 41.0244 34.6926 40.0669 34.3745 37.3861C34.3108 36.7479 34.1199 34.833 34.8199 33.1097C35.7745 30.748 37.4927 30.3012 37.5563 30.8119C38.0018 37.1947 38.2563 38.7904 38.32 41.0244ZM34.2472 33.8118C34.1199 34.2586 33.9926 35.5351 33.9926 35.599C34.4381 42.5562 34.5654 42.4924 34.1836 42.5562C32.3381 43.0669 32.6563 43.2583 32.3381 39.1733C31.129 25.195 31.1926 29.1523 32.8472 26.9822C33.7381 25.8333 31.6381 25.1311 31.7653 24.7482C31.7653 24.6205 41.8836 22.2589 41.7564 22.5142C41.5018 22.961 41.3109 23.2801 41.2473 23.5354C40.9927 24.429 41.5655 25.0035 42.4564 25.195C43.0291 25.2588 42.7109 25.2588 43.0291 28.897C44.0473 41.7903 43.6655 40.0031 42.3291 40.5137C41.4382 40.8329 41.9473 39.2372 41.5655 33.4926C41.0564 28.6417 35.6472 28.4502 34.2472 33.8118ZM24.2562 46.5136C24.1925 45.7476 25.7198 47.5348 24.0652 47.9816C22.347 48.4284 18.147 49.705 17.7015 47.7263C17.6379 47.5348 17.9561 46.8327 18.2106 46.9604C18.2743 46.9604 18.2743 47.0242 18.2743 47.0242C18.147 47.6625 18.6561 47.5987 18.9743 47.7901C20.5016 48.4284 22.8561 47.471 24.0016 47.1519C24.3198 46.9604 24.2562 46.7051 24.2562 46.5136ZM16.6833 37.067C16.8106 27.9396 16.6833 28.897 17.3833 28.4502C17.5106 28.3864 17.7015 28.514 17.5742 28.7055C17.1924 29.3438 17.2561 29.9821 17.5742 30.6204C17.7652 30.9395 18.7197 31.131 18.7197 31.514C18.5924 37.6415 18.4652 41.152 18.4015 43.1945C18.2743 46.1944 18.2743 46.0668 18.0833 46.1944C16.4924 46.8965 16.4288 46.7689 16.4288 46.4497C16.4924 42.4924 16.6833 39.4286 16.6833 37.067ZM16.3651 37.067C16.2379 41.6626 16.1106 46.5136 15.9197 46.3221C9.04687 41.4073 6.69229 40.2584 5.92864 39.4925C5.41955 38.9819 5.48319 36.5564 5.54682 33.1097C5.61046 30.3651 5.61046 26.8545 5.73774 23.1525C5.80137 22.0036 13.1196 27.1098 16.3651 29.2161C16.5561 29.4715 16.4288 33.1735 16.3651 37.067ZM23.4925 41.4073C23.6198 46.5136 24.3834 46.7689 22.8561 47.088C21.7743 47.3433 20.6925 47.5987 19.4834 47.3433C18.4015 47.1519 18.4015 46.8327 18.7834 37.45C19.1652 27.8119 19.2288 32.4075 20.3743 30.0459C20.4379 29.9182 20.6288 29.7906 20.7561 29.7906C22.2834 29.4076 21.9652 30.0459 22.7925 29.9821C23.1107 29.9821 23.1743 30.1097 23.1743 30.365C23.1743 30.748 23.1743 31.131 23.1743 31.5778C23.238 31.5778 23.4925 41.4073 23.4925 41.4073ZM22.2198 29.0247C22.2198 28.9608 22.4107 28.7693 22.538 28.7693C23.238 28.5779 23.4925 29.0885 23.4925 28.7693C23.4925 28.3864 22.9834 28.1949 22.538 28.3226C22.2198 28.3864 21.9652 28.6417 21.8379 29.0247C21.7743 29.0885 21.647 29.4076 21.2016 29.5353C20.5016 29.6629 20.6288 29.1523 20.247 28.9608C19.3561 28.514 18.7197 29.2161 18.7197 29.7906C18.7197 29.7906 18.7834 30.0459 18.847 29.9183C19.0379 29.5353 19.7379 28.7694 20.0561 29.5991C20.247 30.0459 19.9925 30.4927 19.547 30.6204C17.9561 31.0672 17.8924 29.7906 17.8288 29.5353C17.447 28.3226 22.347 26.0886 24.0016 27.9396C25.1471 29.3438 22.6016 30.2374 22.2198 29.0247ZM23.7471 37.3861C23.4289 28.1311 23.047 31.0672 24.5743 28.9608C25.338 27.9396 23.3652 27.1098 23.3652 26.8545C23.3652 26.7907 26.038 25.8971 25.7834 26.2162C25.5925 26.4715 25.0198 27.046 25.2107 27.8758C25.4016 28.5779 26.038 28.7694 26.6107 29.0247C26.738 29.0885 26.8653 29.2162 26.8653 29.28C26.9289 35.2798 26.8016 38.7265 27.2471 43.8966C27.2471 44.1519 27.1835 44.1519 26.9289 44.2158C22.9834 45.3647 24.0652 46.8327 23.7471 37.3861ZM30.6199 26.2162C29.6653 26.4077 30.3017 27.3651 29.2835 27.3013C28.9017 27.3013 28.4562 27.6204 27.8835 26.9822C27.1198 26.1524 26.2289 27.4928 26.5471 27.6843C26.6744 27.7481 26.8016 27.6204 26.8653 27.5566C27.1198 27.1098 27.3744 27.046 27.6926 27.3651C28.2653 27.8119 27.5016 28.9608 26.3562 28.3864C25.9744 28.1949 25.5289 28.0034 25.5925 27.4928C25.7198 25.5779 29.2199 25.195 29.9835 25.0673C30.8108 24.8758 31.6381 25.1311 32.2108 25.7694C33.4199 27.046 31.129 28.4502 30.3017 26.9183C30.3017 26.8545 30.429 26.663 30.4926 26.663C30.7471 26.663 31.0017 26.7269 31.1926 26.7269C31.8926 26.9183 31.2562 26.0886 30.6199 26.2162ZM27.2471 45.6838C28.138 47.5348 32.5926 45.62 32.9108 45.1094C33.229 44.5349 33.6108 46.1306 32.6563 46.4497C28.9653 47.7263 26.6744 47.088 26.738 46.0029C26.738 45.7476 27.1198 45.4285 27.2471 45.6838ZM32.1472 45.1732C31.0017 45.6838 29.8562 46.003 28.5835 45.9391C27.6926 45.9391 27.6289 45.62 27.6289 44.7264C27.3744 44.7264 26.9289 30.748 27.2471 29.0885C27.3107 28.897 27.6926 28.7694 27.7562 28.5779C28.4562 27.3013 31.0653 27.6843 31.0653 28.2587C32.4017 46.4497 32.7199 44.9179 32.1472 45.1732ZM48.0564 40.8967C46.0837 41.5988 46.6564 41.5988 44.0473 41.4712C43.5382 41.4712 44.1109 38.918 43.1564 26.9183C43.0291 25.2588 43.0291 25.1312 43.4109 24.8758C43.7928 24.6205 44.111 24.3652 44.1746 23.8546C44.3019 23.0886 47.0383 23.4716 47.0383 23.9822C47.1655 25.1311 47.2292 26.3439 47.2928 27.4928C47.0383 27.6204 48.6928 40.7052 48.0564 40.8967ZM46.4019 22.4504C46.5928 22.4504 46.911 22.7695 47.1019 22.7057C47.4837 22.578 47.1019 21.8121 46.5292 22.0674C45.511 22.5142 45.7655 23.0248 45.1291 23.1525C44.1746 23.344 44.1746 23.4078 43.8564 23.1525C43.5382 22.8972 43.22 22.8333 42.8382 23.0248C42.0109 23.4716 42.3291 24.7482 42.9655 23.5354C43.1564 23.2163 44.1746 24.0461 43.5382 24.4929C42.0746 25.6418 38.5109 22.8972 45.7019 21.4291C48.2474 20.9185 48.2474 23.0248 47.611 23.2801C46.1473 23.8546 45.511 22.6418 46.4019 22.4504ZM43.4109 41.3435C43.3473 41.7903 43.6019 41.9818 43.9837 42.0456C45.7019 42.1733 47.3564 42.1094 48.6292 40.9605C48.7565 40.8329 48.8837 40.8329 49.011 41.0244C49.711 42.3647 43.4746 44.0881 42.7109 42.1094C42.3927 41.3435 43.4746 40.8967 43.4109 41.3435ZM47.4201 24.1099C47.4201 23.5354 49.3928 22.7057 47.8019 21.11C47.5474 20.8547 47.5474 20.9185 49.2019 20.4717C49.3292 20.4079 49.3928 20.5993 49.3292 20.6632C48.9474 21.1738 48.8201 21.6844 49.1383 22.0674C50.5383 23.8546 50.411 20.1525 50.6656 35.9181C50.7292 38.9819 51.2383 38.4074 48.6928 39.1733C48.3746 39.2372 47.4201 24.3652 47.4201 24.1099ZM55.6929 39.3648C55.6929 39.4925 55.5656 39.7478 55.4384 39.7478C54.4838 40.0669 51.1747 40.3861 51.111 39.6201C51.111 38.918 51.0474 37.7691 50.9838 37.067C50.9201 36.3649 50.1565 23.2163 50.8565 22.8972C51.7474 22.5142 51.811 20.9185 53.5293 21.4929C55.3111 22.1312 54.6111 20.5993 55.6929 39.3648ZM55.8202 40.0031C56.0747 39.8754 56.202 38.8542 56.4566 39.6201C56.902 41.3435 53.0838 41.535 51.2383 41.2158C50.0292 41.0243 50.411 39.684 50.7292 39.8116C50.9838 39.9393 50.6019 40.4499 51.3656 40.5137C52.2565 40.5776 53.2111 40.6414 54.102 40.5775C54.6747 40.5137 55.2475 40.2584 55.8202 40.0031ZM55.3111 19.7696C55.9475 20.1526 55.6929 20.9185 55.1202 21.1738C53.5929 21.8759 53.5929 20.4079 53.8474 20.344C54.1656 20.2802 54.7384 20.6632 54.7384 20.2802C54.7384 20.0887 54.1656 19.8334 53.9747 19.8972C52.9565 20.1525 53.0202 20.9185 52.9565 20.9823C51.6838 21.4929 51.4292 21.3015 51.2383 21.0462C51.111 20.9185 50.6656 20.8547 50.4747 20.9823C50.1565 21.1738 49.7747 22.0036 50.0292 21.8759C50.1565 21.8121 50.3474 21.7483 50.3474 21.6844C50.9838 20.5355 51.8747 22.578 50.8565 22.578C49.3292 22.5142 48.8201 20.7908 50.6656 20.0887C54.2929 18.876 54.1656 19.0675 55.3111 19.7696ZM54.7384 18.4292C45.7655 21.5568 27.6926 24.812 17.6379 28.0034C17.3833 28.0672 17.8924 27.5566 18.0197 27.3013C18.2106 27.1098 18.4015 27.2375 18.5924 27.2375C18.9743 27.1736 19.2925 27.046 19.6743 26.9822C30.9381 23.4716 46.1473 20.4079 54.4838 17.7271C54.802 17.8547 55.0565 17.9824 55.3111 18.0462C55.2475 18.11 54.8656 18.3654 54.7384 18.4292ZM23.938 21.4291C27.8198 17.8547 35.5836 11.4081 36.4109 10.3868C36.729 10.0039 36.8563 9.74856 37.1109 9.74856C37.7472 9.74856 39.4018 11.089 47.6746 14.5995C50.9838 16.0037 53.0838 16.9611 54.4202 17.5356L21.3288 25.9609C19.6106 26.4715 15.9197 28.8332 23.938 21.4291ZM52.7656 15.7484C54.9929 16.8973 56.5202 17.7909 56.3929 17.9186C56.2657 18.0462 54.7384 17.4079 51.1747 15.9399C44.8746 13.2591 41.5018 11.5358 39.5291 10.5145C38.1927 9.8124 37.5563 9.42943 36.9836 9.55708C36.6018 9.62091 36.2836 9.87621 35.8381 10.323C35.0745 11.0889 33.8017 12.4932 31.5108 14.4718C31.2562 14.6633 25.7198 19.259 23.6198 21.3653C15.4742 29.5353 16.8106 28.9608 16.047 28.4502C15.2833 27.9396 13.1833 29.0247 36.2836 8.34433C36.729 7.83371 47.1019 12.7485 52.7656 15.7484ZM21.7107 4.25934C22.0925 4.06785 30.8108 6.62099 32.5926 7.00396C35.7745 7.70607 36.1563 7.83372 36.029 7.96138C31.829 11.8549 28.4562 14.6633 26.038 16.8973C17.9561 24.3014 18.147 24.1737 15.7924 26.9183C15.3469 27.429 16.047 27.6205 4.59226 20.0887C3.70134 19.5143 17.8288 6.62098 21.7107 4.25934ZM5.03773 20.8547C5.10137 20.7908 5.73773 21.1738 5.86501 21.2376C16.6833 28.3864 17.8924 28.897 5.80137 22.4504C5.54682 22.3227 4.91045 20.9823 5.03773 20.8547ZM5.10136 39.8755C5.92865 39.7478 15.856 46.8965 16.1106 47.088C16.3015 47.2157 17.1924 46.7051 17.3833 46.8966C17.447 46.9604 17.5106 47.088 17.447 47.2157C17.1924 47.6625 17.1288 48.8114 18.6561 49.0667C20.5652 49.3858 26.9289 48.939 24.7653 46.1306C24.7016 46.003 24.3198 45.8753 24.2562 45.8115C23.938 45.5562 27.3744 44.7902 27.1198 45.0455C26.6107 45.5561 26.3562 46.0029 26.3562 46.3859C26.3562 48.6199 35.2654 47.854 33.6108 44.7264C33.2926 44.1519 32.529 44.3434 32.7835 43.6413C32.9744 43.0669 34.2472 43.386 41.5655 41.152C43.7291 40.5137 43.3473 40.8329 43.2837 40.8329C42.2018 40.9605 41.8837 42.7477 42.7746 43.1307C43.8564 43.5775 45.0019 43.7051 46.1473 43.386C47.4201 43.003 50.2838 42.5562 49.2656 40.7052C49.1383 40.5137 48.8837 40.3861 48.7565 40.1946C48.6928 40.0669 48.6928 39.7478 48.7565 39.7478C49.9656 39.2372 50.8565 38.918 50.7292 39.3648C50.6656 39.684 49.7747 40.0031 50.0928 41.0244C50.2838 41.5988 50.7929 41.7903 51.302 41.7903C53.6565 41.918 53.7838 42.1733 56.1384 41.2158C56.3929 41.0882 56.5202 40.7691 56.7747 40.5137C57.0929 40.1946 57.1566 40.2584 58.6839 40.8967C60.4657 41.5988 16.047 51.3645 15.7924 51.173C6.56502 43.5775 3.19225 41.535 3.19225 40.7052C3.19225 40.1946 3.89226 40.0669 5.10136 39.8755ZM19.3561 55.258C19.2288 55.3219 19.2288 55.3219 19.3561 55.258C18.847 55.3219 17.9561 54.6198 16.8742 53.9177C16.6833 53.79 57.9838 43.4498 58.2384 43.386C59.6384 43.0669 60.7203 43.4498 60.9112 44.0243C61.2294 44.7264 21.3925 54.6836 19.3561 55.258ZM58.6202 42.7477C56.5202 43.1945 49.9656 45.1093 42.7109 46.9604C31.4472 49.7688 18.2743 52.8964 16.5561 53.407C16.3015 53.4708 16.3015 53.5347 16.2379 52.1305C16.1742 50.9815 32.7835 47.6625 34.3108 47.3433C47.7383 44.5987 58.9384 40.8967 58.9384 41.9818C58.9384 42.0456 59.0657 42.6201 58.6202 42.7477ZM15.7288 59.0877C15.6015 59.0239 13.2469 57.1729 12.356 56.5346C12.1015 56.3431 4.08317 50.5348 0.901312 47.1519C0.519489 46.7689 0.583122 45.6838 0.519485 45.3008C0.519485 42.7477 0.455851 41.918 0.583126 41.7903C0.646763 41.7265 0.710396 41.7903 0.837671 41.9179C8.79232 49.1944 11.9742 50.8539 12.9924 51.8751C13.4378 52.3219 13.5015 52.6411 13.3742 53.2155C13.2469 53.7262 13.2469 54.173 13.3106 54.6836C13.3106 54.8751 14.5833 55.7048 16.1742 56.9176C16.2379 56.9176 16.1106 59.1515 15.7288 59.0877ZM18.4652 58.7686C17.1924 59.2154 16.4288 59.5345 16.4288 59.2154C16.6833 56.7899 16.8742 56.9176 16.1742 56.4069C12.6742 53.5985 13.756 55.1304 13.9469 52.3858C14.0106 51.6198 -0.49871 41.535 1.15586 41.0882C1.79223 40.8967 1.91951 40.6414 2.23769 40.7052C2.81043 40.8329 4.1468 42.2371 11.8469 48.4284C14.3924 50.4709 15.3469 51.2369 15.6015 51.556C15.6015 51.556 15.6015 53.4708 15.856 53.8538C16.1106 54.2368 16.747 54.4283 18.5924 55.5134C18.847 55.5772 18.7834 58.7047 18.4652 58.7686ZM54.4838 49.0029C48.6928 50.4071 40.1018 52.3858 32.2108 54.7474C31.7653 54.8751 22.9834 57.3005 19.2924 58.5133C18.9743 58.5771 19.1015 57.4282 19.1015 56.7261C19.1652 55.7687 19.2924 55.641 20.247 55.3857C31.3199 52.3858 56.902 46.0029 56.6475 46.0668C63.0748 44.4072 60.1475 44.0881 61.293 47.0242C61.4839 47.4072 58.6839 48.0455 54.4838 49.0029ZM62.1203 47.088C61.3566 47.2795 61.8021 44.1519 61.5475 43.8966C60.9112 43.2583 60.0202 43.003 59.7657 42.8115C58.9384 42.1733 60.1475 40.8329 59.1293 40.4499C57.2838 39.7478 57.3475 39.9393 56.7747 39.1095C56.6475 38.918 56.3929 38.7904 56.202 38.5989C54.9929 37.067 56.902 38.5351 60.2748 39.8755C61.0384 40.1946 60.7202 40.2584 60.6566 42.4924C60.6566 42.9392 63.0112 43.5775 63.1385 44.3434C63.5203 46.8327 63.6476 46.7051 62.1203 47.088Z" fill="#4A494E"/>
</svg>
