<svg width="60" height="60" viewBox="0 0 60 60" fill="none" xmlns="http://www.w3.org/2000/svg">
<path d="M0 0V60H60V0H0ZM32.7 46.8C32.7 52.65 29.325 55.275 24.3 55.275C19.8 55.275 17.175 52.95 15.825 50.175L20.4 47.4C21.3 48.975 22.05 50.25 24 50.25C25.875 50.25 27 49.5 27 46.725V27.525H32.7V46.8ZM45.975 55.275C40.725 55.275 37.35 52.8 35.7 49.575L40.275 46.875C41.475 48.9 43.05 50.25 45.825 50.25C48.15 50.25 49.65 49.05 49.65 47.475C49.65 45.525 48.15 44.85 45.525 43.725L44.1 43.125C40.05 41.4 37.275 39.225 37.275 34.65C37.275 30.45 40.5 27.15 45.525 27.15C49.125 27.15 51.675 28.425 53.55 31.65L49.125 34.425C48.15 32.7 47.1 32.025 45.525 32.025C43.875 32.025 42.825 33.075 42.825 34.425C42.825 36.075 43.875 36.825 46.275 37.8L47.7 38.4C52.5 40.5 55.2 42.6 55.2 47.325C55.35 52.5 51.3 55.275 45.975 55.275Z" fill="#EEEEEE"/>
</svg>
