<svg width="59" height="60" viewBox="0 0 59 60" fill="none" xmlns="http://www.w3.org/2000/svg">
<path opacity="0.8" d="M45.4554 15.2979V21.6549C45.4554 26.5826 41.317 30.7302 36.5656 30.7302H22.354C18.4609 30.7302 15.239 34.0821 15.239 38.0046V51.6344C15.239 55.5137 18.5927 57.7956 22.354 58.9088C26.8603 60.2409 31.178 60.4815 36.5671 58.9088C40.1491 57.865 43.6821 55.7634 43.6821 51.6344V46.1794H29.4659V44.36H50.794C54.9293 44.36 56.4712 41.4583 57.9089 37.1026C59.3957 32.6189 59.3313 28.3064 57.9089 22.5553C56.8866 18.414 54.9354 15.2979 50.794 15.2979H45.4539H45.4554ZM37.4622 49.815C38.9367 49.815 40.1322 51.0331 40.1322 52.5348C40.1322 54.0366 38.9367 55.2716 37.4622 55.2716C35.9877 55.2716 34.7922 54.0443 34.7922 52.5348C34.7922 51.0254 35.9923 49.815 37.4622 49.815Z" fill="#EEEEEE"/>
<path d="M29.1513 0C26.7189 0.0107928 24.3952 0.22048 22.3521 0.585892C16.3284 1.65592 15.2371 3.89619 15.2371 8.02674V13.4817H29.4671V15.3011H9.89707C5.76174 15.3011 2.14142 17.8019 1.0072 22.5585C-0.298695 28.0103 -0.372266 31.4132 1.0072 37.1056C2.0188 41.3425 4.4344 44.363 8.56972 44.363H13.4622V37.8225C13.4622 33.0984 17.524 28.9308 22.3521 28.9308H36.5652C40.5196 28.9308 43.6801 25.6544 43.6801 21.6565V8.03908C43.6801 4.15984 40.4277 1.24579 36.5652 0.598227C34.1204 0.189644 31.5838 0.0030827 29.1513 0.0123337V0ZM21.457 4.38804C22.9284 4.38804 24.127 5.61533 24.127 7.12478C24.127 8.63422 22.9269 9.84456 21.457 9.84456C19.9871 9.84456 18.7869 8.62651 18.7869 7.12478C18.7869 5.62304 19.9825 4.38804 21.457 4.38804Z" fill="#EEEEEE"/>
</svg>
