<svg width="205" height="317" viewBox="0 0 205 317" fill="none" xmlns="http://www.w3.org/2000/svg">
<path d="M190.398 141.981C188.4 139.028 185.509 136.619 182.408 134.468C176.267 128.734 167.77 124.604 160.734 120.619C158.588 119.414 155.547 117.321 152.178 115.314C142.936 92.0592 95.474 -8.30067 57.6714 1.39123C18.7359 7.87161 21.1806 119.73 23.3271 143.702C23.3271 143.73 23.3271 143.759 23.3569 143.788C21.9855 145.909 20.7632 147.859 19.8092 149.236C14.7112 156.404 7.85426 164.634 4.63448 173.293C3.20346 175.989 1.98114 178.713 1.23582 181.523C-2.52059 195.344 3.11403 212.692 7.10894 225.853C9.19584 232.678 13.6678 238.871 21.8066 237.638C32.6585 235.975 41.185 222.097 46.5214 214.212C48.2804 211.631 50.0692 208.964 51.7685 206.211C54.6305 207.416 57.582 208.419 60.5931 209.222C61.4576 214.298 63.306 219.172 67.3606 222.298C58.5062 233.595 52.5734 250.943 60.8018 263.761C61.4577 264.793 63.3359 265.309 64.2302 264.191C66.8836 260.893 69.5965 258.083 72.8163 255.531C72.3989 268.062 76.3342 280.019 85.7253 289.195C86.9476 290.399 88.7065 289.653 89.273 288.277C90.4953 285.496 92.2841 283.144 94.2219 280.85C102.599 295.36 121.56 301.181 130.116 315.776C130.564 316.521 131.428 316.665 132.144 316.435C132.889 316.206 133.456 315.575 133.277 314.772C134.529 298.17 148.779 285.152 149.942 268.693C152.744 269.983 155.457 271.388 157.842 273.453C159.065 274.513 160.883 274.055 161.39 272.535C165.713 260.377 163.835 248.047 157.872 236.95C161.748 237.868 165.355 239.187 169.112 240.993C170.692 241.767 172.212 240.793 172.391 239.187C174.09 223.731 159.661 209.882 146.156 203.889C147.587 200.419 147.766 196.405 146.215 191.674C149.316 189.236 152.208 186.541 154.772 183.559C155.517 184.018 156.232 184.505 156.948 184.964C167.233 191.731 205.334 213.667 204.142 186.025C203.575 171.716 198.596 154.053 190.398 141.981ZM199.342 184.104C199.014 185.165 198.477 186.111 197.613 186.856C195.228 188.978 190.786 187.774 188.102 187.028C176.744 183.845 165.624 177.853 156.68 170.455C147.646 162.971 144.814 151.444 143.145 140.547C142.399 135.615 141.803 130.54 142.071 125.579C142.191 123.372 142.608 121.135 143.622 119.128C144.009 118.325 144.546 117.78 145.142 117.407C146.364 118.124 147.557 118.841 148.6 119.414C152.864 121.68 157.097 124.06 161.271 126.44C161.33 126.468 161.39 126.497 161.45 126.554C165.266 128.934 169.052 131.343 172.808 133.838C171.049 134.64 169.499 136.218 169.052 137.795C167.859 142.124 171.676 146.684 174.448 149.694C177.638 153.135 182.348 156.433 187.357 155.745C188.669 155.573 190.368 154.655 191.292 153.451C193.886 159.673 195.347 166.526 196.748 172.548C197.404 175.071 198.835 179.688 199.342 184.104ZM189.474 149.494C189.653 150.87 189.414 152.246 188.162 153.021C186.82 153.852 185.121 153.594 183.69 153.193C180.739 152.39 178.205 150.153 176.088 148.117C174.031 146.11 172.212 143.673 171.169 141.006C170.215 138.511 172.003 135.701 174.388 134.87C176.654 136.39 178.89 137.938 181.096 139.544C184.734 142.124 187.387 145.594 189.474 149.494ZM88.4978 18.7678C85.8445 21.5206 83.7874 24.5027 80.508 26.8826C75.9169 30.2088 70.4611 32.3021 65.0054 33.8218C55.7336 36.4025 45.478 36.4312 36.6534 32.5601C38.472 27.112 40.7378 21.836 43.7489 16.904C44.673 15.413 45.6271 14.0939 46.6705 12.9183C50.2182 9.36268 54.2131 6.8967 58.6254 5.86442C62.829 5.06155 67.301 5.57766 71.8325 7.0974C73.0548 7.58486 74.307 8.15834 75.5591 8.84652C80.3291 11.4845 84.5924 14.9255 88.4978 18.7678ZM32.0026 51.4565C32.9864 46.2091 34.1491 40.933 35.6696 35.7716C43.9575 40.7896 55.197 39.9294 64.3495 37.9796C73.502 36.0297 86.5302 30.4956 91.3897 21.7213C95.6231 26.2805 99.4689 31.2124 103.046 35.9437C120.547 58.9978 134.41 85.1487 145.291 111.73C140.998 109.923 136.765 109.12 133.634 111.042C129.938 113.307 130.057 119.07 130.087 122.683C130.146 128.303 131.011 134.067 131.995 139.716C123.468 148.806 107.25 152.505 95.6231 155.401C82.1477 158.756 65.6016 162.024 52.3051 156.548C51.2319 153.164 50.0692 149.838 48.817 146.512C47.0879 141.895 44.9712 134.497 39.7241 132.404C35.4013 130.683 31.3765 133.522 27.9779 137.451C25.8314 108.891 26.7556 79.672 32.0026 51.4565ZM138.762 166.956C138.524 167.214 138.315 167.444 138.077 167.702C138.255 167.329 138.434 166.928 138.613 166.526C138.643 166.641 138.703 166.813 138.762 166.956ZM136.288 169.308C135.244 170.197 134.082 171.057 132.889 171.831C134.439 168.304 135.691 164.605 136.705 160.906C137.122 162.282 137.57 163.659 138.047 165.007C137.391 166.412 136.795 167.874 136.288 169.308ZM58.9236 184.132C58.6254 181.035 57.8801 177.881 57.1944 174.956C59.6987 175.903 62.5309 176.333 65.2141 176.562C66.019 179.86 66.8836 183.186 67.6289 186.455C64.6476 186.025 61.726 185.279 58.9236 184.132ZM127.582 166.813C128.656 165.035 129.789 163.229 130.743 161.394C131.637 160.877 132.531 160.304 133.366 159.702C131.667 163.946 130.295 168.333 128.715 172.634C128.358 170.684 127.97 168.763 127.582 166.813ZM127.314 165.637C127.165 164.892 127.016 164.146 126.867 163.429C127.463 163.143 128.059 162.856 128.685 162.541C128.179 163.544 127.731 164.576 127.314 165.637ZM122.007 157.551C121.113 159.071 120.278 160.619 119.771 162.282C118.639 162.741 117.476 163.171 116.313 163.573C118.072 160.505 120.159 157.437 121.381 154.139C121.62 155.286 121.829 156.433 122.007 157.551ZM122.246 158.842C122.395 159.587 122.514 160.333 122.663 161.107C121.858 161.48 121.053 161.824 120.219 162.139C120.815 160.992 121.59 159.931 122.246 158.842ZM120.904 151.644C120.934 151.644 120.934 151.644 120.904 151.644C120.994 152.074 121.083 152.505 121.173 152.935C118.907 156.232 117.297 160.017 115.896 163.745C114.673 164.146 113.481 164.548 112.259 164.892C112.199 164.605 112.139 164.318 112.05 164.032C114.286 160.189 116.939 156.462 118.907 152.505C119.593 152.218 120.248 151.931 120.904 151.644ZM111.811 163.028C111.424 161.48 111.036 159.931 110.649 158.44C111.454 157.293 112.199 156.089 112.944 154.856C114.226 154.397 115.508 153.91 116.76 153.393C114.763 156.404 113.123 159.73 111.811 163.028ZM110.351 157.379C110.202 156.892 110.082 156.404 109.933 155.917C110.44 155.745 110.947 155.573 111.454 155.401C111.096 156.031 110.708 156.691 110.351 157.379ZM106.743 156.978C107.012 159.96 107.399 163.057 107.906 166.153C104.686 167.014 101.556 167.788 98.6938 168.505C98.5149 168.562 98.3063 168.591 98.1274 168.648C97.5311 165.695 96.8454 162.77 96.0703 159.902C99.6478 159.042 103.225 158.067 106.743 156.978ZM93.3573 164.634C92.9698 165.322 92.5524 165.953 92.1052 166.584C91.1214 167.96 90.1077 169.25 89.1835 170.627C87.991 170.856 86.7687 171.085 85.5464 171.286C87.7227 167.759 90.9127 164.605 92.8207 160.935C92.9996 162.196 93.1785 163.401 93.3573 164.634ZM93.0592 167.128C93.2083 166.928 93.417 166.67 93.6256 166.383C93.7747 167.444 93.9536 168.505 94.1325 169.566C92.7611 169.881 91.3301 170.197 89.9289 170.483C91.0021 169.422 92.135 168.361 93.0592 167.128ZM98.9621 173.007C99.469 172.892 100.006 172.777 100.512 172.634C100.065 173.236 99.618 173.867 99.2305 174.469C99.141 173.982 99.0516 173.494 98.9621 173.007ZM99.4093 175.415C100.065 174.612 100.721 173.809 101.377 173.007C101.586 172.749 101.794 172.49 102.003 172.261C103.046 172.003 104.12 171.716 105.163 171.43C104.448 172.605 103.732 173.81 102.927 174.899C101.943 176.247 100.93 177.594 100.006 179C99.7969 177.795 99.618 176.62 99.4093 175.415ZM85.0098 171.401C84.6818 171.458 84.3837 171.487 84.0557 171.544C83.8471 170.684 83.6085 169.852 83.37 169.021C84.4135 167.444 85.4271 165.867 86.5302 164.347C87.2457 163.343 88.1103 162.397 88.9152 161.422C89.6904 161.279 90.4655 161.107 91.2406 160.963C88.8556 164.261 86.4706 167.702 85.0098 171.401ZM86.2619 163.171C85.0992 164.72 83.9961 166.412 83.1017 168.161C82.744 166.985 82.416 165.838 82.0285 164.691C82.3862 164.089 82.7738 163.458 83.221 162.885C83.37 162.713 83.4893 162.541 83.6384 162.368C84.8607 162.168 86.1128 161.938 87.3352 161.709C86.9774 162.225 86.6196 162.713 86.2619 163.171ZM81.6707 163.544C81.5813 163.257 81.4918 162.999 81.4024 162.741C81.7303 162.684 82.0285 162.655 82.3564 162.598C82.1179 162.885 81.8794 163.2 81.6707 163.544ZM78.0336 163.171C78.5702 166.125 79.1366 169.136 79.7031 172.146C75.9467 172.548 72.1604 172.72 68.4338 172.49C67.778 169.566 67.1519 166.641 66.3171 163.745C70.2226 163.831 74.1281 163.601 78.0336 163.171ZM69.7754 177.967C69.6562 177.566 69.5667 177.193 69.4773 176.792C70.64 176.82 71.8027 176.82 72.9654 176.792C72.6076 177.279 72.2499 177.795 71.8623 178.283C71.3853 178.914 70.8785 179.544 70.4015 180.175C70.1928 179.43 69.9841 178.713 69.7754 177.967ZM70.6102 180.835C71.8623 179.659 73.0846 178.254 73.8001 176.792C74.7243 176.763 75.6784 176.734 76.6025 176.648C74.5157 178.799 72.9952 181.638 71.4449 184.19C71.2064 183.071 70.9381 181.953 70.6102 180.835ZM63.5744 169.164C63.0377 169.967 62.5607 170.799 62.1433 171.688C61.1893 171.487 60.2353 171.286 59.2813 170.999C59.8179 170.311 60.295 169.623 60.772 168.878C61.4576 167.817 62.2626 166.784 62.9483 165.695C63.157 166.87 63.3359 168.017 63.5744 169.164ZM63.7234 169.996C63.8725 170.684 63.9917 171.372 64.1408 172.032C63.634 171.946 63.0974 171.86 62.5905 171.774C62.9781 171.171 63.3657 170.569 63.7234 169.996ZM62.68 163.544C62.7396 163.974 62.7694 164.433 62.829 164.863C61.0403 166.354 59.9372 168.763 58.8639 170.856C57.9397 170.598 57.0454 170.283 56.151 169.938C56.8665 168.82 57.582 167.731 58.3273 166.612C59.0428 165.494 59.9372 164.433 60.6825 163.315C61.3682 163.429 62.0241 163.487 62.68 163.544ZM55.9125 169.537C55.6143 168.218 55.2864 166.899 54.9585 165.58C55.3162 165.15 55.674 164.691 56.0317 164.261C56.4193 163.773 56.8069 163.286 57.1944 162.77C58.0292 162.971 58.8938 163.114 59.7583 163.229C58.1186 165.064 56.8367 167.358 55.9125 169.537ZM54.8392 165.179C54.5411 164.032 54.1833 162.913 53.8554 161.795C54.72 162.139 55.6143 162.426 56.5385 162.655C55.9125 163.458 55.3758 164.318 54.8392 165.179ZM71.8027 186.914C71.7729 186.168 71.6834 185.423 71.5344 184.677C73.7107 182.096 75.887 179.372 77.7652 176.591C78.6894 176.505 79.6136 176.419 80.5378 176.333C80.5676 176.534 80.6273 176.734 80.6571 176.906C77.8249 179.745 75.6485 183.501 73.7405 187.028C73.0846 186.971 72.4288 186.942 71.8027 186.914ZM80.8658 177.996C81.1043 179.114 81.313 180.261 81.5813 181.38C80.1205 183.1 78.7789 184.992 77.7056 186.971C76.5429 187.028 75.3802 187.028 74.2175 187.028C76.5131 184.075 78.9279 181.121 80.8658 177.996ZM81.79 182.182C82.1477 183.673 82.5055 185.136 82.893 186.57C81.2832 186.742 79.7031 186.856 78.0932 186.914C79.3751 185.394 80.9254 183.96 81.79 182.182ZM86.3215 186.168C86.2321 182.756 85.7551 179.258 85.0098 175.731C88.3488 175.215 91.658 174.612 94.9076 173.924C95.5933 177.394 96.3982 180.777 97.4119 184.075C93.8343 184.849 90.1077 185.623 86.3215 186.168ZM100.691 183.272C100.512 182.182 100.334 181.093 100.155 180.003C101.347 178.455 102.569 176.906 103.792 175.387C104.865 174.039 106.087 172.577 106.833 170.942C107.459 170.77 108.085 170.569 108.681 170.369C108.83 171.028 108.949 171.716 109.098 172.376C106.386 175.329 104.567 179.229 102.629 182.785C102.45 182.842 102.271 182.871 102.092 182.928C101.645 183.043 101.168 183.157 100.691 183.272ZM109.397 173.551C109.695 174.813 110.023 176.046 110.41 177.25C110.112 177.681 109.814 178.082 109.516 178.512C108.771 179.516 108.025 180.519 107.399 181.609C106.058 181.953 104.746 182.268 103.464 182.584C105.67 179.774 107.697 176.677 109.397 173.551ZM110.768 178.541C110.977 179.229 111.245 179.888 111.483 180.548C110.38 180.863 109.277 181.15 108.204 181.408C109.039 180.462 109.963 179.516 110.768 178.541ZM114.793 179.602C114.405 176.132 113.839 172.548 113.123 168.964C116.611 167.788 120.04 166.44 123.379 164.978C124.064 168.562 124.84 172.146 125.794 175.645C122.276 177.193 118.519 178.483 114.793 179.602ZM128.954 174.154C128.924 173.896 128.864 173.666 128.835 173.408C131.518 168.648 133.575 163.458 135.155 158.239C135.364 158.039 135.572 157.867 135.781 157.666C135.99 158.383 136.198 159.1 136.407 159.816C134.439 163.687 133.485 168.017 132.382 172.204C131.279 172.863 130.146 173.523 128.954 174.154ZM126.002 159.501C125.287 156.433 124.571 153.393 123.766 150.354C126.956 148.834 130.415 146.913 132.859 144.447C132.949 144.877 133.008 145.279 133.098 145.709C133.575 148.232 134.082 150.727 134.678 153.221C132.263 155.687 129.282 157.752 126.002 159.501ZM8.15239 177.222C9.5834 174.584 11.074 171.974 12.5945 169.422C17.0962 172.376 17.1857 177.824 15.4565 183.014C13.8168 187.889 9.61322 192.39 5.05186 190.785C5.08167 185.996 5.94624 181.38 8.15239 177.222ZM5.08167 193.337C6.42325 193.853 8.03314 193.91 9.79209 193.337C13.3696 192.161 15.9037 188.577 17.2751 185.365C19.5409 180.032 20.0179 170.111 13.5485 167.874C15.6354 164.404 17.7819 160.963 19.9583 157.523C23.7445 151.96 27.6201 146.368 31.8536 141.092C36.6236 142.727 38.9788 150.985 40.1713 154.684C42.9141 163.114 44.524 172.003 45.3289 180.806C45.5973 183.559 45.7761 186.369 45.5376 189.122C45.001 195.086 41.2148 200.878 37.8757 205.753C33.8808 211.574 29.1406 217.079 24.132 222.126C21.9855 224.305 19.6899 226.57 16.7385 227.746C14.8901 228.463 13.5485 228.033 12.5051 227.086C10.3585 222.298 9.37471 216.047 8.71883 213.409C7.16856 207.215 5.40961 200.218 5.08167 193.337ZM42.3178 211.832C37.3987 219.344 30.6909 229.782 21.3893 232.85C18.2291 233.911 15.8739 232.477 14.1149 229.982C15.546 230.183 17.0962 229.896 18.3782 229.294C24.7581 226.226 29.6176 219.545 33.9703 214.326C39.0682 208.219 43.7787 201.624 46.4916 194.197C47.8928 190.355 47.8928 186.541 47.6245 182.526C46.9388 172.347 44.9414 161.91 41.4235 152.304C40.2608 149.15 37.19 141.465 32.8374 139.917C33.2547 139.4 33.6721 138.856 34.0895 138.368C39.3664 132.174 45.4184 151.415 46.1935 153.651C48.3698 159.874 50.1288 166.182 51.6492 172.576C53.0206 178.369 54.7796 184.964 53.7659 190.899C52.5436 198.011 46.2829 205.753 42.3178 211.832ZM168.128 235.918C163.686 234.025 159.244 232.706 154.235 231.99C152.476 231.731 150.687 233.337 151.79 235.058C158.409 245.495 161.271 256.936 158.141 268.664C155.249 266.829 152.208 265.395 149.018 263.961C147.706 263.359 145.917 264.047 145.977 265.653C146.424 281.625 132.621 294.041 130.236 309.295C121.173 296.535 103.136 291.03 96.3684 276.32C95.8616 275.23 93.9536 275.001 93.1785 275.919C90.8531 278.643 88.6767 281.281 86.7985 284.234C78.6298 274.915 76.1255 263.273 77.4373 251.115C77.6162 249.567 75.4398 248.449 74.1579 249.309C69.8947 252.119 66.3469 255.187 63.0675 258.857C58.1484 247.703 63.8427 233.538 71.1468 224.391C73.6213 225.366 76.3342 225.853 79.1366 226.054C76.1852 231.273 73.9194 236.836 72.9654 242.742C72.9356 242.914 73.2039 243.058 73.2635 242.857C75.8572 237.294 78.0336 231.588 80.836 226.14C84.6818 226.226 88.6767 225.853 92.4629 225.337C90.4655 232.936 89.75 240.764 89.9289 248.621C90.1077 256.363 91.2108 265.022 95.1461 271.933C95.2355 272.076 95.4442 271.99 95.4144 271.818C93.4468 264.105 91.8667 256.592 91.5984 248.621C91.3301 240.735 92.2244 232.792 94.043 225.108C96.0703 224.821 98.0081 224.534 99.8267 224.305C100.393 224.219 100.989 224.161 101.586 224.075C101.109 232.764 102.42 241.71 103.941 250.198C103.971 250.398 104.299 250.341 104.299 250.14C103.792 241.395 102.42 232.678 102.51 223.932C104.12 223.703 105.819 223.445 107.638 223.129C108.92 233.567 111.066 243.832 113.66 254.04C116.492 265.28 119.742 276.635 124.392 287.331C124.482 287.532 124.81 287.474 124.75 287.245C122.007 276.406 118.46 265.739 115.657 254.9C112.915 244.348 110.798 233.653 109.188 222.871C114.554 221.925 120.517 220.577 126.122 218.656C132.74 230.613 135.632 243.689 140.432 256.305C140.491 256.477 140.819 256.477 140.789 256.248C139.418 243.287 134.32 229.466 127.374 218.197C131.13 216.821 134.678 215.186 137.719 213.208C143.562 216.936 148.928 220.95 153.669 225.997C153.788 226.14 154.086 225.997 153.997 225.796C151.522 219.602 144.814 215.617 138.971 212.319C140.939 210.885 142.638 209.308 143.979 207.53C155.219 212.749 167.472 223.273 168.128 235.918ZM140.73 204.52C138.464 208.935 131.19 211.631 126.748 213.409C118.519 216.735 109.575 218.369 100.811 219.66C92.4033 220.893 83.1614 222.24 74.6945 220.95C68.3742 220.004 66.496 215.186 64.7967 210.197C71.8623 211.602 79.1664 212.004 86.5004 211.66C86.7985 211.774 87.1861 211.832 87.6035 211.774C90.6742 211.487 93.8045 211.115 96.9945 210.627C101.437 209.996 105.849 209.108 110.172 208.047C110.708 207.932 111.215 207.788 111.752 207.645C112.736 207.387 113.719 207.129 114.703 206.842C115.121 206.728 115.538 206.613 115.955 206.498C118.847 205.667 121.709 204.749 124.482 203.774C124.78 203.659 125.048 203.516 125.287 203.344C131.279 201.021 137.003 198.125 142.22 194.656C142.131 197.982 142.459 201.165 140.73 204.52ZM114.644 201.738C110.679 202.885 106.594 203.889 102.42 204.72C102.182 204.778 101.943 204.806 101.705 204.864C101.079 204.978 100.423 205.093 99.7969 205.208C99.2304 205.294 98.664 205.409 98.0976 205.495C83.1912 207.903 67.7183 207.645 54.2131 201.91C55.9423 198.727 57.4329 195.459 58.4167 192.104C58.7447 191.043 58.9236 189.896 59.013 188.72C62.8589 190.699 67.8674 191.071 71.9219 191.243C81.3428 191.645 90.9425 189.982 100.095 187.975C109.456 185.939 118.668 183.043 127.404 179.172C131.607 177.308 137.242 174.698 140.342 170.827C142.489 174.928 146.424 178.053 150.508 180.806C141.356 191.014 128.417 197.638 114.644 201.738ZM193.498 195.172C183.243 196.319 171.735 188.462 163.596 183.53C157.157 179.63 149.495 175.444 145.083 169.394C141.535 164.519 140.462 156.605 139.12 150.927C138.255 147.257 130.921 113.336 138.941 114.712C140.402 114.97 141.952 115.658 143.473 116.461C139.925 120.246 140.044 130.11 140.402 134.21C141.565 147.171 144.129 161.852 154.444 171.114C163.865 179.573 177.131 186.656 189.772 189.437C193.051 190.154 196.748 190.24 199.342 187.889C199.372 187.86 199.401 187.831 199.431 187.803C199.252 191.645 197.732 194.713 193.498 195.172Z" fill="#2D2D2D"/>
<path d="M54.8095 130.483C56.4492 132.002 58.238 133.379 60.146 134.612C71.8624 142.067 89.7799 141.264 101.735 134.87C114.644 127.959 120.249 112.59 120.338 99.1991C120.398 85.6649 108.83 71.1557 96.3387 65.937C82.0882 60.0014 66.198 64.876 54.5114 73.679C44.226 81.4498 40.7081 95.7869 42.3776 107.773C43.6297 116.604 47.5054 125.063 54.8095 130.483ZM108.234 81.9659C116.969 93.923 117.476 108.145 109.456 120.676C101.914 132.461 89.1837 135.816 75.44 134.813C66.2278 134.124 58.7448 129.049 53.7661 122.139C53.617 121.938 53.4978 121.737 53.3487 121.536C53.2295 121.393 53.14 121.221 53.0506 121.078C48.847 114.569 46.9389 107.314 47.4756 98.7977C47.7439 94.5252 48.8172 90.6829 50.5463 87.2993C52.0668 84.4319 54.0344 81.8225 56.33 79.4999C60.2355 75.6862 65.244 72.7041 70.9382 70.5535C85.1888 65.1628 99.6181 70.2094 108.234 81.9659Z" fill="#2D2D2D"/>
<path d="M76.6622 74.5105C64.2601 76.5177 55.1076 85.8368 53.2592 97.5072C51.858 106.339 54.5113 116.948 62.2925 122.31C65.3334 125.035 69.0898 127.099 73.5319 128.275C83.9962 131.027 96.6666 127.673 103.047 119.128C110.321 109.436 111.335 97.794 105.104 87.4426C98.992 77.3492 88.5873 72.5893 76.6622 74.5105ZM100.006 115.171C95.0567 122.741 86.7688 124.547 77.974 124.289C72.4288 124.117 67.8377 121.565 64.4092 117.866C54.7498 104.79 56.3001 87.7006 73.8002 80.6754C74.9927 80.188 76.1852 79.8439 77.3777 79.5572C78.928 79.2417 80.4783 79.0984 82.0882 79.041C89.0047 79.0697 95.3847 82.568 99.6777 88.4462C105.789 96.8191 105.64 106.54 100.006 115.171Z" fill="#2D2D2D"/>
<path d="M104.358 251.402C104.328 251.345 104.269 251.345 104.239 251.402C103.822 252.492 104.179 254.212 104.895 255.13C104.955 255.187 105.074 255.216 105.104 255.101C105.223 254.528 105.044 254.011 104.895 253.438C104.746 252.75 104.627 252.062 104.358 251.402Z" fill="#2D2D2D"/>
<path d="M133.008 264.334C132.591 253.294 129.311 242.111 123.736 232.448C123.707 232.391 123.617 232.42 123.617 232.477C128.029 242.742 130.564 253.466 132.68 264.334C132.74 264.535 133.008 264.506 133.008 264.334Z" fill="#2D2D2D"/>
<path d="M122.186 252.262C123.677 256.621 123.886 261.151 124.631 265.653C124.661 265.796 124.869 265.739 124.869 265.624C125.138 261.065 124.303 256.363 122.306 252.234C122.246 252.176 122.157 252.234 122.186 252.262Z" fill="#2D2D2D"/>
<path d="M106.862 260.979C108.353 269.553 110.38 278.298 114.703 286.041C114.763 286.155 114.971 286.069 114.912 285.955C111.841 277.754 109.486 269.352 106.982 260.951C106.922 260.893 106.833 260.922 106.862 260.979Z" fill="#2D2D2D"/>
<path d="M138.554 225.28C143.95 233.137 146.633 242.914 147.766 252.176C147.796 252.348 148.034 252.348 148.064 252.176C148.571 242.8 144.576 232.649 138.643 225.251C138.583 225.194 138.524 225.222 138.554 225.28Z" fill="#2D2D2D"/>
<path d="M85.2183 231.502C83.5786 235.344 82.2669 239.818 83.4296 243.975C83.4594 244.033 83.5488 244.033 83.5488 243.947C83.9066 239.732 84.5028 235.717 85.427 231.559C85.4568 231.416 85.2481 231.359 85.2183 231.502Z" fill="#2D2D2D"/>
<path d="M123.17 231.33C122.902 229.81 122.395 228.291 121.292 227.144C121.262 227.115 121.202 227.144 121.232 227.201C121.978 228.549 122.037 230.183 123.021 231.416C123.081 231.445 123.2 231.416 123.17 231.33Z" fill="#2D2D2D"/>
<path d="M132.889 265.711C132.859 267.402 132.859 269.438 133.664 270.958C133.694 271.044 133.843 270.987 133.843 270.901C133.932 269.209 133.604 267.288 133.127 265.653C133.098 265.538 132.889 265.567 132.889 265.711Z" fill="#2D2D2D"/>
<path d="M158.23 227.946C157.574 225.653 156.322 223.445 154.563 221.782C154.533 221.753 154.503 221.782 154.533 221.81C156.083 223.703 156.739 225.997 158.081 228.004C158.111 228.061 158.26 228.033 158.23 227.946Z" fill="#2D2D2D"/>
<path d="M87.186 257.997C86.7388 261.323 87.5736 264.506 88.6767 267.66C88.7363 267.861 89.1238 267.832 89.094 267.603C88.6767 264.392 87.7226 261.237 87.3649 257.997C87.3649 257.882 87.2158 257.882 87.186 257.997Z" fill="#2D2D2D"/>
<path d="M129.759 276.549C130.355 280.564 130.474 284.721 131.398 288.678C131.428 288.822 131.637 288.764 131.637 288.65C131.935 284.578 131.339 280.334 129.848 276.521C129.848 276.435 129.729 276.463 129.759 276.549Z" fill="#2D2D2D"/>
<path d="M115.449 228.749C115.866 231.531 116.85 234.255 117.416 237.007C117.446 237.094 117.565 237.065 117.595 236.979C117.714 234.111 117.148 231.158 115.657 228.663C115.598 228.549 115.449 228.635 115.449 228.749Z" fill="#2D2D2D"/>
<path d="M30.5717 109.579C31.168 86.4964 35.6399 63.815 37.9057 40.9043C37.9057 40.8183 37.7566 40.7896 37.7268 40.847C35.7293 45.3202 35.5803 50.2808 34.7157 55.0407C33.6424 61.2057 32.6586 67.3993 31.7642 73.593C30.0351 85.5788 28.932 97.4786 30.0947 109.579C30.1841 109.837 30.5717 109.837 30.5717 109.579Z" fill="#2D2D2D"/>
<path d="M30.5417 117.866C30.9293 116.203 30.8697 114.397 30.5417 112.705C30.5417 112.647 30.4523 112.647 30.4225 112.676C29.5877 114.253 29.6772 116.203 30.184 117.837C30.2138 118.038 30.4821 118.038 30.5417 117.866Z" fill="#2D2D2D"/>
</svg>
