<svg width="118" height="60" viewBox="0 0 118 60" fill="none" xmlns="http://www.w3.org/2000/svg">
<g clip-path="url(#clip0_107_287)">
<path d="M28.9514 7.22395C28.9514 6.75419 29.1388 6.30366 29.4723 5.97149C29.806 5.63933 30.2584 5.4527 30.7302 5.4527C31.2019 5.4527 31.6543 5.63933 31.988 5.97149C32.3215 6.30366 32.509 6.75419 32.509 7.22395C32.509 7.69373 32.3215 8.14425 31.988 8.47643C31.6543 8.80859 31.2019 8.9952 30.7302 8.9952C30.2584 8.9952 29.806 8.80859 29.4723 8.47643C29.1388 8.14425 28.9514 7.69373 28.9514 7.22395ZM7.7302 23.2615C7.7302 22.7916 7.91761 22.3411 8.25119 22.009C8.58478 21.6768 9.03723 21.4903 9.50899 21.4903C9.98075 21.4903 10.4332 21.6768 10.7668 22.009C11.1004 22.3411 11.2878 22.7916 11.2878 23.2615C11.2878 23.7313 11.1004 24.1818 10.7668 24.5139C10.4332 24.8461 9.98075 25.0328 9.50899 25.0328C9.03723 25.0328 8.58478 24.8461 8.25119 24.5139C7.91761 24.1818 7.7302 23.7313 7.7302 23.2615ZM50.16 23.344C50.16 22.8741 50.3474 22.4236 50.681 22.0915C51.0146 21.7593 51.467 21.5728 51.9388 21.5728C52.4105 21.5728 52.863 21.7593 53.1966 22.0915C53.5302 22.4236 53.7176 22.8741 53.7176 23.344C53.7176 23.8138 53.5302 24.2643 53.1966 24.5964C52.863 24.9286 52.4105 25.1153 51.9388 25.1153C51.467 25.1153 51.0146 24.9286 50.681 24.5964C50.3474 24.2643 50.16 23.8138 50.16 23.344ZM12.8795 25.784C13.698 25.409 14.0683 24.4665 13.7043 23.6503L12.9172 21.859H16.0216V35.7903H9.76005C8.98701 33.0866 8.74618 30.2598 9.0508 27.4653L12.8795 25.784ZM25.8633 26.1265V22.009H33.2534C33.635 22.009 35.9485 22.449 35.9485 24.1715C35.9485 25.6015 34.1735 26.1153 32.7148 26.1153L25.8633 26.1265ZM15.7705 48.2353C15.7705 48.0026 15.8165 47.7723 15.906 47.5574C15.9954 47.3425 16.1263 47.1473 16.2915 46.9828C16.4567 46.8183 16.6528 46.6878 16.8686 46.5988C17.0843 46.5098 17.3157 46.464 17.5493 46.464C17.7829 46.464 18.0142 46.5098 18.2301 46.5988C18.4459 46.6878 18.6419 46.8183 18.8071 46.9828C18.9722 47.1473 19.1033 47.3425 19.1927 47.5574C19.282 47.7723 19.3281 48.0026 19.3281 48.2353C19.3281 48.705 19.1407 49.1555 18.8071 49.4876C18.4735 49.8199 18.0211 50.0065 17.5493 50.0065C17.0776 50.0065 16.6252 49.8199 16.2915 49.4876C15.958 49.1555 15.7705 48.705 15.7705 48.2353ZM42.1272 48.3178C42.1272 47.8479 42.3146 47.3974 42.6482 47.0653C42.9818 46.733 43.4342 46.5465 43.906 46.5465C44.3777 46.5465 44.8302 46.733 45.1638 47.0653C45.4974 47.3974 45.6848 47.8479 45.6848 48.3178C45.6848 48.7875 45.4974 49.238 45.1638 49.5701C44.8302 49.9024 44.3777 50.089 43.906 50.089C43.4342 50.089 42.9818 49.9024 42.6482 49.5701C42.3146 49.238 42.1272 48.7875 42.1272 48.3178ZM42.677 44.3015C42.4687 44.2568 42.2534 44.2534 42.0437 44.2916C41.834 44.3299 41.634 44.409 41.4551 44.5245C41.2761 44.6399 41.1218 44.7894 41.0012 44.9644C40.8804 45.1393 40.7954 45.3363 40.7514 45.544L39.8727 49.694C37.0014 50.989 33.8833 51.6516 30.7312 51.6365C27.5792 51.6214 24.4676 50.9289 21.609 49.6065L20.7303 45.4565C20.686 45.2489 20.601 45.052 20.4802 44.8773C20.3594 44.7024 20.2051 44.5531 20.0262 44.4378C19.8473 44.3225 19.6473 44.2434 19.4377 44.2053C19.2281 44.167 19.0129 44.1704 18.8046 44.2153L15.1266 45.0028C14.4432 44.3018 13.8077 43.556 13.2247 42.7703H31.1231C31.3239 42.7703 31.462 42.7328 31.462 42.5503V36.2465C31.462 36.0628 31.3264 36.0265 31.1231 36.0265H25.8884V32.0303H31.5373C32.0545 32.0303 34.299 32.1778 35.0183 35.0365L36.0753 39.6928C36.4117 40.7203 37.7826 42.7715 39.2425 42.7715H48.4841C47.8643 43.5974 47.1864 44.3785 46.4556 45.109L42.677 44.3015ZM52.6154 27.6553C52.7411 28.9135 52.7566 30.1804 52.6618 31.4415H50.4023C50.1763 31.4415 50.0884 31.589 50.0884 31.8078V32.8353C50.0884 35.254 48.7076 35.7803 47.5188 35.914C46.389 36.0428 45.1086 35.439 44.9529 34.7415C44.2788 30.9665 43.1553 30.159 41.3816 28.7665C43.5834 27.374 45.8756 25.3203 45.8756 22.5715C45.8756 19.6028 43.8319 17.734 42.4385 16.8165C40.484 15.534 38.3211 15.2765 37.7361 15.2765H14.5089C17.7215 11.7015 22.0282 9.28111 26.7621 8.39021L29.5012 11.2652C29.6481 11.4188 29.824 11.5419 30.0188 11.6277C30.2136 11.7134 30.4235 11.7601 30.6364 11.765C30.8493 11.7698 31.0611 11.7329 31.2597 11.6561C31.4581 11.5794 31.6395 11.4644 31.7934 11.3177L34.8589 8.39896C37.9833 8.98156 40.9428 10.2344 43.5319 12.0705C46.1211 13.9066 48.2779 16.2819 49.8524 19.0315L47.7561 23.7503C47.3795 24.5665 47.7636 25.5228 48.5808 25.884L52.6154 27.6553ZM57.8501 27.7303L57.7785 27.0003L59.9402 24.9928C60.0389 24.8884 60.1112 24.762 60.151 24.6243C60.1908 24.4864 60.1969 24.3411 60.1689 24.2005C60.1409 24.0599 60.0795 23.928 59.99 23.8158C59.9004 23.7035 59.7852 23.6141 59.654 23.5553L56.8923 22.5265L56.6764 21.8165L58.3999 19.4328C58.4765 19.311 58.5227 19.173 58.5346 19.0299C58.5467 18.8869 58.5242 18.7431 58.469 18.6105C58.4138 18.4779 58.3276 18.3603 58.2175 18.2676C58.1075 18.1749 57.9767 18.1099 57.8363 18.0778L54.9239 17.6053L54.5724 16.9553L55.7964 14.2803C56.0474 13.7353 55.583 13.039 54.9804 13.0615L52.0242 13.164L51.5572 12.6015L52.235 9.73396C52.259 9.59246 52.2487 9.44732 52.2049 9.3106C52.1611 9.17389 52.0852 9.04959 51.9833 8.94805C51.8814 8.84653 51.7568 8.77071 51.6194 8.72695C51.4822 8.68319 51.3365 8.67273 51.1944 8.69646L48.3147 9.37146L47.7473 8.90645L47.8515 5.9627C47.8472 5.8193 47.8087 5.67899 47.7389 5.55346C47.6691 5.42794 47.5702 5.32084 47.4504 5.24109C47.3306 5.16134 47.1936 5.11125 47.0503 5.09502C46.9072 5.07877 46.7622 5.09684 46.6275 5.1477L43.9411 6.36771L43.2884 6.0177L42.8139 3.1177C42.7815 2.978 42.7161 2.84801 42.6232 2.73855C42.5302 2.6291 42.4123 2.54335 42.2792 2.48844C42.1463 2.43353 42.0021 2.41106 41.8586 2.42289C41.7151 2.43473 41.5765 2.48052 41.4544 2.55645L39.0693 4.25897L38.3575 4.04397L37.3244 1.29395C37.2652 1.16318 37.1756 1.04835 37.063 0.95904C36.9503 0.86973 36.8178 0.808521 36.6766 0.780516C36.5354 0.75251 36.3894 0.758516 36.2511 0.798035C36.1126 0.837555 35.9856 0.909441 35.8807 1.00771L33.8509 3.15895L33.1178 3.0877L31.5612 0.582709C31.4776 0.46608 31.3672 0.371019 31.2392 0.305431C31.1113 0.239844 30.9694 0.205627 30.8256 0.205627C30.6817 0.205627 30.5399 0.239844 30.4118 0.305431C30.2839 0.371019 30.1736 0.46608 30.09 0.582709L28.5334 3.0877L27.8003 3.15895L25.7842 1.00521C25.6793 0.906941 25.5524 0.835055 25.4139 0.795535C25.2756 0.756016 25.1296 0.75001 24.9883 0.778016C24.8471 0.806022 24.7147 0.867229 24.602 0.95654C24.4892 1.04585 24.3997 1.16068 24.3406 1.29145L23.3075 4.04147L22.5944 4.25646L20.2093 2.54397C20.0872 2.46775 19.9485 2.42174 19.8049 2.40978C19.6611 2.3978 19.5168 2.42021 19.3836 2.47514C19.2504 2.53007 19.1324 2.61591 19.0393 2.72553C18.9462 2.83513 18.8808 2.96531 18.8486 3.1052L18.3741 6.00521L17.7213 6.35521L15.0349 5.13521C14.9002 5.08434 14.7552 5.06627 14.6121 5.08251C14.4689 5.09875 14.3317 5.14884 14.2119 5.22859C14.0922 5.30834 13.9934 5.41544 13.9236 5.54096C13.8538 5.66649 13.8152 5.8068 13.811 5.9502L13.9139 8.89396L13.3465 9.35895L10.4668 8.68395C10.3246 8.66 10.1787 8.67029 10.0413 8.71395C9.90386 8.75761 9.77894 8.8334 9.67695 8.93495C9.57495 9.03652 9.49886 9.1609 9.45501 9.29773C9.41115 9.43455 9.40083 9.57984 9.42488 9.72145L10.1028 12.589L9.63828 13.1515L6.68201 13.049C6.08573 13.0315 5.61499 13.724 5.86354 14.2678L7.08873 16.9428L6.73724 17.5928L3.8249 18.0653C3.2349 18.1615 2.91228 18.9353 3.26001 19.4203L4.98356 21.804L4.76765 22.514L2.00594 23.5428C1.8747 23.6016 1.75951 23.691 1.66995 23.8033C1.58039 23.9155 1.51906 24.0474 1.49105 24.188C1.46306 24.3286 1.4692 24.4739 1.50898 24.6118C1.54874 24.7495 1.62101 24.8759 1.71973 24.9803L3.88139 26.9878L3.80984 27.7178L1.29543 29.2678C1.17831 29.351 1.08284 29.4609 1.01698 29.5883C0.95111 29.7156 0.916748 29.8569 0.916748 30.0003C0.916748 30.1435 0.95111 30.2848 1.01698 30.4121C1.08284 30.5395 1.17831 30.6494 1.29543 30.7328L3.80984 32.2828L3.88139 33.0128L1.71973 35.0203C1.62101 35.1245 1.54874 35.2509 1.50898 35.3886C1.4692 35.5265 1.46306 35.6718 1.49105 35.8124C1.51906 35.953 1.58039 36.0849 1.66995 36.1971C1.75951 36.3094 1.8747 36.3988 2.00594 36.4578L4.76765 37.4865L4.98356 38.1965L3.26001 40.5803C3.18375 40.7018 3.13775 40.8398 3.12588 40.9826C3.11399 41.1255 3.13656 41.2691 3.19169 41.4016C3.24684 41.534 3.33295 41.6515 3.44288 41.744C3.5528 41.8366 3.68335 41.9018 3.82365 41.934L6.73599 42.4065L7.08748 43.059L5.86228 45.734C5.81119 45.8681 5.79305 46.0125 5.80936 46.155C5.82568 46.2975 5.87598 46.4341 5.95606 46.5534C6.03615 46.6726 6.14371 46.7711 6.26977 46.8406C6.39583 46.91 6.53674 46.9485 6.68075 46.9528L9.63577 46.849L10.1028 47.414L9.42488 50.2828C9.40128 50.4241 9.41195 50.5691 9.456 50.7056C9.50006 50.8421 9.57622 50.9661 9.67815 51.0674C9.78009 51.1686 9.90483 51.2441 10.042 51.2878C10.1792 51.3313 10.3248 51.3415 10.4668 51.3178L13.3465 50.6428L13.9139 51.1053L13.811 54.0503C13.8154 54.1935 13.8542 54.3336 13.924 54.459C13.9939 54.5844 14.0928 54.6914 14.2124 54.7709C14.3322 54.8505 14.4693 54.9005 14.6124 54.9168C14.7555 54.9329 14.9003 54.9148 15.0349 54.864L17.7213 53.6453L18.3741 53.9953L18.8486 56.8953C18.8807 57.0353 18.946 57.1655 19.039 57.2753C19.1319 57.385 19.25 57.471 19.3832 57.5261C19.5164 57.5811 19.6609 57.6036 19.8046 57.5918C19.9484 57.5799 20.0871 57.5339 20.2093 57.4578L22.6032 55.7403L23.3163 55.9565L24.3494 58.7065C24.4086 58.8371 24.4983 58.9519 24.611 59.041C24.7237 59.1303 24.8563 59.1913 24.9975 59.2191C25.1387 59.247 25.2846 59.2409 25.4229 59.2013C25.5613 59.1618 25.6882 59.0898 25.793 58.9915L27.809 56.839L28.5421 56.9115L30.0987 59.4153C30.4126 59.9203 31.2536 59.9215 31.57 59.4153L33.1278 56.909L33.8609 56.8365L35.877 58.989C35.9818 59.0873 36.1086 59.1593 36.247 59.1988C36.3854 59.2384 36.5312 59.2445 36.6725 59.2166C36.8137 59.1888 36.9463 59.1278 37.059 59.0385C37.1717 58.9494 37.2613 58.8346 37.3206 58.704L38.3537 55.954L39.0667 55.7378L41.4606 57.4553C41.5828 57.5311 41.7215 57.5769 41.8651 57.5886C42.0086 57.6004 42.1529 57.5779 42.2859 57.5228C42.4189 57.4678 42.5368 57.3819 42.6297 57.2723C42.7227 57.1626 42.788 57.0325 42.8201 56.8928L43.2947 53.9928L43.9474 53.6428L46.6338 54.8615C46.7684 54.9123 46.9132 54.9304 47.0563 54.9143C47.1993 54.898 47.3365 54.848 47.4562 54.7684C47.5759 54.6889 47.6748 54.5819 47.7446 54.4565C47.8146 54.3311 47.8534 54.191 47.8577 54.0478L47.7548 51.1028L48.3222 50.6403L51.2019 51.3153C51.3438 51.3388 51.4893 51.3284 51.6263 51.2848C51.7633 51.2411 51.8878 51.1655 51.9896 51.0643C52.0914 50.9631 52.1675 50.8391 52.2114 50.7028C52.2555 50.5664 52.266 50.4215 52.2426 50.2803L51.5647 47.4115L52.0292 46.8465L54.9854 46.9503C55.1293 46.9458 55.2702 46.9071 55.3961 46.8376C55.5218 46.7681 55.6293 46.6696 55.7093 46.5504C55.7892 46.4311 55.8393 46.2946 55.8556 46.1521C55.8718 46.0098 55.8537 45.8655 55.8027 45.7315L54.5787 43.0565L54.9302 42.404L57.8426 41.9315C57.9829 41.8993 58.1133 41.8341 58.2233 41.7415C58.3333 41.649 58.4194 41.5315 58.4745 41.3991C58.5296 41.2666 58.5522 41.123 58.5403 40.9801C58.5285 40.8373 58.4824 40.6993 58.4062 40.5778L56.6826 38.194L56.8986 37.484L59.6603 36.4553C59.7914 36.3963 59.9067 36.3069 59.9962 36.1946C60.0858 36.0824 60.1472 35.9505 60.1752 35.8099C60.2032 35.6693 60.197 35.524 60.1572 35.3861C60.1174 35.2484 60.0451 35.122 59.9465 35.0178L57.7848 33.0103L57.8564 32.2803L60.3708 30.7303C60.4879 30.6469 60.5833 30.537 60.6492 30.4096C60.7151 30.2823 60.7495 30.141 60.7495 29.9978C60.7495 29.8544 60.7151 29.7131 60.6492 29.5858C60.5833 29.4584 60.4879 29.3485 60.3708 29.2653L57.8501 27.7303ZM64.2422 32.5678V22.1428H69.7656V23.8503C69.7656 24.7669 69.7606 25.9303 69.7505 27.3403C69.7405 28.7319 69.7354 29.661 69.7354 30.1278C69.7354 31.4994 69.771 32.4903 69.8421 33.1003C69.9133 33.7003 70.0358 34.1378 70.21 34.4128C70.4343 34.7685 70.725 35.0428 71.0824 35.2353C71.4506 35.4285 71.8691 35.5253 72.3377 35.5253C73.4809 35.5253 74.3789 35.0878 75.0316 34.2128C75.6844 33.3378 76.0108 32.1235 76.0108 30.5703V22.1415H81.4903V39.2128H75.997V36.744C75.1701 37.7398 74.2926 38.4765 73.3646 38.954C72.4466 39.4206 71.431 39.654 70.3179 39.654C68.3379 39.654 66.8315 39.0498 65.7988 37.8415C64.7678 36.6331 64.2522 34.8748 64.2522 32.5665L64.2422 32.5678ZM100.167 22.6753V26.8215C98.9935 26.334 97.8609 25.9681 96.7687 25.724C95.6766 25.4798 94.646 25.3578 93.6769 25.3578C92.6359 25.3578 91.8604 25.4898 91.3508 25.754C90.8512 26.0081 90.6014 26.404 90.6014 26.9415C90.6014 27.3781 90.7897 27.7135 91.1663 27.9478C91.5538 28.181 92.2424 28.354 93.2325 28.4665L94.1966 28.5915C97.0026 28.9473 98.8906 29.5315 99.8606 30.344C100.83 31.1565 101.314 32.4315 101.314 34.169C101.314 35.9881 100.645 37.3548 99.3057 38.269C97.9667 39.1831 95.9566 39.6403 93.2752 39.6403C92.142 39.6403 90.9683 39.5485 89.754 39.3653C88.5489 39.1928 87.309 38.9285 86.0345 38.5728V34.4265C87.1266 34.9548 88.2439 35.3506 89.3862 35.614C90.5394 35.8781 91.7077 36.0103 92.8911 36.0103C93.9622 36.0103 94.7686 35.8628 95.3101 35.5678C95.8507 35.2728 96.121 34.8353 96.121 34.2553C96.121 33.7678 95.9327 33.4069 95.5561 33.1728C95.1879 32.9285 94.448 32.741 93.3367 32.6103L92.3726 32.4878C89.9339 32.1828 88.2247 31.6185 87.2446 30.7953C86.2655 29.9719 85.7759 28.7219 85.7759 27.0453C85.7759 25.2369 86.3986 23.8953 87.6438 23.0203C88.8891 22.1453 90.7972 21.7078 93.3681 21.7078C94.3781 21.7078 95.4394 21.784 96.5516 21.9365C97.6647 22.089 98.8781 22.3278 100.192 22.6528L100.167 22.6753ZM111.435 17.294V22.1415H117.084V26.044H111.435V33.284C111.435 34.0756 111.593 34.6144 111.909 34.9003C112.225 35.1753 112.853 35.3128 113.792 35.3128H116.609V39.2153H111.91C109.747 39.2153 108.211 38.7681 107.303 37.874C106.405 36.9698 105.956 35.4406 105.956 33.2865V26.034H103.232V22.1315H105.956V17.284H111.436L111.435 17.294Z" fill="#EEEEEE"/>
</g>
<defs>
<clipPath id="clip0_107_287">
<rect width="118" height="60" fill="white"/>
</clipPath>
</defs>
</svg>
