<svg width="74" height="85" viewBox="0 0 74 85" fill="none" xmlns="http://www.w3.org/2000/svg">
<path d="M66.8751 44.2802C63.4078 40.305 59.84 36.3783 56.2219 32.5001C58.3827 28.0402 60.4932 23.5318 62.5032 18.9749C67.6288 7.53413 66.4228 2.78333 54.0611 10.0065C49.8903 12.4304 45.7195 14.9028 41.4984 17.3266C38.5839 14.418 35.6693 11.5578 32.7548 8.69759C22.8553 -0.94946 17.4785 -6.86373 18.8855 16.6964C19.1368 21.1564 19.3378 25.6163 19.4886 30.0762C16.172 31.9669 12.8554 33.8575 9.58914 35.7481C-6.03887 44.668 -0.461024 47.4312 11.3479 49.9036C14.3127 50.5338 17.2775 51.1156 20.2423 51.7458C20.4936 57.1753 20.8453 62.6048 21.3981 67.9858C24.0111 93.0487 27.9809 86.8436 36.2723 71.1368C38.8351 66.2406 41.4482 61.3443 44.011 56.4481C48.9355 57.4176 53.8601 58.4357 58.7847 59.5022C76.4227 63.4289 78.1815 57.3207 66.8751 44.2802Z" fill="#2D2D2D"/>
</svg>
