<svg width="40" height="60" viewBox="0 0 40 60" fill="none" xmlns="http://www.w3.org/2000/svg">
<path d="M10.4963 56.8234C10.6448 56.7501 10.7933 56.7134 10.7933 56.7501C10.8305 56.7867 10.9047 56.75 10.979 56.6767C11.0532 56.6033 11.1646 56.6033 11.2017 56.64C11.2388 56.6767 11.3131 56.64 11.3874 56.6033C11.4616 56.5666 11.6472 56.5299 11.7957 56.5666C12.0185 56.6033 12.0927 56.6033 12.2784 56.4199C12.3897 56.2732 12.5754 56.1998 12.7239 56.1998C13.0209 56.1998 13.4664 55.7229 14.1718 54.6224C14.246 54.5123 14.3574 54.4023 14.3945 54.4023C14.5059 54.4023 15.1371 53.8887 15.1371 53.7786C15.1371 53.742 15.2113 53.6686 15.3227 53.5952C15.4712 53.5219 15.5083 53.4485 15.5083 53.2284C15.4712 53.045 15.5083 52.9349 15.6568 52.8615C15.7682 52.7882 15.8425 52.6781 15.8425 52.6048C15.8425 52.4947 15.9538 52.3113 16.1023 52.1279C16.2509 51.9444 16.3622 51.7244 16.3622 51.6143C16.3622 51.5042 16.4365 51.3942 16.4736 51.3575C16.5479 51.3208 16.585 51.2475 16.585 51.1741C16.585 51.1007 16.6963 50.9173 16.8077 50.8073C16.9191 50.6605 17.0305 50.4771 17.0305 50.3304C17.0305 50.1836 17.1047 50.0369 17.1419 50.0002C17.2161 49.9635 17.2532 49.6701 17.2904 49.4133C17.3275 49.1198 17.3646 48.863 17.4389 48.7896C17.476 48.7163 17.5502 48.5329 17.5502 48.3861C17.5502 48.2394 17.5874 48.056 17.6616 47.9826C17.7359 47.9092 17.773 47.6891 17.8101 47.469C17.8473 47.2489 17.8844 46.8821 17.9586 46.662C17.9958 46.4052 17.9958 46.1851 17.9215 46.1117C17.8472 46.0017 17.8473 45.965 17.9586 45.8916C18.1071 45.8182 18.1071 45.7449 18.0329 45.4514C17.9958 45.1579 17.9958 45.0112 18.1443 44.7911C18.2556 44.6077 18.2928 44.4243 18.2185 44.3509C18.1814 44.2775 18.1814 44.0574 18.2556 43.874C18.3299 43.6906 18.367 43.3971 18.3299 43.2137C18.2928 43.0303 18.3299 42.8835 18.367 42.8835C18.4041 42.8835 18.4784 42.7735 18.4784 42.6267C18.4784 42.48 18.5155 42.3333 18.5526 42.2599C18.5898 42.2232 18.5898 42.1131 18.5526 42.0398C18.5155 41.9664 18.5155 41.8197 18.5526 41.7463C18.6269 41.6729 18.6269 41.4895 18.5898 41.2694C18.5155 41.0126 18.5526 40.9393 18.664 40.8659C18.7754 40.7925 18.8125 40.6825 18.7754 40.4991C18.7011 40.0589 18.8125 38.0779 18.961 37.8211C19.0724 37.5643 19.1095 36.5005 18.961 35.9503C18.9239 35.7668 18.9239 35.4734 18.961 35.2899C18.9981 35.1065 18.9982 34.8497 18.9239 34.7397C18.8497 34.593 18.8497 34.4829 18.9239 34.4095C18.9982 34.3362 18.9981 34.2628 18.961 34.2261C18.8868 34.1527 18.9239 32.7954 18.9982 31.2547C18.9982 30.8879 18.9981 30.1542 18.961 29.6773C18.9239 29.2004 18.8868 28.0999 18.9239 27.2195C18.961 25.6054 18.961 25.3119 18.8496 25.0918C18.8125 25.0184 18.8125 24.6883 18.8496 24.3948C18.8868 24.0647 18.8868 23.7712 18.8496 23.6978C18.8125 23.6244 18.8125 23.1842 18.8125 22.6707C18.8125 22.1571 18.8125 21.6802 18.7754 21.5701C18.7383 21.4601 18.7012 21.1299 18.7383 20.7998C18.7754 20.5063 18.7383 20.1762 18.7012 20.1028C18.664 20.0294 18.6269 19.8827 18.664 19.8093C18.7011 19.6993 18.664 19.4058 18.6269 19.1123C18.5527 18.8188 18.5526 18.2686 18.5526 17.8651C18.5898 17.4615 18.5527 17.0213 18.5155 16.8746C18.4042 16.5444 18.367 15.9942 18.4041 15.5907C18.4041 15.4439 18.367 15.2238 18.2928 15.0771C18.2185 14.967 18.1814 14.8203 18.1814 14.7469C18.1814 14.6736 18.1814 14.5635 18.1443 14.4535C18.1071 14.3801 18.1443 14.1967 18.2185 14.0866C18.2928 13.9766 18.3299 13.8665 18.2928 13.7931C18.2556 13.7565 18.2185 13.3529 18.1814 12.9127C18.1443 12.4725 18.0329 11.8122 17.9215 11.4087C17.8101 11.0052 17.6988 10.6383 17.6988 10.565C17.6988 10.4916 17.6245 10.2715 17.476 10.1248C17.3646 9.94134 17.2532 9.75791 17.2904 9.72123C17.2904 9.50113 16.8449 8.62071 16.6592 8.58403C16.5107 8.54734 16.4736 8.43729 16.5107 8.21719C16.5107 7.9604 16.4365 7.81366 16.1023 7.48351C15.8796 7.2634 15.6568 7.04331 15.6197 7.04331C15.4712 7.00662 15.1742 6.85989 14.9886 6.67647C14.8772 6.56642 14.7287 6.45636 14.6173 6.45636C14.5059 6.41968 14.3574 6.383 14.2832 6.30963C14.1347 6.16289 13.0209 5.42921 12.7239 5.28247C12.6125 5.2091 12.2784 5.09905 12.0185 5.06236C11.7586 4.989 11.2017 4.84226 10.7933 4.69552C8.97415 4.0719 8.67716 3.99853 8.04602 3.96185L7.37776 3.92517L6.41247 4.51211C4.22204 5.79604 3.25678 6.56641 2.73702 7.44682C2.55139 7.77698 2.10587 8.73077 1.77173 9.5745C0.880713 11.8122 0.620836 13.2429 0.360955 17.6083C0.175325 20.6897 -0.0845652 28.7235 0.0268125 28.9069C0.0639384 28.9436 0.0639384 29.9708 0.0268125 31.218C0.0268125 32.4653 0.0268125 34.0427 0.0268125 34.7397C0.0268125 35.4367 0.063952 36.6106 0.063952 37.3442C0.063952 38.7382 0.32382 45.378 0.398072 45.965C0.472323 46.6253 0.954965 49.0831 1.02922 49.2665C1.06634 49.3399 1.10347 49.5233 1.10347 49.5967C1.06635 50.0002 2.32864 53.0817 2.92265 54.0721C3.36816 54.8058 4.18492 55.6862 4.63043 55.9063C5.74421 56.4566 5.92984 56.4933 7.3035 56.6767C9.82806 56.8968 10.1993 56.9335 10.4963 56.8234ZM9.56817 53.9254C9.41967 53.852 9.23405 53.6319 9.1598 53.4852C9.08555 53.3384 8.8999 53.0816 8.7514 52.9349C8.6029 52.7882 8.49154 52.6414 8.49154 52.5681C8.49154 52.4947 8.41728 52.348 8.30591 52.2012C8.19453 52.0545 8.12027 51.8711 8.15739 51.761C8.15739 51.651 8.08313 51.5042 8.00888 51.4676C7.8975 51.3942 7.86039 51.3575 7.97176 51.2475C8.08314 51.1741 8.04603 51.064 7.93465 50.8073C7.67477 50.2203 7.48913 49.5233 7.48913 49.1198C7.48913 48.8997 7.45201 48.4962 7.37776 48.2027C7.30351 47.9092 7.22925 47.6157 7.22925 47.5424C7.22925 47.469 7.19212 47.3223 7.15499 47.2856C7.11786 47.2122 7.08075 46.9187 7.11787 46.6253C7.155 46.3318 7.11786 46.0383 7.08073 46.0017C7.04361 45.965 7.00649 45.6348 6.96936 45.3413C6.96936 45.0112 6.89511 44.7177 6.78373 44.571C6.67235 44.4242 6.67236 44.3509 6.74661 44.3509C6.89512 44.3142 6.96937 43.0669 6.85799 42.9569C6.74661 42.8835 6.7466 42.3699 6.8951 42.2966C7.00648 42.2232 7.04362 41.4895 6.93224 41.3428C6.89512 41.3061 6.85798 40.8659 6.8951 40.389C6.8951 39.9121 6.85798 39.4352 6.78373 39.3252C6.67235 39.1418 6.67237 39.0684 6.82087 38.7382C6.93225 38.4814 6.96937 38.1513 6.93224 37.5644C6.89512 36.1337 6.89511 36.0236 6.96936 35.51C7.00649 35.2166 7.04361 34.7397 6.96936 34.3728C6.93223 34.0427 6.93223 32.9789 6.96936 32.0618C7.00649 31.1447 7.04363 30.0441 7.0065 29.6406C6.96937 29.2371 6.96936 28.43 6.96936 27.8064C6.96936 27.1828 6.96936 26.4124 6.96936 26.119C6.96936 25.8255 7.00649 25.5687 7.04362 25.532C7.11787 25.4953 7.155 24.2481 7.11787 22.8908C7.11787 22.4873 7.11786 21.9003 7.15499 21.6068C7.22924 20.9832 7.22926 20.6897 7.37776 17.4615C7.48914 14.9303 7.56338 14.0499 7.86039 12.9494C7.93464 12.6193 8.00888 12.1791 8.00888 11.9956C8.00888 11.8122 8.04603 11.6288 8.12028 11.5921C8.1574 11.5554 8.23165 11.4821 8.23165 11.4087C8.23165 11.1152 9.38255 9.06091 9.53106 9.0976C9.60531 9.0976 9.79094 8.95086 9.97657 8.73076C10.1622 8.51066 10.3849 8.36392 10.4221 8.40061C10.5334 8.40061 10.8305 8.80414 11.0161 9.24434C11.4987 10.2715 11.9442 12.5459 12.2041 15.4072C12.2784 16.1042 12.3526 16.9846 12.3898 17.3515C12.4269 17.7183 12.464 18.3053 12.5011 18.6721C12.5383 19.039 12.5754 19.4792 12.5754 19.6259C12.6496 20.2862 12.6868 21.7169 12.761 23.9546C12.7981 25.2752 12.8724 26.8526 12.9095 27.5496C12.9466 28.2466 12.9838 29.2004 12.9838 29.714C12.9838 30.2276 13.0209 31.0713 13.0209 31.6216C13.058 32.1351 13.058 32.8321 13.0209 33.1623C12.9838 33.4924 13.0209 33.8593 13.058 33.9693C13.355 34.8864 12.7981 44.5343 12.2412 48.0193C12.167 48.4595 11.7215 50.1836 11.573 50.6605C11.4616 51.0273 10.5335 53.0083 10.1993 53.6686C9.97656 54.1088 9.97656 54.1455 9.56817 53.9254Z" fill="#EC8132"/>
<path d="M28.8416 0.0240952C27.8763 0.0974631 27.3937 0.280885 25.3518 1.1613C24.9434 1.34472 24.9062 1.41808 24.8691 1.63819C24.832 1.96834 24.9805 2.11508 25.8715 2.62866C27.0596 3.36234 28.5817 3.83923 28.7673 3.50907C28.8045 3.4357 28.9901 3.36234 29.1757 3.36234C29.3614 3.36234 29.7326 3.32566 30.0296 3.25229C30.3266 3.21561 31.1805 3.21561 31.9973 3.25229C33.371 3.32566 33.4452 3.32566 34.0021 3.61913C35.0416 4.16939 35.747 5.2699 35.7099 6.29705C35.6728 7.17747 35.2644 8.60814 34.856 9.45187C34.8189 9.56193 34.6332 9.92876 34.4476 10.2956C34.262 10.6624 34.0392 11.1393 33.8907 11.3961C33.7793 11.6529 33.5937 11.9831 33.5195 12.1298C33.4452 12.2765 33.371 12.4966 33.371 12.57C33.371 12.6434 33.2967 12.7534 33.1853 12.8268C32.9997 12.9735 32.6284 13.5605 32.6284 13.7806C32.6284 13.854 32.5542 13.964 32.4799 14.0007C32.4057 14.0374 32.2943 14.1841 32.2201 14.2941C32.1458 14.4042 31.5147 15.358 30.8093 16.3485C30.1039 17.3389 29.4727 18.3294 29.3985 18.4761C29.3242 18.6595 29.1757 18.9163 29.1015 19.0631C29.0272 19.2098 28.8416 19.7967 28.6931 20.347C28.3218 21.7043 28.1362 24.4556 28.359 25.5194C28.6188 26.7667 29.3985 28.4541 30.5494 30.1783C30.8835 30.6552 31.2548 31.1688 31.4033 31.3155C31.5518 31.4622 31.7003 31.609 31.7003 31.6457C31.7003 31.6823 32.0344 32.1225 32.4799 32.5627C33.5195 33.7 33.8165 34.1769 34.4105 36.011C34.8931 37.4417 35.0416 38.102 35.0787 39.496C35.1159 40.3031 35.0788 40.7433 34.9674 41.2202C34.8931 41.587 34.7817 42.1373 34.7075 42.4307C34.4105 43.8247 34.1135 44.6318 33.371 46.3559C32.9255 47.3464 32.0344 48.9238 31.5889 49.4374C31.4404 49.5841 31.3662 49.7675 31.329 49.7675C31.329 49.951 28.5075 53.0691 27.3937 54.1329C26.6883 54.7932 26.3542 55.747 26.3913 57.0676C26.3913 57.5812 26.4655 57.9847 26.5398 58.1682C26.7625 58.5717 27.4679 59.2687 27.6536 59.2687C27.7649 59.2687 27.8763 59.3787 27.9135 59.4521C27.9877 59.6355 28.359 59.7822 29.25 59.9657C29.547 60.039 29.6584 60.0023 29.9554 59.7822C30.1781 59.6355 30.3638 59.5255 30.4009 59.5255C30.438 59.5255 30.5123 59.4521 30.5494 59.3787C30.5865 59.3054 30.8093 59.0486 31.032 58.8285C31.2548 58.6084 31.5147 58.2782 31.5889 58.1315C31.6632 57.948 31.7745 57.838 31.8488 57.838C31.8859 57.838 32.0344 57.6913 32.1087 57.5078C32.1829 57.3244 32.3314 57.1777 32.4057 57.1777C32.4799 57.1777 32.7027 56.9576 32.9254 56.7008C33.1482 56.444 33.668 55.9304 34.0392 55.6003C34.4476 55.2334 34.7817 54.9033 34.7817 54.7932C34.7817 54.6832 35.0416 54.353 35.3758 54.0596C35.9327 53.546 36.6009 52.5188 36.638 52.1887C36.638 52.1153 36.7494 52.0419 36.8608 52.0419C36.9722 52.0419 37.0835 51.9319 37.1207 51.8585C37.1578 51.7485 37.2692 51.5284 37.4177 51.3816C37.5662 51.2349 37.7147 50.9414 37.7518 50.7947C37.7889 50.6113 37.9003 50.4278 37.9746 50.3545C38.0488 50.2811 38.1602 50.061 38.1973 49.8409C38.2345 49.6575 38.4201 49.254 38.5315 48.9972C38.68 48.7404 38.7913 48.4469 38.7913 48.3368C38.7913 48.2635 38.8656 48.0067 38.977 47.8233C39.0512 47.6399 39.1626 47.273 39.1626 47.0896C39.1626 46.8695 39.2369 46.6494 39.3111 46.6127C39.3854 46.576 39.4596 46.3192 39.4967 46.0625C39.5339 45.8057 39.571 45.5855 39.6081 45.5855C39.6452 45.5489 39.6081 45.4755 39.571 45.3655C39.4967 45.2187 39.5339 45.1087 39.6452 44.9252C39.7566 44.7785 39.8309 44.485 39.868 44.2649C39.9051 43.5679 39.868 41.9172 39.7937 41.7704C39.7566 41.6971 39.7195 41.4036 39.7566 41.0734C39.7937 40.1563 39.4596 38.7624 39.1626 38.3588C39.0883 38.2855 39.0512 38.0653 39.0512 37.8819C39.0512 37.6985 39.0141 37.4784 38.9399 37.3684C38.8656 37.2583 38.8285 37.1116 38.8285 37.0382C38.8285 36.9648 38.7542 36.8181 38.6428 36.7081C38.5315 36.598 38.4943 36.4879 38.5315 36.4513C38.6057 36.3412 38.0488 35.0939 37.7889 34.7638C37.6776 34.6171 37.5662 34.3969 37.5291 34.2869C37.4919 34.1768 37.3434 33.9201 37.1578 33.7C36.9722 33.4799 36.638 33.0396 36.4524 32.7462C36.2297 32.4527 35.7099 31.8658 35.3015 31.4256C34.0764 30.1783 33.1482 29.1145 33.074 28.8577C33.0368 28.7109 32.9254 28.5275 32.8512 28.4175C32.7769 28.3074 32.6284 28.0139 32.5171 27.7938C32.4057 27.537 32.2572 27.2803 32.2201 27.2069C32.0344 26.9501 32.1458 25.1893 32.3686 24.7124C32.4799 24.4923 32.5542 24.3089 32.5913 24.2355C32.6284 23.9787 32.8141 23.5752 32.9254 23.4651C32.9997 23.3918 33.074 23.245 33.1111 23.135C33.1482 23.0249 33.2225 22.9149 33.2596 22.9149C33.2967 22.9149 33.371 22.8415 33.371 22.7682C33.371 22.6581 33.4823 22.5114 33.6308 22.4013C33.7793 22.2913 33.8907 22.1812 33.8907 22.1078C33.8907 22.0345 34.0392 21.8877 34.1877 21.741C34.3734 21.5942 34.4847 21.4108 34.4847 21.3375C34.4847 21.2641 34.559 21.1541 34.6704 21.1174C34.7817 21.0807 34.8931 20.9339 34.9302 20.8239C34.9674 20.7138 35.0788 20.5671 35.1901 20.457C35.3015 20.347 35.3758 20.2003 35.3758 20.0902C35.3758 19.9802 35.4871 19.7601 35.6356 19.5766C35.7841 19.4299 35.8955 19.2098 35.8955 19.1364C35.8955 19.0631 35.9326 18.9897 36.0069 18.9897C36.044 18.9897 36.1183 18.953 36.1183 18.8796C36.1183 18.8063 36.2297 18.6962 36.3782 18.5862C36.5267 18.4761 36.6009 18.3661 36.5638 18.3294C36.5267 18.2927 36.6009 18.2193 36.7123 18.1827C36.8979 18.146 37.4548 17.2655 38.3458 15.5781C38.4572 15.3947 38.5686 15.2113 38.6057 15.1746C38.6428 15.1379 38.7171 15.0278 38.7171 14.8811C38.7171 14.7711 38.7913 14.6243 38.8285 14.5876C38.9027 14.5509 38.9027 14.5143 38.8656 14.4409C38.8285 14.4042 38.9027 14.2575 38.977 14.1107C39.1626 13.8906 39.4967 12.8635 39.5339 12.3866C39.5339 12.2399 39.6081 12.0931 39.6452 12.0197C39.6824 11.9464 39.7566 11.7263 39.7566 11.5429C39.7937 11.3594 39.8309 11.176 39.868 11.1027C39.9051 11.0293 39.9051 10.8825 39.868 10.7358C39.7937 10.5524 39.8309 10.2956 39.9051 9.89207C40.0907 9.12171 40.0165 8.49809 39.571 7.21415C39.4596 6.92068 39.3854 6.59052 39.3482 6.48047C39.3111 6.37042 39.274 6.22369 39.1997 6.15032C39.1255 6.07695 39.0141 5.78348 38.9399 5.56337C38.8285 5.2699 38.4572 4.75633 37.9003 4.16939C37.4177 3.65581 37.0464 3.17891 37.0464 3.14223C37.0464 2.88544 34.5961 0.941198 33.8536 0.647727C33.074 0.317571 32.1458 0.134149 30.7722 0.0607814C30.0296 -0.0125865 29.1757 -0.0125888 28.8416 0.0240952Z" fill="#EC8132"/>
</svg>
