<svg width="64" height="64" viewBox="0 0 64 64" fill="none" xmlns="http://www.w3.org/2000/svg">
<path fill-rule="evenodd" clip-rule="evenodd" d="M63.9821 41.7998C64.0698 41.2738 63.8068 38.5559 63.8068 38.2929C63.8068 38.0299 63.9821 35.8381 63.1056 34.8737C62.7551 34.4353 62.5798 34.1723 62.0539 34.0846C61.4404 33.997 61.791 33.8216 61.6157 30.7531C61.6157 30.1394 61.4404 29.8764 61.6157 28.8243C61.8786 26.1941 61.4404 22.4242 59.2492 20.9338C57.321 19.6187 55.4804 20.1448 54.8669 19.7941C54.7792 19.7064 54.6916 19.268 54.6916 19.1804C54.4286 17.5146 55.2174 17.6023 53.5522 15.2351C53.2892 14.8844 52.6757 14.4461 52.2375 14.3584C49.4328 13.131 50.1339 13.8324 48.5563 13.4817C46.8033 13.131 47.2416 13.657 46.7157 12.7803C46.891 13.0433 43.3851 7.51999 42.8592 6.38025C42.5963 5.94189 42.684 5.94189 40.8434 6.55559C40.1422 6.81861 38.9152 7.08162 38.7399 7.16929C38.6522 7.25697 38.3893 7.08162 38.3016 6.99395L36.9869 5.76655L35.9352 4.71447C34.8834 3.83775 34.7081 3.75009 34.5328 3.31173C34.3575 2.96104 34.0069 2.96103 33.9193 3.04871C33.5687 3.22405 29.4493 5.15284 28.9234 5.32819C26.3817 6.02956 16.6529 11.1145 14.0235 13.131C12.4458 14.3584 12.1829 13.394 10.0794 13.92C9.81643 14.0077 4.29469 14.5338 3.06764 15.4981C1.84058 16.1995 1.66528 16.2872 0.788815 17.4269C0.701168 17.5146 0.438234 18.1283 0.438234 18.216C0.26294 18.742 0.175299 20.7585 0.0876521 21.0215C0.0876521 21.0215 0 21.1968 0 22.7749C0 23.038 0.350603 29.9641 0.70119 32.4189C0.96413 34.0846 0.876467 36.8902 0.876467 39.608C0.876467 39.871 1.3147 48.5505 1.3147 49.4273C1.3147 49.4273 1.66528 50.304 2.10352 55.7397C2.19116 56.2657 2.27883 56.0903 2.36647 56.441C3.15529 58.9835 6.48587 59.7726 6.74881 59.8602C9.7288 61.1753 9.64113 60.6493 45.9269 61C45.7516 61 50.6598 61 50.6598 61C56.7075 60.9123 58.9863 57.4931 59.2492 57.2301C61.3527 54.8629 60.9145 49.6026 61.0898 47.1478C61.0898 46.7971 61.3527 46.8848 61.6157 46.7094C64.771 44.8683 63.8068 43.1149 63.9821 41.7998ZM61.7909 36.3641C62.2292 36.9778 61.528 37.6792 61.528 37.3285C61.528 37.0655 61.4404 35.9258 61.7909 36.3641ZM49.1698 14.1831C51.098 14.3584 52.5881 15.3228 52.851 15.6735C53.8151 17.1639 53.9904 16.9886 53.9027 19.2681C53.9027 19.8818 53.9904 20.0571 53.6398 19.9694C51.8869 19.9694 51.6239 20.2325 51.4486 19.7941C51.4486 19.7941 50.0463 18.3037 48.4687 15.5858C48.2934 15.3228 48.2057 14.8844 47.7675 14.3584C47.3292 13.92 47.8551 14.0954 49.1698 14.1831ZM42.5087 6.73093C42.684 6.99395 44.3493 9.97481 44.9628 10.7639C45.1381 11.0269 48.2934 16.1119 48.2934 16.1995C49.1698 18.3037 51.361 19.8818 50.3092 19.9694C49.4327 19.9694 49.5204 19.7941 48.9945 19.0927C48.7316 18.8297 48.0304 17.69 46.9787 15.9365C46.891 15.8488 43.9987 11.1145 43.9987 10.9392C43.911 10.4132 44.0863 9.97481 42.7716 10.7639C41.7199 11.3776 39.3534 10.5885 39.2658 9.09808C39.1781 8.3967 38.6522 8.92274 37.7757 9.3611C32.7799 11.5529 30.8516 12.5173 30.5887 12.6926C31.2022 12.4296 20.1588 16.4625 19.8082 16.5502C19.8082 16.5502 16.9158 17.3393 9.29056 19.9694C7.44998 20.5831 7.44997 20.7585 6.92409 20.5831C5.34645 20.3201 2.45411 20.7585 6.22292 19.6187C6.13528 19.6187 9.64115 18.479 9.72879 18.3913C11.5694 17.8653 42.5087 6.73093 42.5087 6.73093ZM21.1229 16.4625C30.6764 13.394 38.6522 9.53644 38.6522 9.53644C38.7399 9.53644 38.8275 9.53644 38.8275 9.62412C39.2658 11.1145 41.0187 11.4652 41.2816 11.5529C42.3334 11.8159 43.1222 11.2022 43.4728 11.2022C43.5604 11.2022 48.9945 19.7941 48.9069 19.9694C48.8192 20.0571 44.9628 20.0571 44.8751 20.0571C44.5246 20.0571 17.2664 21.5475 13.6729 21.1092C12.7088 21.0215 7.80057 20.8461 9.81644 20.3201C8.85233 20.4955 20.7723 16.5502 21.1229 16.4625ZM27.1705 8.65972C27.9593 8.30903 28.8358 7.60765 29.6246 7.34464C29.8876 7.25696 31.3775 6.38024 31.5528 6.73093C32.6922 8.3967 34.0946 7.95835 34.971 7.95835C35.1463 7.95835 35.4093 7.87068 35.4969 7.95835C35.9352 8.48438 35.8475 8.57205 35.3216 8.7474C37.1622 8.22136 12.2705 17.2516 12.2705 17.2516C10.6053 18.0406 12.9717 16.1119 17.2664 14.0077C17.2664 14.0077 20.7723 11.6406 24.0152 10.0625C24.0152 9.9748 23.8399 10.1501 27.1705 8.65972ZM14.3741 13.657C20.2464 9.36111 34.0946 3.57474 34.2699 3.92543C34.2699 3.92543 37.7757 7.25696 37.7757 7.34464C37.951 7.51998 38.214 7.69532 37.951 7.783C36.0228 8.65972 36.1981 8.30904 35.8475 7.51999C35.6722 7.08163 35.4969 7.51999 34.6205 7.51999C34.0946 7.51999 33.4811 7.78301 32.6046 7.08163C31.9034 6.46793 32.3417 5.67887 30.9393 6.29257C29.8876 6.73093 30.0628 6.81861 28.5728 7.43231C28.047 7.69533 27.6964 7.95835 26.8199 8.39671L23.6646 9.79946C20.6846 11.1145 21.5611 10.6762 20.4217 11.4652C20.6846 11.2899 17.617 13.2187 17.2664 13.394C17.2664 13.394 15.1629 14.2707 12.1829 16.2872C9.64113 18.0406 9.90408 18.0406 3.50587 19.9694C2.36646 20.3201 12.8841 14.7968 14.3741 13.657ZM7.88821 14.7968C8.76467 14.7091 8.76467 14.6214 9.11525 14.7091C9.81643 14.7091 10.43 14.4461 11.3941 14.4461H12.1829C12.1829 14.5338 11.7447 14.7091 11.7447 14.7091C11.7447 14.7091 12.1829 14.5338 4.73292 18.479C2.01587 19.8818 2.54177 20.2324 1.57766 19.7064C0.43825 19.1804 1.05176 15.6735 7.88821 14.7968ZM0.876467 20.3201C0.876467 20.2324 0.96413 20.1448 1.13942 20.1448C1.40236 20.3201 1.6653 20.4955 2.36647 20.5831C3.15529 20.6708 2.36646 20.8461 4.82057 20.9338C4.99586 20.9338 7.44998 21.1092 7.53762 21.1092C8.76468 21.1092 13.147 21.7229 15.2505 21.5475C15.6888 21.5475 29.8875 21.4599 34.5328 20.9338C39.6163 20.4078 53.5521 20.4078 53.8151 20.4078C57.1457 20.4955 58.548 20.7585 59.7751 22.3366C61.8786 24.8791 60.8268 29.3503 61.1774 32.5942C61.2651 33.5586 61.0898 33.9093 61.0021 36.1888C60.9145 37.5915 61.0021 38.0299 60.301 38.1176C59.5998 38.2052 59.2492 38.1176 58.8986 38.1176C58.811 38.1176 58.8986 36.3641 58.8986 36.2764C58.811 36.9778 59.1616 29.701 58.548 27.4216C58.2851 26.3695 57.7592 24.9667 56.9704 24.1777C56.0063 23.2133 53.2892 22.6873 52.5004 22.7749C51.0104 22.8626 52.588 22.7749 49.871 22.7749C49.3451 22.7749 29.274 23.564 29.274 23.564C29.1864 23.564 20.4217 23.827 19.6329 23.7393L13.9358 23.9147C8.15114 24.2654 4.20704 23.6517 3.9441 23.4763C3.9441 23.4763 1.3147 22.5996 1.22705 22.5996C0.350582 22.2489 0.876467 20.6708 0.876467 20.3201ZM2.71705 54.4246C2.54176 52.5835 2.62942 53.4602 3.76883 53.5479C3.76883 53.5479 4.20705 53.8109 7.62528 53.8985C8.4141 53.8985 8.4141 53.4602 8.15116 53.3725C7.27469 53.2848 5.17117 53.5479 3.33059 52.8465C2.80471 52.6711 2.45412 52.7588 2.45412 52.3204C2.36648 51.9698 2.27882 50.4793 2.27882 50.4793C2.36647 50.2163 2.80471 50.4793 3.68117 50.7423C4.11941 50.9177 5.52176 51.1807 6.83646 51.1807C7.0994 51.1807 7.18704 51.093 7.62528 51.1807C8.15116 51.2684 8.23879 50.83 7.80055 50.7423C6.92409 50.4793 7.09939 50.9177 5.2588 50.6547C2.89234 50.304 2.80471 49.8656 2.45412 49.778C1.8406 49.6026 1.92824 49.1643 1.92824 47.8492C1.92824 46.5341 2.27881 48.1122 7.01174 48.5505C7.36233 48.5505 7.62528 48.6382 7.71293 48.4629C8.06352 48.0245 6.22292 48.2875 5.2588 47.9368C4.99586 47.8492 3.24294 47.3231 2.89236 47.1478C1.75295 46.4464 1.84059 47.2355 1.84059 44.7807C1.84059 44.6053 1.92822 44.43 2.10352 44.5176C3.41822 45.1313 3.1553 45.3944 7.27469 46.0081C7.97587 46.0957 7.88821 45.6574 7.44997 45.5697C3.85646 45.1313 3.94411 44.8683 1.92824 43.7286C1.84059 43.6409 1.84059 43.5532 1.84059 43.4656L1.49001 38.2929C1.57765 37.4162 1.57766 33.6463 1.13942 31.4545C1.05178 31.0161 0.70119 24.5284 0.70119 24.09C0.525896 21.9859 0.175288 23.9147 8.67702 24.6161C11.92 24.8791 50.5722 22.7749 53.0263 23.3886C55.568 23.9147 56.1816 24.7037 56.9704 26.0188C58.4604 28.649 57.8468 31.8052 57.9345 35.7504C57.9345 36.0134 58.0221 38.2052 57.6716 38.2929C57.321 38.3806 56.7951 38.3806 54.1657 38.2929C52.5004 38.2929 47.3292 38.2052 45.7516 38.6436C43.911 39.1696 41.9828 41.3614 42.5087 43.9916C43.3851 48.3752 47.7675 48.0245 55.6557 48.0245C57.7592 48.0245 57.4963 47.5862 57.4963 49.2519C57.4963 50.4793 57.058 53.3725 56.0939 54.5999C55.3927 55.5643 55.4804 55.2136 54.8669 55.915C52.5004 58.7205 26.8199 57.3178 26.4693 57.3178C26.4693 57.3178 21.5611 57.4931 19.2823 57.5808C15.6011 57.7561 6.57352 56.5287 6.31058 56.441C5.69705 56.3534 5.52175 56.0903 4.90822 56.0027C4.03175 55.8273 2.8047 55.0383 2.71705 54.4246ZM60.7392 49.2519C60.5639 53.1972 60.7392 52.4081 60.038 55.0383C59.5121 57.1424 57.7592 58.9835 55.1298 59.8602C53.5521 60.3863 53.2892 60.474 48.9069 60.6493C44.0863 60.8247 34.4452 60.5616 12.7088 60.6493C10.5176 60.6493 6.13527 59.9479 4.82057 58.3698C4.38234 57.9315 3.41822 57.8438 2.97998 55.915C2.97998 55.8273 3.06765 55.8273 3.33059 56.0027C4.73294 57.4054 17.3541 58.3698 20.597 57.9315C25.067 57.3178 50.1339 59.3342 54.9545 56.441C55.6557 56.0027 55.9186 55.5643 56.2692 55.2136C58.1974 53.3725 58.1974 50.4793 58.3727 47.8492C58.3727 47.5862 59.1616 47.5862 59.4245 47.5862C61.1774 47.4985 60.8268 47.1478 60.7392 49.2519ZM63.2809 44.7807C62.1415 46.8848 61.4404 47.1478 59.4245 47.1478C60.7392 47.1478 49.2575 48.0245 46.1022 46.8848C42.0704 45.3944 42.5963 39.7833 46.1898 38.9066C48.8192 38.2929 59.3368 38.9943 61.0898 38.3806C62.3168 37.9422 62.8427 36.6271 62.5798 36.2764C62.2292 35.7504 61.8786 35.5751 61.6157 35.4874C61.528 35.3997 61.528 35.049 61.528 34.8737C61.6157 34.26 63.1933 35.3997 63.1056 37.0655C63.1056 37.9422 63.018 38.5559 62.4045 39.082C60.9145 40.397 60.1257 40.134 58.8986 40.397C58.7233 40.397 58.6357 40.5724 58.6357 40.66C58.6357 40.8354 58.9862 40.8354 59.1615 40.8354C59.6874 40.6601 60.6515 40.9231 62.2292 39.871C62.3168 39.7833 62.8427 39.4326 62.8427 39.4326C63.1933 39.2573 62.9304 40.2217 63.1056 40.66C63.2809 41.0984 61.6156 42.0628 61.2651 42.3258C61.0021 42.5012 59.9504 42.8519 58.548 42.8519C58.2851 42.8519 57.9345 43.1149 58.1974 43.2902C58.4604 43.4656 59.9504 43.2025 60.3886 43.1149C61.6156 42.7642 61.8786 42.6765 63.1056 41.7998H63.1933C63.4562 43.5532 63.1057 43.3779 62.3168 43.9916C61.528 44.693 59.5998 45.219 58.548 45.219C57.7592 45.219 58.0222 45.8327 58.548 45.745C60.6516 45.3943 61.6157 45.219 62.8427 44.1669C63.1057 43.9916 63.6315 44.1669 63.2809 44.7807ZM48.5563 39.608C46.7157 39.4326 43.9987 41.3614 45.401 44.0793C45.9269 45.0437 47.1539 45.6574 47.4169 45.745C47.8551 45.8327 49.5204 46.2711 50.5722 45.482C52.0622 44.2546 52.0622 43.5532 51.9745 42.3258C51.8869 41.3614 51.361 39.7833 48.5563 39.608ZM51.361 43.1149C51.361 43.9039 50.4845 45.5697 48.9945 45.482C48.0304 45.3943 47.7675 45.3943 47.5045 45.1313C46.9787 44.7806 46.6281 44.693 46.1022 43.9039C45.0504 42.2382 46.1898 40.6601 47.8551 40.134C48.2057 40.0464 49.9587 40.134 51.0981 41.9751C51.361 42.3258 51.2733 42.6765 51.361 43.1149Z" fill="#4A494E"/>
</svg>
