<svg width="99" height="99" viewBox="0 0 99 99" fill="none" xmlns="http://www.w3.org/2000/svg">
<path d="M69.532 14.7216C63.832 17.5109 58.132 20.3963 52.532 23.3779C48.432 19.5307 44.332 15.6834 40.332 11.8362C28.732 0.679206 21.932 -8.16947 24.932 17.7032C25.632 23.955 26.3321 30.2067 27.1321 36.5547C22.3321 38.9592 17.4321 41.4599 12.6321 43.7683C-6.86794 53.194 -1.96795 56.6566 14.932 59.8306C19.532 60.6962 24.132 61.6579 28.732 62.6197C28.832 69.3524 29.232 76.0851 29.832 82.8177C31.832 104.074 40.232 100.804 45.032 91.5703C49.032 83.972 53.332 76.4697 57.732 69.0638C64.432 70.6989 71.232 72.3341 77.932 73.9691C97.232 78.682 108.032 75.4118 89.032 57.3298C83.832 52.4245 78.632 47.5194 73.332 42.7103C76.332 37.7089 79.1321 32.7074 81.6321 27.5136C87.6321 14.9139 85.132 6.93097 69.532 14.7216Z" fill="#2D2D2D"/>
</svg>
