<svg width="64" height="61" viewBox="0 0 64 61" fill="none" xmlns="http://www.w3.org/2000/svg">
<path d="M62.1868 21.2573C61.9868 20.5841 61.7868 19.9108 61.4868 19.2376C58.9868 11.8316 53.3868 5.2913 44.2868 2.02114C19.1868 -7.11606 -10.2132 18.7567 3.48682 43.4753C17.7868 69.348 56.5868 64.4427 62.8868 35.7808C63.9868 30.6832 63.5868 25.7778 62.1868 21.3535C62.2868 21.3535 62.1868 21.3535 62.1868 21.2573ZM18.5868 38.4737C9.18682 25.7778 24.2868 11.1584 37.7868 14.3324C40.9868 15.1018 43.3868 16.4483 45.1868 18.1796C46.9868 20.1032 48.2868 22.5077 48.8868 25.2969C49.5868 29.1441 48.8868 33.4723 47.0868 37.3195C41.3868 46.6491 26.0868 48.5727 18.5868 38.4737Z" fill="#2D2D2D"/>
</svg>
